%TF.GenerationSoftware,KiCad,Pcbnew,9.0.0-9.0.0-2~ubuntu22.04.1*%
%TF.CreationDate,2025-03-13T08:20:24+01:00*%
%TF.ProjectId,detec_power,64657465-635f-4706-9f77-65722e6b6963,rev?*%
%TF.SameCoordinates,Original*%
%TF.FileFunction,Paste,Bot*%
%TF.FilePolarity,Positive*%
%FSLAX46Y46*%
G04 Gerber Fmt 4.6, Leading zero omitted, Abs format (unit mm)*
G04 Created by KiCad (PCBNEW 9.0.0-9.0.0-2~ubuntu22.04.1) date 2025-03-13 08:20:24*
%MOMM*%
%LPD*%
G01*
G04 APERTURE LIST*
%ADD10R,2.100000X2.600000*%
G04 APERTURE END LIST*
D10*
%TO.C,R4*%
X134320000Y-113220000D03*
X139220000Y-113220000D03*
%TD*%
%TO.C,R7*%
X145330000Y-45050000D03*
X150230000Y-45050000D03*
%TD*%
%TO.C,R2*%
X134760000Y-59220000D03*
X139660000Y-59220000D03*
%TD*%
%TO.C,R8*%
X144870000Y-80980000D03*
X149770000Y-80980000D03*
%TD*%
%TO.C,R2*%
X134450000Y-91010000D03*
X139350000Y-91010000D03*
%TD*%
%TO.C,R4*%
X134910000Y-49200000D03*
X139810000Y-49200000D03*
%TD*%
%TO.C,R7*%
X144740000Y-109070000D03*
X149640000Y-109070000D03*
%TD*%
%TO.C,R4*%
X134600000Y-80990000D03*
X139500000Y-80990000D03*
%TD*%
%TO.C,R1*%
X134260000Y-118240000D03*
X139160000Y-118240000D03*
%TD*%
%TO.C,R1*%
X134540000Y-86010000D03*
X139440000Y-86010000D03*
%TD*%
%TO.C,R3*%
X135000000Y-45050000D03*
X139900000Y-45050000D03*
%TD*%
%TO.C,R3*%
X134410000Y-109070000D03*
X139310000Y-109070000D03*
%TD*%
%TO.C,R5*%
X144800000Y-86010000D03*
X149700000Y-86010000D03*
%TD*%
%TO.C,R6*%
X144780000Y-91000000D03*
X149680000Y-91000000D03*
%TD*%
%TO.C,R8*%
X144590000Y-113210000D03*
X149490000Y-113210000D03*
%TD*%
%TO.C,R8*%
X145180000Y-49190000D03*
X150080000Y-49190000D03*
%TD*%
%TO.C,R6*%
X145090000Y-59210000D03*
X149990000Y-59210000D03*
%TD*%
%TO.C,R5*%
X144520000Y-118240000D03*
X149420000Y-118240000D03*
%TD*%
%TO.C,R7*%
X145020000Y-76840000D03*
X149920000Y-76840000D03*
%TD*%
%TO.C,R6*%
X144500000Y-123230000D03*
X149400000Y-123230000D03*
%TD*%
%TO.C,R1*%
X134850000Y-54220000D03*
X139750000Y-54220000D03*
%TD*%
%TO.C,R3*%
X134690000Y-76840000D03*
X139590000Y-76840000D03*
%TD*%
%TO.C,R5*%
X145110000Y-54220000D03*
X150010000Y-54220000D03*
%TD*%
%TO.C,R2*%
X134170000Y-123240000D03*
X139070000Y-123240000D03*
%TD*%
M02*
