%TF.GenerationSoftware,KiCad,Pcbnew,9.0.0-9.0.0-2~ubuntu22.04.1*%
%TF.CreationDate,2025-03-13T08:20:23+01:00*%
%TF.ProjectId,detec_power,64657465-635f-4706-9f77-65722e6b6963,rev?*%
%TF.SameCoordinates,Original*%
%TF.FileFunction,Paste,Top*%
%TF.FilePolarity,Positive*%
%FSLAX46Y46*%
G04 Gerber Fmt 4.6, Leading zero omitted, Abs format (unit mm)*
G04 Created by KiCad (PCBNEW 9.0.0-9.0.0-2~ubuntu22.04.1) date 2025-03-13 08:20:23*
%MOMM*%
%LPD*%
G01*
G04 APERTURE LIST*
G04 Aperture macros list*
%AMRoundRect*
0 Rectangle with rounded corners*
0 $1 Rounding radius*
0 $2 $3 $4 $5 $6 $7 $8 $9 X,Y pos of 4 corners*
0 Add a 4 corners polygon primitive as box body*
4,1,4,$2,$3,$4,$5,$6,$7,$8,$9,$2,$3,0*
0 Add four circle primitives for the rounded corners*
1,1,$1+$1,$2,$3*
1,1,$1+$1,$4,$5*
1,1,$1+$1,$6,$7*
1,1,$1+$1,$8,$9*
0 Add four rect primitives between the rounded corners*
20,1,$1+$1,$2,$3,$4,$5,0*
20,1,$1+$1,$4,$5,$6,$7,0*
20,1,$1+$1,$6,$7,$8,$9,0*
20,1,$1+$1,$8,$9,$2,$3,0*%
G04 Aperture macros list end*
%ADD10RoundRect,0.250000X-0.425000X0.450000X-0.425000X-0.450000X0.425000X-0.450000X0.425000X0.450000X0*%
%ADD11R,1.600000X1.600000*%
G04 APERTURE END LIST*
D10*
%TO.C,C1*%
X167550000Y-120760000D03*
X167550000Y-123460000D03*
%TD*%
%TO.C,C2*%
X167620000Y-111590000D03*
X167620000Y-114290000D03*
%TD*%
D11*
%TO.C,U1*%
X155540000Y-86000000D03*
X155540000Y-88540000D03*
X155540000Y-91080000D03*
X163160000Y-91080000D03*
X163160000Y-88540000D03*
X163160000Y-86000000D03*
%TD*%
D10*
%TO.C,C2*%
X167900000Y-79360000D03*
X167900000Y-82060000D03*
%TD*%
%TO.C,C1*%
X168140000Y-56740000D03*
X168140000Y-59440000D03*
%TD*%
D11*
%TO.C,U2*%
X155340000Y-109070000D03*
X155340000Y-111610000D03*
X155340000Y-114150000D03*
X162960000Y-114150000D03*
X162960000Y-111610000D03*
X162960000Y-109070000D03*
%TD*%
%TO.C,U2*%
X155930000Y-45050000D03*
X155930000Y-47590000D03*
X155930000Y-50130000D03*
X163550000Y-50130000D03*
X163550000Y-47590000D03*
X163550000Y-45050000D03*
%TD*%
%TO.C,U1*%
X155850000Y-54210000D03*
X155850000Y-56750000D03*
X155850000Y-59290000D03*
X163470000Y-59290000D03*
X163470000Y-56750000D03*
X163470000Y-54210000D03*
%TD*%
%TO.C,U2*%
X155620000Y-76840000D03*
X155620000Y-79380000D03*
X155620000Y-81920000D03*
X163240000Y-81920000D03*
X163240000Y-79380000D03*
X163240000Y-76840000D03*
%TD*%
D10*
%TO.C,C2*%
X168210000Y-47570000D03*
X168210000Y-50270000D03*
%TD*%
D11*
%TO.C,U1*%
X155260000Y-118230000D03*
X155260000Y-120770000D03*
X155260000Y-123310000D03*
X162880000Y-123310000D03*
X162880000Y-120770000D03*
X162880000Y-118230000D03*
%TD*%
D10*
%TO.C,C1*%
X167830000Y-88530000D03*
X167830000Y-91230000D03*
%TD*%
M02*
