M48
; DRILL file {KiCad 9.0.0-9.0.0-2~ubuntu22.04.1} date 2025-03-13T08:20:20+0100
; FORMAT={-:-/ absolute / metric / decimal}
; #@! TF.CreationDate,2025-03-13T08:20:20+01:00
; #@! TF.GenerationSoftware,Kicad,Pcbnew,9.0.0-9.0.0-2~ubuntu22.04.1
; #@! TF.FileFunction,Plated,1,2,PTH
FMAT,2
METRIC
; #@! TA.AperFunction,Plated,PTH,ViaDrill
T1C0.300
; #@! TA.AperFunction,Plated,PTH,ComponentDrill
T2C1.300
; #@! TA.AperFunction,Plated,PTH,ComponentDrill
T3C2.500
%
G90
G05
T1
X135.88Y-124.5
X135.89Y-123.86
X135.9Y-121.98
X135.9Y-123.23
X135.91Y-122.6
X135.96Y-119.47
X135.97Y-118.83
X135.98Y-116.95
X135.98Y-118.2
X135.99Y-117.57
X136.03Y-114.49
X136.04Y-113.85
X136.05Y-111.97
X136.05Y-113.22
X136.06Y-110.32
X136.06Y-112.59
X136.07Y-109.68
X136.08Y-107.8
X136.08Y-109.05
X136.09Y-108.42
X136.16Y-92.27
X136.17Y-91.63
X136.18Y-89.75
X136.18Y-91.0
X136.19Y-90.37
X136.24Y-87.24
X136.25Y-86.6
X136.26Y-84.72
X136.26Y-85.97
X136.27Y-85.34
X136.31Y-82.26
X136.32Y-81.62
X136.33Y-79.74
X136.33Y-80.99
X136.34Y-78.09
X136.34Y-80.36
X136.35Y-77.45
X136.36Y-75.57
X136.36Y-76.82
X136.37Y-76.19
X136.47Y-60.48
X136.48Y-59.84
X136.49Y-57.96
X136.49Y-59.21
X136.5Y-58.58
X136.55Y-55.45
X136.56Y-54.81
X136.57Y-52.93
X136.57Y-54.18
X136.58Y-53.55
X136.6Y-124.5
X136.61Y-123.86
X136.62Y-50.47
X136.62Y-123.23
X136.63Y-49.83
X136.64Y-47.95
X136.64Y-49.2
X136.64Y-121.98
X136.64Y-122.61
X136.65Y-46.3
X136.65Y-48.57
X136.66Y-45.66
X136.67Y-43.78
X136.67Y-45.03
X136.68Y-44.4
X136.68Y-119.47
X136.69Y-118.83
X136.7Y-118.2
X136.72Y-116.95
X136.72Y-117.58
X136.75Y-114.49
X136.76Y-113.85
X136.77Y-113.22
X136.78Y-110.32
X136.79Y-109.68
X136.79Y-111.97
X136.79Y-112.6
X136.8Y-109.05
X136.82Y-107.8
X136.82Y-108.43
X136.88Y-92.27
X136.89Y-91.63
X136.9Y-91.0
X136.92Y-89.75
X136.92Y-90.38
X136.96Y-87.24
X136.97Y-86.6
X136.98Y-85.97
X137.0Y-84.72
X137.0Y-85.35
X137.03Y-82.26
X137.04Y-81.62
X137.05Y-80.99
X137.06Y-78.09
X137.07Y-77.45
X137.07Y-79.74
X137.07Y-80.37
X137.08Y-76.82
X137.1Y-75.57
X137.1Y-76.2
X137.19Y-60.48
X137.2Y-59.84
X137.21Y-59.21
X137.23Y-57.96
X137.23Y-58.59
X137.27Y-55.45
X137.28Y-54.81
X137.29Y-54.18
X137.31Y-52.93
X137.31Y-53.56
X137.34Y-50.47
X137.35Y-49.83
X137.35Y-124.49
X137.36Y-49.2
X137.36Y-123.85
X137.37Y-46.3
X137.37Y-123.22
X137.38Y-45.66
X137.38Y-47.95
X137.38Y-48.58
X137.38Y-122.6
X137.39Y-45.03
X137.39Y-121.98
X137.41Y-43.78
X137.41Y-44.41
X137.43Y-119.46
X137.44Y-118.82
X137.45Y-118.19
X137.46Y-117.57
X137.47Y-116.95
X137.5Y-114.48
X137.51Y-113.84
X137.52Y-113.21
X137.53Y-110.31
X137.53Y-112.59
X137.54Y-109.67
X137.54Y-111.97
X137.55Y-109.04
X137.56Y-108.42
X137.57Y-107.8
X137.63Y-92.26
X137.64Y-91.62
X137.65Y-90.99
X137.66Y-90.37
X137.67Y-89.75
X137.71Y-87.23
X137.72Y-86.59
X137.73Y-85.96
X137.74Y-85.34
X137.75Y-84.72
X137.78Y-82.25
X137.79Y-81.61
X137.8Y-80.98
X137.81Y-78.08
X137.81Y-80.36
X137.82Y-77.44
X137.82Y-79.74
X137.83Y-76.81
X137.84Y-76.19
X137.85Y-75.57
X137.94Y-60.47
X137.95Y-59.83
X137.96Y-59.2
X137.97Y-58.58
X137.98Y-57.96
X138.02Y-55.44
X138.03Y-54.8
X138.04Y-54.17
X138.05Y-53.55
X138.06Y-52.93
X138.09Y-50.46
X138.1Y-49.82
X138.11Y-49.19
X138.12Y-46.29
X138.12Y-48.57
X138.13Y-45.65
X138.13Y-47.95
X138.14Y-45.02
X138.15Y-44.4
X138.16Y-43.78
X146.19Y-124.49
X146.2Y-123.85
X146.21Y-121.97
X146.21Y-123.22
X146.22Y-119.51
X146.22Y-122.59
X146.23Y-118.87
X146.24Y-116.99
X146.24Y-118.24
X146.25Y-117.61
X146.31Y-114.46
X146.32Y-113.82
X146.33Y-111.94
X146.33Y-113.19
X146.34Y-112.56
X146.47Y-92.26
X146.48Y-91.62
X146.49Y-89.74
X146.49Y-90.99
X146.49Y-110.33
X146.5Y-87.28
X146.5Y-90.36
X146.5Y-109.69
X146.51Y-86.64
X146.51Y-107.81
X146.51Y-109.06
X146.52Y-84.76
X146.52Y-86.01
X146.52Y-108.43
X146.53Y-85.38
X146.59Y-82.23
X146.6Y-81.59
X146.61Y-79.71
X146.61Y-80.96
X146.62Y-80.33
X146.77Y-78.1
X146.78Y-60.47
X146.78Y-77.46
X146.79Y-59.83
X146.79Y-75.58
X146.79Y-76.83
X146.8Y-57.95
X146.8Y-59.2
X146.8Y-76.2
X146.81Y-55.49
X146.81Y-58.57
X146.82Y-54.85
X146.83Y-52.97
X146.83Y-54.22
X146.84Y-53.59
X146.9Y-50.44
X146.91Y-49.8
X146.91Y-124.49
X146.92Y-47.92
X146.92Y-49.17
X146.92Y-123.85
X146.93Y-48.54
X146.93Y-123.22
X146.94Y-119.51
X146.95Y-118.87
X146.95Y-121.97
X146.95Y-122.6
X146.96Y-118.24
X146.98Y-116.99
X146.98Y-117.62
X147.03Y-114.46
X147.04Y-113.82
X147.05Y-113.19
X147.07Y-111.94
X147.07Y-112.57
X147.08Y-46.31
X147.09Y-45.67
X147.1Y-43.79
X147.1Y-45.04
X147.11Y-44.41
X147.19Y-92.26
X147.2Y-91.62
X147.21Y-90.99
X147.21Y-110.33
X147.22Y-87.28
X147.22Y-109.69
X147.23Y-86.64
X147.23Y-89.74
X147.23Y-90.37
X147.23Y-109.06
X147.24Y-86.01
X147.25Y-107.81
X147.25Y-108.44
X147.26Y-84.76
X147.26Y-85.39
X147.31Y-82.23
X147.32Y-81.59
X147.33Y-80.96
X147.35Y-79.71
X147.35Y-80.34
X147.49Y-78.1
X147.5Y-60.47
X147.5Y-77.46
X147.51Y-59.83
X147.51Y-76.83
X147.52Y-59.2
X147.53Y-55.49
X147.53Y-75.58
X147.53Y-76.21
X147.54Y-54.85
X147.54Y-57.95
X147.54Y-58.58
X147.55Y-54.22
X147.57Y-52.97
X147.57Y-53.6
X147.62Y-50.44
X147.63Y-49.8
X147.64Y-49.17
X147.66Y-47.92
X147.66Y-48.55
X147.66Y-124.48
X147.67Y-123.84
X147.68Y-123.21
X147.69Y-119.5
X147.69Y-122.59
X147.7Y-118.86
X147.7Y-121.97
X147.71Y-118.23
X147.72Y-117.61
X147.73Y-116.99
X147.78Y-114.45
X147.79Y-113.81
X147.8Y-46.31
X147.8Y-113.18
X147.81Y-45.67
X147.81Y-112.56
X147.82Y-45.04
X147.82Y-111.94
X147.84Y-43.79
X147.84Y-44.42
X147.94Y-92.25
X147.95Y-91.61
X147.96Y-90.98
X147.96Y-110.32
X147.97Y-87.27
X147.97Y-90.36
X147.97Y-109.68
X147.98Y-86.63
X147.98Y-89.74
X147.98Y-109.05
X147.99Y-86.0
X147.99Y-108.43
X148.0Y-85.38
X148.0Y-107.81
X148.01Y-84.76
X148.06Y-82.22
X148.07Y-81.58
X148.08Y-80.95
X148.09Y-80.33
X148.1Y-79.71
X148.24Y-78.09
X148.25Y-60.46
X148.25Y-77.45
X148.26Y-59.82
X148.26Y-76.82
X148.27Y-59.19
X148.27Y-76.2
X148.28Y-55.48
X148.28Y-58.57
X148.28Y-75.58
X148.29Y-54.84
X148.29Y-57.95
X148.3Y-54.21
X148.31Y-53.59
X148.32Y-52.97
X148.37Y-50.43
X148.38Y-49.79
X148.39Y-49.16
X148.4Y-48.54
X148.41Y-47.92
X148.55Y-46.3
X148.56Y-45.66
X148.57Y-45.03
X148.58Y-44.41
X148.59Y-43.79
X151.19Y-123.2
X151.2Y-118.27
X151.26Y-113.25
X151.47Y-90.97
X151.48Y-86.04
X151.51Y-109.07
X151.54Y-81.02
X151.78Y-59.18
X151.79Y-54.25
X151.79Y-76.84
X151.85Y-49.23
X152.1Y-45.05
T2
X125.915Y-113.22
X125.915Y-118.22
X125.915Y-123.22
X126.195Y-80.99
X126.195Y-85.99
X126.195Y-90.99
X126.505Y-49.2
X126.505Y-54.2
X126.505Y-59.2
X177.89Y-113.17
X177.89Y-118.17
X177.89Y-123.17
X178.17Y-80.94
X178.17Y-85.94
X178.17Y-90.94
X178.48Y-49.15
X178.48Y-54.15
X178.48Y-59.15
T3
X121.61Y-65.13
X121.62Y-97.05
X121.64Y-73.92
X121.64Y-106.12
X121.74Y-129.3
X121.87Y-42.15
X181.77Y-129.2
X181.81Y-106.42
X182.05Y-96.97
X182.09Y-74.19
X182.36Y-65.18
X182.4Y-42.4
M30
