%TF.GenerationSoftware,KiCad,Pcbnew,9.0.0-9.0.0-2~ubuntu22.04.1*%
%TF.CreationDate,2025-03-13T08:20:23+01:00*%
%TF.ProjectId,detec_power,64657465-635f-4706-9f77-65722e6b6963,rev?*%
%TF.SameCoordinates,Original*%
%TF.FileFunction,Copper,L2,Bot*%
%TF.FilePolarity,Positive*%
%FSLAX46Y46*%
G04 Gerber Fmt 4.6, Leading zero omitted, Abs format (unit mm)*
G04 Created by KiCad (PCBNEW 9.0.0-9.0.0-2~ubuntu22.04.1) date 2025-03-13 08:20:23*
%MOMM*%
%LPD*%
G01*
G04 APERTURE LIST*
%TA.AperFunction,EtchedComponent*%
%ADD10C,0.253998*%
%TD*%
%TA.AperFunction,EtchedComponent*%
%ADD11C,0.263102*%
%TD*%
%TA.AperFunction,EtchedComponent*%
%ADD12C,0.254000*%
%TD*%
%TA.AperFunction,EtchedComponent*%
%ADD13C,0.000000*%
%TD*%
%TA.AperFunction,ComponentPad*%
%ADD14R,2.600000X2.600000*%
%TD*%
%TA.AperFunction,ComponentPad*%
%ADD15C,2.600000*%
%TD*%
%TA.AperFunction,ComponentPad*%
%ADD16C,5.000000*%
%TD*%
%TA.AperFunction,SMDPad,CuDef*%
%ADD17R,2.100000X2.600000*%
%TD*%
%TA.AperFunction,ViaPad*%
%ADD18C,0.600000*%
%TD*%
%TA.AperFunction,Conductor*%
%ADD19C,0.600000*%
%TD*%
%TA.AperFunction,Conductor*%
%ADD20C,0.200000*%
%TD*%
%TA.AperFunction,Conductor*%
%ADD21C,0.400000*%
%TD*%
G04 APERTURE END LIST*
D10*
%TO.C,REF\u002A\u002A*%
X125675562Y-128943004D02*
X125676092Y-128930230D01*
X125675709Y-128956159D02*
X125675562Y-128943004D01*
X125676092Y-128930230D02*
X125677257Y-128917803D01*
X125677212Y-128978412D02*
X125675709Y-128956159D01*
X125677257Y-128917803D02*
X125679014Y-128905690D01*
X125679014Y-128905690D02*
X125681322Y-128893858D01*
X125679898Y-128997539D02*
X125677212Y-128978412D01*
X125681322Y-128893858D02*
X125684138Y-128882273D01*
X125683748Y-129013715D02*
X125679898Y-128997539D01*
X125684138Y-128882273D02*
X125691126Y-128859711D01*
X125688744Y-129027115D02*
X125683748Y-129013715D01*
X125691126Y-128859711D02*
X125699641Y-128837738D01*
X125694868Y-129037910D02*
X125688744Y-129027115D01*
X125699641Y-128837738D02*
X125709345Y-128816086D01*
X125702101Y-129046276D02*
X125694868Y-129037910D01*
X125709345Y-128816086D02*
X125730974Y-128772679D01*
X125710425Y-129052385D02*
X125702101Y-129046276D01*
X125719821Y-129056412D02*
X125710425Y-129052385D01*
X125730271Y-129058530D02*
X125719821Y-129056412D01*
X125730974Y-128772679D02*
X125753314Y-128727354D01*
X125741757Y-129058914D02*
X125730271Y-129058530D01*
X125753314Y-128727354D02*
X125763908Y-128703306D01*
X125754260Y-129057736D02*
X125741757Y-129058914D01*
X125763908Y-128703306D02*
X125773667Y-128677977D01*
X125767761Y-129055171D02*
X125754260Y-129057736D01*
X125773667Y-128677977D02*
X125782255Y-128651102D01*
X125782243Y-129051392D02*
X125767761Y-129055171D01*
X125782255Y-128651102D02*
X125786004Y-128637000D01*
X125786004Y-128637000D02*
X125789334Y-128622412D01*
X125789334Y-128622412D02*
X125792202Y-128607304D01*
X125792202Y-128607304D02*
X125794567Y-128591641D01*
X125794567Y-128591641D02*
X125796386Y-128575392D01*
X125796386Y-128575392D02*
X125797617Y-128558523D01*
X125797617Y-128558523D02*
X125800343Y-128491583D01*
X125797686Y-129046572D02*
X125782243Y-129051392D01*
X125800343Y-128491583D02*
X125802384Y-128428573D01*
X125802384Y-128428573D02*
X125803731Y-128398675D01*
X125803731Y-128398675D02*
X125805607Y-128369920D01*
X125805607Y-128369920D02*
X125808245Y-128342362D01*
X125808245Y-128342362D02*
X125811878Y-128316052D01*
X125811878Y-128316052D02*
X125816740Y-128291046D01*
X125816740Y-128291046D02*
X125819705Y-128279049D01*
X125819705Y-128279049D02*
X125823064Y-128267397D01*
X125823064Y-128267397D02*
X125826847Y-128256098D01*
X125826847Y-128256098D02*
X125831083Y-128245158D01*
X125831083Y-128245158D02*
X125835802Y-128234583D01*
X125831385Y-129034509D02*
X125797686Y-129046572D01*
X125835802Y-128234583D02*
X125841032Y-128224382D01*
X125841032Y-128224382D02*
X125846802Y-128214559D01*
X125846802Y-128214559D02*
X125853142Y-128205122D01*
X125853142Y-128205122D02*
X125860081Y-128196078D01*
X125860081Y-128196078D02*
X125867648Y-128187434D01*
X125867648Y-128187434D02*
X125875872Y-128179195D01*
X125875872Y-128179195D02*
X125884783Y-128171369D01*
X125884783Y-128171369D02*
X125894409Y-128163962D01*
X125894409Y-128163962D02*
X125904779Y-128156981D01*
X125904779Y-128156981D02*
X125919492Y-128148924D01*
X125909514Y-129005546D02*
X125831385Y-129034509D01*
X125919492Y-128148924D02*
X125934565Y-128142959D01*
X125934565Y-128142959D02*
X125949969Y-128138976D01*
X125949969Y-128138976D02*
X125965676Y-128136867D01*
X125953649Y-128991426D02*
X125909514Y-129005546D01*
X125965676Y-128136867D02*
X125981656Y-128136523D01*
X125976920Y-128985065D02*
X125953649Y-128991426D01*
X125981656Y-128136523D02*
X125997880Y-128137836D01*
X125997880Y-128137836D02*
X126014319Y-128140696D01*
X126000969Y-128979400D02*
X125976920Y-128985065D01*
X126014319Y-128140696D02*
X126030944Y-128144994D01*
X126025776Y-128974607D02*
X126000969Y-128979400D01*
X126030944Y-128144994D02*
X126047725Y-128150623D01*
X126047725Y-128150623D02*
X126064635Y-128157474D01*
X126051325Y-128970859D02*
X126025776Y-128974607D01*
X126064635Y-128157474D02*
X126081643Y-128165437D01*
X126077596Y-128968329D02*
X126051325Y-128970859D01*
X126081643Y-128165437D02*
X126098720Y-128174404D01*
X126098720Y-128174404D02*
X126132967Y-128194915D01*
X126104571Y-128967191D02*
X126077596Y-128968329D01*
X126132231Y-128967619D02*
X126104571Y-128967191D01*
X126132967Y-128194915D02*
X126167143Y-128218137D01*
X126160559Y-128969787D02*
X126132231Y-128967619D01*
X126167143Y-128218137D02*
X126201014Y-128243200D01*
X126189535Y-128973868D02*
X126160559Y-128969787D01*
X126197756Y-131045243D02*
X126198491Y-131034001D01*
X126198428Y-131056762D02*
X126197756Y-131045243D01*
X126198491Y-131034001D02*
X126200733Y-131023044D01*
X126200408Y-131068550D02*
X126198428Y-131056762D01*
X126200733Y-131023044D02*
X126204583Y-131012383D01*
X126201014Y-128243200D02*
X126234349Y-128269235D01*
X126203594Y-131080598D02*
X126200408Y-131068550D01*
X126204583Y-131012383D02*
X126210139Y-131002024D01*
X126207888Y-131092898D02*
X126203594Y-131080598D01*
X126210139Y-131002024D02*
X126217502Y-130991976D01*
X126213189Y-131105440D02*
X126207888Y-131092898D01*
X126217502Y-130991976D02*
X126226772Y-130982249D01*
X126219142Y-128980036D02*
X126189535Y-128973868D01*
X126219398Y-131118217D02*
X126213189Y-131105440D01*
X126226772Y-130982249D02*
X126237545Y-130973446D01*
X126234138Y-131144440D02*
X126219398Y-131118217D01*
X126234349Y-128269235D02*
X126298477Y-128320740D01*
X126237545Y-130973446D02*
X126249323Y-130966096D01*
X126249323Y-130966096D02*
X126262070Y-130960092D01*
X126251307Y-131171498D02*
X126234138Y-131144440D01*
X126262070Y-130960092D02*
X126275749Y-130955325D01*
X126275749Y-130955325D02*
X126290323Y-130951689D01*
X126289739Y-131227844D02*
X126251307Y-131171498D01*
X126290323Y-130951689D02*
X126305754Y-130949076D01*
X126298477Y-128320740D02*
X126328805Y-128344470D01*
X126305754Y-130949076D02*
X126339040Y-130946489D01*
X126309402Y-131256996D02*
X126289739Y-131227844D01*
X126328296Y-131286708D02*
X126309402Y-131256996D01*
X126328805Y-128344470D02*
X126357665Y-128365693D01*
X126335582Y-129011274D02*
X126219142Y-128980036D01*
X126339040Y-130946489D02*
X126375311Y-130946705D01*
X126345622Y-131316912D02*
X126328296Y-131286708D01*
X126353448Y-131332178D02*
X126345622Y-131316912D01*
X126357665Y-128365693D02*
X126384823Y-128383537D01*
X126360581Y-131347541D02*
X126353448Y-131332178D01*
X126366923Y-131362992D02*
X126360581Y-131347541D01*
X126372373Y-131378524D02*
X126366923Y-131362992D01*
X126375311Y-130946705D02*
X126414270Y-130948863D01*
X126376831Y-131394128D02*
X126372373Y-131378524D01*
X126380198Y-131409794D02*
X126376831Y-131394128D01*
X126384823Y-128383537D02*
X126397692Y-128390921D01*
X126387062Y-131456114D02*
X126380198Y-131409794D01*
X126391349Y-131500903D02*
X126387062Y-131456114D01*
X126393656Y-131543961D02*
X126391349Y-131500903D01*
X126394578Y-131585085D02*
X126393656Y-131543961D01*
X126394658Y-131660727D02*
X126394578Y-131585085D01*
X126395007Y-131694842D02*
X126394658Y-131660727D01*
X126396358Y-131726219D02*
X126395007Y-131694842D01*
X126397692Y-128390921D02*
X126410049Y-128397135D01*
X126399308Y-131754655D02*
X126396358Y-131726219D01*
X126404452Y-131779949D02*
X126399308Y-131754655D01*
X126408034Y-131791355D02*
X126404452Y-131779949D01*
X126410049Y-128397135D02*
X126626641Y-128495382D01*
X126412387Y-131801899D02*
X126408034Y-131791355D01*
X126414270Y-130948863D02*
X126499065Y-130955571D01*
X126417588Y-131811558D02*
X126412387Y-131801899D01*
X126423710Y-131820305D02*
X126417588Y-131811558D01*
X126430828Y-131828116D02*
X126423710Y-131820305D01*
X126439017Y-131834965D02*
X126430828Y-131828116D01*
X126448351Y-131840827D02*
X126439017Y-131834965D01*
X126458904Y-131845677D02*
X126448351Y-131840827D01*
X126465578Y-129051176D02*
X126335582Y-129011274D01*
X126470752Y-131849490D02*
X126458904Y-131845677D01*
X126483968Y-131852241D02*
X126470752Y-131849490D01*
X126498628Y-131853903D02*
X126483968Y-131852241D01*
X126499065Y-130955571D02*
X126544308Y-130958401D01*
X126514805Y-131854453D02*
X126498628Y-131853903D01*
X126529145Y-131853918D02*
X126514805Y-131854453D01*
X126542953Y-131852354D02*
X126529145Y-131853918D01*
X126544308Y-130958401D02*
X126591051Y-130959736D01*
X126556316Y-131849788D02*
X126542953Y-131852354D01*
X126569317Y-131846245D02*
X126556316Y-131849788D01*
X126582042Y-131841753D02*
X126569317Y-131846245D01*
X126591051Y-130959736D02*
X126638999Y-130958715D01*
X126594575Y-131836336D02*
X126582042Y-131841753D01*
X126607001Y-131830023D02*
X126594575Y-131836336D01*
X126619404Y-131822838D02*
X126607001Y-131830023D01*
X126626641Y-128495382D02*
X126874428Y-128604923D01*
X126631869Y-131814808D02*
X126619404Y-131822838D01*
X126638999Y-130958715D02*
X126687854Y-130954481D01*
X126644482Y-131805959D02*
X126631869Y-131814808D01*
X126670487Y-131785910D02*
X126644482Y-131805959D01*
X126687854Y-130954481D02*
X126737319Y-130946173D01*
X126698096Y-131762902D02*
X126670487Y-131785910D01*
X126727988Y-131737143D02*
X126698096Y-131762902D01*
X126737319Y-130946173D02*
X126762188Y-130940222D01*
X126754614Y-129151077D02*
X126465578Y-129051176D01*
X126760841Y-131708845D02*
X126727988Y-131737143D01*
X126762188Y-130940222D02*
X126787098Y-130932931D01*
X126787098Y-130932931D02*
X126812012Y-130924191D01*
X126797331Y-131678218D02*
X126760841Y-131708845D01*
X126812012Y-130924191D02*
X126836894Y-130913895D01*
X126836894Y-130913895D02*
X126861706Y-130901937D01*
X126838137Y-131645471D02*
X126797331Y-131678218D01*
X126860371Y-131628368D02*
X126838137Y-131645471D01*
X126861706Y-130901937D02*
X126886410Y-130888208D01*
X126874428Y-128604923D02*
X127389525Y-128827811D01*
X126883937Y-131610814D02*
X126860371Y-131628368D01*
X126886410Y-130888208D02*
X127571000Y-130589044D01*
X126908922Y-131592835D02*
X126883937Y-131610814D01*
X126935409Y-131574457D02*
X126908922Y-131592835D01*
X126963483Y-131555708D02*
X126935409Y-131574457D01*
X126993229Y-131536612D02*
X126963483Y-131555708D01*
X127024732Y-131517196D02*
X126993229Y-131536612D01*
X127058076Y-131497487D02*
X127024732Y-131517196D01*
X127062991Y-129267950D02*
X126754614Y-129151077D01*
X127093347Y-131477510D02*
X127058076Y-131497487D01*
X127130628Y-131457292D02*
X127093347Y-131477510D01*
X127332477Y-131352562D02*
X127130628Y-131457292D01*
X127359833Y-126254515D02*
X127362978Y-126457654D01*
X127362978Y-126457654D02*
X127368464Y-126504027D01*
X127367452Y-129390007D02*
X127062991Y-129267950D01*
X127368464Y-126504027D02*
X127375066Y-126548986D01*
X127370269Y-126143566D02*
X127359833Y-126254515D01*
X127375066Y-126548986D02*
X127382719Y-126592577D01*
X127382719Y-126592577D02*
X127391358Y-126634845D01*
X127388404Y-126027864D02*
X127370269Y-126143566D01*
X127389525Y-128827811D02*
X127979356Y-129078299D01*
X127391358Y-126634845D02*
X127400915Y-126675835D01*
X127400915Y-126675835D02*
X127411326Y-126715592D01*
X127411326Y-126715592D02*
X127422525Y-126754162D01*
X127414008Y-125908536D02*
X127388404Y-126027864D01*
X127422525Y-126754162D02*
X127434445Y-126791591D01*
X127434445Y-126791591D02*
X127460186Y-126863203D01*
X127446852Y-125786707D02*
X127414008Y-125908536D01*
X127460186Y-126863203D02*
X127488025Y-126930793D01*
X127486705Y-125663504D02*
X127446852Y-125786707D01*
X127488025Y-126930793D02*
X127517433Y-126994722D01*
X127517433Y-126994722D02*
X127547883Y-127055353D01*
X127533339Y-125540051D02*
X127486705Y-125663504D01*
X127547883Y-127055353D02*
X127578851Y-127113049D01*
X127558187Y-131239049D02*
X127332477Y-131352562D01*
X127571000Y-130589044D02*
X128235087Y-130302071D01*
X127578851Y-127113049D02*
X127609807Y-127168173D01*
X127586521Y-125417476D02*
X127533339Y-125540051D01*
X127609807Y-127168173D02*
X127669581Y-127272154D01*
X127613124Y-127074802D02*
X127834092Y-127032498D01*
X127646024Y-125296904D02*
X127586521Y-125417476D01*
X127669581Y-127272154D02*
X127697344Y-127321737D01*
D11*
X127684189Y-127978039D02*
X127684500Y-128012687D01*
X127684500Y-128012687D02*
X127686033Y-128046437D01*
X127685075Y-127942312D02*
X127684189Y-127978039D01*
X127686033Y-128046437D02*
X127688812Y-128079471D01*
X127688812Y-128079471D02*
X127692861Y-128111969D01*
X127690341Y-127866892D02*
X127685075Y-127942312D01*
X127692861Y-128111969D02*
X127698205Y-128144115D01*
D10*
X127697344Y-127321737D02*
X127722990Y-127370199D01*
D11*
X127698205Y-128144115D02*
X127704869Y-128176089D01*
X127700103Y-127784977D02*
X127690341Y-127866892D01*
X127704869Y-128176089D02*
X127712877Y-128208073D01*
D10*
X127711617Y-125179460D02*
X127646024Y-125296904D01*
D11*
X127712877Y-128208073D02*
X127722253Y-128240248D01*
X127714164Y-127695112D02*
X127700103Y-127784977D01*
X127722253Y-128240248D02*
X127733022Y-128272796D01*
D10*
X127722990Y-127370199D02*
X127745992Y-127417902D01*
D11*
X127732329Y-127595846D02*
X127714164Y-127695112D01*
X127733022Y-128272796D02*
X127758837Y-128339738D01*
D10*
X127745992Y-127417902D02*
X127765822Y-127465208D01*
D11*
X127754403Y-127485727D02*
X127732329Y-127595846D01*
X127758837Y-128339738D02*
X127790516Y-128410350D01*
X127777050Y-128359599D02*
X127787768Y-128369953D01*
D10*
X127783069Y-125066270D02*
X127711617Y-125179460D01*
D11*
X127787768Y-128369953D02*
X127822536Y-128407220D01*
X127790516Y-128410350D02*
X127828255Y-128486085D01*
X127793111Y-128382881D02*
X127777050Y-128359599D01*
X127809494Y-127227116D02*
X127754403Y-127485727D01*
X127822536Y-128407220D02*
X127878621Y-128464680D01*
X127828255Y-128486085D02*
X127872250Y-128568395D01*
X127834856Y-127105038D02*
X127809494Y-127227116D01*
X127843800Y-127056555D02*
X127834856Y-127105038D01*
X127850408Y-127014588D02*
X127843800Y-127056555D01*
X127854796Y-126977745D02*
X127850408Y-127014588D01*
X127857080Y-126944635D02*
X127854796Y-126977745D01*
D10*
X127860152Y-124958461D02*
X127783069Y-125066270D01*
X127871598Y-129602522D02*
X127367452Y-129390007D01*
D11*
X127872250Y-128568395D02*
X127897861Y-128610866D01*
X127878621Y-128464680D02*
X127913804Y-128498882D01*
X127897861Y-128610866D02*
X127923569Y-128646355D01*
X127913804Y-128498882D02*
X127953293Y-128535613D01*
X127923569Y-128646355D02*
X127949127Y-128676423D01*
D10*
X127942635Y-124857159D02*
X127860152Y-124958461D01*
X127945524Y-129046527D02*
X128044943Y-128773681D01*
D11*
X127949127Y-128676423D02*
X127974290Y-128702629D01*
X127953293Y-128535613D02*
X127996745Y-128574031D01*
X127974290Y-128702629D02*
X128022444Y-128749698D01*
D12*
X127978076Y-126262142D02*
X127988076Y-126702142D01*
D10*
X127979356Y-129078299D02*
X128080993Y-129694317D01*
D12*
X127988076Y-126702142D02*
X127857080Y-126944635D01*
D11*
X127996745Y-128574031D02*
X128043820Y-128613297D01*
D10*
X128018592Y-131013722D02*
X127558187Y-131239049D01*
D11*
X128022444Y-128749698D02*
X128044943Y-128773681D01*
D10*
X128030288Y-124763488D02*
X127942635Y-124857159D01*
D11*
X128043820Y-128613297D02*
X128094177Y-128652571D01*
X128044943Y-128773681D02*
X128066061Y-128800043D01*
X128066061Y-128800043D02*
X128085553Y-128830345D01*
D10*
X128080993Y-129694317D02*
X127871598Y-129602522D01*
D11*
X128085553Y-128830345D02*
X128103171Y-128866146D01*
X128094177Y-128652571D02*
X128147473Y-128691013D01*
X128103171Y-128866146D02*
X128111201Y-128886597D01*
X128118671Y-128909007D02*
X128125549Y-128933573D01*
D10*
X128122882Y-124678575D02*
X128030288Y-124763488D01*
D11*
X128125549Y-128933573D02*
X128131804Y-128960488D01*
X128131804Y-128960488D02*
X128142326Y-129022150D01*
X128142326Y-129022150D02*
X128149990Y-129095552D01*
X128147473Y-128691013D02*
X128203367Y-128727782D01*
X128149990Y-129095552D02*
X128154550Y-129182254D01*
X128155759Y-129283817D02*
X128156540Y-129343439D01*
X128156540Y-129343439D02*
X128159410Y-129402655D01*
X128159410Y-129402655D02*
X128164267Y-129461417D01*
X128164267Y-129461417D02*
X128171011Y-129519679D01*
X128171011Y-129519679D02*
X128179540Y-129577392D01*
X128179540Y-129577392D02*
X128189752Y-129634509D01*
X128189752Y-129634509D02*
X128214820Y-129746761D01*
D10*
X128191755Y-124623229D02*
X128122882Y-124678575D01*
D11*
X128203367Y-128727782D02*
X128261519Y-128762038D01*
X128214820Y-129746761D02*
X128245404Y-129856054D01*
D10*
X128235087Y-130302071D02*
X128537153Y-130766158D01*
D11*
X128245404Y-129856054D02*
X128280692Y-129962006D01*
X128261519Y-128762038D02*
X128280012Y-128773778D01*
D10*
X128266833Y-124568303D02*
X128191755Y-124623229D01*
D11*
X128280012Y-128773778D02*
X128297812Y-128788015D01*
X128280692Y-129962006D02*
X128319873Y-130064234D01*
X128297812Y-128788015D02*
X128314923Y-128804541D01*
X128314923Y-128804541D02*
X128331352Y-128823147D01*
X128319873Y-130064234D02*
X128362136Y-130162355D01*
X128331352Y-128823147D02*
X128347107Y-128843624D01*
X128347107Y-128843624D02*
X128362192Y-128865762D01*
D10*
X128347800Y-124514229D02*
X128266833Y-124568303D01*
D11*
X128362136Y-130162355D02*
X128406668Y-130255989D01*
X128362192Y-128865762D02*
X128376615Y-128889354D01*
X128376615Y-128889354D02*
X128390381Y-128914189D01*
X128390381Y-128914189D02*
X128415971Y-128966756D01*
X128406668Y-130255989D02*
X128452657Y-130344753D01*
X128415971Y-128966756D02*
X128439013Y-129021790D01*
D10*
X128434337Y-124461440D02*
X128347800Y-124514229D01*
D11*
X128439013Y-129021790D02*
X128459559Y-129077621D01*
X128452657Y-130344753D02*
X128499294Y-130428263D01*
X128499294Y-130428263D02*
X128545765Y-130506139D01*
D10*
X128526125Y-124410367D02*
X128434337Y-124461440D01*
X128537153Y-130766158D02*
X128018592Y-131013722D01*
D11*
X128545765Y-130506139D02*
X128591259Y-130577999D01*
X128591259Y-130577999D02*
X128634965Y-130643459D01*
D10*
X128622846Y-124361444D02*
X128526125Y-124410367D01*
D11*
X128634965Y-130643459D02*
X128713765Y-130753653D01*
X128713765Y-130753653D02*
X128745176Y-130794050D01*
D10*
X128724183Y-124315102D02*
X128622846Y-124361444D01*
D11*
X128745176Y-130794050D02*
X128777233Y-130832114D01*
X128777233Y-130832114D02*
X128809889Y-130867913D01*
X128809889Y-130867913D02*
X128843091Y-130901514D01*
D10*
X128829816Y-124271775D02*
X128724183Y-124315102D01*
D11*
X128843091Y-130901514D02*
X128876790Y-130932985D01*
X128876790Y-130932985D02*
X128910934Y-130962395D01*
X128910934Y-130962395D02*
X128945474Y-130989810D01*
D10*
X128939428Y-124231894D02*
X128829816Y-124271775D01*
D11*
X128945474Y-130989810D02*
X128980359Y-131015300D01*
X128980359Y-131015300D02*
X129015538Y-131038931D01*
X129015538Y-131038931D02*
X129050962Y-131060772D01*
X129050962Y-131060772D02*
X129086579Y-131080891D01*
D10*
X129052700Y-124195891D02*
X128939428Y-124231894D01*
D11*
X129086579Y-131080891D02*
X129122339Y-131099355D01*
X129122339Y-131099355D02*
X129194086Y-131131590D01*
D10*
X129169314Y-124164200D02*
X129052700Y-124195891D01*
D11*
X129194086Y-131131590D02*
X129265799Y-131158023D01*
X129265799Y-131158023D02*
X129337075Y-131179194D01*
D10*
X129288952Y-124137253D02*
X129169314Y-124164200D01*
D11*
X129337075Y-131179194D02*
X129407510Y-131195648D01*
X129407510Y-131195648D02*
X129476700Y-131207927D01*
D10*
X129411295Y-124115482D02*
X129288952Y-124137253D01*
D11*
X129476700Y-131207927D02*
X129544240Y-131216575D01*
D10*
X129536026Y-124099319D02*
X129411295Y-124115482D01*
D11*
X129544240Y-131216575D02*
X129609728Y-131222134D01*
X129609728Y-131222134D02*
X129672760Y-131225148D01*
D10*
X129662826Y-124089197D02*
X129536026Y-124099319D01*
D11*
X129672760Y-131225148D02*
X129789837Y-131225711D01*
D10*
X129785058Y-124085675D02*
X129913608Y-124089324D01*
X129791376Y-124085548D02*
X129662826Y-124089197D01*
D11*
X129827004Y-131216608D02*
X129771428Y-131225648D01*
X129885769Y-131205290D02*
X129827004Y-131216608D01*
D10*
X129913608Y-124089324D02*
X130040408Y-124099446D01*
D11*
X129947375Y-131191597D02*
X129885769Y-131205290D01*
X130011470Y-131175434D02*
X129947375Y-131191597D01*
D10*
X130040408Y-124099446D02*
X130165139Y-124115609D01*
D11*
X130077706Y-131156704D02*
X130011470Y-131175434D01*
X130145733Y-131135309D02*
X130077706Y-131156704D01*
D10*
X130165139Y-124115609D02*
X130287482Y-124137380D01*
D11*
X130215200Y-131111154D02*
X130145733Y-131135309D01*
X130285758Y-131084141D02*
X130215200Y-131111154D01*
D10*
X130287482Y-124137380D02*
X130407120Y-124164327D01*
D11*
X130357057Y-131054175D02*
X130285758Y-131084141D01*
D10*
X130407120Y-124164327D02*
X130523734Y-124196018D01*
D11*
X130428746Y-131021158D02*
X130357057Y-131054175D01*
X130500477Y-130984994D02*
X130428746Y-131021158D01*
D10*
X130523734Y-124196018D02*
X130637007Y-124232021D01*
D11*
X130571898Y-130945587D02*
X130500477Y-130984994D01*
D10*
X130637007Y-124232021D02*
X130746618Y-124271902D01*
D11*
X130642661Y-130902839D02*
X130571898Y-130945587D01*
X130712416Y-130856655D02*
X130642661Y-130902839D01*
D10*
X130746618Y-124271902D02*
X130852252Y-124315229D01*
D11*
X130780812Y-130806937D02*
X130712416Y-130856655D01*
X130847499Y-130753589D02*
X130780812Y-130806937D01*
D10*
X130852252Y-124315229D02*
X130953588Y-124361571D01*
D11*
X130872912Y-130730513D02*
X130847499Y-130753589D01*
X130898065Y-130704288D02*
X130872912Y-130730513D01*
X130923326Y-129330634D02*
X130920859Y-129329809D01*
X130926846Y-129328158D02*
X130923326Y-129330634D01*
X130936905Y-129314125D02*
X130926846Y-129328158D01*
X130947491Y-130643058D02*
X130898065Y-130704288D01*
X130950757Y-129289350D02*
X130936905Y-129314125D01*
D10*
X130953588Y-124361571D02*
X131050310Y-124410495D01*
D11*
X130995572Y-130571239D02*
X130947491Y-130643058D01*
X131038496Y-129115605D02*
X130950757Y-129289350D01*
X131042105Y-130490173D02*
X130995572Y-130571239D01*
D10*
X131050310Y-124410495D02*
X131142098Y-124461567D01*
X131056401Y-130787077D02*
X131553805Y-131026130D01*
D11*
X131067117Y-129061702D02*
X131038496Y-129115605D01*
X131086885Y-130401197D02*
X131042105Y-130490173D01*
X131097853Y-129006890D02*
X131067117Y-129061702D01*
X131129709Y-130305654D02*
X131086885Y-130401197D01*
X131130426Y-128952808D02*
X131097853Y-129006890D01*
D10*
X131142098Y-124461567D02*
X131228634Y-124514356D01*
D11*
X131164555Y-128901094D02*
X131130426Y-128952808D01*
X131170373Y-130204882D02*
X131129709Y-130305654D01*
X131199961Y-128853388D02*
X131164555Y-128901094D01*
X131208673Y-130100221D02*
X131170373Y-130204882D01*
X131218056Y-128831550D02*
X131199961Y-128853388D01*
D10*
X131228634Y-124514356D02*
X131309601Y-124568430D01*
D11*
X131236365Y-128811329D02*
X131218056Y-128831550D01*
X131244405Y-129993012D02*
X131208673Y-130100221D01*
D10*
X131245161Y-130294547D02*
X131056401Y-130787077D01*
D11*
X131254854Y-128792928D02*
X131236365Y-128811329D01*
X131273488Y-128776554D02*
X131254854Y-128792928D01*
X131277365Y-129884595D02*
X131244405Y-129993012D01*
X131292231Y-128762411D02*
X131273488Y-128776554D01*
X131307350Y-129776309D02*
X131277365Y-129884595D01*
D10*
X131309601Y-124568430D02*
X131384679Y-124623356D01*
D11*
X131311049Y-128750704D02*
X131292231Y-128762411D01*
X131334155Y-129669495D02*
X131307350Y-129776309D01*
X131357577Y-129565492D02*
X131334155Y-129669495D01*
X131369581Y-128716194D02*
X131311049Y-128750704D01*
X131377412Y-129465641D02*
X131357577Y-129565492D01*
D10*
X131384679Y-124623356D02*
X131453552Y-124678701D01*
D11*
X131393456Y-129371282D02*
X131377412Y-129465641D01*
X131405505Y-129283754D02*
X131393456Y-129371282D01*
X131426549Y-128678708D02*
X131369581Y-128716194D01*
X131431791Y-129097526D02*
X131418549Y-129183091D01*
X131445322Y-129025465D02*
X131431791Y-129097526D01*
D10*
X131453552Y-124678701D02*
X131546145Y-124763614D01*
D11*
X131459232Y-128965310D02*
X131445322Y-129025465D01*
D10*
X131471885Y-129679024D02*
X132145136Y-129405170D01*
D11*
X131473613Y-128915464D02*
X131459232Y-128965310D01*
X131481515Y-128639154D02*
X131426549Y-128678708D01*
X131488557Y-128874330D02*
X131473613Y-128915464D01*
X131504155Y-128840313D02*
X131488557Y-128874330D01*
X131520497Y-128811814D02*
X131504155Y-128840313D01*
D12*
X131523608Y-126793650D02*
X131654604Y-127036143D01*
X131533608Y-126353650D02*
X131523608Y-126793650D01*
D11*
X131534036Y-128598436D02*
X131481515Y-128639154D01*
X131537676Y-128787238D02*
X131520497Y-128811814D01*
D10*
X131546145Y-124763614D02*
X131633799Y-124857285D01*
X131553805Y-131026130D02*
X132426064Y-131450524D01*
D11*
X131555782Y-128764988D02*
X131537676Y-128787238D01*
X131583672Y-128557461D02*
X131534036Y-128598436D01*
X131595143Y-128721077D02*
X131555782Y-128764988D01*
D10*
X131606698Y-129024229D02*
X131471885Y-129679024D01*
D11*
X131616580Y-128696223D02*
X131595143Y-128721077D01*
X131629984Y-128517136D02*
X131583672Y-128557461D01*
D10*
X131633799Y-124857285D02*
X131716282Y-124958588D01*
D11*
X131639310Y-128667307D02*
X131616580Y-128696223D01*
X131654604Y-127036143D02*
X131656316Y-127057956D01*
X131656316Y-127057956D02*
X131659150Y-127080654D01*
X131659150Y-127080654D02*
X131663178Y-127104370D01*
X131663178Y-127104370D02*
X131668475Y-127129238D01*
X131663424Y-128632734D02*
X131639310Y-128667307D01*
X131668475Y-127129238D02*
X131675113Y-127155390D01*
X131675113Y-127155390D02*
X131683167Y-127182960D01*
X131683167Y-127182960D02*
X131692710Y-127212080D01*
X131689013Y-128590906D02*
X131663424Y-128632734D01*
X131692710Y-127212080D02*
X131703815Y-127242884D01*
D10*
X131694562Y-128993923D02*
X131595143Y-128721077D01*
D11*
X131703815Y-127242884D02*
X131716556Y-127275504D01*
X131710869Y-128442058D02*
X131629984Y-128517136D01*
D10*
X131716282Y-124958588D02*
X131793365Y-125066397D01*
D11*
X131716556Y-127275504D02*
X131754156Y-127375238D01*
X131722786Y-128527817D02*
X131689013Y-128590906D01*
X131753255Y-128461964D02*
X131722786Y-128527817D01*
X131754156Y-127375238D02*
X131785544Y-127472850D01*
D10*
X131782426Y-128963616D02*
X131606698Y-129024229D01*
D11*
X131785544Y-127472850D02*
X131810927Y-127568293D01*
D10*
X131793365Y-125066397D02*
X131864818Y-125179586D01*
D11*
X131803449Y-128322152D02*
X131753255Y-128461964D01*
X131803449Y-128322152D02*
X131780211Y-128393394D01*
X131810927Y-127568293D02*
X131830514Y-127661522D01*
D10*
X131830442Y-127418029D02*
X131810613Y-127465336D01*
D11*
X131830514Y-127661522D02*
X131844511Y-127752491D01*
X131837933Y-128171836D02*
X131822758Y-128248284D01*
X131844511Y-127752491D02*
X131853128Y-127841155D01*
X131848765Y-128092853D02*
X131837933Y-128171836D01*
X131853128Y-127841155D02*
X131856570Y-127927467D01*
D10*
X131853443Y-127370326D02*
X131830442Y-127418029D01*
D11*
X131855047Y-128011381D02*
X131848765Y-128092853D01*
X131856570Y-127927467D02*
X131855047Y-128011381D01*
D10*
X131864818Y-125179586D02*
X131930410Y-125297030D01*
X131879089Y-127321864D02*
X131853443Y-127370326D01*
X131906853Y-127272281D02*
X131879089Y-127321864D01*
X131930410Y-125297030D02*
X131989913Y-125417603D01*
X131966626Y-127168300D02*
X131745658Y-127125996D01*
X131966626Y-127168300D02*
X131906853Y-127272281D01*
X131989913Y-125417603D02*
X132043096Y-125540178D01*
X131997583Y-127113176D02*
X131966626Y-127168300D01*
X132028550Y-127055480D02*
X131997583Y-127113176D01*
X132043096Y-125540178D02*
X132089729Y-125663630D01*
X132059001Y-126994849D02*
X132028550Y-127055480D01*
X132088409Y-126930920D02*
X132059001Y-126994849D01*
X132089729Y-125663630D02*
X132129583Y-125786834D01*
X132116247Y-126863330D02*
X132088409Y-126930920D01*
X132129583Y-125786834D02*
X132162426Y-125908662D01*
X132141989Y-126791718D02*
X132116247Y-126863330D01*
X132145136Y-129405170D02*
X132434310Y-129292440D01*
X132153909Y-126754289D02*
X132141989Y-126791718D01*
X132162426Y-125908662D02*
X132188031Y-126027991D01*
X132165108Y-126715719D02*
X132153909Y-126754289D01*
X132175519Y-126675962D02*
X132165108Y-126715719D01*
X132185077Y-126634972D02*
X132175519Y-126675962D01*
X132188031Y-126027991D02*
X132206166Y-126143692D01*
X132193715Y-126592705D02*
X132185077Y-126634972D01*
X132201368Y-126549114D02*
X132193715Y-126592705D01*
X132206166Y-126143692D02*
X132216602Y-126254642D01*
X132207162Y-128810555D02*
X131782426Y-128963616D01*
X132207971Y-126504154D02*
X132201368Y-126549114D01*
X132213457Y-126457781D02*
X132207971Y-126504154D01*
X132216602Y-126254642D02*
X132219109Y-126359714D01*
X132219109Y-126359714D02*
X132213457Y-126457781D01*
X132426064Y-131450524D02*
X132463837Y-131469777D01*
X132434310Y-129292440D02*
X132728854Y-129181834D01*
X132463837Y-131469777D02*
X132499448Y-131489050D01*
X132464885Y-128712844D02*
X132207162Y-128810555D01*
X132499448Y-131489050D02*
X132532990Y-131508292D01*
X132532990Y-131508292D02*
X132564554Y-131527451D01*
X132564554Y-131527451D02*
X132594231Y-131546473D01*
X132594231Y-131546473D02*
X132622114Y-131565308D01*
X132622114Y-131565308D02*
X132648293Y-131583903D01*
X132624286Y-130932657D02*
X131245161Y-130294547D01*
X132648293Y-131583903D02*
X132672861Y-131602206D01*
X132649343Y-130945477D02*
X132624286Y-130932657D01*
X132672861Y-131602206D02*
X132695909Y-131620165D01*
X132674399Y-130956148D02*
X132649343Y-130945477D01*
X132695909Y-131620165D02*
X132717528Y-131637727D01*
X132699421Y-130964805D02*
X132674399Y-130956148D01*
X132717528Y-131637727D02*
X132756849Y-131671454D01*
X132724382Y-130971580D02*
X132699421Y-130964805D01*
X132727231Y-128608207D02*
X132464885Y-128712844D01*
X132728854Y-129181834D02*
X133007282Y-129083267D01*
X132749249Y-130976607D02*
X132724382Y-130971580D01*
X132756849Y-131671454D02*
X132791556Y-131702970D01*
X132773994Y-130980019D02*
X132749249Y-130976607D01*
X132791556Y-131702970D02*
X132822382Y-131731858D01*
X132798587Y-130981951D02*
X132773994Y-130980019D01*
X132822382Y-131731858D02*
X132850061Y-131757701D01*
X132822996Y-130982535D02*
X132798587Y-130981951D01*
X132847192Y-130981906D02*
X132822996Y-130982535D01*
X132850061Y-131757701D02*
X132875325Y-131780083D01*
X132871146Y-130980196D02*
X132847192Y-130981906D01*
X132875325Y-131780083D02*
X132887280Y-131789845D01*
X132887280Y-131789845D02*
X132898907Y-131798585D01*
X132898907Y-131798585D02*
X132910297Y-131806251D01*
X132910297Y-131806251D02*
X132921541Y-131812791D01*
X132918203Y-130974068D02*
X132871146Y-130980196D01*
X132921541Y-131812791D02*
X132932731Y-131818153D01*
X132932731Y-131818153D02*
X132943959Y-131822284D01*
X132943959Y-131822284D02*
X132955316Y-131825133D01*
X132955316Y-131825133D02*
X132966894Y-131826648D01*
X132963926Y-130965220D02*
X132918203Y-130974068D01*
X132966894Y-131826648D02*
X132978785Y-131826775D01*
X132974993Y-128502040D02*
X132727231Y-128608207D01*
X132978785Y-131826775D02*
X132991080Y-131825464D01*
X132991080Y-131825464D02*
X133003871Y-131822661D01*
X133003871Y-131822661D02*
X133017249Y-131818316D01*
X133007282Y-129083267D02*
X133248106Y-129006654D01*
X133008075Y-130954721D02*
X132963926Y-130965220D01*
X133017249Y-131818316D02*
X133031241Y-131812457D01*
X133031241Y-131812457D02*
X133043750Y-131805959D01*
X133043750Y-131805959D02*
X133054860Y-131798843D01*
X133054860Y-131798843D02*
X133064653Y-131791132D01*
X133064653Y-131791132D02*
X133073214Y-131782851D01*
X133073214Y-131782851D02*
X133080624Y-131774021D01*
X133080624Y-131774021D02*
X133086967Y-131764667D01*
X133086967Y-131764667D02*
X133092327Y-131754810D01*
X133087401Y-128450068D02*
X132974993Y-128502040D01*
X133090688Y-130933038D02*
X133008075Y-130954721D01*
X133092327Y-131754810D02*
X133096787Y-131744474D01*
X133096787Y-131744474D02*
X133100430Y-131733683D01*
X133100430Y-131733683D02*
X133103339Y-131722459D01*
X133103339Y-131722459D02*
X133105597Y-131710825D01*
X133105597Y-131710825D02*
X133108495Y-131686420D01*
X133108495Y-131686420D02*
X133109789Y-131660654D01*
X133109789Y-131660654D02*
X133110230Y-131605773D01*
X133110230Y-131605773D02*
X133110709Y-131577027D01*
X133110709Y-131577027D02*
X133112247Y-131547658D01*
X133112247Y-131547658D02*
X133115510Y-131517849D01*
X133115510Y-131517849D02*
X133121165Y-131487786D01*
X133121165Y-131487786D02*
X133125097Y-131472716D01*
X133125097Y-131472716D02*
X133129877Y-131457652D01*
X133128669Y-130923991D02*
X133090688Y-130933038D01*
X133129877Y-131457652D02*
X133135588Y-131442616D01*
X133135588Y-131442616D02*
X133142312Y-131427633D01*
X133142312Y-131427633D02*
X133157284Y-131398032D01*
X133157284Y-131398032D02*
X133173974Y-131366798D01*
X133164113Y-130917564D02*
X133128669Y-130923991D01*
X133173974Y-131366798D02*
X133210278Y-131300727D01*
X133188960Y-128399737D02*
X133087401Y-128450068D01*
X133196779Y-130914824D02*
X133164113Y-130917564D01*
X133200943Y-128393141D02*
X133188960Y-128399737D01*
X133210278Y-131300727D02*
X133246764Y-131232010D01*
X133211995Y-130915171D02*
X133196779Y-130914824D01*
X133213218Y-128385646D02*
X133200943Y-128393141D01*
X133226426Y-130916840D02*
X133211995Y-130915171D01*
X133238593Y-128368323D02*
X133213218Y-128385646D01*
X133240043Y-130919966D02*
X133226426Y-130916840D01*
X133246764Y-131232010D02*
X133263679Y-131197469D01*
X133248106Y-129006654D02*
X133277625Y-128999319D01*
X133252814Y-130924680D02*
X133240043Y-130919966D01*
X133263679Y-131197469D02*
X133278966Y-131163237D01*
X133264710Y-130931118D02*
X133252814Y-130924680D01*
X133264978Y-128348492D02*
X133238593Y-128368323D01*
X133275700Y-130939412D02*
X133264710Y-130931118D01*
X133277625Y-128999319D02*
X133307014Y-128994343D01*
X133278966Y-131163237D02*
X133292067Y-131129640D01*
X133285408Y-130949075D02*
X133275700Y-130939412D01*
X133292067Y-131129640D02*
X133302424Y-131097001D01*
X133292271Y-128326873D02*
X133264978Y-128348492D01*
X133293523Y-130959504D02*
X133285408Y-130949075D01*
X133300115Y-130970659D02*
X133293523Y-130959504D01*
X133302424Y-131097001D02*
X133306399Y-131081142D01*
X133305254Y-130982497D02*
X133300115Y-130970659D01*
X133306399Y-131081142D02*
X133309479Y-131065643D01*
X133307014Y-128994343D02*
X133336222Y-128991536D01*
X133309010Y-130994981D02*
X133305254Y-130982497D01*
X133309479Y-131065643D02*
X133311594Y-131050546D01*
X133311452Y-131008067D02*
X133309010Y-130994981D01*
X133311594Y-131050546D02*
X133312674Y-131035891D01*
X133312650Y-131021718D02*
X133311452Y-131008067D01*
X133312674Y-131035891D02*
X133312650Y-131021718D01*
X133336222Y-128991536D02*
X133365195Y-128990709D01*
X133349159Y-128281168D02*
X133292271Y-128326873D01*
X133365195Y-128990709D02*
X133393879Y-128991673D01*
X133378545Y-128258526D02*
X133349159Y-128281168D01*
X133393879Y-128991673D02*
X133422221Y-128994239D01*
X133408421Y-128236987D02*
X133378545Y-128258526D01*
X133422221Y-128994239D02*
X133450168Y-128998218D01*
X133438682Y-128217274D02*
X133408421Y-128236987D01*
X133450168Y-128998218D02*
X133477666Y-129003421D01*
X133453924Y-128208328D02*
X133438682Y-128217274D01*
X133469223Y-128200110D02*
X133453924Y-128208328D01*
X133477666Y-129003421D02*
X133504663Y-129009659D01*
X133484566Y-128192709D02*
X133469223Y-128200110D01*
X133499939Y-128186217D02*
X133484566Y-128192709D01*
X133504663Y-129009659D02*
X133531104Y-129016741D01*
X133515331Y-128180723D02*
X133499939Y-128186217D01*
X133530728Y-128176317D02*
X133515331Y-128180723D01*
X133531104Y-129016741D02*
X133582108Y-129032687D01*
X133546116Y-128173091D02*
X133530728Y-128176317D01*
X133561484Y-128171134D02*
X133546116Y-128173091D01*
X133576817Y-128170537D02*
X133561484Y-128171134D01*
X133582108Y-129032687D02*
X133630252Y-129049744D01*
X133592102Y-128171389D02*
X133576817Y-128170537D01*
X133607327Y-128173782D02*
X133592102Y-128171389D01*
X133622479Y-128177805D02*
X133607327Y-128173782D01*
X133630252Y-129049744D02*
X133675108Y-129066400D01*
X133637544Y-128183550D02*
X133622479Y-128177805D01*
X133652509Y-128191105D02*
X133637544Y-128183550D01*
X133663040Y-128197468D02*
X133652509Y-128191105D01*
X133672585Y-128203990D02*
X133663040Y-128197468D01*
X133675108Y-129066400D02*
X133716251Y-129081143D01*
X133681189Y-128210684D02*
X133672585Y-128203990D01*
X133688899Y-128217561D02*
X133681189Y-128210684D01*
X133695761Y-128224634D02*
X133688899Y-128217561D01*
X133701822Y-128231914D02*
X133695761Y-128224634D01*
X133707128Y-128239414D02*
X133701822Y-128231914D01*
X133711725Y-128247145D02*
X133707128Y-128239414D01*
X133715659Y-128255119D02*
X133711725Y-128247145D01*
X133716251Y-129081143D02*
X133753254Y-129092458D01*
X133718977Y-128263349D02*
X133715659Y-128255119D01*
X133721724Y-128271845D02*
X133718977Y-128263349D01*
X133723948Y-128280621D02*
X133721724Y-128271845D01*
X133725694Y-128289689D02*
X133723948Y-128280621D01*
X133725979Y-128439494D02*
X133726609Y-128412061D01*
X133726029Y-128468761D02*
X133725979Y-128439494D01*
X133726609Y-128412061D02*
X133728430Y-128362314D01*
X133727009Y-128299059D02*
X133725694Y-128289689D01*
X133727129Y-128499957D02*
X133726029Y-128468761D01*
X133727939Y-128308744D02*
X133727009Y-128299059D01*
X133728189Y-128516309D02*
X133727129Y-128499957D01*
X133728430Y-128362314D02*
X133728880Y-128339809D01*
X133728530Y-128318756D02*
X133727939Y-128308744D01*
X133728880Y-128339809D02*
X133728530Y-128318756D01*
X133729650Y-128533179D02*
X133728189Y-128516309D01*
X133734101Y-128567014D02*
X133729650Y-128533179D01*
X133740539Y-128600020D02*
X133734101Y-128567014D01*
X133748652Y-128632246D02*
X133740539Y-128600020D01*
X133753254Y-129092458D02*
X133770069Y-129096358D01*
X133758126Y-128663745D02*
X133748652Y-128632246D01*
X133768650Y-128694568D02*
X133758126Y-128663745D01*
X133770069Y-129096358D02*
X133785690Y-129098833D01*
X133779912Y-128724765D02*
X133768650Y-128694568D01*
X133785690Y-129098833D02*
X133800062Y-129099696D01*
X133800062Y-129099696D02*
X133813132Y-129098756D01*
X133803401Y-128783491D02*
X133779912Y-128724765D01*
X133813132Y-129098756D02*
X133824848Y-129095824D01*
X133824848Y-129095824D02*
X133835155Y-129090711D01*
X133826095Y-128840332D02*
X133803401Y-128783491D01*
X133835155Y-129090711D02*
X133839764Y-129087278D01*
X133836364Y-128868174D02*
X133826095Y-128840332D01*
X133839764Y-129087278D02*
X133844001Y-129083229D01*
X133844001Y-129083229D02*
X133847859Y-129078540D01*
X133845498Y-128895699D02*
X133836364Y-128868174D01*
X133847859Y-129078540D02*
X133851331Y-129073188D01*
X133851331Y-129073188D02*
X133857094Y-129060398D01*
X133853184Y-128922957D02*
X133845498Y-128895699D01*
X133857094Y-129060398D02*
X133861234Y-129044672D01*
X133859111Y-128950001D02*
X133853184Y-128922957D01*
X133861234Y-129044672D02*
X133863700Y-129025819D01*
X133862966Y-128976882D02*
X133859111Y-128950001D01*
X133863700Y-129025819D02*
X133864438Y-129003650D01*
X133864438Y-129003650D02*
X133862966Y-128976882D01*
D13*
%TA.AperFunction,EtchedComponent*%
G36*
X128583608Y-129043650D02*
G01*
X128633056Y-129218191D01*
X128653608Y-129503650D01*
X128493608Y-129493650D01*
X128353608Y-129513650D01*
X128253608Y-129643650D01*
X128075807Y-128815194D01*
X128583608Y-129043650D01*
G37*
%TD.AperFunction*%
%TA.AperFunction,EtchedComponent*%
G36*
X131313608Y-129643650D02*
G01*
X131213608Y-129513650D01*
X131073608Y-129493650D01*
X130913608Y-129503650D01*
X130934160Y-129218191D01*
X130983608Y-129043650D01*
X131491409Y-128815194D01*
X131313608Y-129643650D01*
G37*
%TD.AperFunction*%
%TA.AperFunction,EtchedComponent*%
G36*
X128795696Y-129281742D02*
G01*
X128957202Y-129337212D01*
X129117835Y-129384278D01*
X129277854Y-129422620D01*
X129437519Y-129451918D01*
X129597090Y-129471850D01*
X129783608Y-129482095D01*
X129783608Y-130363650D01*
X129653608Y-130363650D01*
X129529665Y-130354155D01*
X129394634Y-130332285D01*
X129263058Y-130301330D01*
X129143608Y-130243650D01*
X129033608Y-130173650D01*
X128933608Y-130113650D01*
X128863608Y-130063650D01*
X128773608Y-129983650D01*
X128703608Y-129913650D01*
X128623608Y-129753650D01*
X128583608Y-129603650D01*
X128543608Y-129453650D01*
X128526615Y-129310194D01*
X128633056Y-129218191D01*
X128795696Y-129281742D01*
G37*
%TD.AperFunction*%
%TA.AperFunction,EtchedComponent*%
G36*
X131040601Y-129310194D02*
G01*
X131023608Y-129453650D01*
X130983608Y-129603650D01*
X130943608Y-129753650D01*
X130863608Y-129913650D01*
X130793608Y-129983650D01*
X130703608Y-130063650D01*
X130633608Y-130113650D01*
X130533608Y-130173650D01*
X130423608Y-130243650D01*
X130304158Y-130301330D01*
X130172582Y-130332285D01*
X130037551Y-130354155D01*
X129913608Y-130363650D01*
X129783608Y-130363650D01*
X129783608Y-129482095D01*
X129970126Y-129471850D01*
X130129697Y-129451918D01*
X130289362Y-129422620D01*
X130449381Y-129384278D01*
X130610014Y-129337212D01*
X130771520Y-129281742D01*
X130934160Y-129218191D01*
X131040601Y-129310194D01*
G37*
%TD.AperFunction*%
%TA.AperFunction,EtchedComponent*%
G36*
X129767059Y-127786760D02*
G01*
X129808041Y-127792225D01*
X129848755Y-127803107D01*
X129888925Y-127819455D01*
X129928276Y-127841317D01*
X129966530Y-127868742D01*
X130003412Y-127901779D01*
X130038645Y-127940475D01*
X130071954Y-127984880D01*
X130103063Y-128035042D01*
X130131694Y-128091009D01*
X130157573Y-128152831D01*
X130180422Y-128220556D01*
X130199967Y-128294233D01*
X130215929Y-128373909D01*
X130228035Y-128459634D01*
X130228035Y-128459632D01*
X130228035Y-128459630D01*
X130228034Y-128459627D01*
X130228034Y-128459625D01*
X130228034Y-128459622D01*
X130228034Y-128459620D01*
X130237118Y-128508486D01*
X130244270Y-128555272D01*
X130249528Y-128599959D01*
X130252931Y-128642530D01*
X130254519Y-128682967D01*
X130254330Y-128721253D01*
X130252402Y-128757370D01*
X130248776Y-128791301D01*
X130243490Y-128823027D01*
X130236582Y-128852532D01*
X130228091Y-128879799D01*
X130218057Y-128904808D01*
X130206518Y-128927544D01*
X130193514Y-128947987D01*
X130179082Y-128966122D01*
X130163262Y-128981930D01*
X130146093Y-128995394D01*
X130127614Y-129006496D01*
X130107863Y-129015218D01*
X130086880Y-129021544D01*
X130064702Y-129025456D01*
X130041370Y-129026935D01*
X130016922Y-129025965D01*
X129991397Y-129022528D01*
X129964834Y-129016607D01*
X129937271Y-129008184D01*
X129908748Y-128997241D01*
X129879303Y-128983761D01*
X129848976Y-128967726D01*
X129817804Y-128949119D01*
X129785828Y-128927923D01*
X129753086Y-128904119D01*
X129707623Y-128932910D01*
X129665156Y-128957504D01*
X129625586Y-128978050D01*
X129588817Y-128994694D01*
X129554748Y-129007584D01*
X129523283Y-129016867D01*
X129494323Y-129022692D01*
X129467769Y-129025205D01*
X129443523Y-129024554D01*
X129421488Y-129020887D01*
X129401564Y-129014350D01*
X129383654Y-129005092D01*
X129367659Y-128993261D01*
X129353481Y-128979002D01*
X129341022Y-128962465D01*
X129330184Y-128943797D01*
X129320868Y-128923144D01*
X129312976Y-128900655D01*
X129306410Y-128876477D01*
X129301072Y-128850758D01*
X129296862Y-128823645D01*
X129293684Y-128795285D01*
X129290028Y-128735417D01*
X129289318Y-128672333D01*
X129290766Y-128607214D01*
X129296998Y-128475589D01*
X129300280Y-128396397D01*
X129307989Y-128321796D01*
X129319849Y-128251835D01*
X129335583Y-128186562D01*
X129354916Y-128126026D01*
X129377571Y-128070276D01*
X129403272Y-128019359D01*
X129431742Y-127973326D01*
X129462707Y-127932223D01*
X129495889Y-127896101D01*
X129531012Y-127865007D01*
X129567801Y-127838990D01*
X129605979Y-127818098D01*
X129645270Y-127802381D01*
X129685398Y-127791887D01*
X129726086Y-127786663D01*
X129767059Y-127786760D01*
G37*
%TD.AperFunction*%
%TA.AperFunction,EtchedComponent*%
G36*
X130816596Y-126950849D02*
G01*
X130848231Y-126952466D01*
X130879051Y-126955215D01*
X130909040Y-126959080D01*
X130938184Y-126964050D01*
X130966467Y-126970110D01*
X130993874Y-126977247D01*
X131020390Y-126985447D01*
X131046000Y-126994696D01*
X131070689Y-127004980D01*
X131094440Y-127016287D01*
X131117240Y-127028602D01*
X131139073Y-127041911D01*
X131159923Y-127056202D01*
X131179776Y-127071460D01*
X131198616Y-127087671D01*
X131216428Y-127104822D01*
X131233198Y-127122900D01*
X131248909Y-127141890D01*
X131263546Y-127161779D01*
X131277095Y-127182554D01*
X131289540Y-127204200D01*
X131300866Y-127226704D01*
X131311058Y-127250052D01*
X131320100Y-127274231D01*
X131327978Y-127299227D01*
X131334676Y-127325026D01*
X131340179Y-127351615D01*
X131344472Y-127378979D01*
X131347539Y-127407106D01*
X131347507Y-127407105D01*
X131349158Y-127435874D01*
X131349236Y-127465111D01*
X131347776Y-127494725D01*
X131344813Y-127524624D01*
X131340381Y-127554716D01*
X131334516Y-127584911D01*
X131327252Y-127615115D01*
X131318625Y-127645237D01*
X131308670Y-127675187D01*
X131297421Y-127704871D01*
X131284914Y-127734198D01*
X131271184Y-127763077D01*
X131256265Y-127791416D01*
X131240193Y-127819123D01*
X131223002Y-127846106D01*
X131204727Y-127872274D01*
X131185404Y-127897535D01*
X131165068Y-127921798D01*
X131143753Y-127944970D01*
X131121495Y-127966959D01*
X131098328Y-127987676D01*
X131074287Y-128007026D01*
X131049408Y-128024920D01*
X131023726Y-128041264D01*
X130997274Y-128055968D01*
X130970089Y-128068940D01*
X130942206Y-128080088D01*
X130913659Y-128089320D01*
X130884483Y-128096544D01*
X130854713Y-128101670D01*
X130824385Y-128104605D01*
X130793533Y-128105257D01*
X130762672Y-128103553D01*
X130732303Y-128099547D01*
X130702442Y-128093334D01*
X130673105Y-128085009D01*
X130644307Y-128074668D01*
X130616065Y-128062405D01*
X130588393Y-128048315D01*
X130561308Y-128032495D01*
X130534826Y-128015038D01*
X130508962Y-127996041D01*
X130483732Y-127975598D01*
X130459151Y-127953805D01*
X130412002Y-127906548D01*
X130367640Y-127855031D01*
X130326192Y-127800017D01*
X130287783Y-127742267D01*
X130252540Y-127682542D01*
X130220588Y-127621603D01*
X130192053Y-127560212D01*
X130167062Y-127499131D01*
X130145739Y-127439121D01*
X130128212Y-127380944D01*
X130121880Y-127353884D01*
X130117924Y-127327886D01*
X130116266Y-127302930D01*
X130116827Y-127278999D01*
X130119529Y-127256076D01*
X130124295Y-127234142D01*
X130131047Y-127213181D01*
X130139706Y-127193173D01*
X130150195Y-127174101D01*
X130162435Y-127155948D01*
X130176349Y-127138696D01*
X130191858Y-127122326D01*
X130208885Y-127106822D01*
X130227351Y-127092164D01*
X130247178Y-127078336D01*
X130268289Y-127065320D01*
X130314049Y-127041651D01*
X130364007Y-127021016D01*
X130417538Y-127003271D01*
X130474019Y-126988274D01*
X130532825Y-126975883D01*
X130593332Y-126965956D01*
X130654916Y-126958350D01*
X130716953Y-126952923D01*
X130750942Y-126951064D01*
X130784162Y-126950377D01*
X130816596Y-126950849D01*
G37*
%TD.AperFunction*%
%TA.AperFunction,EtchedComponent*%
G36*
X128893630Y-126946818D02*
G01*
X128927904Y-126948732D01*
X128988910Y-126954607D01*
X129047582Y-126963479D01*
X129103564Y-126975373D01*
X129156500Y-126990315D01*
X129206036Y-127008330D01*
X129251816Y-127029444D01*
X129273187Y-127041171D01*
X129293486Y-127053683D01*
X129312667Y-127066982D01*
X129330688Y-127081071D01*
X129347504Y-127095954D01*
X129363069Y-127111635D01*
X129377341Y-127128115D01*
X129390274Y-127145399D01*
X129401823Y-127163490D01*
X129411945Y-127182390D01*
X129420596Y-127202103D01*
X129427730Y-127222633D01*
X129433303Y-127243981D01*
X129437272Y-127266153D01*
X129439591Y-127289149D01*
X129440215Y-127312975D01*
X129439102Y-127337633D01*
X129436206Y-127363126D01*
X129431482Y-127389458D01*
X129424888Y-127416631D01*
X129407091Y-127474585D01*
X129385009Y-127533961D01*
X129358837Y-127594059D01*
X129328771Y-127654174D01*
X129295007Y-127713604D01*
X129257742Y-127771645D01*
X129217171Y-127827594D01*
X129173490Y-127880749D01*
X129126896Y-127930405D01*
X129077584Y-127975861D01*
X129051970Y-127996794D01*
X129025751Y-128016413D01*
X128998950Y-128034630D01*
X128971592Y-128051358D01*
X128943702Y-128066508D01*
X128915305Y-128079993D01*
X128886424Y-128091724D01*
X128857084Y-128101614D01*
X128827310Y-128109575D01*
X128797126Y-128115519D01*
X128766557Y-128119359D01*
X128735627Y-128121005D01*
X128704821Y-128120238D01*
X128674626Y-128116970D01*
X128645072Y-128111307D01*
X128616187Y-128103354D01*
X128588000Y-128093219D01*
X128560542Y-128081008D01*
X128533840Y-128066826D01*
X128507925Y-128050781D01*
X128482825Y-128032979D01*
X128458570Y-128013525D01*
X128435188Y-127992527D01*
X128412708Y-127970090D01*
X128391161Y-127946321D01*
X128370575Y-127921326D01*
X128350979Y-127895211D01*
X128332402Y-127868083D01*
X128314874Y-127840048D01*
X128298423Y-127811213D01*
X128283080Y-127781683D01*
X128268872Y-127751565D01*
X128255829Y-127720965D01*
X128243980Y-127689990D01*
X128233355Y-127658746D01*
X128223983Y-127627339D01*
X128215892Y-127595875D01*
X128209112Y-127564461D01*
X128203672Y-127533203D01*
X128199601Y-127502208D01*
X128196929Y-127471581D01*
X128195683Y-127441430D01*
X128195895Y-127411859D01*
X128197592Y-127382977D01*
X128197622Y-127382977D01*
X128200976Y-127354907D01*
X128206102Y-127327709D01*
X128212950Y-127301390D01*
X128221467Y-127275955D01*
X128231603Y-127251411D01*
X128243305Y-127227765D01*
X128256521Y-127205022D01*
X128271200Y-127183190D01*
X128287291Y-127162274D01*
X128304741Y-127142280D01*
X128323498Y-127123216D01*
X128343512Y-127105087D01*
X128364730Y-127087900D01*
X128387100Y-127071661D01*
X128410571Y-127056377D01*
X128435092Y-127042053D01*
X128460609Y-127028697D01*
X128487073Y-127016314D01*
X128514430Y-127004911D01*
X128542630Y-126994494D01*
X128571621Y-126985070D01*
X128601350Y-126976645D01*
X128631766Y-126969225D01*
X128662818Y-126962817D01*
X128694454Y-126957427D01*
X128726621Y-126953061D01*
X128759269Y-126949725D01*
X128792346Y-126947427D01*
X128825799Y-126946172D01*
X128859578Y-126945967D01*
X128893630Y-126946818D01*
G37*
%TD.AperFunction*%
D10*
X125955562Y-96713004D02*
X125956092Y-96700230D01*
X125955709Y-96726159D02*
X125955562Y-96713004D01*
X125956092Y-96700230D02*
X125957257Y-96687803D01*
X125957212Y-96748412D02*
X125955709Y-96726159D01*
X125957257Y-96687803D02*
X125959014Y-96675690D01*
X125959014Y-96675690D02*
X125961322Y-96663858D01*
X125959898Y-96767539D02*
X125957212Y-96748412D01*
X125961322Y-96663858D02*
X125964138Y-96652273D01*
X125963748Y-96783715D02*
X125959898Y-96767539D01*
X125964138Y-96652273D02*
X125971126Y-96629711D01*
X125968744Y-96797115D02*
X125963748Y-96783715D01*
X125971126Y-96629711D02*
X125979641Y-96607738D01*
X125974868Y-96807910D02*
X125968744Y-96797115D01*
X125979641Y-96607738D02*
X125989345Y-96586086D01*
X125982101Y-96816276D02*
X125974868Y-96807910D01*
X125989345Y-96586086D02*
X126010974Y-96542679D01*
X125990425Y-96822385D02*
X125982101Y-96816276D01*
X125999821Y-96826412D02*
X125990425Y-96822385D01*
X126010271Y-96828530D02*
X125999821Y-96826412D01*
X126010974Y-96542679D02*
X126033314Y-96497354D01*
X126021757Y-96828914D02*
X126010271Y-96828530D01*
X126033314Y-96497354D02*
X126043908Y-96473306D01*
X126034260Y-96827736D02*
X126021757Y-96828914D01*
X126043908Y-96473306D02*
X126053667Y-96447977D01*
X126047761Y-96825171D02*
X126034260Y-96827736D01*
X126053667Y-96447977D02*
X126062255Y-96421102D01*
X126062243Y-96821392D02*
X126047761Y-96825171D01*
X126062255Y-96421102D02*
X126066004Y-96407000D01*
X126066004Y-96407000D02*
X126069334Y-96392412D01*
X126069334Y-96392412D02*
X126072202Y-96377304D01*
X126072202Y-96377304D02*
X126074567Y-96361641D01*
X126074567Y-96361641D02*
X126076386Y-96345392D01*
X126076386Y-96345392D02*
X126077617Y-96328523D01*
X126077617Y-96328523D02*
X126080343Y-96261583D01*
X126077686Y-96816572D02*
X126062243Y-96821392D01*
X126080343Y-96261583D02*
X126082384Y-96198573D01*
X126082384Y-96198573D02*
X126083731Y-96168675D01*
X126083731Y-96168675D02*
X126085607Y-96139920D01*
X126085607Y-96139920D02*
X126088245Y-96112362D01*
X126088245Y-96112362D02*
X126091878Y-96086052D01*
X126091878Y-96086052D02*
X126096740Y-96061046D01*
X126096740Y-96061046D02*
X126099705Y-96049049D01*
X126099705Y-96049049D02*
X126103064Y-96037397D01*
X126103064Y-96037397D02*
X126106847Y-96026098D01*
X126106847Y-96026098D02*
X126111083Y-96015158D01*
X126111083Y-96015158D02*
X126115802Y-96004583D01*
X126111385Y-96804509D02*
X126077686Y-96816572D01*
X126115802Y-96004583D02*
X126121032Y-95994382D01*
X126121032Y-95994382D02*
X126126802Y-95984559D01*
X126126802Y-95984559D02*
X126133142Y-95975122D01*
X126133142Y-95975122D02*
X126140081Y-95966078D01*
X126140081Y-95966078D02*
X126147648Y-95957434D01*
X126147648Y-95957434D02*
X126155872Y-95949195D01*
X126155872Y-95949195D02*
X126164783Y-95941369D01*
X126164783Y-95941369D02*
X126174409Y-95933962D01*
X126174409Y-95933962D02*
X126184779Y-95926981D01*
X126184779Y-95926981D02*
X126199492Y-95918924D01*
X126189514Y-96775546D02*
X126111385Y-96804509D01*
X126199492Y-95918924D02*
X126214565Y-95912959D01*
X126214565Y-95912959D02*
X126229969Y-95908976D01*
X126229969Y-95908976D02*
X126245676Y-95906867D01*
X126233649Y-96761426D02*
X126189514Y-96775546D01*
X126245676Y-95906867D02*
X126261656Y-95906523D01*
X126256920Y-96755065D02*
X126233649Y-96761426D01*
X126261656Y-95906523D02*
X126277880Y-95907836D01*
X126277880Y-95907836D02*
X126294319Y-95910696D01*
X126280969Y-96749400D02*
X126256920Y-96755065D01*
X126294319Y-95910696D02*
X126310944Y-95914994D01*
X126305776Y-96744607D02*
X126280969Y-96749400D01*
X126310944Y-95914994D02*
X126327725Y-95920623D01*
X126327725Y-95920623D02*
X126344635Y-95927474D01*
X126331325Y-96740859D02*
X126305776Y-96744607D01*
X126344635Y-95927474D02*
X126361643Y-95935437D01*
X126357596Y-96738329D02*
X126331325Y-96740859D01*
X126361643Y-95935437D02*
X126378720Y-95944404D01*
X126378720Y-95944404D02*
X126412967Y-95964915D01*
X126384571Y-96737191D02*
X126357596Y-96738329D01*
X126412231Y-96737619D02*
X126384571Y-96737191D01*
X126412967Y-95964915D02*
X126447143Y-95988137D01*
X126440559Y-96739787D02*
X126412231Y-96737619D01*
X126447143Y-95988137D02*
X126481014Y-96013200D01*
X126469535Y-96743868D02*
X126440559Y-96739787D01*
X126477756Y-98815243D02*
X126478491Y-98804001D01*
X126478428Y-98826762D02*
X126477756Y-98815243D01*
X126478491Y-98804001D02*
X126480733Y-98793044D01*
X126480408Y-98838550D02*
X126478428Y-98826762D01*
X126480733Y-98793044D02*
X126484583Y-98782383D01*
X126481014Y-96013200D02*
X126514349Y-96039235D01*
X126483594Y-98850598D02*
X126480408Y-98838550D01*
X126484583Y-98782383D02*
X126490139Y-98772024D01*
X126487888Y-98862898D02*
X126483594Y-98850598D01*
X126490139Y-98772024D02*
X126497502Y-98761976D01*
X126493189Y-98875440D02*
X126487888Y-98862898D01*
X126497502Y-98761976D02*
X126506772Y-98752249D01*
X126499142Y-96750036D02*
X126469535Y-96743868D01*
X126499398Y-98888217D02*
X126493189Y-98875440D01*
X126506772Y-98752249D02*
X126517545Y-98743446D01*
X126514138Y-98914440D02*
X126499398Y-98888217D01*
X126514349Y-96039235D02*
X126578477Y-96090740D01*
X126517545Y-98743446D02*
X126529323Y-98736096D01*
X126529323Y-98736096D02*
X126542070Y-98730092D01*
X126531307Y-98941498D02*
X126514138Y-98914440D01*
X126542070Y-98730092D02*
X126555749Y-98725325D01*
X126555749Y-98725325D02*
X126570323Y-98721689D01*
X126569739Y-98997844D02*
X126531307Y-98941498D01*
X126570323Y-98721689D02*
X126585754Y-98719076D01*
X126578477Y-96090740D02*
X126608805Y-96114470D01*
X126585754Y-98719076D02*
X126619040Y-98716489D01*
X126589402Y-99026996D02*
X126569739Y-98997844D01*
X126608296Y-99056708D02*
X126589402Y-99026996D01*
X126608805Y-96114470D02*
X126637665Y-96135693D01*
X126615582Y-96781274D02*
X126499142Y-96750036D01*
X126619040Y-98716489D02*
X126655311Y-98716705D01*
X126625622Y-99086912D02*
X126608296Y-99056708D01*
X126633448Y-99102178D02*
X126625622Y-99086912D01*
X126637665Y-96135693D02*
X126664823Y-96153537D01*
X126640581Y-99117541D02*
X126633448Y-99102178D01*
X126646923Y-99132992D02*
X126640581Y-99117541D01*
X126652373Y-99148524D02*
X126646923Y-99132992D01*
X126655311Y-98716705D02*
X126694270Y-98718863D01*
X126656831Y-99164128D02*
X126652373Y-99148524D01*
X126660198Y-99179794D02*
X126656831Y-99164128D01*
X126664823Y-96153537D02*
X126677692Y-96160921D01*
X126667062Y-99226114D02*
X126660198Y-99179794D01*
X126671349Y-99270903D02*
X126667062Y-99226114D01*
X126673656Y-99313961D02*
X126671349Y-99270903D01*
X126674578Y-99355085D02*
X126673656Y-99313961D01*
X126674658Y-99430727D02*
X126674578Y-99355085D01*
X126675007Y-99464842D02*
X126674658Y-99430727D01*
X126676358Y-99496219D02*
X126675007Y-99464842D01*
X126677692Y-96160921D02*
X126690049Y-96167135D01*
X126679308Y-99524655D02*
X126676358Y-99496219D01*
X126684452Y-99549949D02*
X126679308Y-99524655D01*
X126688034Y-99561355D02*
X126684452Y-99549949D01*
X126690049Y-96167135D02*
X126906641Y-96265382D01*
X126692387Y-99571899D02*
X126688034Y-99561355D01*
X126694270Y-98718863D02*
X126779065Y-98725571D01*
X126697588Y-99581558D02*
X126692387Y-99571899D01*
X126703710Y-99590305D02*
X126697588Y-99581558D01*
X126710828Y-99598116D02*
X126703710Y-99590305D01*
X126719017Y-99604965D02*
X126710828Y-99598116D01*
X126728351Y-99610827D02*
X126719017Y-99604965D01*
X126738904Y-99615677D02*
X126728351Y-99610827D01*
X126745578Y-96821176D02*
X126615582Y-96781274D01*
X126750752Y-99619490D02*
X126738904Y-99615677D01*
X126763968Y-99622241D02*
X126750752Y-99619490D01*
X126778628Y-99623903D02*
X126763968Y-99622241D01*
X126779065Y-98725571D02*
X126824308Y-98728401D01*
X126794805Y-99624453D02*
X126778628Y-99623903D01*
X126809145Y-99623918D02*
X126794805Y-99624453D01*
X126822953Y-99622354D02*
X126809145Y-99623918D01*
X126824308Y-98728401D02*
X126871051Y-98729736D01*
X126836316Y-99619788D02*
X126822953Y-99622354D01*
X126849317Y-99616245D02*
X126836316Y-99619788D01*
X126862042Y-99611753D02*
X126849317Y-99616245D01*
X126871051Y-98729736D02*
X126918999Y-98728715D01*
X126874575Y-99606336D02*
X126862042Y-99611753D01*
X126887001Y-99600023D02*
X126874575Y-99606336D01*
X126899404Y-99592838D02*
X126887001Y-99600023D01*
X126906641Y-96265382D02*
X127154428Y-96374923D01*
X126911869Y-99584808D02*
X126899404Y-99592838D01*
X126918999Y-98728715D02*
X126967854Y-98724481D01*
X126924482Y-99575959D02*
X126911869Y-99584808D01*
X126950487Y-99555910D02*
X126924482Y-99575959D01*
X126967854Y-98724481D02*
X127017319Y-98716173D01*
X126978096Y-99532902D02*
X126950487Y-99555910D01*
X127007988Y-99507143D02*
X126978096Y-99532902D01*
X127017319Y-98716173D02*
X127042188Y-98710222D01*
X127034614Y-96921077D02*
X126745578Y-96821176D01*
X127040841Y-99478845D02*
X127007988Y-99507143D01*
X127042188Y-98710222D02*
X127067098Y-98702931D01*
X127067098Y-98702931D02*
X127092012Y-98694191D01*
X127077331Y-99448218D02*
X127040841Y-99478845D01*
X127092012Y-98694191D02*
X127116894Y-98683895D01*
X127116894Y-98683895D02*
X127141706Y-98671937D01*
X127118137Y-99415471D02*
X127077331Y-99448218D01*
X127140371Y-99398368D02*
X127118137Y-99415471D01*
X127141706Y-98671937D02*
X127166410Y-98658208D01*
X127154428Y-96374923D02*
X127669525Y-96597811D01*
X127163937Y-99380814D02*
X127140371Y-99398368D01*
X127166410Y-98658208D02*
X127851000Y-98359044D01*
X127188922Y-99362835D02*
X127163937Y-99380814D01*
X127215409Y-99344457D02*
X127188922Y-99362835D01*
X127243483Y-99325708D02*
X127215409Y-99344457D01*
X127273229Y-99306612D02*
X127243483Y-99325708D01*
X127304732Y-99287196D02*
X127273229Y-99306612D01*
X127338076Y-99267487D02*
X127304732Y-99287196D01*
X127342991Y-97037950D02*
X127034614Y-96921077D01*
X127373347Y-99247510D02*
X127338076Y-99267487D01*
X127410628Y-99227292D02*
X127373347Y-99247510D01*
X127612477Y-99122562D02*
X127410628Y-99227292D01*
X127639833Y-94024515D02*
X127642978Y-94227654D01*
X127642978Y-94227654D02*
X127648464Y-94274027D01*
X127647452Y-97160007D02*
X127342991Y-97037950D01*
X127648464Y-94274027D02*
X127655066Y-94318986D01*
X127650269Y-93913566D02*
X127639833Y-94024515D01*
X127655066Y-94318986D02*
X127662719Y-94362577D01*
X127662719Y-94362577D02*
X127671358Y-94404845D01*
X127668404Y-93797864D02*
X127650269Y-93913566D01*
X127669525Y-96597811D02*
X128259356Y-96848299D01*
X127671358Y-94404845D02*
X127680915Y-94445835D01*
X127680915Y-94445835D02*
X127691326Y-94485592D01*
X127691326Y-94485592D02*
X127702525Y-94524162D01*
X127694008Y-93678536D02*
X127668404Y-93797864D01*
X127702525Y-94524162D02*
X127714445Y-94561591D01*
X127714445Y-94561591D02*
X127740186Y-94633203D01*
X127726852Y-93556707D02*
X127694008Y-93678536D01*
X127740186Y-94633203D02*
X127768025Y-94700793D01*
X127766705Y-93433504D02*
X127726852Y-93556707D01*
X127768025Y-94700793D02*
X127797433Y-94764722D01*
X127797433Y-94764722D02*
X127827883Y-94825353D01*
X127813339Y-93310051D02*
X127766705Y-93433504D01*
X127827883Y-94825353D02*
X127858851Y-94883049D01*
X127838187Y-99009049D02*
X127612477Y-99122562D01*
X127851000Y-98359044D02*
X128515087Y-98072071D01*
X127858851Y-94883049D02*
X127889807Y-94938173D01*
X127866521Y-93187476D02*
X127813339Y-93310051D01*
X127889807Y-94938173D02*
X127949581Y-95042154D01*
X127893124Y-94844802D02*
X128114092Y-94802498D01*
X127926024Y-93066904D02*
X127866521Y-93187476D01*
X127949581Y-95042154D02*
X127977344Y-95091737D01*
D11*
X127964189Y-95748039D02*
X127964500Y-95782687D01*
X127964500Y-95782687D02*
X127966033Y-95816437D01*
X127965075Y-95712312D02*
X127964189Y-95748039D01*
X127966033Y-95816437D02*
X127968812Y-95849471D01*
X127968812Y-95849471D02*
X127972861Y-95881969D01*
X127970341Y-95636892D02*
X127965075Y-95712312D01*
X127972861Y-95881969D02*
X127978205Y-95914115D01*
D10*
X127977344Y-95091737D02*
X128002990Y-95140199D01*
D11*
X127978205Y-95914115D02*
X127984869Y-95946089D01*
X127980103Y-95554977D02*
X127970341Y-95636892D01*
X127984869Y-95946089D02*
X127992877Y-95978073D01*
D10*
X127991617Y-92949460D02*
X127926024Y-93066904D01*
D11*
X127992877Y-95978073D02*
X128002253Y-96010248D01*
X127994164Y-95465112D02*
X127980103Y-95554977D01*
X128002253Y-96010248D02*
X128013022Y-96042796D01*
D10*
X128002990Y-95140199D02*
X128025992Y-95187902D01*
D11*
X128012329Y-95365846D02*
X127994164Y-95465112D01*
X128013022Y-96042796D02*
X128038837Y-96109738D01*
D10*
X128025992Y-95187902D02*
X128045822Y-95235208D01*
D11*
X128034403Y-95255727D02*
X128012329Y-95365846D01*
X128038837Y-96109738D02*
X128070516Y-96180350D01*
X128057050Y-96129599D02*
X128067768Y-96139953D01*
D10*
X128063069Y-92836270D02*
X127991617Y-92949460D01*
D11*
X128067768Y-96139953D02*
X128102536Y-96177220D01*
X128070516Y-96180350D02*
X128108255Y-96256085D01*
X128073111Y-96152881D02*
X128057050Y-96129599D01*
X128089494Y-94997116D02*
X128034403Y-95255727D01*
X128102536Y-96177220D02*
X128158621Y-96234680D01*
X128108255Y-96256085D02*
X128152250Y-96338395D01*
X128114856Y-94875038D02*
X128089494Y-94997116D01*
X128123800Y-94826555D02*
X128114856Y-94875038D01*
X128130408Y-94784588D02*
X128123800Y-94826555D01*
X128134796Y-94747745D02*
X128130408Y-94784588D01*
X128137080Y-94714635D02*
X128134796Y-94747745D01*
D10*
X128140152Y-92728461D02*
X128063069Y-92836270D01*
X128151598Y-97372522D02*
X127647452Y-97160007D01*
D11*
X128152250Y-96338395D02*
X128177861Y-96380866D01*
X128158621Y-96234680D02*
X128193804Y-96268882D01*
X128177861Y-96380866D02*
X128203569Y-96416355D01*
X128193804Y-96268882D02*
X128233293Y-96305613D01*
X128203569Y-96416355D02*
X128229127Y-96446423D01*
D10*
X128222635Y-92627159D02*
X128140152Y-92728461D01*
X128225524Y-96816527D02*
X128324943Y-96543681D01*
D11*
X128229127Y-96446423D02*
X128254290Y-96472629D01*
X128233293Y-96305613D02*
X128276745Y-96344031D01*
X128254290Y-96472629D02*
X128302444Y-96519698D01*
D12*
X128258076Y-94032142D02*
X128268076Y-94472142D01*
D10*
X128259356Y-96848299D02*
X128360993Y-97464317D01*
D12*
X128268076Y-94472142D02*
X128137080Y-94714635D01*
D11*
X128276745Y-96344031D02*
X128323820Y-96383297D01*
D10*
X128298592Y-98783722D02*
X127838187Y-99009049D01*
D11*
X128302444Y-96519698D02*
X128324943Y-96543681D01*
D10*
X128310288Y-92533488D02*
X128222635Y-92627159D01*
D11*
X128323820Y-96383297D02*
X128374177Y-96422571D01*
X128324943Y-96543681D02*
X128346061Y-96570043D01*
X128346061Y-96570043D02*
X128365553Y-96600345D01*
D10*
X128360993Y-97464317D02*
X128151598Y-97372522D01*
D11*
X128365553Y-96600345D02*
X128383171Y-96636146D01*
X128374177Y-96422571D02*
X128427473Y-96461013D01*
X128383171Y-96636146D02*
X128391201Y-96656597D01*
X128398671Y-96679007D02*
X128405549Y-96703573D01*
D10*
X128402882Y-92448575D02*
X128310288Y-92533488D01*
D11*
X128405549Y-96703573D02*
X128411804Y-96730488D01*
X128411804Y-96730488D02*
X128422326Y-96792150D01*
X128422326Y-96792150D02*
X128429990Y-96865552D01*
X128427473Y-96461013D02*
X128483367Y-96497782D01*
X128429990Y-96865552D02*
X128434550Y-96952254D01*
X128435759Y-97053817D02*
X128436540Y-97113439D01*
X128436540Y-97113439D02*
X128439410Y-97172655D01*
X128439410Y-97172655D02*
X128444267Y-97231417D01*
X128444267Y-97231417D02*
X128451011Y-97289679D01*
X128451011Y-97289679D02*
X128459540Y-97347392D01*
X128459540Y-97347392D02*
X128469752Y-97404509D01*
X128469752Y-97404509D02*
X128494820Y-97516761D01*
D10*
X128471755Y-92393229D02*
X128402882Y-92448575D01*
D11*
X128483367Y-96497782D02*
X128541519Y-96532038D01*
X128494820Y-97516761D02*
X128525404Y-97626054D01*
D10*
X128515087Y-98072071D02*
X128817153Y-98536158D01*
D11*
X128525404Y-97626054D02*
X128560692Y-97732006D01*
X128541519Y-96532038D02*
X128560012Y-96543778D01*
D10*
X128546833Y-92338303D02*
X128471755Y-92393229D01*
D11*
X128560012Y-96543778D02*
X128577812Y-96558015D01*
X128560692Y-97732006D02*
X128599873Y-97834234D01*
X128577812Y-96558015D02*
X128594923Y-96574541D01*
X128594923Y-96574541D02*
X128611352Y-96593147D01*
X128599873Y-97834234D02*
X128642136Y-97932355D01*
X128611352Y-96593147D02*
X128627107Y-96613624D01*
X128627107Y-96613624D02*
X128642192Y-96635762D01*
D10*
X128627800Y-92284229D02*
X128546833Y-92338303D01*
D11*
X128642136Y-97932355D02*
X128686668Y-98025989D01*
X128642192Y-96635762D02*
X128656615Y-96659354D01*
X128656615Y-96659354D02*
X128670381Y-96684189D01*
X128670381Y-96684189D02*
X128695971Y-96736756D01*
X128686668Y-98025989D02*
X128732657Y-98114753D01*
X128695971Y-96736756D02*
X128719013Y-96791790D01*
D10*
X128714337Y-92231440D02*
X128627800Y-92284229D01*
D11*
X128719013Y-96791790D02*
X128739559Y-96847621D01*
X128732657Y-98114753D02*
X128779294Y-98198263D01*
X128779294Y-98198263D02*
X128825765Y-98276139D01*
D10*
X128806125Y-92180367D02*
X128714337Y-92231440D01*
X128817153Y-98536158D02*
X128298592Y-98783722D01*
D11*
X128825765Y-98276139D02*
X128871259Y-98347999D01*
X128871259Y-98347999D02*
X128914965Y-98413459D01*
D10*
X128902846Y-92131444D02*
X128806125Y-92180367D01*
D11*
X128914965Y-98413459D02*
X128993765Y-98523653D01*
X128993765Y-98523653D02*
X129025176Y-98564050D01*
D10*
X129004183Y-92085102D02*
X128902846Y-92131444D01*
D11*
X129025176Y-98564050D02*
X129057233Y-98602114D01*
X129057233Y-98602114D02*
X129089889Y-98637913D01*
X129089889Y-98637913D02*
X129123091Y-98671514D01*
D10*
X129109816Y-92041775D02*
X129004183Y-92085102D01*
D11*
X129123091Y-98671514D02*
X129156790Y-98702985D01*
X129156790Y-98702985D02*
X129190934Y-98732395D01*
X129190934Y-98732395D02*
X129225474Y-98759810D01*
D10*
X129219428Y-92001894D02*
X129109816Y-92041775D01*
D11*
X129225474Y-98759810D02*
X129260359Y-98785300D01*
X129260359Y-98785300D02*
X129295538Y-98808931D01*
X129295538Y-98808931D02*
X129330962Y-98830772D01*
X129330962Y-98830772D02*
X129366579Y-98850891D01*
D10*
X129332700Y-91965891D02*
X129219428Y-92001894D01*
D11*
X129366579Y-98850891D02*
X129402339Y-98869355D01*
X129402339Y-98869355D02*
X129474086Y-98901590D01*
D10*
X129449314Y-91934200D02*
X129332700Y-91965891D01*
D11*
X129474086Y-98901590D02*
X129545799Y-98928023D01*
X129545799Y-98928023D02*
X129617075Y-98949194D01*
D10*
X129568952Y-91907253D02*
X129449314Y-91934200D01*
D11*
X129617075Y-98949194D02*
X129687510Y-98965648D01*
X129687510Y-98965648D02*
X129756700Y-98977927D01*
D10*
X129691295Y-91885482D02*
X129568952Y-91907253D01*
D11*
X129756700Y-98977927D02*
X129824240Y-98986575D01*
D10*
X129816026Y-91869319D02*
X129691295Y-91885482D01*
D11*
X129824240Y-98986575D02*
X129889728Y-98992134D01*
X129889728Y-98992134D02*
X129952760Y-98995148D01*
D10*
X129942826Y-91859197D02*
X129816026Y-91869319D01*
D11*
X129952760Y-98995148D02*
X130069837Y-98995711D01*
D10*
X130065058Y-91855675D02*
X130193608Y-91859324D01*
X130071376Y-91855548D02*
X129942826Y-91859197D01*
D11*
X130107004Y-98986608D02*
X130051428Y-98995648D01*
X130165769Y-98975290D02*
X130107004Y-98986608D01*
D10*
X130193608Y-91859324D02*
X130320408Y-91869446D01*
D11*
X130227375Y-98961597D02*
X130165769Y-98975290D01*
X130291470Y-98945434D02*
X130227375Y-98961597D01*
D10*
X130320408Y-91869446D02*
X130445139Y-91885609D01*
D11*
X130357706Y-98926704D02*
X130291470Y-98945434D01*
X130425733Y-98905309D02*
X130357706Y-98926704D01*
D10*
X130445139Y-91885609D02*
X130567482Y-91907380D01*
D11*
X130495200Y-98881154D02*
X130425733Y-98905309D01*
X130565758Y-98854141D02*
X130495200Y-98881154D01*
D10*
X130567482Y-91907380D02*
X130687120Y-91934327D01*
D11*
X130637057Y-98824175D02*
X130565758Y-98854141D01*
D10*
X130687120Y-91934327D02*
X130803734Y-91966018D01*
D11*
X130708746Y-98791158D02*
X130637057Y-98824175D01*
X130780477Y-98754994D02*
X130708746Y-98791158D01*
D10*
X130803734Y-91966018D02*
X130917007Y-92002021D01*
D11*
X130851898Y-98715587D02*
X130780477Y-98754994D01*
D10*
X130917007Y-92002021D02*
X131026618Y-92041902D01*
D11*
X130922661Y-98672839D02*
X130851898Y-98715587D01*
X130992416Y-98626655D02*
X130922661Y-98672839D01*
D10*
X131026618Y-92041902D02*
X131132252Y-92085229D01*
D11*
X131060812Y-98576937D02*
X130992416Y-98626655D01*
X131127499Y-98523589D02*
X131060812Y-98576937D01*
D10*
X131132252Y-92085229D02*
X131233588Y-92131571D01*
D11*
X131152912Y-98500513D02*
X131127499Y-98523589D01*
X131178065Y-98474288D02*
X131152912Y-98500513D01*
X131203326Y-97100634D02*
X131200859Y-97099809D01*
X131206846Y-97098158D02*
X131203326Y-97100634D01*
X131216905Y-97084125D02*
X131206846Y-97098158D01*
X131227491Y-98413058D02*
X131178065Y-98474288D01*
X131230757Y-97059350D02*
X131216905Y-97084125D01*
D10*
X131233588Y-92131571D02*
X131330310Y-92180495D01*
D11*
X131275572Y-98341239D02*
X131227491Y-98413058D01*
X131318496Y-96885605D02*
X131230757Y-97059350D01*
X131322105Y-98260173D02*
X131275572Y-98341239D01*
D10*
X131330310Y-92180495D02*
X131422098Y-92231567D01*
X131336401Y-98557077D02*
X131833805Y-98796130D01*
D11*
X131347117Y-96831702D02*
X131318496Y-96885605D01*
X131366885Y-98171197D02*
X131322105Y-98260173D01*
X131377853Y-96776890D02*
X131347117Y-96831702D01*
X131409709Y-98075654D02*
X131366885Y-98171197D01*
X131410426Y-96722808D02*
X131377853Y-96776890D01*
D10*
X131422098Y-92231567D02*
X131508634Y-92284356D01*
D11*
X131444555Y-96671094D02*
X131410426Y-96722808D01*
X131450373Y-97974882D02*
X131409709Y-98075654D01*
X131479961Y-96623388D02*
X131444555Y-96671094D01*
X131488673Y-97870221D02*
X131450373Y-97974882D01*
X131498056Y-96601550D02*
X131479961Y-96623388D01*
D10*
X131508634Y-92284356D02*
X131589601Y-92338430D01*
D11*
X131516365Y-96581329D02*
X131498056Y-96601550D01*
X131524405Y-97763012D02*
X131488673Y-97870221D01*
D10*
X131525161Y-98064547D02*
X131336401Y-98557077D01*
D11*
X131534854Y-96562928D02*
X131516365Y-96581329D01*
X131553488Y-96546554D02*
X131534854Y-96562928D01*
X131557365Y-97654595D02*
X131524405Y-97763012D01*
X131572231Y-96532411D02*
X131553488Y-96546554D01*
X131587350Y-97546309D02*
X131557365Y-97654595D01*
D10*
X131589601Y-92338430D02*
X131664679Y-92393356D01*
D11*
X131591049Y-96520704D02*
X131572231Y-96532411D01*
X131614155Y-97439495D02*
X131587350Y-97546309D01*
X131637577Y-97335492D02*
X131614155Y-97439495D01*
X131649581Y-96486194D02*
X131591049Y-96520704D01*
X131657412Y-97235641D02*
X131637577Y-97335492D01*
D10*
X131664679Y-92393356D02*
X131733552Y-92448701D01*
D11*
X131673456Y-97141282D02*
X131657412Y-97235641D01*
X131685505Y-97053754D02*
X131673456Y-97141282D01*
X131706549Y-96448708D02*
X131649581Y-96486194D01*
X131711791Y-96867526D02*
X131698549Y-96953091D01*
X131725322Y-96795465D02*
X131711791Y-96867526D01*
D10*
X131733552Y-92448701D02*
X131826145Y-92533614D01*
D11*
X131739232Y-96735310D02*
X131725322Y-96795465D01*
D10*
X131751885Y-97449024D02*
X132425136Y-97175170D01*
D11*
X131753613Y-96685464D02*
X131739232Y-96735310D01*
X131761515Y-96409154D02*
X131706549Y-96448708D01*
X131768557Y-96644330D02*
X131753613Y-96685464D01*
X131784155Y-96610313D02*
X131768557Y-96644330D01*
X131800497Y-96581814D02*
X131784155Y-96610313D01*
D12*
X131803608Y-94563650D02*
X131934604Y-94806143D01*
X131813608Y-94123650D02*
X131803608Y-94563650D01*
D11*
X131814036Y-96368436D02*
X131761515Y-96409154D01*
X131817676Y-96557238D02*
X131800497Y-96581814D01*
D10*
X131826145Y-92533614D02*
X131913799Y-92627285D01*
X131833805Y-98796130D02*
X132706064Y-99220524D01*
D11*
X131835782Y-96534988D02*
X131817676Y-96557238D01*
X131863672Y-96327461D02*
X131814036Y-96368436D01*
X131875143Y-96491077D02*
X131835782Y-96534988D01*
D10*
X131886698Y-96794229D02*
X131751885Y-97449024D01*
D11*
X131896580Y-96466223D02*
X131875143Y-96491077D01*
X131909984Y-96287136D02*
X131863672Y-96327461D01*
D10*
X131913799Y-92627285D02*
X131996282Y-92728588D01*
D11*
X131919310Y-96437307D02*
X131896580Y-96466223D01*
X131934604Y-94806143D02*
X131936316Y-94827956D01*
X131936316Y-94827956D02*
X131939150Y-94850654D01*
X131939150Y-94850654D02*
X131943178Y-94874370D01*
X131943178Y-94874370D02*
X131948475Y-94899238D01*
X131943424Y-96402734D02*
X131919310Y-96437307D01*
X131948475Y-94899238D02*
X131955113Y-94925390D01*
X131955113Y-94925390D02*
X131963167Y-94952960D01*
X131963167Y-94952960D02*
X131972710Y-94982080D01*
X131969013Y-96360906D02*
X131943424Y-96402734D01*
X131972710Y-94982080D02*
X131983815Y-95012884D01*
D10*
X131974562Y-96763923D02*
X131875143Y-96491077D01*
D11*
X131983815Y-95012884D02*
X131996556Y-95045504D01*
X131990869Y-96212058D02*
X131909984Y-96287136D01*
D10*
X131996282Y-92728588D02*
X132073365Y-92836397D01*
D11*
X131996556Y-95045504D02*
X132034156Y-95145238D01*
X132002786Y-96297817D02*
X131969013Y-96360906D01*
X132033255Y-96231964D02*
X132002786Y-96297817D01*
X132034156Y-95145238D02*
X132065544Y-95242850D01*
D10*
X132062426Y-96733616D02*
X131886698Y-96794229D01*
D11*
X132065544Y-95242850D02*
X132090927Y-95338293D01*
D10*
X132073365Y-92836397D02*
X132144818Y-92949586D01*
D11*
X132083449Y-96092152D02*
X132033255Y-96231964D01*
X132083449Y-96092152D02*
X132060211Y-96163394D01*
X132090927Y-95338293D02*
X132110514Y-95431522D01*
D10*
X132110442Y-95188029D02*
X132090613Y-95235336D01*
D11*
X132110514Y-95431522D02*
X132124511Y-95522491D01*
X132117933Y-95941836D02*
X132102758Y-96018284D01*
X132124511Y-95522491D02*
X132133128Y-95611155D01*
X132128765Y-95862853D02*
X132117933Y-95941836D01*
X132133128Y-95611155D02*
X132136570Y-95697467D01*
D10*
X132133443Y-95140326D02*
X132110442Y-95188029D01*
D11*
X132135047Y-95781381D02*
X132128765Y-95862853D01*
X132136570Y-95697467D02*
X132135047Y-95781381D01*
D10*
X132144818Y-92949586D02*
X132210410Y-93067030D01*
X132159089Y-95091864D02*
X132133443Y-95140326D01*
X132186853Y-95042281D02*
X132159089Y-95091864D01*
X132210410Y-93067030D02*
X132269913Y-93187603D01*
X132246626Y-94938300D02*
X132025658Y-94895996D01*
X132246626Y-94938300D02*
X132186853Y-95042281D01*
X132269913Y-93187603D02*
X132323096Y-93310178D01*
X132277583Y-94883176D02*
X132246626Y-94938300D01*
X132308550Y-94825480D02*
X132277583Y-94883176D01*
X132323096Y-93310178D02*
X132369729Y-93433630D01*
X132339001Y-94764849D02*
X132308550Y-94825480D01*
X132368409Y-94700920D02*
X132339001Y-94764849D01*
X132369729Y-93433630D02*
X132409583Y-93556834D01*
X132396247Y-94633330D02*
X132368409Y-94700920D01*
X132409583Y-93556834D02*
X132442426Y-93678662D01*
X132421989Y-94561718D02*
X132396247Y-94633330D01*
X132425136Y-97175170D02*
X132714310Y-97062440D01*
X132433909Y-94524289D02*
X132421989Y-94561718D01*
X132442426Y-93678662D02*
X132468031Y-93797991D01*
X132445108Y-94485719D02*
X132433909Y-94524289D01*
X132455519Y-94445962D02*
X132445108Y-94485719D01*
X132465077Y-94404972D02*
X132455519Y-94445962D01*
X132468031Y-93797991D02*
X132486166Y-93913692D01*
X132473715Y-94362705D02*
X132465077Y-94404972D01*
X132481368Y-94319114D02*
X132473715Y-94362705D01*
X132486166Y-93913692D02*
X132496602Y-94024642D01*
X132487162Y-96580555D02*
X132062426Y-96733616D01*
X132487971Y-94274154D02*
X132481368Y-94319114D01*
X132493457Y-94227781D02*
X132487971Y-94274154D01*
X132496602Y-94024642D02*
X132499109Y-94129714D01*
X132499109Y-94129714D02*
X132493457Y-94227781D01*
X132706064Y-99220524D02*
X132743837Y-99239777D01*
X132714310Y-97062440D02*
X133008854Y-96951834D01*
X132743837Y-99239777D02*
X132779448Y-99259050D01*
X132744885Y-96482844D02*
X132487162Y-96580555D01*
X132779448Y-99259050D02*
X132812990Y-99278292D01*
X132812990Y-99278292D02*
X132844554Y-99297451D01*
X132844554Y-99297451D02*
X132874231Y-99316473D01*
X132874231Y-99316473D02*
X132902114Y-99335308D01*
X132902114Y-99335308D02*
X132928293Y-99353903D01*
X132904286Y-98702657D02*
X131525161Y-98064547D01*
X132928293Y-99353903D02*
X132952861Y-99372206D01*
X132929343Y-98715477D02*
X132904286Y-98702657D01*
X132952861Y-99372206D02*
X132975909Y-99390165D01*
X132954399Y-98726148D02*
X132929343Y-98715477D01*
X132975909Y-99390165D02*
X132997528Y-99407727D01*
X132979421Y-98734805D02*
X132954399Y-98726148D01*
X132997528Y-99407727D02*
X133036849Y-99441454D01*
X133004382Y-98741580D02*
X132979421Y-98734805D01*
X133007231Y-96378207D02*
X132744885Y-96482844D01*
X133008854Y-96951834D02*
X133287282Y-96853267D01*
X133029249Y-98746607D02*
X133004382Y-98741580D01*
X133036849Y-99441454D02*
X133071556Y-99472970D01*
X133053994Y-98750019D02*
X133029249Y-98746607D01*
X133071556Y-99472970D02*
X133102382Y-99501858D01*
X133078587Y-98751951D02*
X133053994Y-98750019D01*
X133102382Y-99501858D02*
X133130061Y-99527701D01*
X133102996Y-98752535D02*
X133078587Y-98751951D01*
X133127192Y-98751906D02*
X133102996Y-98752535D01*
X133130061Y-99527701D02*
X133155325Y-99550083D01*
X133151146Y-98750196D02*
X133127192Y-98751906D01*
X133155325Y-99550083D02*
X133167280Y-99559845D01*
X133167280Y-99559845D02*
X133178907Y-99568585D01*
X133178907Y-99568585D02*
X133190297Y-99576251D01*
X133190297Y-99576251D02*
X133201541Y-99582791D01*
X133198203Y-98744068D02*
X133151146Y-98750196D01*
X133201541Y-99582791D02*
X133212731Y-99588153D01*
X133212731Y-99588153D02*
X133223959Y-99592284D01*
X133223959Y-99592284D02*
X133235316Y-99595133D01*
X133235316Y-99595133D02*
X133246894Y-99596648D01*
X133243926Y-98735220D02*
X133198203Y-98744068D01*
X133246894Y-99596648D02*
X133258785Y-99596775D01*
X133254993Y-96272040D02*
X133007231Y-96378207D01*
X133258785Y-99596775D02*
X133271080Y-99595464D01*
X133271080Y-99595464D02*
X133283871Y-99592661D01*
X133283871Y-99592661D02*
X133297249Y-99588316D01*
X133287282Y-96853267D02*
X133528106Y-96776654D01*
X133288075Y-98724721D02*
X133243926Y-98735220D01*
X133297249Y-99588316D02*
X133311241Y-99582457D01*
X133311241Y-99582457D02*
X133323750Y-99575959D01*
X133323750Y-99575959D02*
X133334860Y-99568843D01*
X133334860Y-99568843D02*
X133344653Y-99561132D01*
X133344653Y-99561132D02*
X133353214Y-99552851D01*
X133353214Y-99552851D02*
X133360624Y-99544021D01*
X133360624Y-99544021D02*
X133366967Y-99534667D01*
X133366967Y-99534667D02*
X133372327Y-99524810D01*
X133367401Y-96220068D02*
X133254993Y-96272040D01*
X133370688Y-98703038D02*
X133288075Y-98724721D01*
X133372327Y-99524810D02*
X133376787Y-99514474D01*
X133376787Y-99514474D02*
X133380430Y-99503683D01*
X133380430Y-99503683D02*
X133383339Y-99492459D01*
X133383339Y-99492459D02*
X133385597Y-99480825D01*
X133385597Y-99480825D02*
X133388495Y-99456420D01*
X133388495Y-99456420D02*
X133389789Y-99430654D01*
X133389789Y-99430654D02*
X133390230Y-99375773D01*
X133390230Y-99375773D02*
X133390709Y-99347027D01*
X133390709Y-99347027D02*
X133392247Y-99317658D01*
X133392247Y-99317658D02*
X133395510Y-99287849D01*
X133395510Y-99287849D02*
X133401165Y-99257786D01*
X133401165Y-99257786D02*
X133405097Y-99242716D01*
X133405097Y-99242716D02*
X133409877Y-99227652D01*
X133408669Y-98693991D02*
X133370688Y-98703038D01*
X133409877Y-99227652D02*
X133415588Y-99212616D01*
X133415588Y-99212616D02*
X133422312Y-99197633D01*
X133422312Y-99197633D02*
X133437284Y-99168032D01*
X133437284Y-99168032D02*
X133453974Y-99136798D01*
X133444113Y-98687564D02*
X133408669Y-98693991D01*
X133453974Y-99136798D02*
X133490278Y-99070727D01*
X133468960Y-96169737D02*
X133367401Y-96220068D01*
X133476779Y-98684824D02*
X133444113Y-98687564D01*
X133480943Y-96163141D02*
X133468960Y-96169737D01*
X133490278Y-99070727D02*
X133526764Y-99002010D01*
X133491995Y-98685171D02*
X133476779Y-98684824D01*
X133493218Y-96155646D02*
X133480943Y-96163141D01*
X133506426Y-98686840D02*
X133491995Y-98685171D01*
X133518593Y-96138323D02*
X133493218Y-96155646D01*
X133520043Y-98689966D02*
X133506426Y-98686840D01*
X133526764Y-99002010D02*
X133543679Y-98967469D01*
X133528106Y-96776654D02*
X133557625Y-96769319D01*
X133532814Y-98694680D02*
X133520043Y-98689966D01*
X133543679Y-98967469D02*
X133558966Y-98933237D01*
X133544710Y-98701118D02*
X133532814Y-98694680D01*
X133544978Y-96118492D02*
X133518593Y-96138323D01*
X133555700Y-98709412D02*
X133544710Y-98701118D01*
X133557625Y-96769319D02*
X133587014Y-96764343D01*
X133558966Y-98933237D02*
X133572067Y-98899640D01*
X133565408Y-98719075D02*
X133555700Y-98709412D01*
X133572067Y-98899640D02*
X133582424Y-98867001D01*
X133572271Y-96096873D02*
X133544978Y-96118492D01*
X133573523Y-98729504D02*
X133565408Y-98719075D01*
X133580115Y-98740659D02*
X133573523Y-98729504D01*
X133582424Y-98867001D02*
X133586399Y-98851142D01*
X133585254Y-98752497D02*
X133580115Y-98740659D01*
X133586399Y-98851142D02*
X133589479Y-98835643D01*
X133587014Y-96764343D02*
X133616222Y-96761536D01*
X133589010Y-98764981D02*
X133585254Y-98752497D01*
X133589479Y-98835643D02*
X133591594Y-98820546D01*
X133591452Y-98778067D02*
X133589010Y-98764981D01*
X133591594Y-98820546D02*
X133592674Y-98805891D01*
X133592650Y-98791718D02*
X133591452Y-98778067D01*
X133592674Y-98805891D02*
X133592650Y-98791718D01*
X133616222Y-96761536D02*
X133645195Y-96760709D01*
X133629159Y-96051168D02*
X133572271Y-96096873D01*
X133645195Y-96760709D02*
X133673879Y-96761673D01*
X133658545Y-96028526D02*
X133629159Y-96051168D01*
X133673879Y-96761673D02*
X133702221Y-96764239D01*
X133688421Y-96006987D02*
X133658545Y-96028526D01*
X133702221Y-96764239D02*
X133730168Y-96768218D01*
X133718682Y-95987274D02*
X133688421Y-96006987D01*
X133730168Y-96768218D02*
X133757666Y-96773421D01*
X133733924Y-95978328D02*
X133718682Y-95987274D01*
X133749223Y-95970110D02*
X133733924Y-95978328D01*
X133757666Y-96773421D02*
X133784663Y-96779659D01*
X133764566Y-95962709D02*
X133749223Y-95970110D01*
X133779939Y-95956217D02*
X133764566Y-95962709D01*
X133784663Y-96779659D02*
X133811104Y-96786741D01*
X133795331Y-95950723D02*
X133779939Y-95956217D01*
X133810728Y-95946317D02*
X133795331Y-95950723D01*
X133811104Y-96786741D02*
X133862108Y-96802687D01*
X133826116Y-95943091D02*
X133810728Y-95946317D01*
X133841484Y-95941134D02*
X133826116Y-95943091D01*
X133856817Y-95940537D02*
X133841484Y-95941134D01*
X133862108Y-96802687D02*
X133910252Y-96819744D01*
X133872102Y-95941389D02*
X133856817Y-95940537D01*
X133887327Y-95943782D02*
X133872102Y-95941389D01*
X133902479Y-95947805D02*
X133887327Y-95943782D01*
X133910252Y-96819744D02*
X133955108Y-96836400D01*
X133917544Y-95953550D02*
X133902479Y-95947805D01*
X133932509Y-95961105D02*
X133917544Y-95953550D01*
X133943040Y-95967468D02*
X133932509Y-95961105D01*
X133952585Y-95973990D02*
X133943040Y-95967468D01*
X133955108Y-96836400D02*
X133996251Y-96851143D01*
X133961189Y-95980684D02*
X133952585Y-95973990D01*
X133968899Y-95987561D02*
X133961189Y-95980684D01*
X133975761Y-95994634D02*
X133968899Y-95987561D01*
X133981822Y-96001914D02*
X133975761Y-95994634D01*
X133987128Y-96009414D02*
X133981822Y-96001914D01*
X133991725Y-96017145D02*
X133987128Y-96009414D01*
X133995659Y-96025119D02*
X133991725Y-96017145D01*
X133996251Y-96851143D02*
X134033254Y-96862458D01*
X133998977Y-96033349D02*
X133995659Y-96025119D01*
X134001724Y-96041845D02*
X133998977Y-96033349D01*
X134003948Y-96050621D02*
X134001724Y-96041845D01*
X134005694Y-96059689D02*
X134003948Y-96050621D01*
X134005979Y-96209494D02*
X134006609Y-96182061D01*
X134006029Y-96238761D02*
X134005979Y-96209494D01*
X134006609Y-96182061D02*
X134008430Y-96132314D01*
X134007009Y-96069059D02*
X134005694Y-96059689D01*
X134007129Y-96269957D02*
X134006029Y-96238761D01*
X134007939Y-96078744D02*
X134007009Y-96069059D01*
X134008189Y-96286309D02*
X134007129Y-96269957D01*
X134008430Y-96132314D02*
X134008880Y-96109809D01*
X134008530Y-96088756D02*
X134007939Y-96078744D01*
X134008880Y-96109809D02*
X134008530Y-96088756D01*
X134009650Y-96303179D02*
X134008189Y-96286309D01*
X134014101Y-96337014D02*
X134009650Y-96303179D01*
X134020539Y-96370020D02*
X134014101Y-96337014D01*
X134028652Y-96402246D02*
X134020539Y-96370020D01*
X134033254Y-96862458D02*
X134050069Y-96866358D01*
X134038126Y-96433745D02*
X134028652Y-96402246D01*
X134048650Y-96464568D02*
X134038126Y-96433745D01*
X134050069Y-96866358D02*
X134065690Y-96868833D01*
X134059912Y-96494765D02*
X134048650Y-96464568D01*
X134065690Y-96868833D02*
X134080062Y-96869696D01*
X134080062Y-96869696D02*
X134093132Y-96868756D01*
X134083401Y-96553491D02*
X134059912Y-96494765D01*
X134093132Y-96868756D02*
X134104848Y-96865824D01*
X134104848Y-96865824D02*
X134115155Y-96860711D01*
X134106095Y-96610332D02*
X134083401Y-96553491D01*
X134115155Y-96860711D02*
X134119764Y-96857278D01*
X134116364Y-96638174D02*
X134106095Y-96610332D01*
X134119764Y-96857278D02*
X134124001Y-96853229D01*
X134124001Y-96853229D02*
X134127859Y-96848540D01*
X134125498Y-96665699D02*
X134116364Y-96638174D01*
X134127859Y-96848540D02*
X134131331Y-96843188D01*
X134131331Y-96843188D02*
X134137094Y-96830398D01*
X134133184Y-96692957D02*
X134125498Y-96665699D01*
X134137094Y-96830398D02*
X134141234Y-96814672D01*
X134139111Y-96720001D02*
X134133184Y-96692957D01*
X134141234Y-96814672D02*
X134143700Y-96795819D01*
X134142966Y-96746882D02*
X134139111Y-96720001D01*
X134143700Y-96795819D02*
X134144438Y-96773650D01*
X134144438Y-96773650D02*
X134142966Y-96746882D01*
D13*
%TA.AperFunction,EtchedComponent*%
G36*
X128863608Y-96813650D02*
G01*
X128913056Y-96988191D01*
X128933608Y-97273650D01*
X128773608Y-97263650D01*
X128633608Y-97283650D01*
X128533608Y-97413650D01*
X128355807Y-96585194D01*
X128863608Y-96813650D01*
G37*
%TD.AperFunction*%
%TA.AperFunction,EtchedComponent*%
G36*
X131593608Y-97413650D02*
G01*
X131493608Y-97283650D01*
X131353608Y-97263650D01*
X131193608Y-97273650D01*
X131214160Y-96988191D01*
X131263608Y-96813650D01*
X131771409Y-96585194D01*
X131593608Y-97413650D01*
G37*
%TD.AperFunction*%
%TA.AperFunction,EtchedComponent*%
G36*
X129075696Y-97051742D02*
G01*
X129237202Y-97107212D01*
X129397835Y-97154278D01*
X129557854Y-97192620D01*
X129717519Y-97221918D01*
X129877090Y-97241850D01*
X130063608Y-97252095D01*
X130063608Y-98133650D01*
X129933608Y-98133650D01*
X129809665Y-98124155D01*
X129674634Y-98102285D01*
X129543058Y-98071330D01*
X129423608Y-98013650D01*
X129313608Y-97943650D01*
X129213608Y-97883650D01*
X129143608Y-97833650D01*
X129053608Y-97753650D01*
X128983608Y-97683650D01*
X128903608Y-97523650D01*
X128863608Y-97373650D01*
X128823608Y-97223650D01*
X128806615Y-97080194D01*
X128913056Y-96988191D01*
X129075696Y-97051742D01*
G37*
%TD.AperFunction*%
%TA.AperFunction,EtchedComponent*%
G36*
X131320601Y-97080194D02*
G01*
X131303608Y-97223650D01*
X131263608Y-97373650D01*
X131223608Y-97523650D01*
X131143608Y-97683650D01*
X131073608Y-97753650D01*
X130983608Y-97833650D01*
X130913608Y-97883650D01*
X130813608Y-97943650D01*
X130703608Y-98013650D01*
X130584158Y-98071330D01*
X130452582Y-98102285D01*
X130317551Y-98124155D01*
X130193608Y-98133650D01*
X130063608Y-98133650D01*
X130063608Y-97252095D01*
X130250126Y-97241850D01*
X130409697Y-97221918D01*
X130569362Y-97192620D01*
X130729381Y-97154278D01*
X130890014Y-97107212D01*
X131051520Y-97051742D01*
X131214160Y-96988191D01*
X131320601Y-97080194D01*
G37*
%TD.AperFunction*%
%TA.AperFunction,EtchedComponent*%
G36*
X130047059Y-95556760D02*
G01*
X130088041Y-95562225D01*
X130128755Y-95573107D01*
X130168925Y-95589455D01*
X130208276Y-95611317D01*
X130246530Y-95638742D01*
X130283412Y-95671779D01*
X130318645Y-95710475D01*
X130351954Y-95754880D01*
X130383063Y-95805042D01*
X130411694Y-95861009D01*
X130437573Y-95922831D01*
X130460422Y-95990556D01*
X130479967Y-96064233D01*
X130495929Y-96143909D01*
X130508035Y-96229634D01*
X130508035Y-96229632D01*
X130508035Y-96229630D01*
X130508034Y-96229627D01*
X130508034Y-96229625D01*
X130508034Y-96229622D01*
X130508034Y-96229620D01*
X130517118Y-96278486D01*
X130524270Y-96325272D01*
X130529528Y-96369959D01*
X130532931Y-96412530D01*
X130534519Y-96452967D01*
X130534330Y-96491253D01*
X130532402Y-96527370D01*
X130528776Y-96561301D01*
X130523490Y-96593027D01*
X130516582Y-96622532D01*
X130508091Y-96649799D01*
X130498057Y-96674808D01*
X130486518Y-96697544D01*
X130473514Y-96717987D01*
X130459082Y-96736122D01*
X130443262Y-96751930D01*
X130426093Y-96765394D01*
X130407614Y-96776496D01*
X130387863Y-96785218D01*
X130366880Y-96791544D01*
X130344702Y-96795456D01*
X130321370Y-96796935D01*
X130296922Y-96795965D01*
X130271397Y-96792528D01*
X130244834Y-96786607D01*
X130217271Y-96778184D01*
X130188748Y-96767241D01*
X130159303Y-96753761D01*
X130128976Y-96737726D01*
X130097804Y-96719119D01*
X130065828Y-96697923D01*
X130033086Y-96674119D01*
X129987623Y-96702910D01*
X129945156Y-96727504D01*
X129905586Y-96748050D01*
X129868817Y-96764694D01*
X129834748Y-96777584D01*
X129803283Y-96786867D01*
X129774323Y-96792692D01*
X129747769Y-96795205D01*
X129723523Y-96794554D01*
X129701488Y-96790887D01*
X129681564Y-96784350D01*
X129663654Y-96775092D01*
X129647659Y-96763261D01*
X129633481Y-96749002D01*
X129621022Y-96732465D01*
X129610184Y-96713797D01*
X129600868Y-96693144D01*
X129592976Y-96670655D01*
X129586410Y-96646477D01*
X129581072Y-96620758D01*
X129576862Y-96593645D01*
X129573684Y-96565285D01*
X129570028Y-96505417D01*
X129569318Y-96442333D01*
X129570766Y-96377214D01*
X129576998Y-96245589D01*
X129580280Y-96166397D01*
X129587989Y-96091796D01*
X129599849Y-96021835D01*
X129615583Y-95956562D01*
X129634916Y-95896026D01*
X129657571Y-95840276D01*
X129683272Y-95789359D01*
X129711742Y-95743326D01*
X129742707Y-95702223D01*
X129775889Y-95666101D01*
X129811012Y-95635007D01*
X129847801Y-95608990D01*
X129885979Y-95588098D01*
X129925270Y-95572381D01*
X129965398Y-95561887D01*
X130006086Y-95556663D01*
X130047059Y-95556760D01*
G37*
%TD.AperFunction*%
%TA.AperFunction,EtchedComponent*%
G36*
X131096596Y-94720849D02*
G01*
X131128231Y-94722466D01*
X131159051Y-94725215D01*
X131189040Y-94729080D01*
X131218184Y-94734050D01*
X131246467Y-94740110D01*
X131273874Y-94747247D01*
X131300390Y-94755447D01*
X131326000Y-94764696D01*
X131350689Y-94774980D01*
X131374440Y-94786287D01*
X131397240Y-94798602D01*
X131419073Y-94811911D01*
X131439923Y-94826202D01*
X131459776Y-94841460D01*
X131478616Y-94857671D01*
X131496428Y-94874822D01*
X131513198Y-94892900D01*
X131528909Y-94911890D01*
X131543546Y-94931779D01*
X131557095Y-94952554D01*
X131569540Y-94974200D01*
X131580866Y-94996704D01*
X131591058Y-95020052D01*
X131600100Y-95044231D01*
X131607978Y-95069227D01*
X131614676Y-95095026D01*
X131620179Y-95121615D01*
X131624472Y-95148979D01*
X131627539Y-95177106D01*
X131627507Y-95177105D01*
X131629158Y-95205874D01*
X131629236Y-95235111D01*
X131627776Y-95264725D01*
X131624813Y-95294624D01*
X131620381Y-95324716D01*
X131614516Y-95354911D01*
X131607252Y-95385115D01*
X131598625Y-95415237D01*
X131588670Y-95445187D01*
X131577421Y-95474871D01*
X131564914Y-95504198D01*
X131551184Y-95533077D01*
X131536265Y-95561416D01*
X131520193Y-95589123D01*
X131503002Y-95616106D01*
X131484727Y-95642274D01*
X131465404Y-95667535D01*
X131445068Y-95691798D01*
X131423753Y-95714970D01*
X131401495Y-95736959D01*
X131378328Y-95757676D01*
X131354287Y-95777026D01*
X131329408Y-95794920D01*
X131303726Y-95811264D01*
X131277274Y-95825968D01*
X131250089Y-95838940D01*
X131222206Y-95850088D01*
X131193659Y-95859320D01*
X131164483Y-95866544D01*
X131134713Y-95871670D01*
X131104385Y-95874605D01*
X131073533Y-95875257D01*
X131042672Y-95873553D01*
X131012303Y-95869547D01*
X130982442Y-95863334D01*
X130953105Y-95855009D01*
X130924307Y-95844668D01*
X130896065Y-95832405D01*
X130868393Y-95818315D01*
X130841308Y-95802495D01*
X130814826Y-95785038D01*
X130788962Y-95766041D01*
X130763732Y-95745598D01*
X130739151Y-95723805D01*
X130692002Y-95676548D01*
X130647640Y-95625031D01*
X130606192Y-95570017D01*
X130567783Y-95512267D01*
X130532540Y-95452542D01*
X130500588Y-95391603D01*
X130472053Y-95330212D01*
X130447062Y-95269131D01*
X130425739Y-95209121D01*
X130408212Y-95150944D01*
X130401880Y-95123884D01*
X130397924Y-95097886D01*
X130396266Y-95072930D01*
X130396827Y-95048999D01*
X130399529Y-95026076D01*
X130404295Y-95004142D01*
X130411047Y-94983181D01*
X130419706Y-94963173D01*
X130430195Y-94944101D01*
X130442435Y-94925948D01*
X130456349Y-94908696D01*
X130471858Y-94892326D01*
X130488885Y-94876822D01*
X130507351Y-94862164D01*
X130527178Y-94848336D01*
X130548289Y-94835320D01*
X130594049Y-94811651D01*
X130644007Y-94791016D01*
X130697538Y-94773271D01*
X130754019Y-94758274D01*
X130812825Y-94745883D01*
X130873332Y-94735956D01*
X130934916Y-94728350D01*
X130996953Y-94722923D01*
X131030942Y-94721064D01*
X131064162Y-94720377D01*
X131096596Y-94720849D01*
G37*
%TD.AperFunction*%
%TA.AperFunction,EtchedComponent*%
G36*
X129173630Y-94716818D02*
G01*
X129207904Y-94718732D01*
X129268910Y-94724607D01*
X129327582Y-94733479D01*
X129383564Y-94745373D01*
X129436500Y-94760315D01*
X129486036Y-94778330D01*
X129531816Y-94799444D01*
X129553187Y-94811171D01*
X129573486Y-94823683D01*
X129592667Y-94836982D01*
X129610688Y-94851071D01*
X129627504Y-94865954D01*
X129643069Y-94881635D01*
X129657341Y-94898115D01*
X129670274Y-94915399D01*
X129681823Y-94933490D01*
X129691945Y-94952390D01*
X129700596Y-94972103D01*
X129707730Y-94992633D01*
X129713303Y-95013981D01*
X129717272Y-95036153D01*
X129719591Y-95059149D01*
X129720215Y-95082975D01*
X129719102Y-95107633D01*
X129716206Y-95133126D01*
X129711482Y-95159458D01*
X129704888Y-95186631D01*
X129687091Y-95244585D01*
X129665009Y-95303961D01*
X129638837Y-95364059D01*
X129608771Y-95424174D01*
X129575007Y-95483604D01*
X129537742Y-95541645D01*
X129497171Y-95597594D01*
X129453490Y-95650749D01*
X129406896Y-95700405D01*
X129357584Y-95745861D01*
X129331970Y-95766794D01*
X129305751Y-95786413D01*
X129278950Y-95804630D01*
X129251592Y-95821358D01*
X129223702Y-95836508D01*
X129195305Y-95849993D01*
X129166424Y-95861724D01*
X129137084Y-95871614D01*
X129107310Y-95879575D01*
X129077126Y-95885519D01*
X129046557Y-95889359D01*
X129015627Y-95891005D01*
X128984821Y-95890238D01*
X128954626Y-95886970D01*
X128925072Y-95881307D01*
X128896187Y-95873354D01*
X128868000Y-95863219D01*
X128840542Y-95851008D01*
X128813840Y-95836826D01*
X128787925Y-95820781D01*
X128762825Y-95802979D01*
X128738570Y-95783525D01*
X128715188Y-95762527D01*
X128692708Y-95740090D01*
X128671161Y-95716321D01*
X128650575Y-95691326D01*
X128630979Y-95665211D01*
X128612402Y-95638083D01*
X128594874Y-95610048D01*
X128578423Y-95581213D01*
X128563080Y-95551683D01*
X128548872Y-95521565D01*
X128535829Y-95490965D01*
X128523980Y-95459990D01*
X128513355Y-95428746D01*
X128503983Y-95397339D01*
X128495892Y-95365875D01*
X128489112Y-95334461D01*
X128483672Y-95303203D01*
X128479601Y-95272208D01*
X128476929Y-95241581D01*
X128475683Y-95211430D01*
X128475895Y-95181859D01*
X128477592Y-95152977D01*
X128477622Y-95152977D01*
X128480976Y-95124907D01*
X128486102Y-95097709D01*
X128492950Y-95071390D01*
X128501467Y-95045955D01*
X128511603Y-95021411D01*
X128523305Y-94997765D01*
X128536521Y-94975022D01*
X128551200Y-94953190D01*
X128567291Y-94932274D01*
X128584741Y-94912280D01*
X128603498Y-94893216D01*
X128623512Y-94875087D01*
X128644730Y-94857900D01*
X128667100Y-94841661D01*
X128690571Y-94826377D01*
X128715092Y-94812053D01*
X128740609Y-94798697D01*
X128767073Y-94786314D01*
X128794430Y-94774911D01*
X128822630Y-94764494D01*
X128851621Y-94755070D01*
X128881350Y-94746645D01*
X128911766Y-94739225D01*
X128942818Y-94732817D01*
X128974454Y-94727427D01*
X129006621Y-94723061D01*
X129039269Y-94719725D01*
X129072346Y-94717427D01*
X129105799Y-94716172D01*
X129139578Y-94715967D01*
X129173630Y-94716818D01*
G37*
%TD.AperFunction*%
D10*
X126265562Y-64923004D02*
X126266092Y-64910230D01*
X126265709Y-64936159D02*
X126265562Y-64923004D01*
X126266092Y-64910230D02*
X126267257Y-64897803D01*
X126267212Y-64958412D02*
X126265709Y-64936159D01*
X126267257Y-64897803D02*
X126269014Y-64885690D01*
X126269014Y-64885690D02*
X126271322Y-64873858D01*
X126269898Y-64977539D02*
X126267212Y-64958412D01*
X126271322Y-64873858D02*
X126274138Y-64862273D01*
X126273748Y-64993715D02*
X126269898Y-64977539D01*
X126274138Y-64862273D02*
X126281126Y-64839711D01*
X126278744Y-65007115D02*
X126273748Y-64993715D01*
X126281126Y-64839711D02*
X126289641Y-64817738D01*
X126284868Y-65017910D02*
X126278744Y-65007115D01*
X126289641Y-64817738D02*
X126299345Y-64796086D01*
X126292101Y-65026276D02*
X126284868Y-65017910D01*
X126299345Y-64796086D02*
X126320974Y-64752679D01*
X126300425Y-65032385D02*
X126292101Y-65026276D01*
X126309821Y-65036412D02*
X126300425Y-65032385D01*
X126320271Y-65038530D02*
X126309821Y-65036412D01*
X126320974Y-64752679D02*
X126343314Y-64707354D01*
X126331757Y-65038914D02*
X126320271Y-65038530D01*
X126343314Y-64707354D02*
X126353908Y-64683306D01*
X126344260Y-65037736D02*
X126331757Y-65038914D01*
X126353908Y-64683306D02*
X126363667Y-64657977D01*
X126357761Y-65035171D02*
X126344260Y-65037736D01*
X126363667Y-64657977D02*
X126372255Y-64631102D01*
X126372243Y-65031392D02*
X126357761Y-65035171D01*
X126372255Y-64631102D02*
X126376004Y-64617000D01*
X126376004Y-64617000D02*
X126379334Y-64602412D01*
X126379334Y-64602412D02*
X126382202Y-64587304D01*
X126382202Y-64587304D02*
X126384567Y-64571641D01*
X126384567Y-64571641D02*
X126386386Y-64555392D01*
X126386386Y-64555392D02*
X126387617Y-64538523D01*
X126387617Y-64538523D02*
X126390343Y-64471583D01*
X126387686Y-65026572D02*
X126372243Y-65031392D01*
X126390343Y-64471583D02*
X126392384Y-64408573D01*
X126392384Y-64408573D02*
X126393731Y-64378675D01*
X126393731Y-64378675D02*
X126395607Y-64349920D01*
X126395607Y-64349920D02*
X126398245Y-64322362D01*
X126398245Y-64322362D02*
X126401878Y-64296052D01*
X126401878Y-64296052D02*
X126406740Y-64271046D01*
X126406740Y-64271046D02*
X126409705Y-64259049D01*
X126409705Y-64259049D02*
X126413064Y-64247397D01*
X126413064Y-64247397D02*
X126416847Y-64236098D01*
X126416847Y-64236098D02*
X126421083Y-64225158D01*
X126421083Y-64225158D02*
X126425802Y-64214583D01*
X126421385Y-65014509D02*
X126387686Y-65026572D01*
X126425802Y-64214583D02*
X126431032Y-64204382D01*
X126431032Y-64204382D02*
X126436802Y-64194559D01*
X126436802Y-64194559D02*
X126443142Y-64185122D01*
X126443142Y-64185122D02*
X126450081Y-64176078D01*
X126450081Y-64176078D02*
X126457648Y-64167434D01*
X126457648Y-64167434D02*
X126465872Y-64159195D01*
X126465872Y-64159195D02*
X126474783Y-64151369D01*
X126474783Y-64151369D02*
X126484409Y-64143962D01*
X126484409Y-64143962D02*
X126494779Y-64136981D01*
X126494779Y-64136981D02*
X126509492Y-64128924D01*
X126499514Y-64985546D02*
X126421385Y-65014509D01*
X126509492Y-64128924D02*
X126524565Y-64122959D01*
X126524565Y-64122959D02*
X126539969Y-64118976D01*
X126539969Y-64118976D02*
X126555676Y-64116867D01*
X126543649Y-64971426D02*
X126499514Y-64985546D01*
X126555676Y-64116867D02*
X126571656Y-64116523D01*
X126566920Y-64965065D02*
X126543649Y-64971426D01*
X126571656Y-64116523D02*
X126587880Y-64117836D01*
X126587880Y-64117836D02*
X126604319Y-64120696D01*
X126590969Y-64959400D02*
X126566920Y-64965065D01*
X126604319Y-64120696D02*
X126620944Y-64124994D01*
X126615776Y-64954607D02*
X126590969Y-64959400D01*
X126620944Y-64124994D02*
X126637725Y-64130623D01*
X126637725Y-64130623D02*
X126654635Y-64137474D01*
X126641325Y-64950859D02*
X126615776Y-64954607D01*
X126654635Y-64137474D02*
X126671643Y-64145437D01*
X126667596Y-64948329D02*
X126641325Y-64950859D01*
X126671643Y-64145437D02*
X126688720Y-64154404D01*
X126688720Y-64154404D02*
X126722967Y-64174915D01*
X126694571Y-64947191D02*
X126667596Y-64948329D01*
X126722231Y-64947619D02*
X126694571Y-64947191D01*
X126722967Y-64174915D02*
X126757143Y-64198137D01*
X126750559Y-64949787D02*
X126722231Y-64947619D01*
X126757143Y-64198137D02*
X126791014Y-64223200D01*
X126779535Y-64953868D02*
X126750559Y-64949787D01*
X126787756Y-67025243D02*
X126788491Y-67014001D01*
X126788428Y-67036762D02*
X126787756Y-67025243D01*
X126788491Y-67014001D02*
X126790733Y-67003044D01*
X126790408Y-67048550D02*
X126788428Y-67036762D01*
X126790733Y-67003044D02*
X126794583Y-66992383D01*
X126791014Y-64223200D02*
X126824349Y-64249235D01*
X126793594Y-67060598D02*
X126790408Y-67048550D01*
X126794583Y-66992383D02*
X126800139Y-66982024D01*
X126797888Y-67072898D02*
X126793594Y-67060598D01*
X126800139Y-66982024D02*
X126807502Y-66971976D01*
X126803189Y-67085440D02*
X126797888Y-67072898D01*
X126807502Y-66971976D02*
X126816772Y-66962249D01*
X126809142Y-64960036D02*
X126779535Y-64953868D01*
X126809398Y-67098217D02*
X126803189Y-67085440D01*
X126816772Y-66962249D02*
X126827545Y-66953446D01*
X126824138Y-67124440D02*
X126809398Y-67098217D01*
X126824349Y-64249235D02*
X126888477Y-64300740D01*
X126827545Y-66953446D02*
X126839323Y-66946096D01*
X126839323Y-66946096D02*
X126852070Y-66940092D01*
X126841307Y-67151498D02*
X126824138Y-67124440D01*
X126852070Y-66940092D02*
X126865749Y-66935325D01*
X126865749Y-66935325D02*
X126880323Y-66931689D01*
X126879739Y-67207844D02*
X126841307Y-67151498D01*
X126880323Y-66931689D02*
X126895754Y-66929076D01*
X126888477Y-64300740D02*
X126918805Y-64324470D01*
X126895754Y-66929076D02*
X126929040Y-66926489D01*
X126899402Y-67236996D02*
X126879739Y-67207844D01*
X126918296Y-67266708D02*
X126899402Y-67236996D01*
X126918805Y-64324470D02*
X126947665Y-64345693D01*
X126925582Y-64991274D02*
X126809142Y-64960036D01*
X126929040Y-66926489D02*
X126965311Y-66926705D01*
X126935622Y-67296912D02*
X126918296Y-67266708D01*
X126943448Y-67312178D02*
X126935622Y-67296912D01*
X126947665Y-64345693D02*
X126974823Y-64363537D01*
X126950581Y-67327541D02*
X126943448Y-67312178D01*
X126956923Y-67342992D02*
X126950581Y-67327541D01*
X126962373Y-67358524D02*
X126956923Y-67342992D01*
X126965311Y-66926705D02*
X127004270Y-66928863D01*
X126966831Y-67374128D02*
X126962373Y-67358524D01*
X126970198Y-67389794D02*
X126966831Y-67374128D01*
X126974823Y-64363537D02*
X126987692Y-64370921D01*
X126977062Y-67436114D02*
X126970198Y-67389794D01*
X126981349Y-67480903D02*
X126977062Y-67436114D01*
X126983656Y-67523961D02*
X126981349Y-67480903D01*
X126984578Y-67565085D02*
X126983656Y-67523961D01*
X126984658Y-67640727D02*
X126984578Y-67565085D01*
X126985007Y-67674842D02*
X126984658Y-67640727D01*
X126986358Y-67706219D02*
X126985007Y-67674842D01*
X126987692Y-64370921D02*
X127000049Y-64377135D01*
X126989308Y-67734655D02*
X126986358Y-67706219D01*
X126994452Y-67759949D02*
X126989308Y-67734655D01*
X126998034Y-67771355D02*
X126994452Y-67759949D01*
X127000049Y-64377135D02*
X127216641Y-64475382D01*
X127002387Y-67781899D02*
X126998034Y-67771355D01*
X127004270Y-66928863D02*
X127089065Y-66935571D01*
X127007588Y-67791558D02*
X127002387Y-67781899D01*
X127013710Y-67800305D02*
X127007588Y-67791558D01*
X127020828Y-67808116D02*
X127013710Y-67800305D01*
X127029017Y-67814965D02*
X127020828Y-67808116D01*
X127038351Y-67820827D02*
X127029017Y-67814965D01*
X127048904Y-67825677D02*
X127038351Y-67820827D01*
X127055578Y-65031176D02*
X126925582Y-64991274D01*
X127060752Y-67829490D02*
X127048904Y-67825677D01*
X127073968Y-67832241D02*
X127060752Y-67829490D01*
X127088628Y-67833903D02*
X127073968Y-67832241D01*
X127089065Y-66935571D02*
X127134308Y-66938401D01*
X127104805Y-67834453D02*
X127088628Y-67833903D01*
X127119145Y-67833918D02*
X127104805Y-67834453D01*
X127132953Y-67832354D02*
X127119145Y-67833918D01*
X127134308Y-66938401D02*
X127181051Y-66939736D01*
X127146316Y-67829788D02*
X127132953Y-67832354D01*
X127159317Y-67826245D02*
X127146316Y-67829788D01*
X127172042Y-67821753D02*
X127159317Y-67826245D01*
X127181051Y-66939736D02*
X127228999Y-66938715D01*
X127184575Y-67816336D02*
X127172042Y-67821753D01*
X127197001Y-67810023D02*
X127184575Y-67816336D01*
X127209404Y-67802838D02*
X127197001Y-67810023D01*
X127216641Y-64475382D02*
X127464428Y-64584923D01*
X127221869Y-67794808D02*
X127209404Y-67802838D01*
X127228999Y-66938715D02*
X127277854Y-66934481D01*
X127234482Y-67785959D02*
X127221869Y-67794808D01*
X127260487Y-67765910D02*
X127234482Y-67785959D01*
X127277854Y-66934481D02*
X127327319Y-66926173D01*
X127288096Y-67742902D02*
X127260487Y-67765910D01*
X127317988Y-67717143D02*
X127288096Y-67742902D01*
X127327319Y-66926173D02*
X127352188Y-66920222D01*
X127344614Y-65131077D02*
X127055578Y-65031176D01*
X127350841Y-67688845D02*
X127317988Y-67717143D01*
X127352188Y-66920222D02*
X127377098Y-66912931D01*
X127377098Y-66912931D02*
X127402012Y-66904191D01*
X127387331Y-67658218D02*
X127350841Y-67688845D01*
X127402012Y-66904191D02*
X127426894Y-66893895D01*
X127426894Y-66893895D02*
X127451706Y-66881937D01*
X127428137Y-67625471D02*
X127387331Y-67658218D01*
X127450371Y-67608368D02*
X127428137Y-67625471D01*
X127451706Y-66881937D02*
X127476410Y-66868208D01*
X127464428Y-64584923D02*
X127979525Y-64807811D01*
X127473937Y-67590814D02*
X127450371Y-67608368D01*
X127476410Y-66868208D02*
X128161000Y-66569044D01*
X127498922Y-67572835D02*
X127473937Y-67590814D01*
X127525409Y-67554457D02*
X127498922Y-67572835D01*
X127553483Y-67535708D02*
X127525409Y-67554457D01*
X127583229Y-67516612D02*
X127553483Y-67535708D01*
X127614732Y-67497196D02*
X127583229Y-67516612D01*
X127648076Y-67477487D02*
X127614732Y-67497196D01*
X127652991Y-65247950D02*
X127344614Y-65131077D01*
X127683347Y-67457510D02*
X127648076Y-67477487D01*
X127720628Y-67437292D02*
X127683347Y-67457510D01*
X127922477Y-67332562D02*
X127720628Y-67437292D01*
X127949833Y-62234515D02*
X127952978Y-62437654D01*
X127952978Y-62437654D02*
X127958464Y-62484027D01*
X127957452Y-65370007D02*
X127652991Y-65247950D01*
X127958464Y-62484027D02*
X127965066Y-62528986D01*
X127960269Y-62123566D02*
X127949833Y-62234515D01*
X127965066Y-62528986D02*
X127972719Y-62572577D01*
X127972719Y-62572577D02*
X127981358Y-62614845D01*
X127978404Y-62007864D02*
X127960269Y-62123566D01*
X127979525Y-64807811D02*
X128569356Y-65058299D01*
X127981358Y-62614845D02*
X127990915Y-62655835D01*
X127990915Y-62655835D02*
X128001326Y-62695592D01*
X128001326Y-62695592D02*
X128012525Y-62734162D01*
X128004008Y-61888536D02*
X127978404Y-62007864D01*
X128012525Y-62734162D02*
X128024445Y-62771591D01*
X128024445Y-62771591D02*
X128050186Y-62843203D01*
X128036852Y-61766707D02*
X128004008Y-61888536D01*
X128050186Y-62843203D02*
X128078025Y-62910793D01*
X128076705Y-61643504D02*
X128036852Y-61766707D01*
X128078025Y-62910793D02*
X128107433Y-62974722D01*
X128107433Y-62974722D02*
X128137883Y-63035353D01*
X128123339Y-61520051D02*
X128076705Y-61643504D01*
X128137883Y-63035353D02*
X128168851Y-63093049D01*
X128148187Y-67219049D02*
X127922477Y-67332562D01*
X128161000Y-66569044D02*
X128825087Y-66282071D01*
X128168851Y-63093049D02*
X128199807Y-63148173D01*
X128176521Y-61397476D02*
X128123339Y-61520051D01*
X128199807Y-63148173D02*
X128259581Y-63252154D01*
X128203124Y-63054802D02*
X128424092Y-63012498D01*
X128236024Y-61276904D02*
X128176521Y-61397476D01*
X128259581Y-63252154D02*
X128287344Y-63301737D01*
D11*
X128274189Y-63958039D02*
X128274500Y-63992687D01*
X128274500Y-63992687D02*
X128276033Y-64026437D01*
X128275075Y-63922312D02*
X128274189Y-63958039D01*
X128276033Y-64026437D02*
X128278812Y-64059471D01*
X128278812Y-64059471D02*
X128282861Y-64091969D01*
X128280341Y-63846892D02*
X128275075Y-63922312D01*
X128282861Y-64091969D02*
X128288205Y-64124115D01*
D10*
X128287344Y-63301737D02*
X128312990Y-63350199D01*
D11*
X128288205Y-64124115D02*
X128294869Y-64156089D01*
X128290103Y-63764977D02*
X128280341Y-63846892D01*
X128294869Y-64156089D02*
X128302877Y-64188073D01*
D10*
X128301617Y-61159460D02*
X128236024Y-61276904D01*
D11*
X128302877Y-64188073D02*
X128312253Y-64220248D01*
X128304164Y-63675112D02*
X128290103Y-63764977D01*
X128312253Y-64220248D02*
X128323022Y-64252796D01*
D10*
X128312990Y-63350199D02*
X128335992Y-63397902D01*
D11*
X128322329Y-63575846D02*
X128304164Y-63675112D01*
X128323022Y-64252796D02*
X128348837Y-64319738D01*
D10*
X128335992Y-63397902D02*
X128355822Y-63445208D01*
D11*
X128344403Y-63465727D02*
X128322329Y-63575846D01*
X128348837Y-64319738D02*
X128380516Y-64390350D01*
X128367050Y-64339599D02*
X128377768Y-64349953D01*
D10*
X128373069Y-61046270D02*
X128301617Y-61159460D01*
D11*
X128377768Y-64349953D02*
X128412536Y-64387220D01*
X128380516Y-64390350D02*
X128418255Y-64466085D01*
X128383111Y-64362881D02*
X128367050Y-64339599D01*
X128399494Y-63207116D02*
X128344403Y-63465727D01*
X128412536Y-64387220D02*
X128468621Y-64444680D01*
X128418255Y-64466085D02*
X128462250Y-64548395D01*
X128424856Y-63085038D02*
X128399494Y-63207116D01*
X128433800Y-63036555D02*
X128424856Y-63085038D01*
X128440408Y-62994588D02*
X128433800Y-63036555D01*
X128444796Y-62957745D02*
X128440408Y-62994588D01*
X128447080Y-62924635D02*
X128444796Y-62957745D01*
D10*
X128450152Y-60938461D02*
X128373069Y-61046270D01*
X128461598Y-65582522D02*
X127957452Y-65370007D01*
D11*
X128462250Y-64548395D02*
X128487861Y-64590866D01*
X128468621Y-64444680D02*
X128503804Y-64478882D01*
X128487861Y-64590866D02*
X128513569Y-64626355D01*
X128503804Y-64478882D02*
X128543293Y-64515613D01*
X128513569Y-64626355D02*
X128539127Y-64656423D01*
D10*
X128532635Y-60837159D02*
X128450152Y-60938461D01*
X128535524Y-65026527D02*
X128634943Y-64753681D01*
D11*
X128539127Y-64656423D02*
X128564290Y-64682629D01*
X128543293Y-64515613D02*
X128586745Y-64554031D01*
X128564290Y-64682629D02*
X128612444Y-64729698D01*
D12*
X128568076Y-62242142D02*
X128578076Y-62682142D01*
D10*
X128569356Y-65058299D02*
X128670993Y-65674317D01*
D12*
X128578076Y-62682142D02*
X128447080Y-62924635D01*
D11*
X128586745Y-64554031D02*
X128633820Y-64593297D01*
D10*
X128608592Y-66993722D02*
X128148187Y-67219049D01*
D11*
X128612444Y-64729698D02*
X128634943Y-64753681D01*
D10*
X128620288Y-60743488D02*
X128532635Y-60837159D01*
D11*
X128633820Y-64593297D02*
X128684177Y-64632571D01*
X128634943Y-64753681D02*
X128656061Y-64780043D01*
X128656061Y-64780043D02*
X128675553Y-64810345D01*
D10*
X128670993Y-65674317D02*
X128461598Y-65582522D01*
D11*
X128675553Y-64810345D02*
X128693171Y-64846146D01*
X128684177Y-64632571D02*
X128737473Y-64671013D01*
X128693171Y-64846146D02*
X128701201Y-64866597D01*
X128708671Y-64889007D02*
X128715549Y-64913573D01*
D10*
X128712882Y-60658575D02*
X128620288Y-60743488D01*
D11*
X128715549Y-64913573D02*
X128721804Y-64940488D01*
X128721804Y-64940488D02*
X128732326Y-65002150D01*
X128732326Y-65002150D02*
X128739990Y-65075552D01*
X128737473Y-64671013D02*
X128793367Y-64707782D01*
X128739990Y-65075552D02*
X128744550Y-65162254D01*
X128745759Y-65263817D02*
X128746540Y-65323439D01*
X128746540Y-65323439D02*
X128749410Y-65382655D01*
X128749410Y-65382655D02*
X128754267Y-65441417D01*
X128754267Y-65441417D02*
X128761011Y-65499679D01*
X128761011Y-65499679D02*
X128769540Y-65557392D01*
X128769540Y-65557392D02*
X128779752Y-65614509D01*
X128779752Y-65614509D02*
X128804820Y-65726761D01*
D10*
X128781755Y-60603229D02*
X128712882Y-60658575D01*
D11*
X128793367Y-64707782D02*
X128851519Y-64742038D01*
X128804820Y-65726761D02*
X128835404Y-65836054D01*
D10*
X128825087Y-66282071D02*
X129127153Y-66746158D01*
D11*
X128835404Y-65836054D02*
X128870692Y-65942006D01*
X128851519Y-64742038D02*
X128870012Y-64753778D01*
D10*
X128856833Y-60548303D02*
X128781755Y-60603229D01*
D11*
X128870012Y-64753778D02*
X128887812Y-64768015D01*
X128870692Y-65942006D02*
X128909873Y-66044234D01*
X128887812Y-64768015D02*
X128904923Y-64784541D01*
X128904923Y-64784541D02*
X128921352Y-64803147D01*
X128909873Y-66044234D02*
X128952136Y-66142355D01*
X128921352Y-64803147D02*
X128937107Y-64823624D01*
X128937107Y-64823624D02*
X128952192Y-64845762D01*
D10*
X128937800Y-60494229D02*
X128856833Y-60548303D01*
D11*
X128952136Y-66142355D02*
X128996668Y-66235989D01*
X128952192Y-64845762D02*
X128966615Y-64869354D01*
X128966615Y-64869354D02*
X128980381Y-64894189D01*
X128980381Y-64894189D02*
X129005971Y-64946756D01*
X128996668Y-66235989D02*
X129042657Y-66324753D01*
X129005971Y-64946756D02*
X129029013Y-65001790D01*
D10*
X129024337Y-60441440D02*
X128937800Y-60494229D01*
D11*
X129029013Y-65001790D02*
X129049559Y-65057621D01*
X129042657Y-66324753D02*
X129089294Y-66408263D01*
X129089294Y-66408263D02*
X129135765Y-66486139D01*
D10*
X129116125Y-60390367D02*
X129024337Y-60441440D01*
X129127153Y-66746158D02*
X128608592Y-66993722D01*
D11*
X129135765Y-66486139D02*
X129181259Y-66557999D01*
X129181259Y-66557999D02*
X129224965Y-66623459D01*
D10*
X129212846Y-60341444D02*
X129116125Y-60390367D01*
D11*
X129224965Y-66623459D02*
X129303765Y-66733653D01*
X129303765Y-66733653D02*
X129335176Y-66774050D01*
D10*
X129314183Y-60295102D02*
X129212846Y-60341444D01*
D11*
X129335176Y-66774050D02*
X129367233Y-66812114D01*
X129367233Y-66812114D02*
X129399889Y-66847913D01*
X129399889Y-66847913D02*
X129433091Y-66881514D01*
D10*
X129419816Y-60251775D02*
X129314183Y-60295102D01*
D11*
X129433091Y-66881514D02*
X129466790Y-66912985D01*
X129466790Y-66912985D02*
X129500934Y-66942395D01*
X129500934Y-66942395D02*
X129535474Y-66969810D01*
D10*
X129529428Y-60211894D02*
X129419816Y-60251775D01*
D11*
X129535474Y-66969810D02*
X129570359Y-66995300D01*
X129570359Y-66995300D02*
X129605538Y-67018931D01*
X129605538Y-67018931D02*
X129640962Y-67040772D01*
X129640962Y-67040772D02*
X129676579Y-67060891D01*
D10*
X129642700Y-60175891D02*
X129529428Y-60211894D01*
D11*
X129676579Y-67060891D02*
X129712339Y-67079355D01*
X129712339Y-67079355D02*
X129784086Y-67111590D01*
D10*
X129759314Y-60144200D02*
X129642700Y-60175891D01*
D11*
X129784086Y-67111590D02*
X129855799Y-67138023D01*
X129855799Y-67138023D02*
X129927075Y-67159194D01*
D10*
X129878952Y-60117253D02*
X129759314Y-60144200D01*
D11*
X129927075Y-67159194D02*
X129997510Y-67175648D01*
X129997510Y-67175648D02*
X130066700Y-67187927D01*
D10*
X130001295Y-60095482D02*
X129878952Y-60117253D01*
D11*
X130066700Y-67187927D02*
X130134240Y-67196575D01*
D10*
X130126026Y-60079319D02*
X130001295Y-60095482D01*
D11*
X130134240Y-67196575D02*
X130199728Y-67202134D01*
X130199728Y-67202134D02*
X130262760Y-67205148D01*
D10*
X130252826Y-60069197D02*
X130126026Y-60079319D01*
D11*
X130262760Y-67205148D02*
X130379837Y-67205711D01*
D10*
X130375058Y-60065675D02*
X130503608Y-60069324D01*
X130381376Y-60065548D02*
X130252826Y-60069197D01*
D11*
X130417004Y-67196608D02*
X130361428Y-67205648D01*
X130475769Y-67185290D02*
X130417004Y-67196608D01*
D10*
X130503608Y-60069324D02*
X130630408Y-60079446D01*
D11*
X130537375Y-67171597D02*
X130475769Y-67185290D01*
X130601470Y-67155434D02*
X130537375Y-67171597D01*
D10*
X130630408Y-60079446D02*
X130755139Y-60095609D01*
D11*
X130667706Y-67136704D02*
X130601470Y-67155434D01*
X130735733Y-67115309D02*
X130667706Y-67136704D01*
D10*
X130755139Y-60095609D02*
X130877482Y-60117380D01*
D11*
X130805200Y-67091154D02*
X130735733Y-67115309D01*
X130875758Y-67064141D02*
X130805200Y-67091154D01*
D10*
X130877482Y-60117380D02*
X130997120Y-60144327D01*
D11*
X130947057Y-67034175D02*
X130875758Y-67064141D01*
D10*
X130997120Y-60144327D02*
X131113734Y-60176018D01*
D11*
X131018746Y-67001158D02*
X130947057Y-67034175D01*
X131090477Y-66964994D02*
X131018746Y-67001158D01*
D10*
X131113734Y-60176018D02*
X131227007Y-60212021D01*
D11*
X131161898Y-66925587D02*
X131090477Y-66964994D01*
D10*
X131227007Y-60212021D02*
X131336618Y-60251902D01*
D11*
X131232661Y-66882839D02*
X131161898Y-66925587D01*
X131302416Y-66836655D02*
X131232661Y-66882839D01*
D10*
X131336618Y-60251902D02*
X131442252Y-60295229D01*
D11*
X131370812Y-66786937D02*
X131302416Y-66836655D01*
X131437499Y-66733589D02*
X131370812Y-66786937D01*
D10*
X131442252Y-60295229D02*
X131543588Y-60341571D01*
D11*
X131462912Y-66710513D02*
X131437499Y-66733589D01*
X131488065Y-66684288D02*
X131462912Y-66710513D01*
X131513326Y-65310634D02*
X131510859Y-65309809D01*
X131516846Y-65308158D02*
X131513326Y-65310634D01*
X131526905Y-65294125D02*
X131516846Y-65308158D01*
X131537491Y-66623058D02*
X131488065Y-66684288D01*
X131540757Y-65269350D02*
X131526905Y-65294125D01*
D10*
X131543588Y-60341571D02*
X131640310Y-60390495D01*
D11*
X131585572Y-66551239D02*
X131537491Y-66623058D01*
X131628496Y-65095605D02*
X131540757Y-65269350D01*
X131632105Y-66470173D02*
X131585572Y-66551239D01*
D10*
X131640310Y-60390495D02*
X131732098Y-60441567D01*
X131646401Y-66767077D02*
X132143805Y-67006130D01*
D11*
X131657117Y-65041702D02*
X131628496Y-65095605D01*
X131676885Y-66381197D02*
X131632105Y-66470173D01*
X131687853Y-64986890D02*
X131657117Y-65041702D01*
X131719709Y-66285654D02*
X131676885Y-66381197D01*
X131720426Y-64932808D02*
X131687853Y-64986890D01*
D10*
X131732098Y-60441567D02*
X131818634Y-60494356D01*
D11*
X131754555Y-64881094D02*
X131720426Y-64932808D01*
X131760373Y-66184882D02*
X131719709Y-66285654D01*
X131789961Y-64833388D02*
X131754555Y-64881094D01*
X131798673Y-66080221D02*
X131760373Y-66184882D01*
X131808056Y-64811550D02*
X131789961Y-64833388D01*
D10*
X131818634Y-60494356D02*
X131899601Y-60548430D01*
D11*
X131826365Y-64791329D02*
X131808056Y-64811550D01*
X131834405Y-65973012D02*
X131798673Y-66080221D01*
D10*
X131835161Y-66274547D02*
X131646401Y-66767077D01*
D11*
X131844854Y-64772928D02*
X131826365Y-64791329D01*
X131863488Y-64756554D02*
X131844854Y-64772928D01*
X131867365Y-65864595D02*
X131834405Y-65973012D01*
X131882231Y-64742411D02*
X131863488Y-64756554D01*
X131897350Y-65756309D02*
X131867365Y-65864595D01*
D10*
X131899601Y-60548430D02*
X131974679Y-60603356D01*
D11*
X131901049Y-64730704D02*
X131882231Y-64742411D01*
X131924155Y-65649495D02*
X131897350Y-65756309D01*
X131947577Y-65545492D02*
X131924155Y-65649495D01*
X131959581Y-64696194D02*
X131901049Y-64730704D01*
X131967412Y-65445641D02*
X131947577Y-65545492D01*
D10*
X131974679Y-60603356D02*
X132043552Y-60658701D01*
D11*
X131983456Y-65351282D02*
X131967412Y-65445641D01*
X131995505Y-65263754D02*
X131983456Y-65351282D01*
X132016549Y-64658708D02*
X131959581Y-64696194D01*
X132021791Y-65077526D02*
X132008549Y-65163091D01*
X132035322Y-65005465D02*
X132021791Y-65077526D01*
D10*
X132043552Y-60658701D02*
X132136145Y-60743614D01*
D11*
X132049232Y-64945310D02*
X132035322Y-65005465D01*
D10*
X132061885Y-65659024D02*
X132735136Y-65385170D01*
D11*
X132063613Y-64895464D02*
X132049232Y-64945310D01*
X132071515Y-64619154D02*
X132016549Y-64658708D01*
X132078557Y-64854330D02*
X132063613Y-64895464D01*
X132094155Y-64820313D02*
X132078557Y-64854330D01*
X132110497Y-64791814D02*
X132094155Y-64820313D01*
D12*
X132113608Y-62773650D02*
X132244604Y-63016143D01*
X132123608Y-62333650D02*
X132113608Y-62773650D01*
D11*
X132124036Y-64578436D02*
X132071515Y-64619154D01*
X132127676Y-64767238D02*
X132110497Y-64791814D01*
D10*
X132136145Y-60743614D02*
X132223799Y-60837285D01*
X132143805Y-67006130D02*
X133016064Y-67430524D01*
D11*
X132145782Y-64744988D02*
X132127676Y-64767238D01*
X132173672Y-64537461D02*
X132124036Y-64578436D01*
X132185143Y-64701077D02*
X132145782Y-64744988D01*
D10*
X132196698Y-65004229D02*
X132061885Y-65659024D01*
D11*
X132206580Y-64676223D02*
X132185143Y-64701077D01*
X132219984Y-64497136D02*
X132173672Y-64537461D01*
D10*
X132223799Y-60837285D02*
X132306282Y-60938588D01*
D11*
X132229310Y-64647307D02*
X132206580Y-64676223D01*
X132244604Y-63016143D02*
X132246316Y-63037956D01*
X132246316Y-63037956D02*
X132249150Y-63060654D01*
X132249150Y-63060654D02*
X132253178Y-63084370D01*
X132253178Y-63084370D02*
X132258475Y-63109238D01*
X132253424Y-64612734D02*
X132229310Y-64647307D01*
X132258475Y-63109238D02*
X132265113Y-63135390D01*
X132265113Y-63135390D02*
X132273167Y-63162960D01*
X132273167Y-63162960D02*
X132282710Y-63192080D01*
X132279013Y-64570906D02*
X132253424Y-64612734D01*
X132282710Y-63192080D02*
X132293815Y-63222884D01*
D10*
X132284562Y-64973923D02*
X132185143Y-64701077D01*
D11*
X132293815Y-63222884D02*
X132306556Y-63255504D01*
X132300869Y-64422058D02*
X132219984Y-64497136D01*
D10*
X132306282Y-60938588D02*
X132383365Y-61046397D01*
D11*
X132306556Y-63255504D02*
X132344156Y-63355238D01*
X132312786Y-64507817D02*
X132279013Y-64570906D01*
X132343255Y-64441964D02*
X132312786Y-64507817D01*
X132344156Y-63355238D02*
X132375544Y-63452850D01*
D10*
X132372426Y-64943616D02*
X132196698Y-65004229D01*
D11*
X132375544Y-63452850D02*
X132400927Y-63548293D01*
D10*
X132383365Y-61046397D02*
X132454818Y-61159586D01*
D11*
X132393449Y-64302152D02*
X132343255Y-64441964D01*
X132393449Y-64302152D02*
X132370211Y-64373394D01*
X132400927Y-63548293D02*
X132420514Y-63641522D01*
D10*
X132420442Y-63398029D02*
X132400613Y-63445336D01*
D11*
X132420514Y-63641522D02*
X132434511Y-63732491D01*
X132427933Y-64151836D02*
X132412758Y-64228284D01*
X132434511Y-63732491D02*
X132443128Y-63821155D01*
X132438765Y-64072853D02*
X132427933Y-64151836D01*
X132443128Y-63821155D02*
X132446570Y-63907467D01*
D10*
X132443443Y-63350326D02*
X132420442Y-63398029D01*
D11*
X132445047Y-63991381D02*
X132438765Y-64072853D01*
X132446570Y-63907467D02*
X132445047Y-63991381D01*
D10*
X132454818Y-61159586D02*
X132520410Y-61277030D01*
X132469089Y-63301864D02*
X132443443Y-63350326D01*
X132496853Y-63252281D02*
X132469089Y-63301864D01*
X132520410Y-61277030D02*
X132579913Y-61397603D01*
X132556626Y-63148300D02*
X132335658Y-63105996D01*
X132556626Y-63148300D02*
X132496853Y-63252281D01*
X132579913Y-61397603D02*
X132633096Y-61520178D01*
X132587583Y-63093176D02*
X132556626Y-63148300D01*
X132618550Y-63035480D02*
X132587583Y-63093176D01*
X132633096Y-61520178D02*
X132679729Y-61643630D01*
X132649001Y-62974849D02*
X132618550Y-63035480D01*
X132678409Y-62910920D02*
X132649001Y-62974849D01*
X132679729Y-61643630D02*
X132719583Y-61766834D01*
X132706247Y-62843330D02*
X132678409Y-62910920D01*
X132719583Y-61766834D02*
X132752426Y-61888662D01*
X132731989Y-62771718D02*
X132706247Y-62843330D01*
X132735136Y-65385170D02*
X133024310Y-65272440D01*
X132743909Y-62734289D02*
X132731989Y-62771718D01*
X132752426Y-61888662D02*
X132778031Y-62007991D01*
X132755108Y-62695719D02*
X132743909Y-62734289D01*
X132765519Y-62655962D02*
X132755108Y-62695719D01*
X132775077Y-62614972D02*
X132765519Y-62655962D01*
X132778031Y-62007991D02*
X132796166Y-62123692D01*
X132783715Y-62572705D02*
X132775077Y-62614972D01*
X132791368Y-62529114D02*
X132783715Y-62572705D01*
X132796166Y-62123692D02*
X132806602Y-62234642D01*
X132797162Y-64790555D02*
X132372426Y-64943616D01*
X132797971Y-62484154D02*
X132791368Y-62529114D01*
X132803457Y-62437781D02*
X132797971Y-62484154D01*
X132806602Y-62234642D02*
X132809109Y-62339714D01*
X132809109Y-62339714D02*
X132803457Y-62437781D01*
X133016064Y-67430524D02*
X133053837Y-67449777D01*
X133024310Y-65272440D02*
X133318854Y-65161834D01*
X133053837Y-67449777D02*
X133089448Y-67469050D01*
X133054885Y-64692844D02*
X132797162Y-64790555D01*
X133089448Y-67469050D02*
X133122990Y-67488292D01*
X133122990Y-67488292D02*
X133154554Y-67507451D01*
X133154554Y-67507451D02*
X133184231Y-67526473D01*
X133184231Y-67526473D02*
X133212114Y-67545308D01*
X133212114Y-67545308D02*
X133238293Y-67563903D01*
X133214286Y-66912657D02*
X131835161Y-66274547D01*
X133238293Y-67563903D02*
X133262861Y-67582206D01*
X133239343Y-66925477D02*
X133214286Y-66912657D01*
X133262861Y-67582206D02*
X133285909Y-67600165D01*
X133264399Y-66936148D02*
X133239343Y-66925477D01*
X133285909Y-67600165D02*
X133307528Y-67617727D01*
X133289421Y-66944805D02*
X133264399Y-66936148D01*
X133307528Y-67617727D02*
X133346849Y-67651454D01*
X133314382Y-66951580D02*
X133289421Y-66944805D01*
X133317231Y-64588207D02*
X133054885Y-64692844D01*
X133318854Y-65161834D02*
X133597282Y-65063267D01*
X133339249Y-66956607D02*
X133314382Y-66951580D01*
X133346849Y-67651454D02*
X133381556Y-67682970D01*
X133363994Y-66960019D02*
X133339249Y-66956607D01*
X133381556Y-67682970D02*
X133412382Y-67711858D01*
X133388587Y-66961951D02*
X133363994Y-66960019D01*
X133412382Y-67711858D02*
X133440061Y-67737701D01*
X133412996Y-66962535D02*
X133388587Y-66961951D01*
X133437192Y-66961906D02*
X133412996Y-66962535D01*
X133440061Y-67737701D02*
X133465325Y-67760083D01*
X133461146Y-66960196D02*
X133437192Y-66961906D01*
X133465325Y-67760083D02*
X133477280Y-67769845D01*
X133477280Y-67769845D02*
X133488907Y-67778585D01*
X133488907Y-67778585D02*
X133500297Y-67786251D01*
X133500297Y-67786251D02*
X133511541Y-67792791D01*
X133508203Y-66954068D02*
X133461146Y-66960196D01*
X133511541Y-67792791D02*
X133522731Y-67798153D01*
X133522731Y-67798153D02*
X133533959Y-67802284D01*
X133533959Y-67802284D02*
X133545316Y-67805133D01*
X133545316Y-67805133D02*
X133556894Y-67806648D01*
X133553926Y-66945220D02*
X133508203Y-66954068D01*
X133556894Y-67806648D02*
X133568785Y-67806775D01*
X133564993Y-64482040D02*
X133317231Y-64588207D01*
X133568785Y-67806775D02*
X133581080Y-67805464D01*
X133581080Y-67805464D02*
X133593871Y-67802661D01*
X133593871Y-67802661D02*
X133607249Y-67798316D01*
X133597282Y-65063267D02*
X133838106Y-64986654D01*
X133598075Y-66934721D02*
X133553926Y-66945220D01*
X133607249Y-67798316D02*
X133621241Y-67792457D01*
X133621241Y-67792457D02*
X133633750Y-67785959D01*
X133633750Y-67785959D02*
X133644860Y-67778843D01*
X133644860Y-67778843D02*
X133654653Y-67771132D01*
X133654653Y-67771132D02*
X133663214Y-67762851D01*
X133663214Y-67762851D02*
X133670624Y-67754021D01*
X133670624Y-67754021D02*
X133676967Y-67744667D01*
X133676967Y-67744667D02*
X133682327Y-67734810D01*
X133677401Y-64430068D02*
X133564993Y-64482040D01*
X133680688Y-66913038D02*
X133598075Y-66934721D01*
X133682327Y-67734810D02*
X133686787Y-67724474D01*
X133686787Y-67724474D02*
X133690430Y-67713683D01*
X133690430Y-67713683D02*
X133693339Y-67702459D01*
X133693339Y-67702459D02*
X133695597Y-67690825D01*
X133695597Y-67690825D02*
X133698495Y-67666420D01*
X133698495Y-67666420D02*
X133699789Y-67640654D01*
X133699789Y-67640654D02*
X133700230Y-67585773D01*
X133700230Y-67585773D02*
X133700709Y-67557027D01*
X133700709Y-67557027D02*
X133702247Y-67527658D01*
X133702247Y-67527658D02*
X133705510Y-67497849D01*
X133705510Y-67497849D02*
X133711165Y-67467786D01*
X133711165Y-67467786D02*
X133715097Y-67452716D01*
X133715097Y-67452716D02*
X133719877Y-67437652D01*
X133718669Y-66903991D02*
X133680688Y-66913038D01*
X133719877Y-67437652D02*
X133725588Y-67422616D01*
X133725588Y-67422616D02*
X133732312Y-67407633D01*
X133732312Y-67407633D02*
X133747284Y-67378032D01*
X133747284Y-67378032D02*
X133763974Y-67346798D01*
X133754113Y-66897564D02*
X133718669Y-66903991D01*
X133763974Y-67346798D02*
X133800278Y-67280727D01*
X133778960Y-64379737D02*
X133677401Y-64430068D01*
X133786779Y-66894824D02*
X133754113Y-66897564D01*
X133790943Y-64373141D02*
X133778960Y-64379737D01*
X133800278Y-67280727D02*
X133836764Y-67212010D01*
X133801995Y-66895171D02*
X133786779Y-66894824D01*
X133803218Y-64365646D02*
X133790943Y-64373141D01*
X133816426Y-66896840D02*
X133801995Y-66895171D01*
X133828593Y-64348323D02*
X133803218Y-64365646D01*
X133830043Y-66899966D02*
X133816426Y-66896840D01*
X133836764Y-67212010D02*
X133853679Y-67177469D01*
X133838106Y-64986654D02*
X133867625Y-64979319D01*
X133842814Y-66904680D02*
X133830043Y-66899966D01*
X133853679Y-67177469D02*
X133868966Y-67143237D01*
X133854710Y-66911118D02*
X133842814Y-66904680D01*
X133854978Y-64328492D02*
X133828593Y-64348323D01*
X133865700Y-66919412D02*
X133854710Y-66911118D01*
X133867625Y-64979319D02*
X133897014Y-64974343D01*
X133868966Y-67143237D02*
X133882067Y-67109640D01*
X133875408Y-66929075D02*
X133865700Y-66919412D01*
X133882067Y-67109640D02*
X133892424Y-67077001D01*
X133882271Y-64306873D02*
X133854978Y-64328492D01*
X133883523Y-66939504D02*
X133875408Y-66929075D01*
X133890115Y-66950659D02*
X133883523Y-66939504D01*
X133892424Y-67077001D02*
X133896399Y-67061142D01*
X133895254Y-66962497D02*
X133890115Y-66950659D01*
X133896399Y-67061142D02*
X133899479Y-67045643D01*
X133897014Y-64974343D02*
X133926222Y-64971536D01*
X133899010Y-66974981D02*
X133895254Y-66962497D01*
X133899479Y-67045643D02*
X133901594Y-67030546D01*
X133901452Y-66988067D02*
X133899010Y-66974981D01*
X133901594Y-67030546D02*
X133902674Y-67015891D01*
X133902650Y-67001718D02*
X133901452Y-66988067D01*
X133902674Y-67015891D02*
X133902650Y-67001718D01*
X133926222Y-64971536D02*
X133955195Y-64970709D01*
X133939159Y-64261168D02*
X133882271Y-64306873D01*
X133955195Y-64970709D02*
X133983879Y-64971673D01*
X133968545Y-64238526D02*
X133939159Y-64261168D01*
X133983879Y-64971673D02*
X134012221Y-64974239D01*
X133998421Y-64216987D02*
X133968545Y-64238526D01*
X134012221Y-64974239D02*
X134040168Y-64978218D01*
X134028682Y-64197274D02*
X133998421Y-64216987D01*
X134040168Y-64978218D02*
X134067666Y-64983421D01*
X134043924Y-64188328D02*
X134028682Y-64197274D01*
X134059223Y-64180110D02*
X134043924Y-64188328D01*
X134067666Y-64983421D02*
X134094663Y-64989659D01*
X134074566Y-64172709D02*
X134059223Y-64180110D01*
X134089939Y-64166217D02*
X134074566Y-64172709D01*
X134094663Y-64989659D02*
X134121104Y-64996741D01*
X134105331Y-64160723D02*
X134089939Y-64166217D01*
X134120728Y-64156317D02*
X134105331Y-64160723D01*
X134121104Y-64996741D02*
X134172108Y-65012687D01*
X134136116Y-64153091D02*
X134120728Y-64156317D01*
X134151484Y-64151134D02*
X134136116Y-64153091D01*
X134166817Y-64150537D02*
X134151484Y-64151134D01*
X134172108Y-65012687D02*
X134220252Y-65029744D01*
X134182102Y-64151389D02*
X134166817Y-64150537D01*
X134197327Y-64153782D02*
X134182102Y-64151389D01*
X134212479Y-64157805D02*
X134197327Y-64153782D01*
X134220252Y-65029744D02*
X134265108Y-65046400D01*
X134227544Y-64163550D02*
X134212479Y-64157805D01*
X134242509Y-64171105D02*
X134227544Y-64163550D01*
X134253040Y-64177468D02*
X134242509Y-64171105D01*
X134262585Y-64183990D02*
X134253040Y-64177468D01*
X134265108Y-65046400D02*
X134306251Y-65061143D01*
X134271189Y-64190684D02*
X134262585Y-64183990D01*
X134278899Y-64197561D02*
X134271189Y-64190684D01*
X134285761Y-64204634D02*
X134278899Y-64197561D01*
X134291822Y-64211914D02*
X134285761Y-64204634D01*
X134297128Y-64219414D02*
X134291822Y-64211914D01*
X134301725Y-64227145D02*
X134297128Y-64219414D01*
X134305659Y-64235119D02*
X134301725Y-64227145D01*
X134306251Y-65061143D02*
X134343254Y-65072458D01*
X134308977Y-64243349D02*
X134305659Y-64235119D01*
X134311724Y-64251845D02*
X134308977Y-64243349D01*
X134313948Y-64260621D02*
X134311724Y-64251845D01*
X134315694Y-64269689D02*
X134313948Y-64260621D01*
X134315979Y-64419494D02*
X134316609Y-64392061D01*
X134316029Y-64448761D02*
X134315979Y-64419494D01*
X134316609Y-64392061D02*
X134318430Y-64342314D01*
X134317009Y-64279059D02*
X134315694Y-64269689D01*
X134317129Y-64479957D02*
X134316029Y-64448761D01*
X134317939Y-64288744D02*
X134317009Y-64279059D01*
X134318189Y-64496309D02*
X134317129Y-64479957D01*
X134318430Y-64342314D02*
X134318880Y-64319809D01*
X134318530Y-64298756D02*
X134317939Y-64288744D01*
X134318880Y-64319809D02*
X134318530Y-64298756D01*
X134319650Y-64513179D02*
X134318189Y-64496309D01*
X134324101Y-64547014D02*
X134319650Y-64513179D01*
X134330539Y-64580020D02*
X134324101Y-64547014D01*
X134338652Y-64612246D02*
X134330539Y-64580020D01*
X134343254Y-65072458D02*
X134360069Y-65076358D01*
X134348126Y-64643745D02*
X134338652Y-64612246D01*
X134358650Y-64674568D02*
X134348126Y-64643745D01*
X134360069Y-65076358D02*
X134375690Y-65078833D01*
X134369912Y-64704765D02*
X134358650Y-64674568D01*
X134375690Y-65078833D02*
X134390062Y-65079696D01*
X134390062Y-65079696D02*
X134403132Y-65078756D01*
X134393401Y-64763491D02*
X134369912Y-64704765D01*
X134403132Y-65078756D02*
X134414848Y-65075824D01*
X134414848Y-65075824D02*
X134425155Y-65070711D01*
X134416095Y-64820332D02*
X134393401Y-64763491D01*
X134425155Y-65070711D02*
X134429764Y-65067278D01*
X134426364Y-64848174D02*
X134416095Y-64820332D01*
X134429764Y-65067278D02*
X134434001Y-65063229D01*
X134434001Y-65063229D02*
X134437859Y-65058540D01*
X134435498Y-64875699D02*
X134426364Y-64848174D01*
X134437859Y-65058540D02*
X134441331Y-65053188D01*
X134441331Y-65053188D02*
X134447094Y-65040398D01*
X134443184Y-64902957D02*
X134435498Y-64875699D01*
X134447094Y-65040398D02*
X134451234Y-65024672D01*
X134449111Y-64930001D02*
X134443184Y-64902957D01*
X134451234Y-65024672D02*
X134453700Y-65005819D01*
X134452966Y-64956882D02*
X134449111Y-64930001D01*
X134453700Y-65005819D02*
X134454438Y-64983650D01*
X134454438Y-64983650D02*
X134452966Y-64956882D01*
D13*
%TA.AperFunction,EtchedComponent*%
G36*
X129173608Y-65023650D02*
G01*
X129223056Y-65198191D01*
X129243608Y-65483650D01*
X129083608Y-65473650D01*
X128943608Y-65493650D01*
X128843608Y-65623650D01*
X128665807Y-64795194D01*
X129173608Y-65023650D01*
G37*
%TD.AperFunction*%
%TA.AperFunction,EtchedComponent*%
G36*
X131903608Y-65623650D02*
G01*
X131803608Y-65493650D01*
X131663608Y-65473650D01*
X131503608Y-65483650D01*
X131524160Y-65198191D01*
X131573608Y-65023650D01*
X132081409Y-64795194D01*
X131903608Y-65623650D01*
G37*
%TD.AperFunction*%
%TA.AperFunction,EtchedComponent*%
G36*
X129385696Y-65261742D02*
G01*
X129547202Y-65317212D01*
X129707835Y-65364278D01*
X129867854Y-65402620D01*
X130027519Y-65431918D01*
X130187090Y-65451850D01*
X130373608Y-65462095D01*
X130373608Y-66343650D01*
X130243608Y-66343650D01*
X130119665Y-66334155D01*
X129984634Y-66312285D01*
X129853058Y-66281330D01*
X129733608Y-66223650D01*
X129623608Y-66153650D01*
X129523608Y-66093650D01*
X129453608Y-66043650D01*
X129363608Y-65963650D01*
X129293608Y-65893650D01*
X129213608Y-65733650D01*
X129173608Y-65583650D01*
X129133608Y-65433650D01*
X129116615Y-65290194D01*
X129223056Y-65198191D01*
X129385696Y-65261742D01*
G37*
%TD.AperFunction*%
%TA.AperFunction,EtchedComponent*%
G36*
X131630601Y-65290194D02*
G01*
X131613608Y-65433650D01*
X131573608Y-65583650D01*
X131533608Y-65733650D01*
X131453608Y-65893650D01*
X131383608Y-65963650D01*
X131293608Y-66043650D01*
X131223608Y-66093650D01*
X131123608Y-66153650D01*
X131013608Y-66223650D01*
X130894158Y-66281330D01*
X130762582Y-66312285D01*
X130627551Y-66334155D01*
X130503608Y-66343650D01*
X130373608Y-66343650D01*
X130373608Y-65462095D01*
X130560126Y-65451850D01*
X130719697Y-65431918D01*
X130879362Y-65402620D01*
X131039381Y-65364278D01*
X131200014Y-65317212D01*
X131361520Y-65261742D01*
X131524160Y-65198191D01*
X131630601Y-65290194D01*
G37*
%TD.AperFunction*%
%TA.AperFunction,EtchedComponent*%
G36*
X130357059Y-63766760D02*
G01*
X130398041Y-63772225D01*
X130438755Y-63783107D01*
X130478925Y-63799455D01*
X130518276Y-63821317D01*
X130556530Y-63848742D01*
X130593412Y-63881779D01*
X130628645Y-63920475D01*
X130661954Y-63964880D01*
X130693063Y-64015042D01*
X130721694Y-64071009D01*
X130747573Y-64132831D01*
X130770422Y-64200556D01*
X130789967Y-64274233D01*
X130805929Y-64353909D01*
X130818035Y-64439634D01*
X130818035Y-64439632D01*
X130818035Y-64439630D01*
X130818034Y-64439627D01*
X130818034Y-64439625D01*
X130818034Y-64439622D01*
X130818034Y-64439620D01*
X130827118Y-64488486D01*
X130834270Y-64535272D01*
X130839528Y-64579959D01*
X130842931Y-64622530D01*
X130844519Y-64662967D01*
X130844330Y-64701253D01*
X130842402Y-64737370D01*
X130838776Y-64771301D01*
X130833490Y-64803027D01*
X130826582Y-64832532D01*
X130818091Y-64859799D01*
X130808057Y-64884808D01*
X130796518Y-64907544D01*
X130783514Y-64927987D01*
X130769082Y-64946122D01*
X130753262Y-64961930D01*
X130736093Y-64975394D01*
X130717614Y-64986496D01*
X130697863Y-64995218D01*
X130676880Y-65001544D01*
X130654702Y-65005456D01*
X130631370Y-65006935D01*
X130606922Y-65005965D01*
X130581397Y-65002528D01*
X130554834Y-64996607D01*
X130527271Y-64988184D01*
X130498748Y-64977241D01*
X130469303Y-64963761D01*
X130438976Y-64947726D01*
X130407804Y-64929119D01*
X130375828Y-64907923D01*
X130343086Y-64884119D01*
X130297623Y-64912910D01*
X130255156Y-64937504D01*
X130215586Y-64958050D01*
X130178817Y-64974694D01*
X130144748Y-64987584D01*
X130113283Y-64996867D01*
X130084323Y-65002692D01*
X130057769Y-65005205D01*
X130033523Y-65004554D01*
X130011488Y-65000887D01*
X129991564Y-64994350D01*
X129973654Y-64985092D01*
X129957659Y-64973261D01*
X129943481Y-64959002D01*
X129931022Y-64942465D01*
X129920184Y-64923797D01*
X129910868Y-64903144D01*
X129902976Y-64880655D01*
X129896410Y-64856477D01*
X129891072Y-64830758D01*
X129886862Y-64803645D01*
X129883684Y-64775285D01*
X129880028Y-64715417D01*
X129879318Y-64652333D01*
X129880766Y-64587214D01*
X129886998Y-64455589D01*
X129890280Y-64376397D01*
X129897989Y-64301796D01*
X129909849Y-64231835D01*
X129925583Y-64166562D01*
X129944916Y-64106026D01*
X129967571Y-64050276D01*
X129993272Y-63999359D01*
X130021742Y-63953326D01*
X130052707Y-63912223D01*
X130085889Y-63876101D01*
X130121012Y-63845007D01*
X130157801Y-63818990D01*
X130195979Y-63798098D01*
X130235270Y-63782381D01*
X130275398Y-63771887D01*
X130316086Y-63766663D01*
X130357059Y-63766760D01*
G37*
%TD.AperFunction*%
%TA.AperFunction,EtchedComponent*%
G36*
X131406596Y-62930849D02*
G01*
X131438231Y-62932466D01*
X131469051Y-62935215D01*
X131499040Y-62939080D01*
X131528184Y-62944050D01*
X131556467Y-62950110D01*
X131583874Y-62957247D01*
X131610390Y-62965447D01*
X131636000Y-62974696D01*
X131660689Y-62984980D01*
X131684440Y-62996287D01*
X131707240Y-63008602D01*
X131729073Y-63021911D01*
X131749923Y-63036202D01*
X131769776Y-63051460D01*
X131788616Y-63067671D01*
X131806428Y-63084822D01*
X131823198Y-63102900D01*
X131838909Y-63121890D01*
X131853546Y-63141779D01*
X131867095Y-63162554D01*
X131879540Y-63184200D01*
X131890866Y-63206704D01*
X131901058Y-63230052D01*
X131910100Y-63254231D01*
X131917978Y-63279227D01*
X131924676Y-63305026D01*
X131930179Y-63331615D01*
X131934472Y-63358979D01*
X131937539Y-63387106D01*
X131937507Y-63387105D01*
X131939158Y-63415874D01*
X131939236Y-63445111D01*
X131937776Y-63474725D01*
X131934813Y-63504624D01*
X131930381Y-63534716D01*
X131924516Y-63564911D01*
X131917252Y-63595115D01*
X131908625Y-63625237D01*
X131898670Y-63655187D01*
X131887421Y-63684871D01*
X131874914Y-63714198D01*
X131861184Y-63743077D01*
X131846265Y-63771416D01*
X131830193Y-63799123D01*
X131813002Y-63826106D01*
X131794727Y-63852274D01*
X131775404Y-63877535D01*
X131755068Y-63901798D01*
X131733753Y-63924970D01*
X131711495Y-63946959D01*
X131688328Y-63967676D01*
X131664287Y-63987026D01*
X131639408Y-64004920D01*
X131613726Y-64021264D01*
X131587274Y-64035968D01*
X131560089Y-64048940D01*
X131532206Y-64060088D01*
X131503659Y-64069320D01*
X131474483Y-64076544D01*
X131444713Y-64081670D01*
X131414385Y-64084605D01*
X131383533Y-64085257D01*
X131352672Y-64083553D01*
X131322303Y-64079547D01*
X131292442Y-64073334D01*
X131263105Y-64065009D01*
X131234307Y-64054668D01*
X131206065Y-64042405D01*
X131178393Y-64028315D01*
X131151308Y-64012495D01*
X131124826Y-63995038D01*
X131098962Y-63976041D01*
X131073732Y-63955598D01*
X131049151Y-63933805D01*
X131002002Y-63886548D01*
X130957640Y-63835031D01*
X130916192Y-63780017D01*
X130877783Y-63722267D01*
X130842540Y-63662542D01*
X130810588Y-63601603D01*
X130782053Y-63540212D01*
X130757062Y-63479131D01*
X130735739Y-63419121D01*
X130718212Y-63360944D01*
X130711880Y-63333884D01*
X130707924Y-63307886D01*
X130706266Y-63282930D01*
X130706827Y-63258999D01*
X130709529Y-63236076D01*
X130714295Y-63214142D01*
X130721047Y-63193181D01*
X130729706Y-63173173D01*
X130740195Y-63154101D01*
X130752435Y-63135948D01*
X130766349Y-63118696D01*
X130781858Y-63102326D01*
X130798885Y-63086822D01*
X130817351Y-63072164D01*
X130837178Y-63058336D01*
X130858289Y-63045320D01*
X130904049Y-63021651D01*
X130954007Y-63001016D01*
X131007538Y-62983271D01*
X131064019Y-62968274D01*
X131122825Y-62955883D01*
X131183332Y-62945956D01*
X131244916Y-62938350D01*
X131306953Y-62932923D01*
X131340942Y-62931064D01*
X131374162Y-62930377D01*
X131406596Y-62930849D01*
G37*
%TD.AperFunction*%
%TA.AperFunction,EtchedComponent*%
G36*
X129483630Y-62926818D02*
G01*
X129517904Y-62928732D01*
X129578910Y-62934607D01*
X129637582Y-62943479D01*
X129693564Y-62955373D01*
X129746500Y-62970315D01*
X129796036Y-62988330D01*
X129841816Y-63009444D01*
X129863187Y-63021171D01*
X129883486Y-63033683D01*
X129902667Y-63046982D01*
X129920688Y-63061071D01*
X129937504Y-63075954D01*
X129953069Y-63091635D01*
X129967341Y-63108115D01*
X129980274Y-63125399D01*
X129991823Y-63143490D01*
X130001945Y-63162390D01*
X130010596Y-63182103D01*
X130017730Y-63202633D01*
X130023303Y-63223981D01*
X130027272Y-63246153D01*
X130029591Y-63269149D01*
X130030215Y-63292975D01*
X130029102Y-63317633D01*
X130026206Y-63343126D01*
X130021482Y-63369458D01*
X130014888Y-63396631D01*
X129997091Y-63454585D01*
X129975009Y-63513961D01*
X129948837Y-63574059D01*
X129918771Y-63634174D01*
X129885007Y-63693604D01*
X129847742Y-63751645D01*
X129807171Y-63807594D01*
X129763490Y-63860749D01*
X129716896Y-63910405D01*
X129667584Y-63955861D01*
X129641970Y-63976794D01*
X129615751Y-63996413D01*
X129588950Y-64014630D01*
X129561592Y-64031358D01*
X129533702Y-64046508D01*
X129505305Y-64059993D01*
X129476424Y-64071724D01*
X129447084Y-64081614D01*
X129417310Y-64089575D01*
X129387126Y-64095519D01*
X129356557Y-64099359D01*
X129325627Y-64101005D01*
X129294821Y-64100238D01*
X129264626Y-64096970D01*
X129235072Y-64091307D01*
X129206187Y-64083354D01*
X129178000Y-64073219D01*
X129150542Y-64061008D01*
X129123840Y-64046826D01*
X129097925Y-64030781D01*
X129072825Y-64012979D01*
X129048570Y-63993525D01*
X129025188Y-63972527D01*
X129002708Y-63950090D01*
X128981161Y-63926321D01*
X128960575Y-63901326D01*
X128940979Y-63875211D01*
X128922402Y-63848083D01*
X128904874Y-63820048D01*
X128888423Y-63791213D01*
X128873080Y-63761683D01*
X128858872Y-63731565D01*
X128845829Y-63700965D01*
X128833980Y-63669990D01*
X128823355Y-63638746D01*
X128813983Y-63607339D01*
X128805892Y-63575875D01*
X128799112Y-63544461D01*
X128793672Y-63513203D01*
X128789601Y-63482208D01*
X128786929Y-63451581D01*
X128785683Y-63421430D01*
X128785895Y-63391859D01*
X128787592Y-63362977D01*
X128787622Y-63362977D01*
X128790976Y-63334907D01*
X128796102Y-63307709D01*
X128802950Y-63281390D01*
X128811467Y-63255955D01*
X128821603Y-63231411D01*
X128833305Y-63207765D01*
X128846521Y-63185022D01*
X128861200Y-63163190D01*
X128877291Y-63142274D01*
X128894741Y-63122280D01*
X128913498Y-63103216D01*
X128933512Y-63085087D01*
X128954730Y-63067900D01*
X128977100Y-63051661D01*
X129000571Y-63036377D01*
X129025092Y-63022053D01*
X129050609Y-63008697D01*
X129077073Y-62996314D01*
X129104430Y-62984911D01*
X129132630Y-62974494D01*
X129161621Y-62965070D01*
X129191350Y-62956645D01*
X129221766Y-62949225D01*
X129252818Y-62942817D01*
X129284454Y-62937427D01*
X129316621Y-62933061D01*
X129349269Y-62929725D01*
X129382346Y-62927427D01*
X129415799Y-62926172D01*
X129449578Y-62925967D01*
X129483630Y-62926818D01*
G37*
%TD.AperFunction*%
%TD*%
D14*
%TO.P,J2,1,Pin_1*%
%TO.N,GND*%
X178170000Y-90940000D03*
D15*
%TO.P,J2,2,Pin_2*%
%TO.N,/Out F2*%
X178170000Y-85940000D03*
%TO.P,J2,3,Pin_3*%
%TO.N,/Out F1*%
X178170000Y-80940000D03*
%TD*%
D16*
%TO.P,H1,1,1*%
%TO.N,Earth*%
X121870000Y-42150000D03*
%TD*%
%TO.P,H2,1,1*%
%TO.N,Earth*%
X121620000Y-97050000D03*
%TD*%
%TO.P,H3,1,1*%
%TO.N,GND*%
X181810000Y-106420000D03*
%TD*%
D14*
%TO.P,J1,1,Pin_1*%
%TO.N,/F1*%
X126195000Y-80990000D03*
D15*
%TO.P,J1,2,Pin_2*%
%TO.N,/N*%
X126195000Y-85990000D03*
%TO.P,J1,3,Pin_3*%
%TO.N,/F2*%
X126195000Y-90990000D03*
%TD*%
D16*
%TO.P,H2,1,1*%
%TO.N,Earth*%
X121610000Y-65130000D03*
%TD*%
D14*
%TO.P,J1,1,Pin_1*%
%TO.N,/F1*%
X125915000Y-113220000D03*
D15*
%TO.P,J1,2,Pin_2*%
%TO.N,/N*%
X125915000Y-118220000D03*
%TO.P,J1,3,Pin_3*%
%TO.N,/F2*%
X125915000Y-123220000D03*
%TD*%
D14*
%TO.P,J1,1,Pin_1*%
%TO.N,/F1*%
X126505000Y-49200000D03*
D15*
%TO.P,J1,2,Pin_2*%
%TO.N,/N*%
X126505000Y-54200000D03*
%TO.P,J1,3,Pin_3*%
%TO.N,/F2*%
X126505000Y-59200000D03*
%TD*%
D14*
%TO.P,J2,1,Pin_1*%
%TO.N,GND*%
X178480000Y-59150000D03*
D15*
%TO.P,J2,2,Pin_2*%
%TO.N,/Out F2*%
X178480000Y-54150000D03*
%TO.P,J2,3,Pin_3*%
%TO.N,/Out F1*%
X178480000Y-49150000D03*
%TD*%
D16*
%TO.P,H2,1,1*%
%TO.N,Earth*%
X121740000Y-129300000D03*
%TD*%
%TO.P,H3,1,1*%
%TO.N,GND*%
X182400000Y-42400000D03*
%TD*%
%TO.P,H4,1,1*%
%TO.N,GND*%
X182360000Y-65180000D03*
%TD*%
%TO.P,H3,1,1*%
%TO.N,GND*%
X182090000Y-74190000D03*
%TD*%
%TO.P,H1,1,1*%
%TO.N,Earth*%
X121640000Y-73920000D03*
%TD*%
%TO.P,H4,1,1*%
%TO.N,GND*%
X182050000Y-96970000D03*
%TD*%
D14*
%TO.P,J2,1,Pin_1*%
%TO.N,GND*%
X177890000Y-123170000D03*
D15*
%TO.P,J2,2,Pin_2*%
%TO.N,/Out F2*%
X177890000Y-118170000D03*
%TO.P,J2,3,Pin_3*%
%TO.N,/Out F1*%
X177890000Y-113170000D03*
%TD*%
D16*
%TO.P,H4,1,1*%
%TO.N,GND*%
X181770000Y-129200000D03*
%TD*%
%TO.P,H1,1,1*%
%TO.N,Earth*%
X121640000Y-106120000D03*
%TD*%
D17*
%TO.P,R4,1*%
%TO.N,/F1*%
X134320000Y-113220000D03*
%TO.P,R4,2*%
%TO.N,Net-(R4-Pad2)*%
X139220000Y-113220000D03*
%TD*%
%TO.P,R7,1*%
%TO.N,Net-(R3-Pad2)*%
X145330000Y-45050000D03*
%TO.P,R7,2*%
%TO.N,Net-(R7-Pad2)*%
X150230000Y-45050000D03*
%TD*%
%TO.P,R2,1*%
%TO.N,/F2*%
X134760000Y-59220000D03*
%TO.P,R2,2*%
%TO.N,Net-(R2-Pad2)*%
X139660000Y-59220000D03*
%TD*%
%TO.P,R8,1*%
%TO.N,Net-(R4-Pad2)*%
X144870000Y-80980000D03*
%TO.P,R8,2*%
%TO.N,Net-(R8-Pad2)*%
X149770000Y-80980000D03*
%TD*%
%TO.P,R2,1*%
%TO.N,/F2*%
X134450000Y-91010000D03*
%TO.P,R2,2*%
%TO.N,Net-(R2-Pad2)*%
X139350000Y-91010000D03*
%TD*%
%TO.P,R4,1*%
%TO.N,/F1*%
X134910000Y-49200000D03*
%TO.P,R4,2*%
%TO.N,Net-(R4-Pad2)*%
X139810000Y-49200000D03*
%TD*%
%TO.P,R7,1*%
%TO.N,Net-(R3-Pad2)*%
X144740000Y-109070000D03*
%TO.P,R7,2*%
%TO.N,Net-(R7-Pad2)*%
X149640000Y-109070000D03*
%TD*%
%TO.P,R4,1*%
%TO.N,/F1*%
X134600000Y-80990000D03*
%TO.P,R4,2*%
%TO.N,Net-(R4-Pad2)*%
X139500000Y-80990000D03*
%TD*%
%TO.P,R1,1*%
%TO.N,/N*%
X134260000Y-118240000D03*
%TO.P,R1,2*%
%TO.N,Net-(R1-Pad2)*%
X139160000Y-118240000D03*
%TD*%
%TO.P,R1,1*%
%TO.N,/N*%
X134540000Y-86010000D03*
%TO.P,R1,2*%
%TO.N,Net-(R1-Pad2)*%
X139440000Y-86010000D03*
%TD*%
%TO.P,R3,1*%
%TO.N,/N*%
X135000000Y-45050000D03*
%TO.P,R3,2*%
%TO.N,Net-(R3-Pad2)*%
X139900000Y-45050000D03*
%TD*%
%TO.P,R3,1*%
%TO.N,/N*%
X134410000Y-109070000D03*
%TO.P,R3,2*%
%TO.N,Net-(R3-Pad2)*%
X139310000Y-109070000D03*
%TD*%
%TO.P,R5,1*%
%TO.N,Net-(R1-Pad2)*%
X144800000Y-86010000D03*
%TO.P,R5,2*%
%TO.N,Net-(R5-Pad2)*%
X149700000Y-86010000D03*
%TD*%
%TO.P,R6,1*%
%TO.N,Net-(R2-Pad2)*%
X144780000Y-91000000D03*
%TO.P,R6,2*%
%TO.N,Net-(R6-Pad2)*%
X149680000Y-91000000D03*
%TD*%
%TO.P,R8,1*%
%TO.N,Net-(R4-Pad2)*%
X144590000Y-113210000D03*
%TO.P,R8,2*%
%TO.N,Net-(R8-Pad2)*%
X149490000Y-113210000D03*
%TD*%
%TO.P,R8,1*%
%TO.N,Net-(R4-Pad2)*%
X145180000Y-49190000D03*
%TO.P,R8,2*%
%TO.N,Net-(R8-Pad2)*%
X150080000Y-49190000D03*
%TD*%
%TO.P,R6,1*%
%TO.N,Net-(R2-Pad2)*%
X145090000Y-59210000D03*
%TO.P,R6,2*%
%TO.N,Net-(R6-Pad2)*%
X149990000Y-59210000D03*
%TD*%
%TO.P,R5,1*%
%TO.N,Net-(R1-Pad2)*%
X144520000Y-118240000D03*
%TO.P,R5,2*%
%TO.N,Net-(R5-Pad2)*%
X149420000Y-118240000D03*
%TD*%
%TO.P,R7,1*%
%TO.N,Net-(R3-Pad2)*%
X145020000Y-76840000D03*
%TO.P,R7,2*%
%TO.N,Net-(R7-Pad2)*%
X149920000Y-76840000D03*
%TD*%
%TO.P,R6,1*%
%TO.N,Net-(R2-Pad2)*%
X144500000Y-123230000D03*
%TO.P,R6,2*%
%TO.N,Net-(R6-Pad2)*%
X149400000Y-123230000D03*
%TD*%
%TO.P,R1,1*%
%TO.N,/N*%
X134850000Y-54220000D03*
%TO.P,R1,2*%
%TO.N,Net-(R1-Pad2)*%
X139750000Y-54220000D03*
%TD*%
%TO.P,R3,1*%
%TO.N,/N*%
X134690000Y-76840000D03*
%TO.P,R3,2*%
%TO.N,Net-(R3-Pad2)*%
X139590000Y-76840000D03*
%TD*%
%TO.P,R5,1*%
%TO.N,Net-(R1-Pad2)*%
X145110000Y-54220000D03*
%TO.P,R5,2*%
%TO.N,Net-(R5-Pad2)*%
X150010000Y-54220000D03*
%TD*%
%TO.P,R2,1*%
%TO.N,/F2*%
X134170000Y-123240000D03*
%TO.P,R2,2*%
%TO.N,Net-(R2-Pad2)*%
X139070000Y-123240000D03*
%TD*%
D18*
%TO.N,Net-(R5-Pad2)*%
X151200000Y-118270000D03*
X151480000Y-86040000D03*
X151790000Y-54250000D03*
%TO.N,Net-(R6-Pad2)*%
X151780000Y-59180000D03*
X151190000Y-123200000D03*
X151470000Y-90970000D03*
%TO.N,Net-(R7-Pad2)*%
X152100000Y-45050000D03*
X151510000Y-109070000D03*
X151790000Y-76840000D03*
%TO.N,Net-(R8-Pad2)*%
X151850000Y-49230000D03*
X151260000Y-113250000D03*
X151540000Y-81020000D03*
%TO.N,Earth*%
X146200000Y-123850000D03*
X147800000Y-46310000D03*
X137230000Y-57960000D03*
X147980000Y-89740000D03*
X148250000Y-77450000D03*
X146950000Y-121970000D03*
X137390000Y-45030000D03*
X146190000Y-124490000D03*
X137060000Y-78090000D03*
X146510000Y-86640000D03*
X147100000Y-45040000D03*
X136800000Y-109050000D03*
X138090000Y-50460000D03*
X136190000Y-90370000D03*
X135970000Y-118830000D03*
X137520000Y-113210000D03*
X137630000Y-92260000D03*
X137310000Y-52930000D03*
X136570000Y-52930000D03*
X137530000Y-112590000D03*
X146330000Y-113190000D03*
X136980000Y-85970000D03*
X135960000Y-119470000D03*
X146220000Y-119510000D03*
X138060000Y-52930000D03*
X135880000Y-124500000D03*
X136890000Y-91630000D03*
X136070000Y-109680000D03*
X147230000Y-89740000D03*
X136670000Y-43780000D03*
X147070000Y-111940000D03*
X137800000Y-80980000D03*
X136620000Y-50470000D03*
X136920000Y-89750000D03*
X136680000Y-44400000D03*
X147540000Y-54850000D03*
X147980000Y-86630000D03*
X147700000Y-121970000D03*
X136720000Y-116950000D03*
X148580000Y-44410000D03*
X135980000Y-118200000D03*
X147530000Y-75580000D03*
X147310000Y-82230000D03*
X148270000Y-76200000D03*
X146840000Y-53590000D03*
X136610000Y-123860000D03*
X136640000Y-47950000D03*
X136270000Y-85340000D03*
X147820000Y-111940000D03*
X137570000Y-107800000D03*
X146490000Y-110330000D03*
X146230000Y-118870000D03*
X137560000Y-108420000D03*
X136080000Y-109050000D03*
X147970000Y-87270000D03*
X147320000Y-81590000D03*
X147050000Y-113190000D03*
X137070000Y-77450000D03*
X138130000Y-47950000D03*
X147840000Y-44420000D03*
X148550000Y-46300000D03*
X147500000Y-60470000D03*
X147970000Y-90360000D03*
X148000000Y-85380000D03*
X137550000Y-109040000D03*
X146330000Y-111940000D03*
X146800000Y-76200000D03*
X146490000Y-90990000D03*
X136640000Y-121980000D03*
X146980000Y-117620000D03*
X136820000Y-108430000D03*
X136260000Y-84720000D03*
X147210000Y-110330000D03*
X146800000Y-57950000D03*
X136340000Y-78090000D03*
X147990000Y-86000000D03*
X137390000Y-121980000D03*
X136330000Y-80990000D03*
X147840000Y-43790000D03*
X148100000Y-79710000D03*
X147200000Y-91620000D03*
X147250000Y-107810000D03*
X136490000Y-57960000D03*
X147220000Y-109690000D03*
X137100000Y-75570000D03*
X147070000Y-112570000D03*
X146770000Y-78100000D03*
X136500000Y-58580000D03*
X146620000Y-80330000D03*
X137380000Y-48580000D03*
X137370000Y-46300000D03*
X147500000Y-77460000D03*
X147040000Y-113820000D03*
X146930000Y-48540000D03*
X137070000Y-80370000D03*
X146500000Y-90360000D03*
X136250000Y-86600000D03*
X147230000Y-109060000D03*
X138150000Y-44400000D03*
X136960000Y-87240000D03*
X147680000Y-123210000D03*
X137430000Y-119460000D03*
X146920000Y-123850000D03*
X135900000Y-121980000D03*
X147820000Y-45040000D03*
X136180000Y-89750000D03*
X137450000Y-118190000D03*
X146910000Y-49800000D03*
X138130000Y-45650000D03*
X147940000Y-92250000D03*
X147080000Y-46310000D03*
X138020000Y-55440000D03*
X146590000Y-82230000D03*
X137310000Y-53560000D03*
X137190000Y-60480000D03*
X137350000Y-49830000D03*
X137370000Y-123220000D03*
X147250000Y-108440000D03*
X136630000Y-49830000D03*
X147970000Y-109680000D03*
X137980000Y-57960000D03*
X136360000Y-75570000D03*
X136780000Y-110320000D03*
X147660000Y-124480000D03*
X147110000Y-44410000D03*
X146520000Y-84760000D03*
X146800000Y-59200000D03*
X136570000Y-54180000D03*
X137230000Y-58590000D03*
X136690000Y-118830000D03*
X147100000Y-43790000D03*
X147520000Y-59200000D03*
X136550000Y-55450000D03*
X136970000Y-86600000D03*
X147510000Y-59830000D03*
X137650000Y-90990000D03*
X136320000Y-81620000D03*
X146490000Y-89740000D03*
X147810000Y-45670000D03*
X146960000Y-118240000D03*
X146610000Y-79710000D03*
X138120000Y-46290000D03*
X137380000Y-45660000D03*
X137960000Y-59200000D03*
X136060000Y-112590000D03*
X136370000Y-76190000D03*
X147260000Y-84760000D03*
X147980000Y-109050000D03*
X147540000Y-58580000D03*
X138110000Y-49190000D03*
X137820000Y-77440000D03*
X147620000Y-50440000D03*
X147330000Y-80960000D03*
X137340000Y-50470000D03*
X148570000Y-45030000D03*
X148370000Y-50430000D03*
X148410000Y-47920000D03*
X136720000Y-117580000D03*
X135900000Y-123230000D03*
X136640000Y-49200000D03*
X137530000Y-110310000D03*
X137000000Y-84720000D03*
X136240000Y-87240000D03*
X146930000Y-123220000D03*
X147660000Y-47920000D03*
X136760000Y-113850000D03*
X136790000Y-109680000D03*
X136600000Y-124500000D03*
X147490000Y-78100000D03*
X148090000Y-80330000D03*
X136340000Y-80360000D03*
X136580000Y-53550000D03*
X148590000Y-43790000D03*
X146900000Y-50440000D03*
X137410000Y-44410000D03*
X137810000Y-78080000D03*
X138030000Y-54800000D03*
X146920000Y-47920000D03*
X136790000Y-112600000D03*
X137710000Y-87230000D03*
X137970000Y-58580000D03*
X136750000Y-114490000D03*
X147090000Y-45670000D03*
X138120000Y-48570000D03*
X146820000Y-54850000D03*
X147230000Y-90370000D03*
X138140000Y-45020000D03*
X147960000Y-110320000D03*
X147220000Y-87280000D03*
X136170000Y-91630000D03*
X148320000Y-52970000D03*
X146780000Y-60470000D03*
X147510000Y-76830000D03*
X136640000Y-122610000D03*
X147350000Y-79710000D03*
X146210000Y-123220000D03*
X137830000Y-76810000D03*
X137440000Y-118820000D03*
X137850000Y-75570000D03*
X146830000Y-54220000D03*
X136060000Y-110320000D03*
X136050000Y-113220000D03*
X136040000Y-113850000D03*
X137360000Y-123850000D03*
X137820000Y-79740000D03*
X136660000Y-45660000D03*
X147730000Y-116990000D03*
X136470000Y-60480000D03*
X146210000Y-121970000D03*
X137740000Y-85340000D03*
X146780000Y-77460000D03*
X146790000Y-59830000D03*
X138160000Y-43780000D03*
X137640000Y-91620000D03*
X146310000Y-114460000D03*
X137780000Y-82250000D03*
X148560000Y-45660000D03*
X146520000Y-108430000D03*
X137000000Y-85350000D03*
X137540000Y-109670000D03*
X137810000Y-80360000D03*
X137070000Y-79740000D03*
X146470000Y-92260000D03*
X137040000Y-81620000D03*
X147570000Y-52970000D03*
X148280000Y-75580000D03*
X136180000Y-91000000D03*
X137380000Y-47950000D03*
X136880000Y-92270000D03*
X147960000Y-90980000D03*
X148280000Y-58570000D03*
X147540000Y-57950000D03*
X136820000Y-107800000D03*
X137410000Y-43780000D03*
X146480000Y-91620000D03*
X137050000Y-80990000D03*
X146600000Y-81590000D03*
X137950000Y-59830000D03*
X147790000Y-113810000D03*
X136680000Y-119470000D03*
X135910000Y-122600000D03*
X146790000Y-75580000D03*
X135990000Y-117570000D03*
X136920000Y-90380000D03*
X136350000Y-77450000D03*
X136620000Y-123230000D03*
X136360000Y-76820000D03*
X147350000Y-80340000D03*
X137730000Y-85960000D03*
X146240000Y-118240000D03*
X136490000Y-59210000D03*
X147190000Y-92260000D03*
X148300000Y-54210000D03*
X148060000Y-82220000D03*
X135890000Y-123860000D03*
X137940000Y-60470000D03*
X146950000Y-122600000D03*
X137790000Y-81610000D03*
X147990000Y-108430000D03*
X146950000Y-118870000D03*
X136790000Y-111970000D03*
X136160000Y-92270000D03*
X148290000Y-57950000D03*
X148260000Y-59820000D03*
X136310000Y-82260000D03*
X147690000Y-119500000D03*
X146810000Y-58570000D03*
X146520000Y-86010000D03*
X147670000Y-123840000D03*
X146610000Y-80960000D03*
X137210000Y-59210000D03*
X148390000Y-49160000D03*
X148070000Y-81580000D03*
X148080000Y-80950000D03*
X136050000Y-111970000D03*
X148290000Y-54840000D03*
X147230000Y-86640000D03*
X148280000Y-55480000D03*
X146510000Y-109060000D03*
X147570000Y-53600000D03*
X137500000Y-114480000D03*
X147240000Y-86010000D03*
X147640000Y-49170000D03*
X148400000Y-48540000D03*
X146830000Y-52970000D03*
X148010000Y-84760000D03*
X147260000Y-85390000D03*
X148380000Y-49790000D03*
X136770000Y-113220000D03*
X136560000Y-54810000D03*
X146940000Y-119510000D03*
X146500000Y-109690000D03*
X137200000Y-59840000D03*
X147700000Y-118860000D03*
X137470000Y-116950000D03*
X146340000Y-112560000D03*
X146240000Y-116990000D03*
X147530000Y-76210000D03*
X147950000Y-91610000D03*
X137670000Y-89750000D03*
X148250000Y-60460000D03*
X147690000Y-122590000D03*
X137720000Y-86590000D03*
X147800000Y-113180000D03*
X137270000Y-55450000D03*
X147710000Y-118230000D03*
X136330000Y-79740000D03*
X137380000Y-122600000D03*
X146220000Y-122590000D03*
X136700000Y-118200000D03*
X137510000Y-113840000D03*
X137080000Y-76820000D03*
X146250000Y-117610000D03*
X147720000Y-117610000D03*
X148260000Y-76820000D03*
X137540000Y-111970000D03*
X137360000Y-49200000D03*
X137100000Y-76200000D03*
X136090000Y-108420000D03*
X137660000Y-90370000D03*
X146510000Y-107810000D03*
X136650000Y-46300000D03*
X148000000Y-107810000D03*
X148270000Y-59190000D03*
X136260000Y-85970000D03*
X146810000Y-55490000D03*
X147550000Y-54220000D03*
X146530000Y-85380000D03*
X137840000Y-76190000D03*
X136030000Y-114490000D03*
X146910000Y-124490000D03*
X147210000Y-90990000D03*
X146790000Y-76830000D03*
X138100000Y-49820000D03*
X137350000Y-124490000D03*
X136650000Y-48570000D03*
X146920000Y-49170000D03*
X147530000Y-55490000D03*
X136480000Y-59840000D03*
X136670000Y-45030000D03*
X146500000Y-87280000D03*
X146980000Y-116990000D03*
X147660000Y-48550000D03*
X138040000Y-54170000D03*
X147810000Y-112560000D03*
X146320000Y-113820000D03*
X148240000Y-78090000D03*
X137280000Y-54810000D03*
X138050000Y-53550000D03*
X147030000Y-114460000D03*
X137030000Y-82260000D03*
X148310000Y-53590000D03*
X147780000Y-114450000D03*
X137460000Y-117570000D03*
X137290000Y-54180000D03*
X147630000Y-49800000D03*
X135980000Y-116950000D03*
X137750000Y-84720000D03*
X136080000Y-107800000D03*
X136900000Y-91000000D03*
%TD*%
D19*
%TO.N,/F1*%
X134910000Y-49200000D02*
X126505000Y-49200000D01*
X134320000Y-113220000D02*
X125915000Y-113220000D01*
X134600000Y-80990000D02*
X126195000Y-80990000D01*
%TO.N,/F2*%
X134450000Y-91010000D02*
X126215000Y-91010000D01*
X134170000Y-123240000D02*
X125935000Y-123240000D01*
D20*
X126215000Y-91010000D02*
X126195000Y-90990000D01*
X125935000Y-123240000D02*
X125915000Y-123220000D01*
X126525000Y-59220000D02*
X126505000Y-59200000D01*
D19*
X134760000Y-59220000D02*
X126525000Y-59220000D01*
D20*
%TO.N,/N*%
X125935000Y-118240000D02*
X125925000Y-118250000D01*
D19*
X123160000Y-53510000D02*
X123160000Y-47500000D01*
X122850000Y-79290000D02*
X125310000Y-76830000D01*
X123570000Y-86020000D02*
X122850000Y-85300000D01*
X134260000Y-118240000D02*
X125935000Y-118240000D01*
X126515000Y-54230000D02*
X123880000Y-54230000D01*
X125320000Y-76840000D02*
X134690000Y-76840000D01*
D20*
X126525000Y-54220000D02*
X126505000Y-54200000D01*
D19*
X122570000Y-117530000D02*
X122570000Y-111520000D01*
D20*
X126525000Y-54220000D02*
X126515000Y-54230000D01*
D19*
X123290000Y-118250000D02*
X122570000Y-117530000D01*
X125630000Y-45050000D02*
X135000000Y-45050000D01*
X125620000Y-45040000D02*
X125630000Y-45050000D01*
X125040000Y-109070000D02*
X134410000Y-109070000D01*
X125310000Y-76830000D02*
X125320000Y-76840000D01*
D20*
X126215000Y-86010000D02*
X126195000Y-85990000D01*
D19*
X123880000Y-54230000D02*
X123160000Y-53510000D01*
X125030000Y-109060000D02*
X125040000Y-109070000D01*
D20*
X126215000Y-86010000D02*
X126205000Y-86020000D01*
D19*
X125925000Y-118250000D02*
X123290000Y-118250000D01*
X134850000Y-54220000D02*
X126525000Y-54220000D01*
D20*
X125935000Y-118240000D02*
X125915000Y-118220000D01*
D19*
X134540000Y-86010000D02*
X126215000Y-86010000D01*
X122570000Y-111520000D02*
X125030000Y-109060000D01*
X123160000Y-47500000D02*
X125620000Y-45040000D01*
X122850000Y-85300000D02*
X122850000Y-79290000D01*
X126205000Y-86020000D02*
X123570000Y-86020000D01*
D21*
%TO.N,Net-(R1-Pad2)*%
X139440000Y-86010000D02*
X144800000Y-86010000D01*
X139750000Y-54220000D02*
X145110000Y-54220000D01*
X139160000Y-118240000D02*
X144520000Y-118240000D01*
%TO.N,Net-(R2-Pad2)*%
X145090000Y-59210000D02*
X139670000Y-59210000D01*
X144500000Y-123230000D02*
X139080000Y-123230000D01*
D20*
X139670000Y-59210000D02*
X139660000Y-59220000D01*
D21*
X144780000Y-91000000D02*
X139360000Y-91000000D01*
D20*
X139360000Y-91000000D02*
X139350000Y-91010000D01*
X139080000Y-123230000D02*
X139070000Y-123240000D01*
D21*
%TO.N,Net-(R3-Pad2)*%
X139900000Y-45050000D02*
X143020000Y-45050000D01*
X142710000Y-76840000D02*
X145020000Y-76840000D01*
X139310000Y-109070000D02*
X142430000Y-109070000D01*
X142430000Y-109070000D02*
X144740000Y-109070000D01*
X139590000Y-76840000D02*
X142710000Y-76840000D01*
X143020000Y-45050000D02*
X145330000Y-45050000D01*
D20*
%TO.N,Net-(R4-Pad2)*%
X139510000Y-80980000D02*
X139500000Y-80990000D01*
X139230000Y-113210000D02*
X139220000Y-113220000D01*
D21*
X144590000Y-113210000D02*
X139230000Y-113210000D01*
X144870000Y-80980000D02*
X139510000Y-80980000D01*
D20*
X139820000Y-49190000D02*
X139810000Y-49200000D01*
D21*
X145180000Y-49190000D02*
X139820000Y-49190000D01*
%TO.N,Net-(R5-Pad2)*%
X151200000Y-118270000D02*
X149450000Y-118270000D01*
D20*
X149450000Y-118270000D02*
X149420000Y-118240000D01*
X150040000Y-54250000D02*
X150010000Y-54220000D01*
X149730000Y-86040000D02*
X149700000Y-86010000D01*
D21*
X151480000Y-86040000D02*
X149730000Y-86040000D01*
X151790000Y-54250000D02*
X150040000Y-54250000D01*
%TO.N,Net-(R6-Pad2)*%
X151780000Y-59180000D02*
X150020000Y-59180000D01*
X151470000Y-90970000D02*
X149710000Y-90970000D01*
D20*
X149430000Y-123200000D02*
X149400000Y-123230000D01*
D21*
X151190000Y-123200000D02*
X149430000Y-123200000D01*
D20*
X150020000Y-59180000D02*
X149990000Y-59210000D01*
X149710000Y-90970000D02*
X149680000Y-91000000D01*
D21*
%TO.N,Net-(R7-Pad2)*%
X151790000Y-76840000D02*
X149920000Y-76840000D01*
X151510000Y-109070000D02*
X149640000Y-109070000D01*
X152100000Y-45050000D02*
X150230000Y-45050000D01*
%TO.N,Net-(R8-Pad2)*%
X151850000Y-49230000D02*
X150120000Y-49230000D01*
X151260000Y-113250000D02*
X149530000Y-113250000D01*
D20*
X149530000Y-113250000D02*
X149490000Y-113210000D01*
X150120000Y-49230000D02*
X150080000Y-49190000D01*
D21*
X151540000Y-81020000D02*
X149810000Y-81020000D01*
D20*
X149810000Y-81020000D02*
X149770000Y-80980000D01*
%TD*%
%TA.AperFunction,Conductor*%
%TO.N,GND*%
G36*
X185592416Y-102990746D02*
G01*
X185638233Y-103043496D01*
X185649500Y-103095141D01*
X185649500Y-132535500D01*
X185629815Y-132602539D01*
X185577011Y-132648294D01*
X185525500Y-132659500D01*
X160675182Y-132659500D01*
X160608143Y-132639815D01*
X160562388Y-132587011D01*
X160551185Y-132534629D01*
X160558862Y-131442284D01*
X160575805Y-129031519D01*
X178770000Y-129031519D01*
X178770000Y-129368480D01*
X178807725Y-129703297D01*
X178807727Y-129703313D01*
X178882705Y-130031814D01*
X178882709Y-130031826D01*
X178993995Y-130349862D01*
X179140191Y-130653440D01*
X179319461Y-130938747D01*
X179478397Y-131138048D01*
X180726320Y-129890125D01*
X180816554Y-130014320D01*
X180955680Y-130153446D01*
X181079873Y-130243678D01*
X179831950Y-131491601D01*
X180031252Y-131650538D01*
X180316559Y-131829808D01*
X180620137Y-131976004D01*
X180938173Y-132087290D01*
X180938185Y-132087294D01*
X181266686Y-132162272D01*
X181266702Y-132162274D01*
X181601519Y-132199999D01*
X181601521Y-132200000D01*
X181938479Y-132200000D01*
X181938480Y-132199999D01*
X182273297Y-132162274D01*
X182273313Y-132162272D01*
X182601814Y-132087294D01*
X182601826Y-132087290D01*
X182919862Y-131976004D01*
X183223440Y-131829808D01*
X183508747Y-131650538D01*
X183708048Y-131491600D01*
X182460126Y-130243678D01*
X182584320Y-130153446D01*
X182723446Y-130014320D01*
X182813678Y-129890126D01*
X184061600Y-131138048D01*
X184220538Y-130938747D01*
X184399808Y-130653440D01*
X184546004Y-130349862D01*
X184657290Y-130031826D01*
X184657294Y-130031814D01*
X184732272Y-129703313D01*
X184732274Y-129703297D01*
X184769999Y-129368480D01*
X184770000Y-129368478D01*
X184770000Y-129031521D01*
X184769999Y-129031519D01*
X184732274Y-128696702D01*
X184732272Y-128696686D01*
X184657294Y-128368185D01*
X184657290Y-128368173D01*
X184546004Y-128050137D01*
X184399808Y-127746559D01*
X184220538Y-127461252D01*
X184061601Y-127261950D01*
X182813678Y-128509873D01*
X182723446Y-128385680D01*
X182584320Y-128246554D01*
X182460124Y-128156320D01*
X183708048Y-126908397D01*
X183508747Y-126749461D01*
X183223440Y-126570191D01*
X182919862Y-126423995D01*
X182601826Y-126312709D01*
X182601814Y-126312705D01*
X182273313Y-126237727D01*
X182273297Y-126237725D01*
X181938480Y-126200000D01*
X181601519Y-126200000D01*
X181266702Y-126237725D01*
X181266686Y-126237727D01*
X180938185Y-126312705D01*
X180938173Y-126312709D01*
X180620137Y-126423995D01*
X180316559Y-126570191D01*
X180031252Y-126749461D01*
X179831950Y-126908397D01*
X181079873Y-128156320D01*
X180955680Y-128246554D01*
X180816554Y-128385680D01*
X180726320Y-128509873D01*
X179478397Y-127261950D01*
X179319461Y-127461252D01*
X179140191Y-127746559D01*
X178993995Y-128050137D01*
X178882709Y-128368173D01*
X178882705Y-128368185D01*
X178807727Y-128696686D01*
X178807725Y-128696702D01*
X178770000Y-129031519D01*
X160575805Y-129031519D01*
X160575836Y-129027174D01*
X160590393Y-126955973D01*
X160615611Y-123367767D01*
X160626474Y-121822155D01*
X176090000Y-121822155D01*
X176090000Y-122920000D01*
X177289999Y-122920000D01*
X177264979Y-122980402D01*
X177240000Y-123105981D01*
X177240000Y-123234019D01*
X177264979Y-123359598D01*
X177289999Y-123420000D01*
X176090000Y-123420000D01*
X176090000Y-124517844D01*
X176096401Y-124577372D01*
X176096403Y-124577379D01*
X176146645Y-124712086D01*
X176146649Y-124712093D01*
X176232809Y-124827187D01*
X176232812Y-124827190D01*
X176347906Y-124913350D01*
X176347913Y-124913354D01*
X176482620Y-124963596D01*
X176482627Y-124963598D01*
X176542155Y-124969999D01*
X176542172Y-124970000D01*
X177640000Y-124970000D01*
X177640000Y-123770001D01*
X177700402Y-123795021D01*
X177825981Y-123820000D01*
X177954019Y-123820000D01*
X178079598Y-123795021D01*
X178140000Y-123770001D01*
X178140000Y-124970000D01*
X179237828Y-124970000D01*
X179237844Y-124969999D01*
X179297372Y-124963598D01*
X179297379Y-124963596D01*
X179432086Y-124913354D01*
X179432093Y-124913350D01*
X179547187Y-124827190D01*
X179547190Y-124827187D01*
X179633350Y-124712093D01*
X179633354Y-124712086D01*
X179683596Y-124577379D01*
X179683598Y-124577372D01*
X179689999Y-124517844D01*
X179690000Y-124517827D01*
X179690000Y-123420000D01*
X178490001Y-123420000D01*
X178515021Y-123359598D01*
X178540000Y-123234019D01*
X178540000Y-123105981D01*
X178515021Y-122980402D01*
X178490001Y-122920000D01*
X179690000Y-122920000D01*
X179690000Y-121822172D01*
X179689999Y-121822155D01*
X179683598Y-121762627D01*
X179683596Y-121762620D01*
X179633354Y-121627913D01*
X179633350Y-121627906D01*
X179547190Y-121512812D01*
X179547187Y-121512809D01*
X179432093Y-121426649D01*
X179432086Y-121426645D01*
X179297379Y-121376403D01*
X179297372Y-121376401D01*
X179237844Y-121370000D01*
X178140000Y-121370000D01*
X178140000Y-122569998D01*
X178079598Y-122544979D01*
X177954019Y-122520000D01*
X177825981Y-122520000D01*
X177700402Y-122544979D01*
X177640000Y-122569998D01*
X177640000Y-121370000D01*
X176542155Y-121370000D01*
X176482627Y-121376401D01*
X176482620Y-121376403D01*
X176347913Y-121426645D01*
X176347906Y-121426649D01*
X176232812Y-121512809D01*
X176232809Y-121512812D01*
X176146649Y-121627906D01*
X176146645Y-121627913D01*
X176096403Y-121762620D01*
X176096401Y-121762627D01*
X176090000Y-121822155D01*
X160626474Y-121822155D01*
X160626503Y-121817980D01*
X160652970Y-118051995D01*
X176089500Y-118051995D01*
X176089500Y-118288004D01*
X176089501Y-118288020D01*
X176120306Y-118522010D01*
X176181394Y-118749993D01*
X176271714Y-118968045D01*
X176271719Y-118968056D01*
X176342677Y-119090957D01*
X176389727Y-119172450D01*
X176389729Y-119172453D01*
X176389730Y-119172454D01*
X176533406Y-119359697D01*
X176533412Y-119359704D01*
X176700295Y-119526587D01*
X176700301Y-119526592D01*
X176887550Y-119670273D01*
X177018918Y-119746118D01*
X177091943Y-119788280D01*
X177091948Y-119788282D01*
X177091951Y-119788284D01*
X177310007Y-119878606D01*
X177537986Y-119939693D01*
X177771989Y-119970500D01*
X177771996Y-119970500D01*
X178008004Y-119970500D01*
X178008011Y-119970500D01*
X178242014Y-119939693D01*
X178469993Y-119878606D01*
X178688049Y-119788284D01*
X178892450Y-119670273D01*
X179079699Y-119526592D01*
X179246592Y-119359699D01*
X179390273Y-119172450D01*
X179508284Y-118968049D01*
X179598606Y-118749993D01*
X179659693Y-118522014D01*
X179690500Y-118288011D01*
X179690500Y-118051989D01*
X179659693Y-117817986D01*
X179598606Y-117590007D01*
X179508284Y-117371951D01*
X179508282Y-117371948D01*
X179508280Y-117371943D01*
X179466118Y-117298918D01*
X179390273Y-117167550D01*
X179246592Y-116980301D01*
X179246587Y-116980295D01*
X179079704Y-116813412D01*
X179079697Y-116813406D01*
X178892454Y-116669730D01*
X178892453Y-116669729D01*
X178892450Y-116669727D01*
X178810957Y-116622677D01*
X178688056Y-116551719D01*
X178688045Y-116551714D01*
X178469993Y-116461394D01*
X178242010Y-116400306D01*
X178008020Y-116369501D01*
X178008017Y-116369500D01*
X178008011Y-116369500D01*
X177771989Y-116369500D01*
X177771983Y-116369500D01*
X177771979Y-116369501D01*
X177537989Y-116400306D01*
X177310006Y-116461394D01*
X177091954Y-116551714D01*
X177091943Y-116551719D01*
X176887545Y-116669730D01*
X176700302Y-116813406D01*
X176700295Y-116813412D01*
X176533412Y-116980295D01*
X176533406Y-116980302D01*
X176389730Y-117167545D01*
X176271719Y-117371943D01*
X176271714Y-117371954D01*
X176181394Y-117590006D01*
X176120306Y-117817989D01*
X176089501Y-118051979D01*
X176089500Y-118051995D01*
X160652970Y-118051995D01*
X160653005Y-118047059D01*
X160680236Y-114172454D01*
X160688111Y-113051995D01*
X176089500Y-113051995D01*
X176089500Y-113288004D01*
X176089501Y-113288020D01*
X176120306Y-113522010D01*
X176181394Y-113749993D01*
X176271714Y-113968045D01*
X176271719Y-113968056D01*
X176342677Y-114090957D01*
X176389727Y-114172450D01*
X176389729Y-114172453D01*
X176389730Y-114172454D01*
X176533406Y-114359697D01*
X176533412Y-114359704D01*
X176700295Y-114526587D01*
X176700301Y-114526592D01*
X176887550Y-114670273D01*
X177018918Y-114746118D01*
X177091943Y-114788280D01*
X177091948Y-114788282D01*
X177091951Y-114788284D01*
X177310007Y-114878606D01*
X177537986Y-114939693D01*
X177771989Y-114970500D01*
X177771996Y-114970500D01*
X178008004Y-114970500D01*
X178008011Y-114970500D01*
X178242014Y-114939693D01*
X178469993Y-114878606D01*
X178688049Y-114788284D01*
X178892450Y-114670273D01*
X179079699Y-114526592D01*
X179246592Y-114359699D01*
X179390273Y-114172450D01*
X179508284Y-113968049D01*
X179598606Y-113749993D01*
X179659693Y-113522014D01*
X179690500Y-113288011D01*
X179690500Y-113051989D01*
X179659693Y-112817986D01*
X179598606Y-112590007D01*
X179508284Y-112371951D01*
X179508282Y-112371948D01*
X179508280Y-112371943D01*
X179466118Y-112298918D01*
X179390273Y-112167550D01*
X179246592Y-111980301D01*
X179246587Y-111980295D01*
X179079704Y-111813412D01*
X179079697Y-111813406D01*
X178892454Y-111669730D01*
X178892453Y-111669729D01*
X178892450Y-111669727D01*
X178810957Y-111622677D01*
X178688056Y-111551719D01*
X178688045Y-111551714D01*
X178469993Y-111461394D01*
X178242010Y-111400306D01*
X178008020Y-111369501D01*
X178008017Y-111369500D01*
X178008011Y-111369500D01*
X177771989Y-111369500D01*
X177771983Y-111369500D01*
X177771979Y-111369501D01*
X177537989Y-111400306D01*
X177310006Y-111461394D01*
X177091954Y-111551714D01*
X177091943Y-111551719D01*
X176887545Y-111669730D01*
X176700302Y-111813406D01*
X176700295Y-111813412D01*
X176533412Y-111980295D01*
X176533406Y-111980302D01*
X176389730Y-112167545D01*
X176271719Y-112371943D01*
X176271714Y-112371954D01*
X176181394Y-112590006D01*
X176120306Y-112817989D01*
X176089501Y-113051979D01*
X176089500Y-113051995D01*
X160688111Y-113051995D01*
X160735905Y-106251519D01*
X178810000Y-106251519D01*
X178810000Y-106588480D01*
X178847725Y-106923297D01*
X178847727Y-106923313D01*
X178922705Y-107251814D01*
X178922709Y-107251826D01*
X179033995Y-107569862D01*
X179180191Y-107873440D01*
X179359461Y-108158747D01*
X179518397Y-108358048D01*
X180766320Y-107110125D01*
X180856554Y-107234320D01*
X180995680Y-107373446D01*
X181119873Y-107463678D01*
X179871950Y-108711601D01*
X180071252Y-108870538D01*
X180356559Y-109049808D01*
X180660137Y-109196004D01*
X180978173Y-109307290D01*
X180978185Y-109307294D01*
X181306686Y-109382272D01*
X181306702Y-109382274D01*
X181641519Y-109419999D01*
X181641521Y-109420000D01*
X181978479Y-109420000D01*
X181978480Y-109419999D01*
X182313297Y-109382274D01*
X182313313Y-109382272D01*
X182641814Y-109307294D01*
X182641826Y-109307290D01*
X182959862Y-109196004D01*
X183263440Y-109049808D01*
X183548747Y-108870538D01*
X183748048Y-108711600D01*
X182500126Y-107463678D01*
X182624320Y-107373446D01*
X182763446Y-107234320D01*
X182853678Y-107110126D01*
X184101600Y-108358048D01*
X184260538Y-108158747D01*
X184439808Y-107873440D01*
X184586004Y-107569862D01*
X184697290Y-107251826D01*
X184697294Y-107251814D01*
X184772272Y-106923313D01*
X184772274Y-106923297D01*
X184809999Y-106588480D01*
X184810000Y-106588478D01*
X184810000Y-106251521D01*
X184809999Y-106251519D01*
X184772274Y-105916702D01*
X184772272Y-105916686D01*
X184697294Y-105588185D01*
X184697290Y-105588173D01*
X184586004Y-105270137D01*
X184439808Y-104966559D01*
X184260538Y-104681252D01*
X184101601Y-104481950D01*
X182853678Y-105729873D01*
X182763446Y-105605680D01*
X182624320Y-105466554D01*
X182500124Y-105376320D01*
X183748048Y-104128397D01*
X183548747Y-103969461D01*
X183263440Y-103790191D01*
X182959862Y-103643995D01*
X182641826Y-103532709D01*
X182641814Y-103532705D01*
X182313313Y-103457727D01*
X182313297Y-103457725D01*
X181978480Y-103420000D01*
X181641519Y-103420000D01*
X181306702Y-103457725D01*
X181306686Y-103457727D01*
X180978185Y-103532705D01*
X180978173Y-103532709D01*
X180660137Y-103643995D01*
X180356559Y-103790191D01*
X180071252Y-103969461D01*
X179871950Y-104128397D01*
X181119873Y-105376320D01*
X180995680Y-105466554D01*
X180856554Y-105605680D01*
X180766320Y-105729873D01*
X179518397Y-104481950D01*
X179359461Y-104681252D01*
X179180191Y-104966559D01*
X179033995Y-105270137D01*
X178922709Y-105588173D01*
X178922705Y-105588185D01*
X178847727Y-105916686D01*
X178847725Y-105916702D01*
X178810000Y-106251519D01*
X160735905Y-106251519D01*
X160757889Y-103123455D01*
X160778044Y-103056558D01*
X160831169Y-103011175D01*
X160881737Y-103000329D01*
X185525356Y-102971141D01*
X185592416Y-102990746D01*
G37*
%TD.AperFunction*%
%TD*%
%TA.AperFunction,Conductor*%
%TO.N,GND*%
G36*
X185592413Y-70940862D02*
G01*
X185638232Y-70993611D01*
X185649500Y-71045259D01*
X185649500Y-100322175D01*
X185629815Y-100389214D01*
X185577011Y-100434969D01*
X185507853Y-100444913D01*
X185463501Y-100429563D01*
X185453187Y-100423608D01*
X185389539Y-100406554D01*
X185325892Y-100389500D01*
X160776728Y-100389500D01*
X160709689Y-100369815D01*
X160663934Y-100317011D01*
X160652731Y-100264629D01*
X160660127Y-99212284D01*
X160677070Y-96801519D01*
X179050000Y-96801519D01*
X179050000Y-97138480D01*
X179087725Y-97473297D01*
X179087727Y-97473313D01*
X179162705Y-97801814D01*
X179162709Y-97801826D01*
X179273995Y-98119862D01*
X179420191Y-98423440D01*
X179599461Y-98708747D01*
X179758397Y-98908048D01*
X181006320Y-97660125D01*
X181096554Y-97784320D01*
X181235680Y-97923446D01*
X181359873Y-98013678D01*
X180111950Y-99261601D01*
X180311252Y-99420538D01*
X180596559Y-99599808D01*
X180900137Y-99746004D01*
X181218173Y-99857290D01*
X181218185Y-99857294D01*
X181546686Y-99932272D01*
X181546702Y-99932274D01*
X181881519Y-99969999D01*
X181881521Y-99970000D01*
X182218479Y-99970000D01*
X182218480Y-99969999D01*
X182553297Y-99932274D01*
X182553313Y-99932272D01*
X182881814Y-99857294D01*
X182881826Y-99857290D01*
X183199862Y-99746004D01*
X183503440Y-99599808D01*
X183788747Y-99420538D01*
X183988048Y-99261600D01*
X182740126Y-98013678D01*
X182864320Y-97923446D01*
X183003446Y-97784320D01*
X183093678Y-97660126D01*
X184341600Y-98908048D01*
X184500538Y-98708747D01*
X184679808Y-98423440D01*
X184826004Y-98119862D01*
X184937290Y-97801826D01*
X184937294Y-97801814D01*
X185012272Y-97473313D01*
X185012274Y-97473297D01*
X185049999Y-97138480D01*
X185050000Y-97138478D01*
X185050000Y-96801521D01*
X185049999Y-96801519D01*
X185012274Y-96466702D01*
X185012272Y-96466686D01*
X184937294Y-96138185D01*
X184937290Y-96138173D01*
X184826004Y-95820137D01*
X184679808Y-95516559D01*
X184500538Y-95231252D01*
X184341601Y-95031950D01*
X183093678Y-96279873D01*
X183003446Y-96155680D01*
X182864320Y-96016554D01*
X182740124Y-95926320D01*
X183988048Y-94678397D01*
X183788747Y-94519461D01*
X183503440Y-94340191D01*
X183199862Y-94193995D01*
X182881826Y-94082709D01*
X182881814Y-94082705D01*
X182553313Y-94007727D01*
X182553297Y-94007725D01*
X182218480Y-93970000D01*
X181881519Y-93970000D01*
X181546702Y-94007725D01*
X181546686Y-94007727D01*
X181218185Y-94082705D01*
X181218173Y-94082709D01*
X180900137Y-94193995D01*
X180596559Y-94340191D01*
X180311252Y-94519461D01*
X180111950Y-94678397D01*
X181359873Y-95926320D01*
X181235680Y-96016554D01*
X181096554Y-96155680D01*
X181006320Y-96279873D01*
X179758397Y-95031950D01*
X179599461Y-95231252D01*
X179420191Y-95516559D01*
X179273995Y-95820137D01*
X179162709Y-96138173D01*
X179162705Y-96138185D01*
X179087727Y-96466686D01*
X179087725Y-96466702D01*
X179050000Y-96801519D01*
X160677070Y-96801519D01*
X160677101Y-96797174D01*
X160691658Y-94725973D01*
X160716876Y-91137767D01*
X160727739Y-89592155D01*
X176370000Y-89592155D01*
X176370000Y-90690000D01*
X177569999Y-90690000D01*
X177544979Y-90750402D01*
X177520000Y-90875981D01*
X177520000Y-91004019D01*
X177544979Y-91129598D01*
X177569999Y-91190000D01*
X176370000Y-91190000D01*
X176370000Y-92287844D01*
X176376401Y-92347372D01*
X176376403Y-92347379D01*
X176426645Y-92482086D01*
X176426649Y-92482093D01*
X176512809Y-92597187D01*
X176512812Y-92597190D01*
X176627906Y-92683350D01*
X176627913Y-92683354D01*
X176762620Y-92733596D01*
X176762627Y-92733598D01*
X176822155Y-92739999D01*
X176822172Y-92740000D01*
X177920000Y-92740000D01*
X177920000Y-91540001D01*
X177980402Y-91565021D01*
X178105981Y-91590000D01*
X178234019Y-91590000D01*
X178359598Y-91565021D01*
X178420000Y-91540001D01*
X178420000Y-92740000D01*
X179517828Y-92740000D01*
X179517844Y-92739999D01*
X179577372Y-92733598D01*
X179577379Y-92733596D01*
X179712086Y-92683354D01*
X179712093Y-92683350D01*
X179827187Y-92597190D01*
X179827190Y-92597187D01*
X179913350Y-92482093D01*
X179913354Y-92482086D01*
X179963596Y-92347379D01*
X179963598Y-92347372D01*
X179969999Y-92287844D01*
X179970000Y-92287827D01*
X179970000Y-91190000D01*
X178770001Y-91190000D01*
X178795021Y-91129598D01*
X178820000Y-91004019D01*
X178820000Y-90875981D01*
X178795021Y-90750402D01*
X178770001Y-90690000D01*
X179970000Y-90690000D01*
X179970000Y-89592172D01*
X179969999Y-89592155D01*
X179963598Y-89532627D01*
X179963596Y-89532620D01*
X179913354Y-89397913D01*
X179913350Y-89397906D01*
X179827190Y-89282812D01*
X179827187Y-89282809D01*
X179712093Y-89196649D01*
X179712086Y-89196645D01*
X179577379Y-89146403D01*
X179577372Y-89146401D01*
X179517844Y-89140000D01*
X178420000Y-89140000D01*
X178420000Y-90339998D01*
X178359598Y-90314979D01*
X178234019Y-90290000D01*
X178105981Y-90290000D01*
X177980402Y-90314979D01*
X177920000Y-90339998D01*
X177920000Y-89140000D01*
X176822155Y-89140000D01*
X176762627Y-89146401D01*
X176762620Y-89146403D01*
X176627913Y-89196645D01*
X176627906Y-89196649D01*
X176512812Y-89282809D01*
X176512809Y-89282812D01*
X176426649Y-89397906D01*
X176426645Y-89397913D01*
X176376403Y-89532620D01*
X176376401Y-89532627D01*
X176370000Y-89592155D01*
X160727739Y-89592155D01*
X160727768Y-89587980D01*
X160754235Y-85821995D01*
X176369500Y-85821995D01*
X176369500Y-86058004D01*
X176369501Y-86058020D01*
X176400306Y-86292010D01*
X176461394Y-86519993D01*
X176551714Y-86738045D01*
X176551719Y-86738056D01*
X176622677Y-86860957D01*
X176669727Y-86942450D01*
X176669729Y-86942453D01*
X176669730Y-86942454D01*
X176813406Y-87129697D01*
X176813412Y-87129704D01*
X176980295Y-87296587D01*
X176980301Y-87296592D01*
X177167550Y-87440273D01*
X177298918Y-87516118D01*
X177371943Y-87558280D01*
X177371948Y-87558282D01*
X177371951Y-87558284D01*
X177590007Y-87648606D01*
X177817986Y-87709693D01*
X178051989Y-87740500D01*
X178051996Y-87740500D01*
X178288004Y-87740500D01*
X178288011Y-87740500D01*
X178522014Y-87709693D01*
X178749993Y-87648606D01*
X178968049Y-87558284D01*
X179172450Y-87440273D01*
X179359699Y-87296592D01*
X179526592Y-87129699D01*
X179670273Y-86942450D01*
X179788284Y-86738049D01*
X179878606Y-86519993D01*
X179939693Y-86292014D01*
X179970500Y-86058011D01*
X179970500Y-85821989D01*
X179939693Y-85587986D01*
X179878606Y-85360007D01*
X179788284Y-85141951D01*
X179788282Y-85141948D01*
X179788280Y-85141943D01*
X179746118Y-85068918D01*
X179670273Y-84937550D01*
X179526592Y-84750301D01*
X179526587Y-84750295D01*
X179359704Y-84583412D01*
X179359697Y-84583406D01*
X179172454Y-84439730D01*
X179172453Y-84439729D01*
X179172450Y-84439727D01*
X179090957Y-84392677D01*
X178968056Y-84321719D01*
X178968045Y-84321714D01*
X178749993Y-84231394D01*
X178522010Y-84170306D01*
X178288020Y-84139501D01*
X178288017Y-84139500D01*
X178288011Y-84139500D01*
X178051989Y-84139500D01*
X178051983Y-84139500D01*
X178051979Y-84139501D01*
X177817989Y-84170306D01*
X177590006Y-84231394D01*
X177371954Y-84321714D01*
X177371943Y-84321719D01*
X177167545Y-84439730D01*
X176980302Y-84583406D01*
X176980295Y-84583412D01*
X176813412Y-84750295D01*
X176813406Y-84750302D01*
X176669730Y-84937545D01*
X176551719Y-85141943D01*
X176551714Y-85141954D01*
X176461394Y-85360006D01*
X176400306Y-85587989D01*
X176369501Y-85821979D01*
X176369500Y-85821995D01*
X160754235Y-85821995D01*
X160754270Y-85817059D01*
X160789376Y-80821995D01*
X176369500Y-80821995D01*
X176369500Y-81058004D01*
X176369501Y-81058020D01*
X176400306Y-81292010D01*
X176461394Y-81519993D01*
X176551714Y-81738045D01*
X176551719Y-81738056D01*
X176622677Y-81860957D01*
X176669727Y-81942450D01*
X176669729Y-81942453D01*
X176669730Y-81942454D01*
X176813406Y-82129697D01*
X176813412Y-82129704D01*
X176980295Y-82296587D01*
X176980301Y-82296592D01*
X177167550Y-82440273D01*
X177298918Y-82516118D01*
X177371943Y-82558280D01*
X177371948Y-82558282D01*
X177371951Y-82558284D01*
X177590007Y-82648606D01*
X177817986Y-82709693D01*
X178051989Y-82740500D01*
X178051996Y-82740500D01*
X178288004Y-82740500D01*
X178288011Y-82740500D01*
X178522014Y-82709693D01*
X178749993Y-82648606D01*
X178968049Y-82558284D01*
X179172450Y-82440273D01*
X179359699Y-82296592D01*
X179526592Y-82129699D01*
X179670273Y-81942450D01*
X179788284Y-81738049D01*
X179878606Y-81519993D01*
X179939693Y-81292014D01*
X179970500Y-81058011D01*
X179970500Y-80821989D01*
X179939693Y-80587986D01*
X179878606Y-80360007D01*
X179788284Y-80141951D01*
X179788282Y-80141948D01*
X179788280Y-80141943D01*
X179746118Y-80068918D01*
X179670273Y-79937550D01*
X179526592Y-79750301D01*
X179526587Y-79750295D01*
X179359704Y-79583412D01*
X179359697Y-79583406D01*
X179172454Y-79439730D01*
X179172453Y-79439729D01*
X179172450Y-79439727D01*
X179090957Y-79392677D01*
X178968056Y-79321719D01*
X178968045Y-79321714D01*
X178749993Y-79231394D01*
X178522010Y-79170306D01*
X178288020Y-79139501D01*
X178288017Y-79139500D01*
X178288011Y-79139500D01*
X178051989Y-79139500D01*
X178051983Y-79139500D01*
X178051979Y-79139501D01*
X177817989Y-79170306D01*
X177590006Y-79231394D01*
X177371954Y-79321714D01*
X177371943Y-79321719D01*
X177167545Y-79439730D01*
X176980302Y-79583406D01*
X176980295Y-79583412D01*
X176813412Y-79750295D01*
X176813406Y-79750302D01*
X176669730Y-79937545D01*
X176551719Y-80141943D01*
X176551714Y-80141954D01*
X176461394Y-80360006D01*
X176400306Y-80587989D01*
X176369501Y-80821979D01*
X176369500Y-80821995D01*
X160789376Y-80821995D01*
X160789411Y-80817059D01*
X160816476Y-76966004D01*
X160838471Y-73836446D01*
X160857608Y-71113629D01*
X160877763Y-71046729D01*
X160930888Y-71001346D01*
X160981605Y-70990500D01*
X181525520Y-70990500D01*
X181592559Y-71010185D01*
X181638314Y-71062989D01*
X181648258Y-71132147D01*
X181619233Y-71195703D01*
X181560455Y-71233477D01*
X181553112Y-71235391D01*
X181258185Y-71302705D01*
X181258173Y-71302709D01*
X180940137Y-71413995D01*
X180636559Y-71560191D01*
X180351252Y-71739461D01*
X180151950Y-71898397D01*
X181399873Y-73146320D01*
X181275680Y-73236554D01*
X181136554Y-73375680D01*
X181046320Y-73499873D01*
X179798397Y-72251950D01*
X179639461Y-72451252D01*
X179460191Y-72736559D01*
X179313995Y-73040137D01*
X179202709Y-73358173D01*
X179202705Y-73358185D01*
X179127727Y-73686686D01*
X179127725Y-73686702D01*
X179090000Y-74021519D01*
X179090000Y-74358480D01*
X179127725Y-74693297D01*
X179127727Y-74693313D01*
X179202705Y-75021814D01*
X179202709Y-75021826D01*
X179313995Y-75339862D01*
X179460191Y-75643440D01*
X179639461Y-75928747D01*
X179798397Y-76128048D01*
X181046320Y-74880125D01*
X181136554Y-75004320D01*
X181275680Y-75143446D01*
X181399873Y-75233678D01*
X180151950Y-76481601D01*
X180351252Y-76640538D01*
X180636559Y-76819808D01*
X180940137Y-76966004D01*
X181258173Y-77077290D01*
X181258185Y-77077294D01*
X181586686Y-77152272D01*
X181586702Y-77152274D01*
X181921519Y-77189999D01*
X181921521Y-77190000D01*
X182258479Y-77190000D01*
X182258480Y-77189999D01*
X182593297Y-77152274D01*
X182593313Y-77152272D01*
X182921814Y-77077294D01*
X182921826Y-77077290D01*
X183239862Y-76966004D01*
X183543440Y-76819808D01*
X183828747Y-76640538D01*
X184028048Y-76481600D01*
X182780126Y-75233678D01*
X182904320Y-75143446D01*
X183043446Y-75004320D01*
X183133678Y-74880126D01*
X184381600Y-76128048D01*
X184540538Y-75928747D01*
X184719808Y-75643440D01*
X184866004Y-75339862D01*
X184977290Y-75021826D01*
X184977294Y-75021814D01*
X185052272Y-74693313D01*
X185052274Y-74693297D01*
X185089999Y-74358480D01*
X185090000Y-74358478D01*
X185090000Y-74021521D01*
X185089999Y-74021519D01*
X185052274Y-73686702D01*
X185052272Y-73686686D01*
X184977294Y-73358185D01*
X184977290Y-73358173D01*
X184866004Y-73040137D01*
X184719808Y-72736559D01*
X184540538Y-72451252D01*
X184381601Y-72251950D01*
X183133678Y-73499873D01*
X183043446Y-73375680D01*
X182904320Y-73236554D01*
X182780124Y-73146320D01*
X184028048Y-71898397D01*
X183828747Y-71739461D01*
X183543440Y-71560191D01*
X183239862Y-71413995D01*
X182921826Y-71302709D01*
X182921814Y-71302705D01*
X182626888Y-71235391D01*
X182565909Y-71201282D01*
X182533051Y-71139621D01*
X182538746Y-71069984D01*
X182581186Y-71014480D01*
X182646896Y-70990732D01*
X182654480Y-70990500D01*
X185295890Y-70990500D01*
X185295892Y-70990500D01*
X185423186Y-70956392D01*
X185455245Y-70937882D01*
X185470673Y-70933738D01*
X185482164Y-70926334D01*
X185517085Y-70921270D01*
X185525354Y-70921260D01*
X185592413Y-70940862D01*
G37*
%TD.AperFunction*%
%TD*%
%TA.AperFunction,Conductor*%
%TO.N,GND*%
G36*
X181949903Y-39210185D02*
G01*
X181995658Y-39262989D01*
X182005602Y-39332147D01*
X181976577Y-39395703D01*
X181917799Y-39433477D01*
X181900109Y-39437042D01*
X181900127Y-39437143D01*
X181896819Y-39437705D01*
X181896746Y-39437720D01*
X181896705Y-39437724D01*
X181896686Y-39437727D01*
X181568185Y-39512705D01*
X181568173Y-39512709D01*
X181250137Y-39623995D01*
X180946559Y-39770191D01*
X180661252Y-39949461D01*
X180461950Y-40108397D01*
X181709873Y-41356320D01*
X181585680Y-41446554D01*
X181446554Y-41585680D01*
X181356320Y-41709873D01*
X180108397Y-40461950D01*
X179949461Y-40661252D01*
X179770191Y-40946559D01*
X179623995Y-41250137D01*
X179512709Y-41568173D01*
X179512705Y-41568185D01*
X179437727Y-41896686D01*
X179437725Y-41896702D01*
X179400000Y-42231519D01*
X179400000Y-42568480D01*
X179437725Y-42903297D01*
X179437727Y-42903313D01*
X179512705Y-43231814D01*
X179512709Y-43231826D01*
X179623995Y-43549862D01*
X179770191Y-43853440D01*
X179949461Y-44138747D01*
X180108397Y-44338048D01*
X181356320Y-43090125D01*
X181446554Y-43214320D01*
X181585680Y-43353446D01*
X181709873Y-43443678D01*
X180461950Y-44691601D01*
X180661252Y-44850538D01*
X180946559Y-45029808D01*
X181250137Y-45176004D01*
X181568173Y-45287290D01*
X181568185Y-45287294D01*
X181896686Y-45362272D01*
X181896702Y-45362274D01*
X182231519Y-45399999D01*
X182231521Y-45400000D01*
X182568479Y-45400000D01*
X182568480Y-45399999D01*
X182903297Y-45362274D01*
X182903313Y-45362272D01*
X183231814Y-45287294D01*
X183231826Y-45287290D01*
X183549862Y-45176004D01*
X183853440Y-45029808D01*
X184138747Y-44850538D01*
X184338048Y-44691600D01*
X183090126Y-43443678D01*
X183214320Y-43353446D01*
X183353446Y-43214320D01*
X183443678Y-43090126D01*
X184691600Y-44338048D01*
X184850538Y-44138747D01*
X185029808Y-43853440D01*
X185176004Y-43549862D01*
X185287290Y-43231826D01*
X185287294Y-43231814D01*
X185362272Y-42903313D01*
X185362274Y-42903297D01*
X185399999Y-42568480D01*
X185400000Y-42568478D01*
X185400000Y-42231521D01*
X185399999Y-42231519D01*
X185362274Y-41896702D01*
X185362272Y-41896686D01*
X185287294Y-41568185D01*
X185287290Y-41568173D01*
X185176004Y-41250137D01*
X185029808Y-40946559D01*
X184850538Y-40661252D01*
X184691601Y-40461950D01*
X183443678Y-41709873D01*
X183353446Y-41585680D01*
X183214320Y-41446554D01*
X183090124Y-41356320D01*
X184338048Y-40108397D01*
X184138747Y-39949461D01*
X183853440Y-39770191D01*
X183549862Y-39623995D01*
X183231826Y-39512709D01*
X183231814Y-39512705D01*
X182903313Y-39437727D01*
X182903294Y-39437724D01*
X182903254Y-39437720D01*
X182903244Y-39437716D01*
X182899873Y-39437143D01*
X182900006Y-39436355D01*
X182838840Y-39410654D01*
X182799284Y-39353060D01*
X182797145Y-39283223D01*
X182833103Y-39223316D01*
X182895740Y-39192360D01*
X182917136Y-39190500D01*
X185525500Y-39190500D01*
X185592539Y-39210185D01*
X185638294Y-39262989D01*
X185649500Y-39314500D01*
X185649500Y-68409495D01*
X185629815Y-68476534D01*
X185577011Y-68522289D01*
X185507853Y-68532233D01*
X185463501Y-68516883D01*
X185423188Y-68493608D01*
X185338323Y-68470869D01*
X185295892Y-68459500D01*
X160755862Y-68459500D01*
X160688823Y-68439815D01*
X160643068Y-68387011D01*
X160631865Y-68334629D01*
X160634526Y-67956004D01*
X160655220Y-65011519D01*
X179360000Y-65011519D01*
X179360000Y-65348480D01*
X179397725Y-65683297D01*
X179397727Y-65683313D01*
X179472705Y-66011814D01*
X179472709Y-66011826D01*
X179583995Y-66329862D01*
X179730191Y-66633440D01*
X179909461Y-66918747D01*
X180068397Y-67118048D01*
X181316320Y-65870125D01*
X181406554Y-65994320D01*
X181545680Y-66133446D01*
X181669873Y-66223678D01*
X180421950Y-67471601D01*
X180621252Y-67630538D01*
X180906559Y-67809808D01*
X181210137Y-67956004D01*
X181528173Y-68067290D01*
X181528185Y-68067294D01*
X181856686Y-68142272D01*
X181856702Y-68142274D01*
X182191519Y-68179999D01*
X182191521Y-68180000D01*
X182528479Y-68180000D01*
X182528480Y-68179999D01*
X182863297Y-68142274D01*
X182863313Y-68142272D01*
X183191814Y-68067294D01*
X183191826Y-68067290D01*
X183509862Y-67956004D01*
X183813440Y-67809808D01*
X184098747Y-67630538D01*
X184298048Y-67471600D01*
X183050126Y-66223678D01*
X183174320Y-66133446D01*
X183313446Y-65994320D01*
X183403678Y-65870126D01*
X184651600Y-67118048D01*
X184810538Y-66918747D01*
X184989808Y-66633440D01*
X185136004Y-66329862D01*
X185247290Y-66011826D01*
X185247294Y-66011814D01*
X185322272Y-65683313D01*
X185322274Y-65683297D01*
X185359999Y-65348480D01*
X185360000Y-65348478D01*
X185360000Y-65011521D01*
X185359999Y-65011519D01*
X185322274Y-64676702D01*
X185322272Y-64676686D01*
X185247294Y-64348185D01*
X185247290Y-64348173D01*
X185136004Y-64030137D01*
X184989808Y-63726559D01*
X184810538Y-63441252D01*
X184651601Y-63241950D01*
X183403678Y-64489873D01*
X183313446Y-64365680D01*
X183174320Y-64226554D01*
X183050124Y-64136320D01*
X184298048Y-62888397D01*
X184098747Y-62729461D01*
X183813440Y-62550191D01*
X183509862Y-62403995D01*
X183191826Y-62292709D01*
X183191814Y-62292705D01*
X182863313Y-62217727D01*
X182863297Y-62217725D01*
X182528480Y-62180000D01*
X182191519Y-62180000D01*
X181856702Y-62217725D01*
X181856686Y-62217727D01*
X181528185Y-62292705D01*
X181528173Y-62292709D01*
X181210137Y-62403995D01*
X180906559Y-62550191D01*
X180621252Y-62729461D01*
X180421950Y-62888397D01*
X181669873Y-64136320D01*
X181545680Y-64226554D01*
X181406554Y-64365680D01*
X181316320Y-64489873D01*
X180068397Y-63241950D01*
X179909461Y-63441252D01*
X179730191Y-63726559D01*
X179583995Y-64030137D01*
X179472709Y-64348173D01*
X179472705Y-64348185D01*
X179397727Y-64676686D01*
X179397725Y-64676702D01*
X179360000Y-65011519D01*
X160655220Y-65011519D01*
X160656521Y-64826446D01*
X160669808Y-62935973D01*
X160695026Y-59347767D01*
X160705889Y-57802155D01*
X176680000Y-57802155D01*
X176680000Y-58900000D01*
X177879999Y-58900000D01*
X177854979Y-58960402D01*
X177830000Y-59085981D01*
X177830000Y-59214019D01*
X177854979Y-59339598D01*
X177879999Y-59400000D01*
X176680000Y-59400000D01*
X176680000Y-60497844D01*
X176686401Y-60557372D01*
X176686403Y-60557379D01*
X176736645Y-60692086D01*
X176736649Y-60692093D01*
X176822809Y-60807187D01*
X176822812Y-60807190D01*
X176937906Y-60893350D01*
X176937913Y-60893354D01*
X177072620Y-60943596D01*
X177072627Y-60943598D01*
X177132155Y-60949999D01*
X177132172Y-60950000D01*
X178230000Y-60950000D01*
X178230000Y-59750001D01*
X178290402Y-59775021D01*
X178415981Y-59800000D01*
X178544019Y-59800000D01*
X178669598Y-59775021D01*
X178730000Y-59750001D01*
X178730000Y-60950000D01*
X179827828Y-60950000D01*
X179827844Y-60949999D01*
X179887372Y-60943598D01*
X179887379Y-60943596D01*
X180022086Y-60893354D01*
X180022093Y-60893350D01*
X180137187Y-60807190D01*
X180137190Y-60807187D01*
X180223350Y-60692093D01*
X180223354Y-60692086D01*
X180273596Y-60557379D01*
X180273598Y-60557372D01*
X180279999Y-60497844D01*
X180280000Y-60497827D01*
X180280000Y-59400000D01*
X179080001Y-59400000D01*
X179105021Y-59339598D01*
X179130000Y-59214019D01*
X179130000Y-59085981D01*
X179105021Y-58960402D01*
X179080001Y-58900000D01*
X180280000Y-58900000D01*
X180280000Y-57802172D01*
X180279999Y-57802155D01*
X180273598Y-57742627D01*
X180273596Y-57742620D01*
X180223354Y-57607913D01*
X180223350Y-57607906D01*
X180137190Y-57492812D01*
X180137187Y-57492809D01*
X180022093Y-57406649D01*
X180022086Y-57406645D01*
X179887379Y-57356403D01*
X179887372Y-57356401D01*
X179827844Y-57350000D01*
X178730000Y-57350000D01*
X178730000Y-58549998D01*
X178669598Y-58524979D01*
X178544019Y-58500000D01*
X178415981Y-58500000D01*
X178290402Y-58524979D01*
X178230000Y-58549998D01*
X178230000Y-57350000D01*
X177132155Y-57350000D01*
X177072627Y-57356401D01*
X177072620Y-57356403D01*
X176937913Y-57406645D01*
X176937906Y-57406649D01*
X176822812Y-57492809D01*
X176822809Y-57492812D01*
X176736649Y-57607906D01*
X176736645Y-57607913D01*
X176686403Y-57742620D01*
X176686401Y-57742627D01*
X176680000Y-57802155D01*
X160705889Y-57802155D01*
X160705918Y-57797980D01*
X160730727Y-54268004D01*
X160732386Y-54031995D01*
X176679500Y-54031995D01*
X176679500Y-54268004D01*
X176679501Y-54268020D01*
X176710306Y-54502010D01*
X176771394Y-54729993D01*
X176861714Y-54948045D01*
X176861719Y-54948056D01*
X176932677Y-55070957D01*
X176979727Y-55152450D01*
X176979729Y-55152453D01*
X176979730Y-55152454D01*
X177123406Y-55339697D01*
X177123412Y-55339704D01*
X177290295Y-55506587D01*
X177290301Y-55506592D01*
X177477550Y-55650273D01*
X177608918Y-55726118D01*
X177681943Y-55768280D01*
X177681948Y-55768282D01*
X177681951Y-55768284D01*
X177900007Y-55858606D01*
X178127986Y-55919693D01*
X178361989Y-55950500D01*
X178361996Y-55950500D01*
X178598004Y-55950500D01*
X178598011Y-55950500D01*
X178832014Y-55919693D01*
X179059993Y-55858606D01*
X179278049Y-55768284D01*
X179482450Y-55650273D01*
X179669699Y-55506592D01*
X179836592Y-55339699D01*
X179980273Y-55152450D01*
X180098284Y-54948049D01*
X180188606Y-54729993D01*
X180249693Y-54502014D01*
X180280500Y-54268011D01*
X180280500Y-54031989D01*
X180249693Y-53797986D01*
X180188606Y-53570007D01*
X180098284Y-53351951D01*
X180098282Y-53351948D01*
X180098280Y-53351943D01*
X180056118Y-53278918D01*
X179980273Y-53147550D01*
X179836592Y-52960301D01*
X179836587Y-52960295D01*
X179669704Y-52793412D01*
X179669697Y-52793406D01*
X179482454Y-52649730D01*
X179482453Y-52649729D01*
X179482450Y-52649727D01*
X179400957Y-52602677D01*
X179278056Y-52531719D01*
X179278045Y-52531714D01*
X179059993Y-52441394D01*
X178832010Y-52380306D01*
X178598020Y-52349501D01*
X178598017Y-52349500D01*
X178598011Y-52349500D01*
X178361989Y-52349500D01*
X178361983Y-52349500D01*
X178361979Y-52349501D01*
X178127989Y-52380306D01*
X177900006Y-52441394D01*
X177681954Y-52531714D01*
X177681943Y-52531719D01*
X177477545Y-52649730D01*
X177290302Y-52793406D01*
X177290295Y-52793412D01*
X177123412Y-52960295D01*
X177123406Y-52960302D01*
X176979730Y-53147545D01*
X176861719Y-53351943D01*
X176861714Y-53351954D01*
X176771394Y-53570006D01*
X176710306Y-53797989D01*
X176679501Y-54031979D01*
X176679500Y-54031995D01*
X160732386Y-54031995D01*
X160756153Y-50650269D01*
X160767526Y-49031995D01*
X176679500Y-49031995D01*
X176679500Y-49268004D01*
X176679501Y-49268020D01*
X176710306Y-49502010D01*
X176771394Y-49729993D01*
X176861714Y-49948045D01*
X176861719Y-49948056D01*
X176932677Y-50070957D01*
X176979727Y-50152450D01*
X176979729Y-50152453D01*
X176979730Y-50152454D01*
X177123406Y-50339697D01*
X177123412Y-50339704D01*
X177290295Y-50506587D01*
X177290301Y-50506592D01*
X177477550Y-50650273D01*
X177608918Y-50726118D01*
X177681943Y-50768280D01*
X177681948Y-50768282D01*
X177681951Y-50768284D01*
X177900007Y-50858606D01*
X178127986Y-50919693D01*
X178361989Y-50950500D01*
X178361996Y-50950500D01*
X178598004Y-50950500D01*
X178598011Y-50950500D01*
X178832014Y-50919693D01*
X179059993Y-50858606D01*
X179278049Y-50768284D01*
X179482450Y-50650273D01*
X179669699Y-50506592D01*
X179836592Y-50339699D01*
X179980273Y-50152450D01*
X180098284Y-49948049D01*
X180188606Y-49729993D01*
X180249693Y-49502014D01*
X180280500Y-49268011D01*
X180280500Y-49031989D01*
X180249693Y-48797986D01*
X180188606Y-48570007D01*
X180098284Y-48351951D01*
X180098282Y-48351948D01*
X180098280Y-48351943D01*
X180056118Y-48278918D01*
X179980273Y-48147550D01*
X179836592Y-47960301D01*
X179836587Y-47960295D01*
X179669704Y-47793412D01*
X179669697Y-47793406D01*
X179482454Y-47649730D01*
X179482453Y-47649729D01*
X179482450Y-47649727D01*
X179400957Y-47602677D01*
X179278056Y-47531719D01*
X179278045Y-47531714D01*
X179059993Y-47441394D01*
X178832010Y-47380306D01*
X178598020Y-47349501D01*
X178598017Y-47349500D01*
X178598011Y-47349500D01*
X178361989Y-47349500D01*
X178361983Y-47349500D01*
X178361979Y-47349501D01*
X178127989Y-47380306D01*
X177900006Y-47441394D01*
X177681954Y-47531714D01*
X177681943Y-47531719D01*
X177477545Y-47649730D01*
X177290302Y-47793406D01*
X177290295Y-47793412D01*
X177123412Y-47960295D01*
X177123406Y-47960302D01*
X176979730Y-48147545D01*
X176861719Y-48351943D01*
X176861714Y-48351954D01*
X176771394Y-48570006D01*
X176710306Y-48797989D01*
X176679501Y-49031979D01*
X176679500Y-49031995D01*
X160767526Y-49031995D01*
X160767561Y-49027059D01*
X160794626Y-45176004D01*
X160835828Y-39313629D01*
X160855983Y-39246729D01*
X160909108Y-39201346D01*
X160959825Y-39190500D01*
X181882864Y-39190500D01*
X181949903Y-39210185D01*
G37*
%TD.AperFunction*%
%TD*%
M02*
