%TF.GenerationSoftware,KiCad,Pcbnew,9.0.0-9.0.0-2~ubuntu22.04.1*%
%TF.CreationDate,2025-03-13T08:20:24+01:00*%
%TF.ProjectId,detec_power,64657465-635f-4706-9f77-65722e6b6963,rev?*%
%TF.SameCoordinates,Original*%
%TF.FileFunction,Legend,Top*%
%TF.FilePolarity,Positive*%
%FSLAX46Y46*%
G04 Gerber Fmt 4.6, Leading zero omitted, Abs format (unit mm)*
G04 Created by KiCad (PCBNEW 9.0.0-9.0.0-2~ubuntu22.04.1) date 2025-03-13 08:20:24*
%MOMM*%
%LPD*%
G01*
G04 APERTURE LIST*
%ADD10C,0.300000*%
%ADD11C,0.150000*%
%ADD12C,0.120000*%
G04 APERTURE END LIST*
D10*
X147633082Y-95953685D02*
X147704510Y-95882257D01*
X147704510Y-95882257D02*
X147847368Y-95810828D01*
X147847368Y-95810828D02*
X148204510Y-95810828D01*
X148204510Y-95810828D02*
X148347368Y-95882257D01*
X148347368Y-95882257D02*
X148418796Y-95953685D01*
X148418796Y-95953685D02*
X148490225Y-96096542D01*
X148490225Y-96096542D02*
X148490225Y-96239400D01*
X148490225Y-96239400D02*
X148418796Y-96453685D01*
X148418796Y-96453685D02*
X147561653Y-97310828D01*
X147561653Y-97310828D02*
X148490225Y-97310828D01*
X148990224Y-95810828D02*
X149918796Y-95810828D01*
X149918796Y-95810828D02*
X149418796Y-96382257D01*
X149418796Y-96382257D02*
X149633081Y-96382257D01*
X149633081Y-96382257D02*
X149775939Y-96453685D01*
X149775939Y-96453685D02*
X149847367Y-96525114D01*
X149847367Y-96525114D02*
X149918796Y-96667971D01*
X149918796Y-96667971D02*
X149918796Y-97025114D01*
X149918796Y-97025114D02*
X149847367Y-97167971D01*
X149847367Y-97167971D02*
X149775939Y-97239400D01*
X149775939Y-97239400D02*
X149633081Y-97310828D01*
X149633081Y-97310828D02*
X149204510Y-97310828D01*
X149204510Y-97310828D02*
X149061653Y-97239400D01*
X149061653Y-97239400D02*
X148990224Y-97167971D01*
X150847367Y-95810828D02*
X150990224Y-95810828D01*
X150990224Y-95810828D02*
X151133081Y-95882257D01*
X151133081Y-95882257D02*
X151204510Y-95953685D01*
X151204510Y-95953685D02*
X151275938Y-96096542D01*
X151275938Y-96096542D02*
X151347367Y-96382257D01*
X151347367Y-96382257D02*
X151347367Y-96739400D01*
X151347367Y-96739400D02*
X151275938Y-97025114D01*
X151275938Y-97025114D02*
X151204510Y-97167971D01*
X151204510Y-97167971D02*
X151133081Y-97239400D01*
X151133081Y-97239400D02*
X150990224Y-97310828D01*
X150990224Y-97310828D02*
X150847367Y-97310828D01*
X150847367Y-97310828D02*
X150704510Y-97239400D01*
X150704510Y-97239400D02*
X150633081Y-97167971D01*
X150633081Y-97167971D02*
X150561652Y-97025114D01*
X150561652Y-97025114D02*
X150490224Y-96739400D01*
X150490224Y-96739400D02*
X150490224Y-96382257D01*
X150490224Y-96382257D02*
X150561652Y-96096542D01*
X150561652Y-96096542D02*
X150633081Y-95953685D01*
X150633081Y-95953685D02*
X150704510Y-95882257D01*
X150704510Y-95882257D02*
X150847367Y-95810828D01*
X151775938Y-95810828D02*
X152275938Y-97310828D01*
X152275938Y-97310828D02*
X152775938Y-95810828D01*
X154347366Y-96882257D02*
X155061652Y-96882257D01*
X154204509Y-97310828D02*
X154704509Y-95810828D01*
X154704509Y-95810828D02*
X155204509Y-97310828D01*
X156561651Y-97167971D02*
X156490223Y-97239400D01*
X156490223Y-97239400D02*
X156275937Y-97310828D01*
X156275937Y-97310828D02*
X156133080Y-97310828D01*
X156133080Y-97310828D02*
X155918794Y-97239400D01*
X155918794Y-97239400D02*
X155775937Y-97096542D01*
X155775937Y-97096542D02*
X155704508Y-96953685D01*
X155704508Y-96953685D02*
X155633080Y-96667971D01*
X155633080Y-96667971D02*
X155633080Y-96453685D01*
X155633080Y-96453685D02*
X155704508Y-96167971D01*
X155704508Y-96167971D02*
X155775937Y-96025114D01*
X155775937Y-96025114D02*
X155918794Y-95882257D01*
X155918794Y-95882257D02*
X156133080Y-95810828D01*
X156133080Y-95810828D02*
X156275937Y-95810828D01*
X156275937Y-95810828D02*
X156490223Y-95882257D01*
X156490223Y-95882257D02*
X156561651Y-95953685D01*
X184535427Y-54420862D02*
X184535427Y-54920862D01*
X185321141Y-54920862D02*
X183821141Y-54920862D01*
X183821141Y-54920862D02*
X183821141Y-54206576D01*
X183963998Y-53706576D02*
X183892570Y-53635148D01*
X183892570Y-53635148D02*
X183821141Y-53492291D01*
X183821141Y-53492291D02*
X183821141Y-53135148D01*
X183821141Y-53135148D02*
X183892570Y-52992291D01*
X183892570Y-52992291D02*
X183963998Y-52920862D01*
X183963998Y-52920862D02*
X184106855Y-52849433D01*
X184106855Y-52849433D02*
X184249713Y-52849433D01*
X184249713Y-52849433D02*
X184463998Y-52920862D01*
X184463998Y-52920862D02*
X185321141Y-53778005D01*
X185321141Y-53778005D02*
X185321141Y-52849433D01*
X147943082Y-64163685D02*
X148014510Y-64092257D01*
X148014510Y-64092257D02*
X148157368Y-64020828D01*
X148157368Y-64020828D02*
X148514510Y-64020828D01*
X148514510Y-64020828D02*
X148657368Y-64092257D01*
X148657368Y-64092257D02*
X148728796Y-64163685D01*
X148728796Y-64163685D02*
X148800225Y-64306542D01*
X148800225Y-64306542D02*
X148800225Y-64449400D01*
X148800225Y-64449400D02*
X148728796Y-64663685D01*
X148728796Y-64663685D02*
X147871653Y-65520828D01*
X147871653Y-65520828D02*
X148800225Y-65520828D01*
X149300224Y-64020828D02*
X150228796Y-64020828D01*
X150228796Y-64020828D02*
X149728796Y-64592257D01*
X149728796Y-64592257D02*
X149943081Y-64592257D01*
X149943081Y-64592257D02*
X150085939Y-64663685D01*
X150085939Y-64663685D02*
X150157367Y-64735114D01*
X150157367Y-64735114D02*
X150228796Y-64877971D01*
X150228796Y-64877971D02*
X150228796Y-65235114D01*
X150228796Y-65235114D02*
X150157367Y-65377971D01*
X150157367Y-65377971D02*
X150085939Y-65449400D01*
X150085939Y-65449400D02*
X149943081Y-65520828D01*
X149943081Y-65520828D02*
X149514510Y-65520828D01*
X149514510Y-65520828D02*
X149371653Y-65449400D01*
X149371653Y-65449400D02*
X149300224Y-65377971D01*
X151157367Y-64020828D02*
X151300224Y-64020828D01*
X151300224Y-64020828D02*
X151443081Y-64092257D01*
X151443081Y-64092257D02*
X151514510Y-64163685D01*
X151514510Y-64163685D02*
X151585938Y-64306542D01*
X151585938Y-64306542D02*
X151657367Y-64592257D01*
X151657367Y-64592257D02*
X151657367Y-64949400D01*
X151657367Y-64949400D02*
X151585938Y-65235114D01*
X151585938Y-65235114D02*
X151514510Y-65377971D01*
X151514510Y-65377971D02*
X151443081Y-65449400D01*
X151443081Y-65449400D02*
X151300224Y-65520828D01*
X151300224Y-65520828D02*
X151157367Y-65520828D01*
X151157367Y-65520828D02*
X151014510Y-65449400D01*
X151014510Y-65449400D02*
X150943081Y-65377971D01*
X150943081Y-65377971D02*
X150871652Y-65235114D01*
X150871652Y-65235114D02*
X150800224Y-64949400D01*
X150800224Y-64949400D02*
X150800224Y-64592257D01*
X150800224Y-64592257D02*
X150871652Y-64306542D01*
X150871652Y-64306542D02*
X150943081Y-64163685D01*
X150943081Y-64163685D02*
X151014510Y-64092257D01*
X151014510Y-64092257D02*
X151157367Y-64020828D01*
X152085938Y-64020828D02*
X152585938Y-65520828D01*
X152585938Y-65520828D02*
X153085938Y-64020828D01*
X154657366Y-65092257D02*
X155371652Y-65092257D01*
X154514509Y-65520828D02*
X155014509Y-64020828D01*
X155014509Y-64020828D02*
X155514509Y-65520828D01*
X156871651Y-65377971D02*
X156800223Y-65449400D01*
X156800223Y-65449400D02*
X156585937Y-65520828D01*
X156585937Y-65520828D02*
X156443080Y-65520828D01*
X156443080Y-65520828D02*
X156228794Y-65449400D01*
X156228794Y-65449400D02*
X156085937Y-65306542D01*
X156085937Y-65306542D02*
X156014508Y-65163685D01*
X156014508Y-65163685D02*
X155943080Y-64877971D01*
X155943080Y-64877971D02*
X155943080Y-64663685D01*
X155943080Y-64663685D02*
X156014508Y-64377971D01*
X156014508Y-64377971D02*
X156085937Y-64235114D01*
X156085937Y-64235114D02*
X156228794Y-64092257D01*
X156228794Y-64092257D02*
X156443080Y-64020828D01*
X156443080Y-64020828D02*
X156585937Y-64020828D01*
X156585937Y-64020828D02*
X156800223Y-64092257D01*
X156800223Y-64092257D02*
X156871651Y-64163685D01*
X119850828Y-118425489D02*
X118350828Y-118425489D01*
X118350828Y-118425489D02*
X119850828Y-117568346D01*
X119850828Y-117568346D02*
X118350828Y-117568346D01*
X183792257Y-92319774D02*
X183720828Y-92462632D01*
X183720828Y-92462632D02*
X183720828Y-92676917D01*
X183720828Y-92676917D02*
X183792257Y-92891203D01*
X183792257Y-92891203D02*
X183935114Y-93034060D01*
X183935114Y-93034060D02*
X184077971Y-93105489D01*
X184077971Y-93105489D02*
X184363685Y-93176917D01*
X184363685Y-93176917D02*
X184577971Y-93176917D01*
X184577971Y-93176917D02*
X184863685Y-93105489D01*
X184863685Y-93105489D02*
X185006542Y-93034060D01*
X185006542Y-93034060D02*
X185149400Y-92891203D01*
X185149400Y-92891203D02*
X185220828Y-92676917D01*
X185220828Y-92676917D02*
X185220828Y-92534060D01*
X185220828Y-92534060D02*
X185149400Y-92319774D01*
X185149400Y-92319774D02*
X185077971Y-92248346D01*
X185077971Y-92248346D02*
X184577971Y-92248346D01*
X184577971Y-92248346D02*
X184577971Y-92534060D01*
X185220828Y-91605489D02*
X183720828Y-91605489D01*
X183720828Y-91605489D02*
X185220828Y-90748346D01*
X185220828Y-90748346D02*
X183720828Y-90748346D01*
X185220828Y-90034060D02*
X183720828Y-90034060D01*
X183720828Y-90034060D02*
X183720828Y-89676917D01*
X183720828Y-89676917D02*
X183792257Y-89462631D01*
X183792257Y-89462631D02*
X183935114Y-89319774D01*
X183935114Y-89319774D02*
X184077971Y-89248345D01*
X184077971Y-89248345D02*
X184363685Y-89176917D01*
X184363685Y-89176917D02*
X184577971Y-89176917D01*
X184577971Y-89176917D02*
X184863685Y-89248345D01*
X184863685Y-89248345D02*
X185006542Y-89319774D01*
X185006542Y-89319774D02*
X185149400Y-89462631D01*
X185149400Y-89462631D02*
X185220828Y-89676917D01*
X185220828Y-89676917D02*
X185220828Y-90034060D01*
X120440828Y-54405489D02*
X118940828Y-54405489D01*
X118940828Y-54405489D02*
X120440828Y-53548346D01*
X120440828Y-53548346D02*
X118940828Y-53548346D01*
X183522257Y-124819774D02*
X183450828Y-124962632D01*
X183450828Y-124962632D02*
X183450828Y-125176917D01*
X183450828Y-125176917D02*
X183522257Y-125391203D01*
X183522257Y-125391203D02*
X183665114Y-125534060D01*
X183665114Y-125534060D02*
X183807971Y-125605489D01*
X183807971Y-125605489D02*
X184093685Y-125676917D01*
X184093685Y-125676917D02*
X184307971Y-125676917D01*
X184307971Y-125676917D02*
X184593685Y-125605489D01*
X184593685Y-125605489D02*
X184736542Y-125534060D01*
X184736542Y-125534060D02*
X184879400Y-125391203D01*
X184879400Y-125391203D02*
X184950828Y-125176917D01*
X184950828Y-125176917D02*
X184950828Y-125034060D01*
X184950828Y-125034060D02*
X184879400Y-124819774D01*
X184879400Y-124819774D02*
X184807971Y-124748346D01*
X184807971Y-124748346D02*
X184307971Y-124748346D01*
X184307971Y-124748346D02*
X184307971Y-125034060D01*
X184950828Y-124105489D02*
X183450828Y-124105489D01*
X183450828Y-124105489D02*
X184950828Y-123248346D01*
X184950828Y-123248346D02*
X183450828Y-123248346D01*
X184950828Y-122534060D02*
X183450828Y-122534060D01*
X183450828Y-122534060D02*
X183450828Y-122176917D01*
X183450828Y-122176917D02*
X183522257Y-121962631D01*
X183522257Y-121962631D02*
X183665114Y-121819774D01*
X183665114Y-121819774D02*
X183807971Y-121748345D01*
X183807971Y-121748345D02*
X184093685Y-121676917D01*
X184093685Y-121676917D02*
X184307971Y-121676917D01*
X184307971Y-121676917D02*
X184593685Y-121748345D01*
X184593685Y-121748345D02*
X184736542Y-121819774D01*
X184736542Y-121819774D02*
X184879400Y-121962631D01*
X184879400Y-121962631D02*
X184950828Y-122176917D01*
X184950828Y-122176917D02*
X184950828Y-122534060D01*
D11*
X171349819Y-90902744D02*
X171349819Y-90712268D01*
X171349819Y-90712268D02*
X171397438Y-90617030D01*
X171397438Y-90617030D02*
X171492676Y-90521792D01*
X171492676Y-90521792D02*
X171683152Y-90474173D01*
X171683152Y-90474173D02*
X172016485Y-90474173D01*
X172016485Y-90474173D02*
X172206961Y-90521792D01*
X172206961Y-90521792D02*
X172302200Y-90617030D01*
X172302200Y-90617030D02*
X172349819Y-90712268D01*
X172349819Y-90712268D02*
X172349819Y-90902744D01*
X172349819Y-90902744D02*
X172302200Y-90997982D01*
X172302200Y-90997982D02*
X172206961Y-91093220D01*
X172206961Y-91093220D02*
X172016485Y-91140839D01*
X172016485Y-91140839D02*
X171683152Y-91140839D01*
X171683152Y-91140839D02*
X171492676Y-91093220D01*
X171492676Y-91093220D02*
X171397438Y-90997982D01*
X171397438Y-90997982D02*
X171349819Y-90902744D01*
X171683152Y-90045601D02*
X172683152Y-90045601D01*
X171730771Y-90045601D02*
X171683152Y-89950363D01*
X171683152Y-89950363D02*
X171683152Y-89759887D01*
X171683152Y-89759887D02*
X171730771Y-89664649D01*
X171730771Y-89664649D02*
X171778390Y-89617030D01*
X171778390Y-89617030D02*
X171873628Y-89569411D01*
X171873628Y-89569411D02*
X172159342Y-89569411D01*
X172159342Y-89569411D02*
X172254580Y-89617030D01*
X172254580Y-89617030D02*
X172302200Y-89664649D01*
X172302200Y-89664649D02*
X172349819Y-89759887D01*
X172349819Y-89759887D02*
X172349819Y-89950363D01*
X172349819Y-89950363D02*
X172302200Y-90045601D01*
X172302200Y-88759887D02*
X172349819Y-88855125D01*
X172349819Y-88855125D02*
X172349819Y-89045601D01*
X172349819Y-89045601D02*
X172302200Y-89140839D01*
X172302200Y-89140839D02*
X172206961Y-89188458D01*
X172206961Y-89188458D02*
X171826009Y-89188458D01*
X171826009Y-89188458D02*
X171730771Y-89140839D01*
X171730771Y-89140839D02*
X171683152Y-89045601D01*
X171683152Y-89045601D02*
X171683152Y-88855125D01*
X171683152Y-88855125D02*
X171730771Y-88759887D01*
X171730771Y-88759887D02*
X171826009Y-88712268D01*
X171826009Y-88712268D02*
X171921247Y-88712268D01*
X171921247Y-88712268D02*
X172016485Y-89188458D01*
X171683152Y-88283696D02*
X172349819Y-88283696D01*
X171778390Y-88283696D02*
X171730771Y-88236077D01*
X171730771Y-88236077D02*
X171683152Y-88140839D01*
X171683152Y-88140839D02*
X171683152Y-87997982D01*
X171683152Y-87997982D02*
X171730771Y-87902744D01*
X171730771Y-87902744D02*
X171826009Y-87855125D01*
X171826009Y-87855125D02*
X172349819Y-87855125D01*
X172254580Y-86045601D02*
X172302200Y-86093220D01*
X172302200Y-86093220D02*
X172349819Y-86236077D01*
X172349819Y-86236077D02*
X172349819Y-86331315D01*
X172349819Y-86331315D02*
X172302200Y-86474172D01*
X172302200Y-86474172D02*
X172206961Y-86569410D01*
X172206961Y-86569410D02*
X172111723Y-86617029D01*
X172111723Y-86617029D02*
X171921247Y-86664648D01*
X171921247Y-86664648D02*
X171778390Y-86664648D01*
X171778390Y-86664648D02*
X171587914Y-86617029D01*
X171587914Y-86617029D02*
X171492676Y-86569410D01*
X171492676Y-86569410D02*
X171397438Y-86474172D01*
X171397438Y-86474172D02*
X171349819Y-86331315D01*
X171349819Y-86331315D02*
X171349819Y-86236077D01*
X171349819Y-86236077D02*
X171397438Y-86093220D01*
X171397438Y-86093220D02*
X171445057Y-86045601D01*
X172349819Y-85474172D02*
X172302200Y-85569410D01*
X172302200Y-85569410D02*
X172254580Y-85617029D01*
X172254580Y-85617029D02*
X172159342Y-85664648D01*
X172159342Y-85664648D02*
X171873628Y-85664648D01*
X171873628Y-85664648D02*
X171778390Y-85617029D01*
X171778390Y-85617029D02*
X171730771Y-85569410D01*
X171730771Y-85569410D02*
X171683152Y-85474172D01*
X171683152Y-85474172D02*
X171683152Y-85331315D01*
X171683152Y-85331315D02*
X171730771Y-85236077D01*
X171730771Y-85236077D02*
X171778390Y-85188458D01*
X171778390Y-85188458D02*
X171873628Y-85140839D01*
X171873628Y-85140839D02*
X172159342Y-85140839D01*
X172159342Y-85140839D02*
X172254580Y-85188458D01*
X172254580Y-85188458D02*
X172302200Y-85236077D01*
X172302200Y-85236077D02*
X172349819Y-85331315D01*
X172349819Y-85331315D02*
X172349819Y-85474172D01*
X172349819Y-84569410D02*
X172302200Y-84664648D01*
X172302200Y-84664648D02*
X172206961Y-84712267D01*
X172206961Y-84712267D02*
X171349819Y-84712267D01*
X172349819Y-84045600D02*
X172302200Y-84140838D01*
X172302200Y-84140838D02*
X172206961Y-84188457D01*
X172206961Y-84188457D02*
X171349819Y-84188457D01*
X172302200Y-83283695D02*
X172349819Y-83378933D01*
X172349819Y-83378933D02*
X172349819Y-83569409D01*
X172349819Y-83569409D02*
X172302200Y-83664647D01*
X172302200Y-83664647D02*
X172206961Y-83712266D01*
X172206961Y-83712266D02*
X171826009Y-83712266D01*
X171826009Y-83712266D02*
X171730771Y-83664647D01*
X171730771Y-83664647D02*
X171683152Y-83569409D01*
X171683152Y-83569409D02*
X171683152Y-83378933D01*
X171683152Y-83378933D02*
X171730771Y-83283695D01*
X171730771Y-83283695D02*
X171826009Y-83236076D01*
X171826009Y-83236076D02*
X171921247Y-83236076D01*
X171921247Y-83236076D02*
X172016485Y-83712266D01*
X172302200Y-82378933D02*
X172349819Y-82474171D01*
X172349819Y-82474171D02*
X172349819Y-82664647D01*
X172349819Y-82664647D02*
X172302200Y-82759885D01*
X172302200Y-82759885D02*
X172254580Y-82807504D01*
X172254580Y-82807504D02*
X172159342Y-82855123D01*
X172159342Y-82855123D02*
X171873628Y-82855123D01*
X171873628Y-82855123D02*
X171778390Y-82807504D01*
X171778390Y-82807504D02*
X171730771Y-82759885D01*
X171730771Y-82759885D02*
X171683152Y-82664647D01*
X171683152Y-82664647D02*
X171683152Y-82474171D01*
X171683152Y-82474171D02*
X171730771Y-82378933D01*
X171683152Y-82093218D02*
X171683152Y-81712266D01*
X171349819Y-81950361D02*
X172206961Y-81950361D01*
X172206961Y-81950361D02*
X172302200Y-81902742D01*
X172302200Y-81902742D02*
X172349819Y-81807504D01*
X172349819Y-81807504D02*
X172349819Y-81712266D01*
X172349819Y-81236075D02*
X172302200Y-81331313D01*
X172302200Y-81331313D02*
X172254580Y-81378932D01*
X172254580Y-81378932D02*
X172159342Y-81426551D01*
X172159342Y-81426551D02*
X171873628Y-81426551D01*
X171873628Y-81426551D02*
X171778390Y-81378932D01*
X171778390Y-81378932D02*
X171730771Y-81331313D01*
X171730771Y-81331313D02*
X171683152Y-81236075D01*
X171683152Y-81236075D02*
X171683152Y-81093218D01*
X171683152Y-81093218D02*
X171730771Y-80997980D01*
X171730771Y-80997980D02*
X171778390Y-80950361D01*
X171778390Y-80950361D02*
X171873628Y-80902742D01*
X171873628Y-80902742D02*
X172159342Y-80902742D01*
X172159342Y-80902742D02*
X172254580Y-80950361D01*
X172254580Y-80950361D02*
X172302200Y-80997980D01*
X172302200Y-80997980D02*
X172349819Y-81093218D01*
X172349819Y-81093218D02*
X172349819Y-81236075D01*
X172349819Y-80474170D02*
X171683152Y-80474170D01*
X171873628Y-80474170D02*
X171778390Y-80426551D01*
X171778390Y-80426551D02*
X171730771Y-80378932D01*
X171730771Y-80378932D02*
X171683152Y-80283694D01*
X171683152Y-80283694D02*
X171683152Y-80188456D01*
D10*
X119614885Y-80894510D02*
X119614885Y-80394510D01*
X118829171Y-80394510D02*
X120329171Y-80394510D01*
X120329171Y-80394510D02*
X120329171Y-81108796D01*
X118829171Y-82465939D02*
X118829171Y-81608796D01*
X118829171Y-82037367D02*
X120329171Y-82037367D01*
X120329171Y-82037367D02*
X120114885Y-81894510D01*
X120114885Y-81894510D02*
X119972028Y-81751653D01*
X119972028Y-81751653D02*
X119900600Y-81608796D01*
X119554885Y-90574510D02*
X119554885Y-90074510D01*
X118769171Y-90074510D02*
X120269171Y-90074510D01*
X120269171Y-90074510D02*
X120269171Y-90788796D01*
X120126314Y-91288796D02*
X120197742Y-91360224D01*
X120197742Y-91360224D02*
X120269171Y-91503082D01*
X120269171Y-91503082D02*
X120269171Y-91860224D01*
X120269171Y-91860224D02*
X120197742Y-92003082D01*
X120197742Y-92003082D02*
X120126314Y-92074510D01*
X120126314Y-92074510D02*
X119983457Y-92145939D01*
X119983457Y-92145939D02*
X119840600Y-92145939D01*
X119840600Y-92145939D02*
X119626314Y-92074510D01*
X119626314Y-92074510D02*
X118769171Y-91217367D01*
X118769171Y-91217367D02*
X118769171Y-92145939D01*
X119864885Y-58784510D02*
X119864885Y-58284510D01*
X119079171Y-58284510D02*
X120579171Y-58284510D01*
X120579171Y-58284510D02*
X120579171Y-58998796D01*
X120436314Y-59498796D02*
X120507742Y-59570224D01*
X120507742Y-59570224D02*
X120579171Y-59713082D01*
X120579171Y-59713082D02*
X120579171Y-60070224D01*
X120579171Y-60070224D02*
X120507742Y-60213082D01*
X120507742Y-60213082D02*
X120436314Y-60284510D01*
X120436314Y-60284510D02*
X120293457Y-60355939D01*
X120293457Y-60355939D02*
X120150600Y-60355939D01*
X120150600Y-60355939D02*
X119936314Y-60284510D01*
X119936314Y-60284510D02*
X119079171Y-59427367D01*
X119079171Y-59427367D02*
X119079171Y-60355939D01*
X119924885Y-49104510D02*
X119924885Y-48604510D01*
X119139171Y-48604510D02*
X120639171Y-48604510D01*
X120639171Y-48604510D02*
X120639171Y-49318796D01*
X119139171Y-50675939D02*
X119139171Y-49818796D01*
X119139171Y-50247367D02*
X120639171Y-50247367D01*
X120639171Y-50247367D02*
X120424885Y-50104510D01*
X120424885Y-50104510D02*
X120282028Y-49961653D01*
X120282028Y-49961653D02*
X120210600Y-49818796D01*
D11*
X171069819Y-123132744D02*
X171069819Y-122942268D01*
X171069819Y-122942268D02*
X171117438Y-122847030D01*
X171117438Y-122847030D02*
X171212676Y-122751792D01*
X171212676Y-122751792D02*
X171403152Y-122704173D01*
X171403152Y-122704173D02*
X171736485Y-122704173D01*
X171736485Y-122704173D02*
X171926961Y-122751792D01*
X171926961Y-122751792D02*
X172022200Y-122847030D01*
X172022200Y-122847030D02*
X172069819Y-122942268D01*
X172069819Y-122942268D02*
X172069819Y-123132744D01*
X172069819Y-123132744D02*
X172022200Y-123227982D01*
X172022200Y-123227982D02*
X171926961Y-123323220D01*
X171926961Y-123323220D02*
X171736485Y-123370839D01*
X171736485Y-123370839D02*
X171403152Y-123370839D01*
X171403152Y-123370839D02*
X171212676Y-123323220D01*
X171212676Y-123323220D02*
X171117438Y-123227982D01*
X171117438Y-123227982D02*
X171069819Y-123132744D01*
X171403152Y-122275601D02*
X172403152Y-122275601D01*
X171450771Y-122275601D02*
X171403152Y-122180363D01*
X171403152Y-122180363D02*
X171403152Y-121989887D01*
X171403152Y-121989887D02*
X171450771Y-121894649D01*
X171450771Y-121894649D02*
X171498390Y-121847030D01*
X171498390Y-121847030D02*
X171593628Y-121799411D01*
X171593628Y-121799411D02*
X171879342Y-121799411D01*
X171879342Y-121799411D02*
X171974580Y-121847030D01*
X171974580Y-121847030D02*
X172022200Y-121894649D01*
X172022200Y-121894649D02*
X172069819Y-121989887D01*
X172069819Y-121989887D02*
X172069819Y-122180363D01*
X172069819Y-122180363D02*
X172022200Y-122275601D01*
X172022200Y-120989887D02*
X172069819Y-121085125D01*
X172069819Y-121085125D02*
X172069819Y-121275601D01*
X172069819Y-121275601D02*
X172022200Y-121370839D01*
X172022200Y-121370839D02*
X171926961Y-121418458D01*
X171926961Y-121418458D02*
X171546009Y-121418458D01*
X171546009Y-121418458D02*
X171450771Y-121370839D01*
X171450771Y-121370839D02*
X171403152Y-121275601D01*
X171403152Y-121275601D02*
X171403152Y-121085125D01*
X171403152Y-121085125D02*
X171450771Y-120989887D01*
X171450771Y-120989887D02*
X171546009Y-120942268D01*
X171546009Y-120942268D02*
X171641247Y-120942268D01*
X171641247Y-120942268D02*
X171736485Y-121418458D01*
X171403152Y-120513696D02*
X172069819Y-120513696D01*
X171498390Y-120513696D02*
X171450771Y-120466077D01*
X171450771Y-120466077D02*
X171403152Y-120370839D01*
X171403152Y-120370839D02*
X171403152Y-120227982D01*
X171403152Y-120227982D02*
X171450771Y-120132744D01*
X171450771Y-120132744D02*
X171546009Y-120085125D01*
X171546009Y-120085125D02*
X172069819Y-120085125D01*
X171974580Y-118275601D02*
X172022200Y-118323220D01*
X172022200Y-118323220D02*
X172069819Y-118466077D01*
X172069819Y-118466077D02*
X172069819Y-118561315D01*
X172069819Y-118561315D02*
X172022200Y-118704172D01*
X172022200Y-118704172D02*
X171926961Y-118799410D01*
X171926961Y-118799410D02*
X171831723Y-118847029D01*
X171831723Y-118847029D02*
X171641247Y-118894648D01*
X171641247Y-118894648D02*
X171498390Y-118894648D01*
X171498390Y-118894648D02*
X171307914Y-118847029D01*
X171307914Y-118847029D02*
X171212676Y-118799410D01*
X171212676Y-118799410D02*
X171117438Y-118704172D01*
X171117438Y-118704172D02*
X171069819Y-118561315D01*
X171069819Y-118561315D02*
X171069819Y-118466077D01*
X171069819Y-118466077D02*
X171117438Y-118323220D01*
X171117438Y-118323220D02*
X171165057Y-118275601D01*
X172069819Y-117704172D02*
X172022200Y-117799410D01*
X172022200Y-117799410D02*
X171974580Y-117847029D01*
X171974580Y-117847029D02*
X171879342Y-117894648D01*
X171879342Y-117894648D02*
X171593628Y-117894648D01*
X171593628Y-117894648D02*
X171498390Y-117847029D01*
X171498390Y-117847029D02*
X171450771Y-117799410D01*
X171450771Y-117799410D02*
X171403152Y-117704172D01*
X171403152Y-117704172D02*
X171403152Y-117561315D01*
X171403152Y-117561315D02*
X171450771Y-117466077D01*
X171450771Y-117466077D02*
X171498390Y-117418458D01*
X171498390Y-117418458D02*
X171593628Y-117370839D01*
X171593628Y-117370839D02*
X171879342Y-117370839D01*
X171879342Y-117370839D02*
X171974580Y-117418458D01*
X171974580Y-117418458D02*
X172022200Y-117466077D01*
X172022200Y-117466077D02*
X172069819Y-117561315D01*
X172069819Y-117561315D02*
X172069819Y-117704172D01*
X172069819Y-116799410D02*
X172022200Y-116894648D01*
X172022200Y-116894648D02*
X171926961Y-116942267D01*
X171926961Y-116942267D02*
X171069819Y-116942267D01*
X172069819Y-116275600D02*
X172022200Y-116370838D01*
X172022200Y-116370838D02*
X171926961Y-116418457D01*
X171926961Y-116418457D02*
X171069819Y-116418457D01*
X172022200Y-115513695D02*
X172069819Y-115608933D01*
X172069819Y-115608933D02*
X172069819Y-115799409D01*
X172069819Y-115799409D02*
X172022200Y-115894647D01*
X172022200Y-115894647D02*
X171926961Y-115942266D01*
X171926961Y-115942266D02*
X171546009Y-115942266D01*
X171546009Y-115942266D02*
X171450771Y-115894647D01*
X171450771Y-115894647D02*
X171403152Y-115799409D01*
X171403152Y-115799409D02*
X171403152Y-115608933D01*
X171403152Y-115608933D02*
X171450771Y-115513695D01*
X171450771Y-115513695D02*
X171546009Y-115466076D01*
X171546009Y-115466076D02*
X171641247Y-115466076D01*
X171641247Y-115466076D02*
X171736485Y-115942266D01*
X172022200Y-114608933D02*
X172069819Y-114704171D01*
X172069819Y-114704171D02*
X172069819Y-114894647D01*
X172069819Y-114894647D02*
X172022200Y-114989885D01*
X172022200Y-114989885D02*
X171974580Y-115037504D01*
X171974580Y-115037504D02*
X171879342Y-115085123D01*
X171879342Y-115085123D02*
X171593628Y-115085123D01*
X171593628Y-115085123D02*
X171498390Y-115037504D01*
X171498390Y-115037504D02*
X171450771Y-114989885D01*
X171450771Y-114989885D02*
X171403152Y-114894647D01*
X171403152Y-114894647D02*
X171403152Y-114704171D01*
X171403152Y-114704171D02*
X171450771Y-114608933D01*
X171403152Y-114323218D02*
X171403152Y-113942266D01*
X171069819Y-114180361D02*
X171926961Y-114180361D01*
X171926961Y-114180361D02*
X172022200Y-114132742D01*
X172022200Y-114132742D02*
X172069819Y-114037504D01*
X172069819Y-114037504D02*
X172069819Y-113942266D01*
X172069819Y-113466075D02*
X172022200Y-113561313D01*
X172022200Y-113561313D02*
X171974580Y-113608932D01*
X171974580Y-113608932D02*
X171879342Y-113656551D01*
X171879342Y-113656551D02*
X171593628Y-113656551D01*
X171593628Y-113656551D02*
X171498390Y-113608932D01*
X171498390Y-113608932D02*
X171450771Y-113561313D01*
X171450771Y-113561313D02*
X171403152Y-113466075D01*
X171403152Y-113466075D02*
X171403152Y-113323218D01*
X171403152Y-113323218D02*
X171450771Y-113227980D01*
X171450771Y-113227980D02*
X171498390Y-113180361D01*
X171498390Y-113180361D02*
X171593628Y-113132742D01*
X171593628Y-113132742D02*
X171879342Y-113132742D01*
X171879342Y-113132742D02*
X171974580Y-113180361D01*
X171974580Y-113180361D02*
X172022200Y-113227980D01*
X172022200Y-113227980D02*
X172069819Y-113323218D01*
X172069819Y-113323218D02*
X172069819Y-113466075D01*
X172069819Y-112704170D02*
X171403152Y-112704170D01*
X171593628Y-112704170D02*
X171498390Y-112656551D01*
X171498390Y-112656551D02*
X171450771Y-112608932D01*
X171450771Y-112608932D02*
X171403152Y-112513694D01*
X171403152Y-112513694D02*
X171403152Y-112418456D01*
X171659819Y-59112744D02*
X171659819Y-58922268D01*
X171659819Y-58922268D02*
X171707438Y-58827030D01*
X171707438Y-58827030D02*
X171802676Y-58731792D01*
X171802676Y-58731792D02*
X171993152Y-58684173D01*
X171993152Y-58684173D02*
X172326485Y-58684173D01*
X172326485Y-58684173D02*
X172516961Y-58731792D01*
X172516961Y-58731792D02*
X172612200Y-58827030D01*
X172612200Y-58827030D02*
X172659819Y-58922268D01*
X172659819Y-58922268D02*
X172659819Y-59112744D01*
X172659819Y-59112744D02*
X172612200Y-59207982D01*
X172612200Y-59207982D02*
X172516961Y-59303220D01*
X172516961Y-59303220D02*
X172326485Y-59350839D01*
X172326485Y-59350839D02*
X171993152Y-59350839D01*
X171993152Y-59350839D02*
X171802676Y-59303220D01*
X171802676Y-59303220D02*
X171707438Y-59207982D01*
X171707438Y-59207982D02*
X171659819Y-59112744D01*
X171993152Y-58255601D02*
X172993152Y-58255601D01*
X172040771Y-58255601D02*
X171993152Y-58160363D01*
X171993152Y-58160363D02*
X171993152Y-57969887D01*
X171993152Y-57969887D02*
X172040771Y-57874649D01*
X172040771Y-57874649D02*
X172088390Y-57827030D01*
X172088390Y-57827030D02*
X172183628Y-57779411D01*
X172183628Y-57779411D02*
X172469342Y-57779411D01*
X172469342Y-57779411D02*
X172564580Y-57827030D01*
X172564580Y-57827030D02*
X172612200Y-57874649D01*
X172612200Y-57874649D02*
X172659819Y-57969887D01*
X172659819Y-57969887D02*
X172659819Y-58160363D01*
X172659819Y-58160363D02*
X172612200Y-58255601D01*
X172612200Y-56969887D02*
X172659819Y-57065125D01*
X172659819Y-57065125D02*
X172659819Y-57255601D01*
X172659819Y-57255601D02*
X172612200Y-57350839D01*
X172612200Y-57350839D02*
X172516961Y-57398458D01*
X172516961Y-57398458D02*
X172136009Y-57398458D01*
X172136009Y-57398458D02*
X172040771Y-57350839D01*
X172040771Y-57350839D02*
X171993152Y-57255601D01*
X171993152Y-57255601D02*
X171993152Y-57065125D01*
X171993152Y-57065125D02*
X172040771Y-56969887D01*
X172040771Y-56969887D02*
X172136009Y-56922268D01*
X172136009Y-56922268D02*
X172231247Y-56922268D01*
X172231247Y-56922268D02*
X172326485Y-57398458D01*
X171993152Y-56493696D02*
X172659819Y-56493696D01*
X172088390Y-56493696D02*
X172040771Y-56446077D01*
X172040771Y-56446077D02*
X171993152Y-56350839D01*
X171993152Y-56350839D02*
X171993152Y-56207982D01*
X171993152Y-56207982D02*
X172040771Y-56112744D01*
X172040771Y-56112744D02*
X172136009Y-56065125D01*
X172136009Y-56065125D02*
X172659819Y-56065125D01*
X172564580Y-54255601D02*
X172612200Y-54303220D01*
X172612200Y-54303220D02*
X172659819Y-54446077D01*
X172659819Y-54446077D02*
X172659819Y-54541315D01*
X172659819Y-54541315D02*
X172612200Y-54684172D01*
X172612200Y-54684172D02*
X172516961Y-54779410D01*
X172516961Y-54779410D02*
X172421723Y-54827029D01*
X172421723Y-54827029D02*
X172231247Y-54874648D01*
X172231247Y-54874648D02*
X172088390Y-54874648D01*
X172088390Y-54874648D02*
X171897914Y-54827029D01*
X171897914Y-54827029D02*
X171802676Y-54779410D01*
X171802676Y-54779410D02*
X171707438Y-54684172D01*
X171707438Y-54684172D02*
X171659819Y-54541315D01*
X171659819Y-54541315D02*
X171659819Y-54446077D01*
X171659819Y-54446077D02*
X171707438Y-54303220D01*
X171707438Y-54303220D02*
X171755057Y-54255601D01*
X172659819Y-53684172D02*
X172612200Y-53779410D01*
X172612200Y-53779410D02*
X172564580Y-53827029D01*
X172564580Y-53827029D02*
X172469342Y-53874648D01*
X172469342Y-53874648D02*
X172183628Y-53874648D01*
X172183628Y-53874648D02*
X172088390Y-53827029D01*
X172088390Y-53827029D02*
X172040771Y-53779410D01*
X172040771Y-53779410D02*
X171993152Y-53684172D01*
X171993152Y-53684172D02*
X171993152Y-53541315D01*
X171993152Y-53541315D02*
X172040771Y-53446077D01*
X172040771Y-53446077D02*
X172088390Y-53398458D01*
X172088390Y-53398458D02*
X172183628Y-53350839D01*
X172183628Y-53350839D02*
X172469342Y-53350839D01*
X172469342Y-53350839D02*
X172564580Y-53398458D01*
X172564580Y-53398458D02*
X172612200Y-53446077D01*
X172612200Y-53446077D02*
X172659819Y-53541315D01*
X172659819Y-53541315D02*
X172659819Y-53684172D01*
X172659819Y-52779410D02*
X172612200Y-52874648D01*
X172612200Y-52874648D02*
X172516961Y-52922267D01*
X172516961Y-52922267D02*
X171659819Y-52922267D01*
X172659819Y-52255600D02*
X172612200Y-52350838D01*
X172612200Y-52350838D02*
X172516961Y-52398457D01*
X172516961Y-52398457D02*
X171659819Y-52398457D01*
X172612200Y-51493695D02*
X172659819Y-51588933D01*
X172659819Y-51588933D02*
X172659819Y-51779409D01*
X172659819Y-51779409D02*
X172612200Y-51874647D01*
X172612200Y-51874647D02*
X172516961Y-51922266D01*
X172516961Y-51922266D02*
X172136009Y-51922266D01*
X172136009Y-51922266D02*
X172040771Y-51874647D01*
X172040771Y-51874647D02*
X171993152Y-51779409D01*
X171993152Y-51779409D02*
X171993152Y-51588933D01*
X171993152Y-51588933D02*
X172040771Y-51493695D01*
X172040771Y-51493695D02*
X172136009Y-51446076D01*
X172136009Y-51446076D02*
X172231247Y-51446076D01*
X172231247Y-51446076D02*
X172326485Y-51922266D01*
X172612200Y-50588933D02*
X172659819Y-50684171D01*
X172659819Y-50684171D02*
X172659819Y-50874647D01*
X172659819Y-50874647D02*
X172612200Y-50969885D01*
X172612200Y-50969885D02*
X172564580Y-51017504D01*
X172564580Y-51017504D02*
X172469342Y-51065123D01*
X172469342Y-51065123D02*
X172183628Y-51065123D01*
X172183628Y-51065123D02*
X172088390Y-51017504D01*
X172088390Y-51017504D02*
X172040771Y-50969885D01*
X172040771Y-50969885D02*
X171993152Y-50874647D01*
X171993152Y-50874647D02*
X171993152Y-50684171D01*
X171993152Y-50684171D02*
X172040771Y-50588933D01*
X171993152Y-50303218D02*
X171993152Y-49922266D01*
X171659819Y-50160361D02*
X172516961Y-50160361D01*
X172516961Y-50160361D02*
X172612200Y-50112742D01*
X172612200Y-50112742D02*
X172659819Y-50017504D01*
X172659819Y-50017504D02*
X172659819Y-49922266D01*
X172659819Y-49446075D02*
X172612200Y-49541313D01*
X172612200Y-49541313D02*
X172564580Y-49588932D01*
X172564580Y-49588932D02*
X172469342Y-49636551D01*
X172469342Y-49636551D02*
X172183628Y-49636551D01*
X172183628Y-49636551D02*
X172088390Y-49588932D01*
X172088390Y-49588932D02*
X172040771Y-49541313D01*
X172040771Y-49541313D02*
X171993152Y-49446075D01*
X171993152Y-49446075D02*
X171993152Y-49303218D01*
X171993152Y-49303218D02*
X172040771Y-49207980D01*
X172040771Y-49207980D02*
X172088390Y-49160361D01*
X172088390Y-49160361D02*
X172183628Y-49112742D01*
X172183628Y-49112742D02*
X172469342Y-49112742D01*
X172469342Y-49112742D02*
X172564580Y-49160361D01*
X172564580Y-49160361D02*
X172612200Y-49207980D01*
X172612200Y-49207980D02*
X172659819Y-49303218D01*
X172659819Y-49303218D02*
X172659819Y-49446075D01*
X172659819Y-48684170D02*
X171993152Y-48684170D01*
X172183628Y-48684170D02*
X172088390Y-48636551D01*
X172088390Y-48636551D02*
X172040771Y-48588932D01*
X172040771Y-48588932D02*
X171993152Y-48493694D01*
X171993152Y-48493694D02*
X171993152Y-48398456D01*
D10*
X127601966Y-40921285D02*
X127101966Y-40206999D01*
X126744823Y-40921285D02*
X126744823Y-39421285D01*
X126744823Y-39421285D02*
X127316252Y-39421285D01*
X127316252Y-39421285D02*
X127459109Y-39492714D01*
X127459109Y-39492714D02*
X127530538Y-39564142D01*
X127530538Y-39564142D02*
X127601966Y-39706999D01*
X127601966Y-39706999D02*
X127601966Y-39921285D01*
X127601966Y-39921285D02*
X127530538Y-40064142D01*
X127530538Y-40064142D02*
X127459109Y-40135571D01*
X127459109Y-40135571D02*
X127316252Y-40206999D01*
X127316252Y-40206999D02*
X126744823Y-40206999D01*
X128887681Y-40921285D02*
X128887681Y-40135571D01*
X128887681Y-40135571D02*
X128816252Y-39992714D01*
X128816252Y-39992714D02*
X128673395Y-39921285D01*
X128673395Y-39921285D02*
X128387681Y-39921285D01*
X128387681Y-39921285D02*
X128244823Y-39992714D01*
X128887681Y-40849857D02*
X128744823Y-40921285D01*
X128744823Y-40921285D02*
X128387681Y-40921285D01*
X128387681Y-40921285D02*
X128244823Y-40849857D01*
X128244823Y-40849857D02*
X128173395Y-40706999D01*
X128173395Y-40706999D02*
X128173395Y-40564142D01*
X128173395Y-40564142D02*
X128244823Y-40421285D01*
X128244823Y-40421285D02*
X128387681Y-40349857D01*
X128387681Y-40349857D02*
X128744823Y-40349857D01*
X128744823Y-40349857D02*
X128887681Y-40278428D01*
X130244824Y-40921285D02*
X130244824Y-39421285D01*
X130244824Y-40849857D02*
X130101966Y-40921285D01*
X130101966Y-40921285D02*
X129816252Y-40921285D01*
X129816252Y-40921285D02*
X129673395Y-40849857D01*
X129673395Y-40849857D02*
X129601966Y-40778428D01*
X129601966Y-40778428D02*
X129530538Y-40635571D01*
X129530538Y-40635571D02*
X129530538Y-40206999D01*
X129530538Y-40206999D02*
X129601966Y-40064142D01*
X129601966Y-40064142D02*
X129673395Y-39992714D01*
X129673395Y-39992714D02*
X129816252Y-39921285D01*
X129816252Y-39921285D02*
X130101966Y-39921285D01*
X130101966Y-39921285D02*
X130244824Y-39992714D01*
X130959109Y-40921285D02*
X130959109Y-39921285D01*
X130959109Y-39421285D02*
X130887681Y-39492714D01*
X130887681Y-39492714D02*
X130959109Y-39564142D01*
X130959109Y-39564142D02*
X131030538Y-39492714D01*
X131030538Y-39492714D02*
X130959109Y-39421285D01*
X130959109Y-39421285D02*
X130959109Y-39564142D01*
X131887681Y-40921285D02*
X131744824Y-40849857D01*
X131744824Y-40849857D02*
X131673395Y-40778428D01*
X131673395Y-40778428D02*
X131601967Y-40635571D01*
X131601967Y-40635571D02*
X131601967Y-40206999D01*
X131601967Y-40206999D02*
X131673395Y-40064142D01*
X131673395Y-40064142D02*
X131744824Y-39992714D01*
X131744824Y-39992714D02*
X131887681Y-39921285D01*
X131887681Y-39921285D02*
X132101967Y-39921285D01*
X132101967Y-39921285D02*
X132244824Y-39992714D01*
X132244824Y-39992714D02*
X132316253Y-40064142D01*
X132316253Y-40064142D02*
X132387681Y-40206999D01*
X132387681Y-40206999D02*
X132387681Y-40635571D01*
X132387681Y-40635571D02*
X132316253Y-40778428D01*
X132316253Y-40778428D02*
X132244824Y-40849857D01*
X132244824Y-40849857D02*
X132101967Y-40921285D01*
X132101967Y-40921285D02*
X131887681Y-40921285D01*
X133601967Y-40849857D02*
X133459110Y-40921285D01*
X133459110Y-40921285D02*
X133173396Y-40921285D01*
X133173396Y-40921285D02*
X133030538Y-40849857D01*
X133030538Y-40849857D02*
X132959110Y-40706999D01*
X132959110Y-40706999D02*
X132959110Y-40135571D01*
X132959110Y-40135571D02*
X133030538Y-39992714D01*
X133030538Y-39992714D02*
X133173396Y-39921285D01*
X133173396Y-39921285D02*
X133459110Y-39921285D01*
X133459110Y-39921285D02*
X133601967Y-39992714D01*
X133601967Y-39992714D02*
X133673396Y-40135571D01*
X133673396Y-40135571D02*
X133673396Y-40278428D01*
X133673396Y-40278428D02*
X132959110Y-40421285D01*
X134530538Y-40921285D02*
X134387681Y-40849857D01*
X134387681Y-40849857D02*
X134316252Y-40706999D01*
X134316252Y-40706999D02*
X134316252Y-39421285D01*
X134887681Y-39921285D02*
X135459109Y-39921285D01*
X135101966Y-40921285D02*
X135101966Y-39635571D01*
X135101966Y-39635571D02*
X135173395Y-39492714D01*
X135173395Y-39492714D02*
X135316252Y-39421285D01*
X135316252Y-39421285D02*
X135459109Y-39421285D01*
X126744823Y-43336201D02*
X126744823Y-41836201D01*
X126744823Y-41836201D02*
X127316252Y-41836201D01*
X127316252Y-41836201D02*
X127459109Y-41907630D01*
X127459109Y-41907630D02*
X127530538Y-41979058D01*
X127530538Y-41979058D02*
X127601966Y-42121915D01*
X127601966Y-42121915D02*
X127601966Y-42336201D01*
X127601966Y-42336201D02*
X127530538Y-42479058D01*
X127530538Y-42479058D02*
X127459109Y-42550487D01*
X127459109Y-42550487D02*
X127316252Y-42621915D01*
X127316252Y-42621915D02*
X126744823Y-42621915D01*
X128459109Y-43336201D02*
X128316252Y-43264773D01*
X128316252Y-43264773D02*
X128244823Y-43193344D01*
X128244823Y-43193344D02*
X128173395Y-43050487D01*
X128173395Y-43050487D02*
X128173395Y-42621915D01*
X128173395Y-42621915D02*
X128244823Y-42479058D01*
X128244823Y-42479058D02*
X128316252Y-42407630D01*
X128316252Y-42407630D02*
X128459109Y-42336201D01*
X128459109Y-42336201D02*
X128673395Y-42336201D01*
X128673395Y-42336201D02*
X128816252Y-42407630D01*
X128816252Y-42407630D02*
X128887681Y-42479058D01*
X128887681Y-42479058D02*
X128959109Y-42621915D01*
X128959109Y-42621915D02*
X128959109Y-43050487D01*
X128959109Y-43050487D02*
X128887681Y-43193344D01*
X128887681Y-43193344D02*
X128816252Y-43264773D01*
X128816252Y-43264773D02*
X128673395Y-43336201D01*
X128673395Y-43336201D02*
X128459109Y-43336201D01*
X129459109Y-42336201D02*
X129744824Y-43336201D01*
X129744824Y-43336201D02*
X130030538Y-42621915D01*
X130030538Y-42621915D02*
X130316252Y-43336201D01*
X130316252Y-43336201D02*
X130601966Y-42336201D01*
X131744824Y-43264773D02*
X131601967Y-43336201D01*
X131601967Y-43336201D02*
X131316253Y-43336201D01*
X131316253Y-43336201D02*
X131173395Y-43264773D01*
X131173395Y-43264773D02*
X131101967Y-43121915D01*
X131101967Y-43121915D02*
X131101967Y-42550487D01*
X131101967Y-42550487D02*
X131173395Y-42407630D01*
X131173395Y-42407630D02*
X131316253Y-42336201D01*
X131316253Y-42336201D02*
X131601967Y-42336201D01*
X131601967Y-42336201D02*
X131744824Y-42407630D01*
X131744824Y-42407630D02*
X131816253Y-42550487D01*
X131816253Y-42550487D02*
X131816253Y-42693344D01*
X131816253Y-42693344D02*
X131101967Y-42836201D01*
X132459109Y-43336201D02*
X132459109Y-42336201D01*
X132459109Y-42621915D02*
X132530538Y-42479058D01*
X132530538Y-42479058D02*
X132601967Y-42407630D01*
X132601967Y-42407630D02*
X132744824Y-42336201D01*
X132744824Y-42336201D02*
X132887681Y-42336201D01*
X135173395Y-43336201D02*
X135173395Y-41836201D01*
X135173395Y-43264773D02*
X135030537Y-43336201D01*
X135030537Y-43336201D02*
X134744823Y-43336201D01*
X134744823Y-43336201D02*
X134601966Y-43264773D01*
X134601966Y-43264773D02*
X134530537Y-43193344D01*
X134530537Y-43193344D02*
X134459109Y-43050487D01*
X134459109Y-43050487D02*
X134459109Y-42621915D01*
X134459109Y-42621915D02*
X134530537Y-42479058D01*
X134530537Y-42479058D02*
X134601966Y-42407630D01*
X134601966Y-42407630D02*
X134744823Y-42336201D01*
X134744823Y-42336201D02*
X135030537Y-42336201D01*
X135030537Y-42336201D02*
X135173395Y-42407630D01*
X136459109Y-43264773D02*
X136316252Y-43336201D01*
X136316252Y-43336201D02*
X136030538Y-43336201D01*
X136030538Y-43336201D02*
X135887680Y-43264773D01*
X135887680Y-43264773D02*
X135816252Y-43121915D01*
X135816252Y-43121915D02*
X135816252Y-42550487D01*
X135816252Y-42550487D02*
X135887680Y-42407630D01*
X135887680Y-42407630D02*
X136030538Y-42336201D01*
X136030538Y-42336201D02*
X136316252Y-42336201D01*
X136316252Y-42336201D02*
X136459109Y-42407630D01*
X136459109Y-42407630D02*
X136530538Y-42550487D01*
X136530538Y-42550487D02*
X136530538Y-42693344D01*
X136530538Y-42693344D02*
X135816252Y-42836201D01*
X136959109Y-42336201D02*
X137530537Y-42336201D01*
X137173394Y-41836201D02*
X137173394Y-43121915D01*
X137173394Y-43121915D02*
X137244823Y-43264773D01*
X137244823Y-43264773D02*
X137387680Y-43336201D01*
X137387680Y-43336201D02*
X137530537Y-43336201D01*
X138601966Y-43264773D02*
X138459109Y-43336201D01*
X138459109Y-43336201D02*
X138173395Y-43336201D01*
X138173395Y-43336201D02*
X138030537Y-43264773D01*
X138030537Y-43264773D02*
X137959109Y-43121915D01*
X137959109Y-43121915D02*
X137959109Y-42550487D01*
X137959109Y-42550487D02*
X138030537Y-42407630D01*
X138030537Y-42407630D02*
X138173395Y-42336201D01*
X138173395Y-42336201D02*
X138459109Y-42336201D01*
X138459109Y-42336201D02*
X138601966Y-42407630D01*
X138601966Y-42407630D02*
X138673395Y-42550487D01*
X138673395Y-42550487D02*
X138673395Y-42693344D01*
X138673395Y-42693344D02*
X137959109Y-42836201D01*
X139959109Y-43264773D02*
X139816251Y-43336201D01*
X139816251Y-43336201D02*
X139530537Y-43336201D01*
X139530537Y-43336201D02*
X139387680Y-43264773D01*
X139387680Y-43264773D02*
X139316251Y-43193344D01*
X139316251Y-43193344D02*
X139244823Y-43050487D01*
X139244823Y-43050487D02*
X139244823Y-42621915D01*
X139244823Y-42621915D02*
X139316251Y-42479058D01*
X139316251Y-42479058D02*
X139387680Y-42407630D01*
X139387680Y-42407630D02*
X139530537Y-42336201D01*
X139530537Y-42336201D02*
X139816251Y-42336201D01*
X139816251Y-42336201D02*
X139959109Y-42407630D01*
X140387680Y-42336201D02*
X140959108Y-42336201D01*
X140601965Y-41836201D02*
X140601965Y-43121915D01*
X140601965Y-43121915D02*
X140673394Y-43264773D01*
X140673394Y-43264773D02*
X140816251Y-43336201D01*
X140816251Y-43336201D02*
X140959108Y-43336201D01*
X142530537Y-41979058D02*
X142601965Y-41907630D01*
X142601965Y-41907630D02*
X142744823Y-41836201D01*
X142744823Y-41836201D02*
X143101965Y-41836201D01*
X143101965Y-41836201D02*
X143244823Y-41907630D01*
X143244823Y-41907630D02*
X143316251Y-41979058D01*
X143316251Y-41979058D02*
X143387680Y-42121915D01*
X143387680Y-42121915D02*
X143387680Y-42264773D01*
X143387680Y-42264773D02*
X143316251Y-42479058D01*
X143316251Y-42479058D02*
X142459108Y-43336201D01*
X142459108Y-43336201D02*
X143387680Y-43336201D01*
X143887679Y-41836201D02*
X144816251Y-41836201D01*
X144816251Y-41836201D02*
X144316251Y-42407630D01*
X144316251Y-42407630D02*
X144530536Y-42407630D01*
X144530536Y-42407630D02*
X144673394Y-42479058D01*
X144673394Y-42479058D02*
X144744822Y-42550487D01*
X144744822Y-42550487D02*
X144816251Y-42693344D01*
X144816251Y-42693344D02*
X144816251Y-43050487D01*
X144816251Y-43050487D02*
X144744822Y-43193344D01*
X144744822Y-43193344D02*
X144673394Y-43264773D01*
X144673394Y-43264773D02*
X144530536Y-43336201D01*
X144530536Y-43336201D02*
X144101965Y-43336201D01*
X144101965Y-43336201D02*
X143959108Y-43264773D01*
X143959108Y-43264773D02*
X143887679Y-43193344D01*
X145744822Y-41836201D02*
X145887679Y-41836201D01*
X145887679Y-41836201D02*
X146030536Y-41907630D01*
X146030536Y-41907630D02*
X146101965Y-41979058D01*
X146101965Y-41979058D02*
X146173393Y-42121915D01*
X146173393Y-42121915D02*
X146244822Y-42407630D01*
X146244822Y-42407630D02*
X146244822Y-42764773D01*
X146244822Y-42764773D02*
X146173393Y-43050487D01*
X146173393Y-43050487D02*
X146101965Y-43193344D01*
X146101965Y-43193344D02*
X146030536Y-43264773D01*
X146030536Y-43264773D02*
X145887679Y-43336201D01*
X145887679Y-43336201D02*
X145744822Y-43336201D01*
X145744822Y-43336201D02*
X145601965Y-43264773D01*
X145601965Y-43264773D02*
X145530536Y-43193344D01*
X145530536Y-43193344D02*
X145459107Y-43050487D01*
X145459107Y-43050487D02*
X145387679Y-42764773D01*
X145387679Y-42764773D02*
X145387679Y-42407630D01*
X145387679Y-42407630D02*
X145459107Y-42121915D01*
X145459107Y-42121915D02*
X145530536Y-41979058D01*
X145530536Y-41979058D02*
X145601965Y-41907630D01*
X145601965Y-41907630D02*
X145744822Y-41836201D01*
X146744821Y-42336201D02*
X147101964Y-43336201D01*
X147101964Y-43336201D02*
X147459107Y-42336201D01*
X149101964Y-42907630D02*
X149816250Y-42907630D01*
X148959107Y-43336201D02*
X149459107Y-41836201D01*
X149459107Y-41836201D02*
X149959107Y-43336201D01*
X151316249Y-43193344D02*
X151244821Y-43264773D01*
X151244821Y-43264773D02*
X151030535Y-43336201D01*
X151030535Y-43336201D02*
X150887678Y-43336201D01*
X150887678Y-43336201D02*
X150673392Y-43264773D01*
X150673392Y-43264773D02*
X150530535Y-43121915D01*
X150530535Y-43121915D02*
X150459106Y-42979058D01*
X150459106Y-42979058D02*
X150387678Y-42693344D01*
X150387678Y-42693344D02*
X150387678Y-42479058D01*
X150387678Y-42479058D02*
X150459106Y-42193344D01*
X150459106Y-42193344D02*
X150530535Y-42050487D01*
X150530535Y-42050487D02*
X150673392Y-41907630D01*
X150673392Y-41907630D02*
X150887678Y-41836201D01*
X150887678Y-41836201D02*
X151030535Y-41836201D01*
X151030535Y-41836201D02*
X151244821Y-41907630D01*
X151244821Y-41907630D02*
X151316249Y-41979058D01*
X184355427Y-86710862D02*
X184355427Y-87210862D01*
X185141141Y-87210862D02*
X183641141Y-87210862D01*
X183641141Y-87210862D02*
X183641141Y-86496576D01*
X183783998Y-85996576D02*
X183712570Y-85925148D01*
X183712570Y-85925148D02*
X183641141Y-85782291D01*
X183641141Y-85782291D02*
X183641141Y-85425148D01*
X183641141Y-85425148D02*
X183712570Y-85282291D01*
X183712570Y-85282291D02*
X183783998Y-85210862D01*
X183783998Y-85210862D02*
X183926855Y-85139433D01*
X183926855Y-85139433D02*
X184069713Y-85139433D01*
X184069713Y-85139433D02*
X184283998Y-85210862D01*
X184283998Y-85210862D02*
X185141141Y-86068005D01*
X185141141Y-86068005D02*
X185141141Y-85139433D01*
X184195427Y-118990862D02*
X184195427Y-119490862D01*
X184981141Y-119490862D02*
X183481141Y-119490862D01*
X183481141Y-119490862D02*
X183481141Y-118776576D01*
X183623998Y-118276576D02*
X183552570Y-118205148D01*
X183552570Y-118205148D02*
X183481141Y-118062291D01*
X183481141Y-118062291D02*
X183481141Y-117705148D01*
X183481141Y-117705148D02*
X183552570Y-117562291D01*
X183552570Y-117562291D02*
X183623998Y-117490862D01*
X183623998Y-117490862D02*
X183766855Y-117419433D01*
X183766855Y-117419433D02*
X183909713Y-117419433D01*
X183909713Y-117419433D02*
X184123998Y-117490862D01*
X184123998Y-117490862D02*
X184981141Y-118348005D01*
X184981141Y-118348005D02*
X184981141Y-117419433D01*
X183992257Y-60399774D02*
X183920828Y-60542632D01*
X183920828Y-60542632D02*
X183920828Y-60756917D01*
X183920828Y-60756917D02*
X183992257Y-60971203D01*
X183992257Y-60971203D02*
X184135114Y-61114060D01*
X184135114Y-61114060D02*
X184277971Y-61185489D01*
X184277971Y-61185489D02*
X184563685Y-61256917D01*
X184563685Y-61256917D02*
X184777971Y-61256917D01*
X184777971Y-61256917D02*
X185063685Y-61185489D01*
X185063685Y-61185489D02*
X185206542Y-61114060D01*
X185206542Y-61114060D02*
X185349400Y-60971203D01*
X185349400Y-60971203D02*
X185420828Y-60756917D01*
X185420828Y-60756917D02*
X185420828Y-60614060D01*
X185420828Y-60614060D02*
X185349400Y-60399774D01*
X185349400Y-60399774D02*
X185277971Y-60328346D01*
X185277971Y-60328346D02*
X184777971Y-60328346D01*
X184777971Y-60328346D02*
X184777971Y-60614060D01*
X185420828Y-59685489D02*
X183920828Y-59685489D01*
X183920828Y-59685489D02*
X185420828Y-58828346D01*
X185420828Y-58828346D02*
X183920828Y-58828346D01*
X185420828Y-58114060D02*
X183920828Y-58114060D01*
X183920828Y-58114060D02*
X183920828Y-57756917D01*
X183920828Y-57756917D02*
X183992257Y-57542631D01*
X183992257Y-57542631D02*
X184135114Y-57399774D01*
X184135114Y-57399774D02*
X184277971Y-57328345D01*
X184277971Y-57328345D02*
X184563685Y-57256917D01*
X184563685Y-57256917D02*
X184777971Y-57256917D01*
X184777971Y-57256917D02*
X185063685Y-57328345D01*
X185063685Y-57328345D02*
X185206542Y-57399774D01*
X185206542Y-57399774D02*
X185349400Y-57542631D01*
X185349400Y-57542631D02*
X185420828Y-57756917D01*
X185420828Y-57756917D02*
X185420828Y-58114060D01*
X120130828Y-86195489D02*
X118630828Y-86195489D01*
X118630828Y-86195489D02*
X120130828Y-85338346D01*
X120130828Y-85338346D02*
X118630828Y-85338346D01*
X147353082Y-128183685D02*
X147424510Y-128112257D01*
X147424510Y-128112257D02*
X147567368Y-128040828D01*
X147567368Y-128040828D02*
X147924510Y-128040828D01*
X147924510Y-128040828D02*
X148067368Y-128112257D01*
X148067368Y-128112257D02*
X148138796Y-128183685D01*
X148138796Y-128183685D02*
X148210225Y-128326542D01*
X148210225Y-128326542D02*
X148210225Y-128469400D01*
X148210225Y-128469400D02*
X148138796Y-128683685D01*
X148138796Y-128683685D02*
X147281653Y-129540828D01*
X147281653Y-129540828D02*
X148210225Y-129540828D01*
X148710224Y-128040828D02*
X149638796Y-128040828D01*
X149638796Y-128040828D02*
X149138796Y-128612257D01*
X149138796Y-128612257D02*
X149353081Y-128612257D01*
X149353081Y-128612257D02*
X149495939Y-128683685D01*
X149495939Y-128683685D02*
X149567367Y-128755114D01*
X149567367Y-128755114D02*
X149638796Y-128897971D01*
X149638796Y-128897971D02*
X149638796Y-129255114D01*
X149638796Y-129255114D02*
X149567367Y-129397971D01*
X149567367Y-129397971D02*
X149495939Y-129469400D01*
X149495939Y-129469400D02*
X149353081Y-129540828D01*
X149353081Y-129540828D02*
X148924510Y-129540828D01*
X148924510Y-129540828D02*
X148781653Y-129469400D01*
X148781653Y-129469400D02*
X148710224Y-129397971D01*
X150567367Y-128040828D02*
X150710224Y-128040828D01*
X150710224Y-128040828D02*
X150853081Y-128112257D01*
X150853081Y-128112257D02*
X150924510Y-128183685D01*
X150924510Y-128183685D02*
X150995938Y-128326542D01*
X150995938Y-128326542D02*
X151067367Y-128612257D01*
X151067367Y-128612257D02*
X151067367Y-128969400D01*
X151067367Y-128969400D02*
X150995938Y-129255114D01*
X150995938Y-129255114D02*
X150924510Y-129397971D01*
X150924510Y-129397971D02*
X150853081Y-129469400D01*
X150853081Y-129469400D02*
X150710224Y-129540828D01*
X150710224Y-129540828D02*
X150567367Y-129540828D01*
X150567367Y-129540828D02*
X150424510Y-129469400D01*
X150424510Y-129469400D02*
X150353081Y-129397971D01*
X150353081Y-129397971D02*
X150281652Y-129255114D01*
X150281652Y-129255114D02*
X150210224Y-128969400D01*
X150210224Y-128969400D02*
X150210224Y-128612257D01*
X150210224Y-128612257D02*
X150281652Y-128326542D01*
X150281652Y-128326542D02*
X150353081Y-128183685D01*
X150353081Y-128183685D02*
X150424510Y-128112257D01*
X150424510Y-128112257D02*
X150567367Y-128040828D01*
X151495938Y-128040828D02*
X151995938Y-129540828D01*
X151995938Y-129540828D02*
X152495938Y-128040828D01*
X154067366Y-129112257D02*
X154781652Y-129112257D01*
X153924509Y-129540828D02*
X154424509Y-128040828D01*
X154424509Y-128040828D02*
X154924509Y-129540828D01*
X156281651Y-129397971D02*
X156210223Y-129469400D01*
X156210223Y-129469400D02*
X155995937Y-129540828D01*
X155995937Y-129540828D02*
X155853080Y-129540828D01*
X155853080Y-129540828D02*
X155638794Y-129469400D01*
X155638794Y-129469400D02*
X155495937Y-129326542D01*
X155495937Y-129326542D02*
X155424508Y-129183685D01*
X155424508Y-129183685D02*
X155353080Y-128897971D01*
X155353080Y-128897971D02*
X155353080Y-128683685D01*
X155353080Y-128683685D02*
X155424508Y-128397971D01*
X155424508Y-128397971D02*
X155495937Y-128255114D01*
X155495937Y-128255114D02*
X155638794Y-128112257D01*
X155638794Y-128112257D02*
X155853080Y-128040828D01*
X155853080Y-128040828D02*
X155995937Y-128040828D01*
X155995937Y-128040828D02*
X156210223Y-128112257D01*
X156210223Y-128112257D02*
X156281651Y-128183685D01*
X127891966Y-104901285D02*
X127391966Y-104186999D01*
X127034823Y-104901285D02*
X127034823Y-103401285D01*
X127034823Y-103401285D02*
X127606252Y-103401285D01*
X127606252Y-103401285D02*
X127749109Y-103472714D01*
X127749109Y-103472714D02*
X127820538Y-103544142D01*
X127820538Y-103544142D02*
X127891966Y-103686999D01*
X127891966Y-103686999D02*
X127891966Y-103901285D01*
X127891966Y-103901285D02*
X127820538Y-104044142D01*
X127820538Y-104044142D02*
X127749109Y-104115571D01*
X127749109Y-104115571D02*
X127606252Y-104186999D01*
X127606252Y-104186999D02*
X127034823Y-104186999D01*
X129177681Y-104901285D02*
X129177681Y-104115571D01*
X129177681Y-104115571D02*
X129106252Y-103972714D01*
X129106252Y-103972714D02*
X128963395Y-103901285D01*
X128963395Y-103901285D02*
X128677681Y-103901285D01*
X128677681Y-103901285D02*
X128534823Y-103972714D01*
X129177681Y-104829857D02*
X129034823Y-104901285D01*
X129034823Y-104901285D02*
X128677681Y-104901285D01*
X128677681Y-104901285D02*
X128534823Y-104829857D01*
X128534823Y-104829857D02*
X128463395Y-104686999D01*
X128463395Y-104686999D02*
X128463395Y-104544142D01*
X128463395Y-104544142D02*
X128534823Y-104401285D01*
X128534823Y-104401285D02*
X128677681Y-104329857D01*
X128677681Y-104329857D02*
X129034823Y-104329857D01*
X129034823Y-104329857D02*
X129177681Y-104258428D01*
X130534824Y-104901285D02*
X130534824Y-103401285D01*
X130534824Y-104829857D02*
X130391966Y-104901285D01*
X130391966Y-104901285D02*
X130106252Y-104901285D01*
X130106252Y-104901285D02*
X129963395Y-104829857D01*
X129963395Y-104829857D02*
X129891966Y-104758428D01*
X129891966Y-104758428D02*
X129820538Y-104615571D01*
X129820538Y-104615571D02*
X129820538Y-104186999D01*
X129820538Y-104186999D02*
X129891966Y-104044142D01*
X129891966Y-104044142D02*
X129963395Y-103972714D01*
X129963395Y-103972714D02*
X130106252Y-103901285D01*
X130106252Y-103901285D02*
X130391966Y-103901285D01*
X130391966Y-103901285D02*
X130534824Y-103972714D01*
X131249109Y-104901285D02*
X131249109Y-103901285D01*
X131249109Y-103401285D02*
X131177681Y-103472714D01*
X131177681Y-103472714D02*
X131249109Y-103544142D01*
X131249109Y-103544142D02*
X131320538Y-103472714D01*
X131320538Y-103472714D02*
X131249109Y-103401285D01*
X131249109Y-103401285D02*
X131249109Y-103544142D01*
X132177681Y-104901285D02*
X132034824Y-104829857D01*
X132034824Y-104829857D02*
X131963395Y-104758428D01*
X131963395Y-104758428D02*
X131891967Y-104615571D01*
X131891967Y-104615571D02*
X131891967Y-104186999D01*
X131891967Y-104186999D02*
X131963395Y-104044142D01*
X131963395Y-104044142D02*
X132034824Y-103972714D01*
X132034824Y-103972714D02*
X132177681Y-103901285D01*
X132177681Y-103901285D02*
X132391967Y-103901285D01*
X132391967Y-103901285D02*
X132534824Y-103972714D01*
X132534824Y-103972714D02*
X132606253Y-104044142D01*
X132606253Y-104044142D02*
X132677681Y-104186999D01*
X132677681Y-104186999D02*
X132677681Y-104615571D01*
X132677681Y-104615571D02*
X132606253Y-104758428D01*
X132606253Y-104758428D02*
X132534824Y-104829857D01*
X132534824Y-104829857D02*
X132391967Y-104901285D01*
X132391967Y-104901285D02*
X132177681Y-104901285D01*
X133891967Y-104829857D02*
X133749110Y-104901285D01*
X133749110Y-104901285D02*
X133463396Y-104901285D01*
X133463396Y-104901285D02*
X133320538Y-104829857D01*
X133320538Y-104829857D02*
X133249110Y-104686999D01*
X133249110Y-104686999D02*
X133249110Y-104115571D01*
X133249110Y-104115571D02*
X133320538Y-103972714D01*
X133320538Y-103972714D02*
X133463396Y-103901285D01*
X133463396Y-103901285D02*
X133749110Y-103901285D01*
X133749110Y-103901285D02*
X133891967Y-103972714D01*
X133891967Y-103972714D02*
X133963396Y-104115571D01*
X133963396Y-104115571D02*
X133963396Y-104258428D01*
X133963396Y-104258428D02*
X133249110Y-104401285D01*
X134820538Y-104901285D02*
X134677681Y-104829857D01*
X134677681Y-104829857D02*
X134606252Y-104686999D01*
X134606252Y-104686999D02*
X134606252Y-103401285D01*
X135177681Y-103901285D02*
X135749109Y-103901285D01*
X135391966Y-104901285D02*
X135391966Y-103615571D01*
X135391966Y-103615571D02*
X135463395Y-103472714D01*
X135463395Y-103472714D02*
X135606252Y-103401285D01*
X135606252Y-103401285D02*
X135749109Y-103401285D01*
X127034823Y-107316201D02*
X127034823Y-105816201D01*
X127034823Y-105816201D02*
X127606252Y-105816201D01*
X127606252Y-105816201D02*
X127749109Y-105887630D01*
X127749109Y-105887630D02*
X127820538Y-105959058D01*
X127820538Y-105959058D02*
X127891966Y-106101915D01*
X127891966Y-106101915D02*
X127891966Y-106316201D01*
X127891966Y-106316201D02*
X127820538Y-106459058D01*
X127820538Y-106459058D02*
X127749109Y-106530487D01*
X127749109Y-106530487D02*
X127606252Y-106601915D01*
X127606252Y-106601915D02*
X127034823Y-106601915D01*
X128749109Y-107316201D02*
X128606252Y-107244773D01*
X128606252Y-107244773D02*
X128534823Y-107173344D01*
X128534823Y-107173344D02*
X128463395Y-107030487D01*
X128463395Y-107030487D02*
X128463395Y-106601915D01*
X128463395Y-106601915D02*
X128534823Y-106459058D01*
X128534823Y-106459058D02*
X128606252Y-106387630D01*
X128606252Y-106387630D02*
X128749109Y-106316201D01*
X128749109Y-106316201D02*
X128963395Y-106316201D01*
X128963395Y-106316201D02*
X129106252Y-106387630D01*
X129106252Y-106387630D02*
X129177681Y-106459058D01*
X129177681Y-106459058D02*
X129249109Y-106601915D01*
X129249109Y-106601915D02*
X129249109Y-107030487D01*
X129249109Y-107030487D02*
X129177681Y-107173344D01*
X129177681Y-107173344D02*
X129106252Y-107244773D01*
X129106252Y-107244773D02*
X128963395Y-107316201D01*
X128963395Y-107316201D02*
X128749109Y-107316201D01*
X129749109Y-106316201D02*
X130034824Y-107316201D01*
X130034824Y-107316201D02*
X130320538Y-106601915D01*
X130320538Y-106601915D02*
X130606252Y-107316201D01*
X130606252Y-107316201D02*
X130891966Y-106316201D01*
X132034824Y-107244773D02*
X131891967Y-107316201D01*
X131891967Y-107316201D02*
X131606253Y-107316201D01*
X131606253Y-107316201D02*
X131463395Y-107244773D01*
X131463395Y-107244773D02*
X131391967Y-107101915D01*
X131391967Y-107101915D02*
X131391967Y-106530487D01*
X131391967Y-106530487D02*
X131463395Y-106387630D01*
X131463395Y-106387630D02*
X131606253Y-106316201D01*
X131606253Y-106316201D02*
X131891967Y-106316201D01*
X131891967Y-106316201D02*
X132034824Y-106387630D01*
X132034824Y-106387630D02*
X132106253Y-106530487D01*
X132106253Y-106530487D02*
X132106253Y-106673344D01*
X132106253Y-106673344D02*
X131391967Y-106816201D01*
X132749109Y-107316201D02*
X132749109Y-106316201D01*
X132749109Y-106601915D02*
X132820538Y-106459058D01*
X132820538Y-106459058D02*
X132891967Y-106387630D01*
X132891967Y-106387630D02*
X133034824Y-106316201D01*
X133034824Y-106316201D02*
X133177681Y-106316201D01*
X135463395Y-107316201D02*
X135463395Y-105816201D01*
X135463395Y-107244773D02*
X135320537Y-107316201D01*
X135320537Y-107316201D02*
X135034823Y-107316201D01*
X135034823Y-107316201D02*
X134891966Y-107244773D01*
X134891966Y-107244773D02*
X134820537Y-107173344D01*
X134820537Y-107173344D02*
X134749109Y-107030487D01*
X134749109Y-107030487D02*
X134749109Y-106601915D01*
X134749109Y-106601915D02*
X134820537Y-106459058D01*
X134820537Y-106459058D02*
X134891966Y-106387630D01*
X134891966Y-106387630D02*
X135034823Y-106316201D01*
X135034823Y-106316201D02*
X135320537Y-106316201D01*
X135320537Y-106316201D02*
X135463395Y-106387630D01*
X136749109Y-107244773D02*
X136606252Y-107316201D01*
X136606252Y-107316201D02*
X136320538Y-107316201D01*
X136320538Y-107316201D02*
X136177680Y-107244773D01*
X136177680Y-107244773D02*
X136106252Y-107101915D01*
X136106252Y-107101915D02*
X136106252Y-106530487D01*
X136106252Y-106530487D02*
X136177680Y-106387630D01*
X136177680Y-106387630D02*
X136320538Y-106316201D01*
X136320538Y-106316201D02*
X136606252Y-106316201D01*
X136606252Y-106316201D02*
X136749109Y-106387630D01*
X136749109Y-106387630D02*
X136820538Y-106530487D01*
X136820538Y-106530487D02*
X136820538Y-106673344D01*
X136820538Y-106673344D02*
X136106252Y-106816201D01*
X137249109Y-106316201D02*
X137820537Y-106316201D01*
X137463394Y-105816201D02*
X137463394Y-107101915D01*
X137463394Y-107101915D02*
X137534823Y-107244773D01*
X137534823Y-107244773D02*
X137677680Y-107316201D01*
X137677680Y-107316201D02*
X137820537Y-107316201D01*
X138891966Y-107244773D02*
X138749109Y-107316201D01*
X138749109Y-107316201D02*
X138463395Y-107316201D01*
X138463395Y-107316201D02*
X138320537Y-107244773D01*
X138320537Y-107244773D02*
X138249109Y-107101915D01*
X138249109Y-107101915D02*
X138249109Y-106530487D01*
X138249109Y-106530487D02*
X138320537Y-106387630D01*
X138320537Y-106387630D02*
X138463395Y-106316201D01*
X138463395Y-106316201D02*
X138749109Y-106316201D01*
X138749109Y-106316201D02*
X138891966Y-106387630D01*
X138891966Y-106387630D02*
X138963395Y-106530487D01*
X138963395Y-106530487D02*
X138963395Y-106673344D01*
X138963395Y-106673344D02*
X138249109Y-106816201D01*
X140249109Y-107244773D02*
X140106251Y-107316201D01*
X140106251Y-107316201D02*
X139820537Y-107316201D01*
X139820537Y-107316201D02*
X139677680Y-107244773D01*
X139677680Y-107244773D02*
X139606251Y-107173344D01*
X139606251Y-107173344D02*
X139534823Y-107030487D01*
X139534823Y-107030487D02*
X139534823Y-106601915D01*
X139534823Y-106601915D02*
X139606251Y-106459058D01*
X139606251Y-106459058D02*
X139677680Y-106387630D01*
X139677680Y-106387630D02*
X139820537Y-106316201D01*
X139820537Y-106316201D02*
X140106251Y-106316201D01*
X140106251Y-106316201D02*
X140249109Y-106387630D01*
X140677680Y-106316201D02*
X141249108Y-106316201D01*
X140891965Y-105816201D02*
X140891965Y-107101915D01*
X140891965Y-107101915D02*
X140963394Y-107244773D01*
X140963394Y-107244773D02*
X141106251Y-107316201D01*
X141106251Y-107316201D02*
X141249108Y-107316201D01*
X142820537Y-105959058D02*
X142891965Y-105887630D01*
X142891965Y-105887630D02*
X143034823Y-105816201D01*
X143034823Y-105816201D02*
X143391965Y-105816201D01*
X143391965Y-105816201D02*
X143534823Y-105887630D01*
X143534823Y-105887630D02*
X143606251Y-105959058D01*
X143606251Y-105959058D02*
X143677680Y-106101915D01*
X143677680Y-106101915D02*
X143677680Y-106244773D01*
X143677680Y-106244773D02*
X143606251Y-106459058D01*
X143606251Y-106459058D02*
X142749108Y-107316201D01*
X142749108Y-107316201D02*
X143677680Y-107316201D01*
X144177679Y-105816201D02*
X145106251Y-105816201D01*
X145106251Y-105816201D02*
X144606251Y-106387630D01*
X144606251Y-106387630D02*
X144820536Y-106387630D01*
X144820536Y-106387630D02*
X144963394Y-106459058D01*
X144963394Y-106459058D02*
X145034822Y-106530487D01*
X145034822Y-106530487D02*
X145106251Y-106673344D01*
X145106251Y-106673344D02*
X145106251Y-107030487D01*
X145106251Y-107030487D02*
X145034822Y-107173344D01*
X145034822Y-107173344D02*
X144963394Y-107244773D01*
X144963394Y-107244773D02*
X144820536Y-107316201D01*
X144820536Y-107316201D02*
X144391965Y-107316201D01*
X144391965Y-107316201D02*
X144249108Y-107244773D01*
X144249108Y-107244773D02*
X144177679Y-107173344D01*
X146034822Y-105816201D02*
X146177679Y-105816201D01*
X146177679Y-105816201D02*
X146320536Y-105887630D01*
X146320536Y-105887630D02*
X146391965Y-105959058D01*
X146391965Y-105959058D02*
X146463393Y-106101915D01*
X146463393Y-106101915D02*
X146534822Y-106387630D01*
X146534822Y-106387630D02*
X146534822Y-106744773D01*
X146534822Y-106744773D02*
X146463393Y-107030487D01*
X146463393Y-107030487D02*
X146391965Y-107173344D01*
X146391965Y-107173344D02*
X146320536Y-107244773D01*
X146320536Y-107244773D02*
X146177679Y-107316201D01*
X146177679Y-107316201D02*
X146034822Y-107316201D01*
X146034822Y-107316201D02*
X145891965Y-107244773D01*
X145891965Y-107244773D02*
X145820536Y-107173344D01*
X145820536Y-107173344D02*
X145749107Y-107030487D01*
X145749107Y-107030487D02*
X145677679Y-106744773D01*
X145677679Y-106744773D02*
X145677679Y-106387630D01*
X145677679Y-106387630D02*
X145749107Y-106101915D01*
X145749107Y-106101915D02*
X145820536Y-105959058D01*
X145820536Y-105959058D02*
X145891965Y-105887630D01*
X145891965Y-105887630D02*
X146034822Y-105816201D01*
X147034821Y-106316201D02*
X147391964Y-107316201D01*
X147391964Y-107316201D02*
X147749107Y-106316201D01*
X149391964Y-106887630D02*
X150106250Y-106887630D01*
X149249107Y-107316201D02*
X149749107Y-105816201D01*
X149749107Y-105816201D02*
X150249107Y-107316201D01*
X151606249Y-107173344D02*
X151534821Y-107244773D01*
X151534821Y-107244773D02*
X151320535Y-107316201D01*
X151320535Y-107316201D02*
X151177678Y-107316201D01*
X151177678Y-107316201D02*
X150963392Y-107244773D01*
X150963392Y-107244773D02*
X150820535Y-107101915D01*
X150820535Y-107101915D02*
X150749106Y-106959058D01*
X150749106Y-106959058D02*
X150677678Y-106673344D01*
X150677678Y-106673344D02*
X150677678Y-106459058D01*
X150677678Y-106459058D02*
X150749106Y-106173344D01*
X150749106Y-106173344D02*
X150820535Y-106030487D01*
X150820535Y-106030487D02*
X150963392Y-105887630D01*
X150963392Y-105887630D02*
X151177678Y-105816201D01*
X151177678Y-105816201D02*
X151320535Y-105816201D01*
X151320535Y-105816201D02*
X151534821Y-105887630D01*
X151534821Y-105887630D02*
X151606249Y-105959058D01*
X184555427Y-49250862D02*
X184555427Y-49750862D01*
X185341141Y-49750862D02*
X183841141Y-49750862D01*
X183841141Y-49750862D02*
X183841141Y-49036576D01*
X185341141Y-47679433D02*
X185341141Y-48536576D01*
X185341141Y-48108005D02*
X183841141Y-48108005D01*
X183841141Y-48108005D02*
X184055427Y-48250862D01*
X184055427Y-48250862D02*
X184198284Y-48393719D01*
X184198284Y-48393719D02*
X184269713Y-48536576D01*
X184175427Y-113160862D02*
X184175427Y-113660862D01*
X184961141Y-113660862D02*
X183461141Y-113660862D01*
X183461141Y-113660862D02*
X183461141Y-112946576D01*
X184961141Y-111589433D02*
X184961141Y-112446576D01*
X184961141Y-112018005D02*
X183461141Y-112018005D01*
X183461141Y-112018005D02*
X183675427Y-112160862D01*
X183675427Y-112160862D02*
X183818284Y-112303719D01*
X183818284Y-112303719D02*
X183889713Y-112446576D01*
X119274885Y-122804510D02*
X119274885Y-122304510D01*
X118489171Y-122304510D02*
X119989171Y-122304510D01*
X119989171Y-122304510D02*
X119989171Y-123018796D01*
X119846314Y-123518796D02*
X119917742Y-123590224D01*
X119917742Y-123590224D02*
X119989171Y-123733082D01*
X119989171Y-123733082D02*
X119989171Y-124090224D01*
X119989171Y-124090224D02*
X119917742Y-124233082D01*
X119917742Y-124233082D02*
X119846314Y-124304510D01*
X119846314Y-124304510D02*
X119703457Y-124375939D01*
X119703457Y-124375939D02*
X119560600Y-124375939D01*
X119560600Y-124375939D02*
X119346314Y-124304510D01*
X119346314Y-124304510D02*
X118489171Y-123447367D01*
X118489171Y-123447367D02*
X118489171Y-124375939D01*
X127691966Y-72561285D02*
X127191966Y-71846999D01*
X126834823Y-72561285D02*
X126834823Y-71061285D01*
X126834823Y-71061285D02*
X127406252Y-71061285D01*
X127406252Y-71061285D02*
X127549109Y-71132714D01*
X127549109Y-71132714D02*
X127620538Y-71204142D01*
X127620538Y-71204142D02*
X127691966Y-71346999D01*
X127691966Y-71346999D02*
X127691966Y-71561285D01*
X127691966Y-71561285D02*
X127620538Y-71704142D01*
X127620538Y-71704142D02*
X127549109Y-71775571D01*
X127549109Y-71775571D02*
X127406252Y-71846999D01*
X127406252Y-71846999D02*
X126834823Y-71846999D01*
X128977681Y-72561285D02*
X128977681Y-71775571D01*
X128977681Y-71775571D02*
X128906252Y-71632714D01*
X128906252Y-71632714D02*
X128763395Y-71561285D01*
X128763395Y-71561285D02*
X128477681Y-71561285D01*
X128477681Y-71561285D02*
X128334823Y-71632714D01*
X128977681Y-72489857D02*
X128834823Y-72561285D01*
X128834823Y-72561285D02*
X128477681Y-72561285D01*
X128477681Y-72561285D02*
X128334823Y-72489857D01*
X128334823Y-72489857D02*
X128263395Y-72346999D01*
X128263395Y-72346999D02*
X128263395Y-72204142D01*
X128263395Y-72204142D02*
X128334823Y-72061285D01*
X128334823Y-72061285D02*
X128477681Y-71989857D01*
X128477681Y-71989857D02*
X128834823Y-71989857D01*
X128834823Y-71989857D02*
X128977681Y-71918428D01*
X130334824Y-72561285D02*
X130334824Y-71061285D01*
X130334824Y-72489857D02*
X130191966Y-72561285D01*
X130191966Y-72561285D02*
X129906252Y-72561285D01*
X129906252Y-72561285D02*
X129763395Y-72489857D01*
X129763395Y-72489857D02*
X129691966Y-72418428D01*
X129691966Y-72418428D02*
X129620538Y-72275571D01*
X129620538Y-72275571D02*
X129620538Y-71846999D01*
X129620538Y-71846999D02*
X129691966Y-71704142D01*
X129691966Y-71704142D02*
X129763395Y-71632714D01*
X129763395Y-71632714D02*
X129906252Y-71561285D01*
X129906252Y-71561285D02*
X130191966Y-71561285D01*
X130191966Y-71561285D02*
X130334824Y-71632714D01*
X131049109Y-72561285D02*
X131049109Y-71561285D01*
X131049109Y-71061285D02*
X130977681Y-71132714D01*
X130977681Y-71132714D02*
X131049109Y-71204142D01*
X131049109Y-71204142D02*
X131120538Y-71132714D01*
X131120538Y-71132714D02*
X131049109Y-71061285D01*
X131049109Y-71061285D02*
X131049109Y-71204142D01*
X131977681Y-72561285D02*
X131834824Y-72489857D01*
X131834824Y-72489857D02*
X131763395Y-72418428D01*
X131763395Y-72418428D02*
X131691967Y-72275571D01*
X131691967Y-72275571D02*
X131691967Y-71846999D01*
X131691967Y-71846999D02*
X131763395Y-71704142D01*
X131763395Y-71704142D02*
X131834824Y-71632714D01*
X131834824Y-71632714D02*
X131977681Y-71561285D01*
X131977681Y-71561285D02*
X132191967Y-71561285D01*
X132191967Y-71561285D02*
X132334824Y-71632714D01*
X132334824Y-71632714D02*
X132406253Y-71704142D01*
X132406253Y-71704142D02*
X132477681Y-71846999D01*
X132477681Y-71846999D02*
X132477681Y-72275571D01*
X132477681Y-72275571D02*
X132406253Y-72418428D01*
X132406253Y-72418428D02*
X132334824Y-72489857D01*
X132334824Y-72489857D02*
X132191967Y-72561285D01*
X132191967Y-72561285D02*
X131977681Y-72561285D01*
X133691967Y-72489857D02*
X133549110Y-72561285D01*
X133549110Y-72561285D02*
X133263396Y-72561285D01*
X133263396Y-72561285D02*
X133120538Y-72489857D01*
X133120538Y-72489857D02*
X133049110Y-72346999D01*
X133049110Y-72346999D02*
X133049110Y-71775571D01*
X133049110Y-71775571D02*
X133120538Y-71632714D01*
X133120538Y-71632714D02*
X133263396Y-71561285D01*
X133263396Y-71561285D02*
X133549110Y-71561285D01*
X133549110Y-71561285D02*
X133691967Y-71632714D01*
X133691967Y-71632714D02*
X133763396Y-71775571D01*
X133763396Y-71775571D02*
X133763396Y-71918428D01*
X133763396Y-71918428D02*
X133049110Y-72061285D01*
X134620538Y-72561285D02*
X134477681Y-72489857D01*
X134477681Y-72489857D02*
X134406252Y-72346999D01*
X134406252Y-72346999D02*
X134406252Y-71061285D01*
X134977681Y-71561285D02*
X135549109Y-71561285D01*
X135191966Y-72561285D02*
X135191966Y-71275571D01*
X135191966Y-71275571D02*
X135263395Y-71132714D01*
X135263395Y-71132714D02*
X135406252Y-71061285D01*
X135406252Y-71061285D02*
X135549109Y-71061285D01*
X126834823Y-74976201D02*
X126834823Y-73476201D01*
X126834823Y-73476201D02*
X127406252Y-73476201D01*
X127406252Y-73476201D02*
X127549109Y-73547630D01*
X127549109Y-73547630D02*
X127620538Y-73619058D01*
X127620538Y-73619058D02*
X127691966Y-73761915D01*
X127691966Y-73761915D02*
X127691966Y-73976201D01*
X127691966Y-73976201D02*
X127620538Y-74119058D01*
X127620538Y-74119058D02*
X127549109Y-74190487D01*
X127549109Y-74190487D02*
X127406252Y-74261915D01*
X127406252Y-74261915D02*
X126834823Y-74261915D01*
X128549109Y-74976201D02*
X128406252Y-74904773D01*
X128406252Y-74904773D02*
X128334823Y-74833344D01*
X128334823Y-74833344D02*
X128263395Y-74690487D01*
X128263395Y-74690487D02*
X128263395Y-74261915D01*
X128263395Y-74261915D02*
X128334823Y-74119058D01*
X128334823Y-74119058D02*
X128406252Y-74047630D01*
X128406252Y-74047630D02*
X128549109Y-73976201D01*
X128549109Y-73976201D02*
X128763395Y-73976201D01*
X128763395Y-73976201D02*
X128906252Y-74047630D01*
X128906252Y-74047630D02*
X128977681Y-74119058D01*
X128977681Y-74119058D02*
X129049109Y-74261915D01*
X129049109Y-74261915D02*
X129049109Y-74690487D01*
X129049109Y-74690487D02*
X128977681Y-74833344D01*
X128977681Y-74833344D02*
X128906252Y-74904773D01*
X128906252Y-74904773D02*
X128763395Y-74976201D01*
X128763395Y-74976201D02*
X128549109Y-74976201D01*
X129549109Y-73976201D02*
X129834824Y-74976201D01*
X129834824Y-74976201D02*
X130120538Y-74261915D01*
X130120538Y-74261915D02*
X130406252Y-74976201D01*
X130406252Y-74976201D02*
X130691966Y-73976201D01*
X131834824Y-74904773D02*
X131691967Y-74976201D01*
X131691967Y-74976201D02*
X131406253Y-74976201D01*
X131406253Y-74976201D02*
X131263395Y-74904773D01*
X131263395Y-74904773D02*
X131191967Y-74761915D01*
X131191967Y-74761915D02*
X131191967Y-74190487D01*
X131191967Y-74190487D02*
X131263395Y-74047630D01*
X131263395Y-74047630D02*
X131406253Y-73976201D01*
X131406253Y-73976201D02*
X131691967Y-73976201D01*
X131691967Y-73976201D02*
X131834824Y-74047630D01*
X131834824Y-74047630D02*
X131906253Y-74190487D01*
X131906253Y-74190487D02*
X131906253Y-74333344D01*
X131906253Y-74333344D02*
X131191967Y-74476201D01*
X132549109Y-74976201D02*
X132549109Y-73976201D01*
X132549109Y-74261915D02*
X132620538Y-74119058D01*
X132620538Y-74119058D02*
X132691967Y-74047630D01*
X132691967Y-74047630D02*
X132834824Y-73976201D01*
X132834824Y-73976201D02*
X132977681Y-73976201D01*
X135263395Y-74976201D02*
X135263395Y-73476201D01*
X135263395Y-74904773D02*
X135120537Y-74976201D01*
X135120537Y-74976201D02*
X134834823Y-74976201D01*
X134834823Y-74976201D02*
X134691966Y-74904773D01*
X134691966Y-74904773D02*
X134620537Y-74833344D01*
X134620537Y-74833344D02*
X134549109Y-74690487D01*
X134549109Y-74690487D02*
X134549109Y-74261915D01*
X134549109Y-74261915D02*
X134620537Y-74119058D01*
X134620537Y-74119058D02*
X134691966Y-74047630D01*
X134691966Y-74047630D02*
X134834823Y-73976201D01*
X134834823Y-73976201D02*
X135120537Y-73976201D01*
X135120537Y-73976201D02*
X135263395Y-74047630D01*
X136549109Y-74904773D02*
X136406252Y-74976201D01*
X136406252Y-74976201D02*
X136120538Y-74976201D01*
X136120538Y-74976201D02*
X135977680Y-74904773D01*
X135977680Y-74904773D02*
X135906252Y-74761915D01*
X135906252Y-74761915D02*
X135906252Y-74190487D01*
X135906252Y-74190487D02*
X135977680Y-74047630D01*
X135977680Y-74047630D02*
X136120538Y-73976201D01*
X136120538Y-73976201D02*
X136406252Y-73976201D01*
X136406252Y-73976201D02*
X136549109Y-74047630D01*
X136549109Y-74047630D02*
X136620538Y-74190487D01*
X136620538Y-74190487D02*
X136620538Y-74333344D01*
X136620538Y-74333344D02*
X135906252Y-74476201D01*
X137049109Y-73976201D02*
X137620537Y-73976201D01*
X137263394Y-73476201D02*
X137263394Y-74761915D01*
X137263394Y-74761915D02*
X137334823Y-74904773D01*
X137334823Y-74904773D02*
X137477680Y-74976201D01*
X137477680Y-74976201D02*
X137620537Y-74976201D01*
X138691966Y-74904773D02*
X138549109Y-74976201D01*
X138549109Y-74976201D02*
X138263395Y-74976201D01*
X138263395Y-74976201D02*
X138120537Y-74904773D01*
X138120537Y-74904773D02*
X138049109Y-74761915D01*
X138049109Y-74761915D02*
X138049109Y-74190487D01*
X138049109Y-74190487D02*
X138120537Y-74047630D01*
X138120537Y-74047630D02*
X138263395Y-73976201D01*
X138263395Y-73976201D02*
X138549109Y-73976201D01*
X138549109Y-73976201D02*
X138691966Y-74047630D01*
X138691966Y-74047630D02*
X138763395Y-74190487D01*
X138763395Y-74190487D02*
X138763395Y-74333344D01*
X138763395Y-74333344D02*
X138049109Y-74476201D01*
X140049109Y-74904773D02*
X139906251Y-74976201D01*
X139906251Y-74976201D02*
X139620537Y-74976201D01*
X139620537Y-74976201D02*
X139477680Y-74904773D01*
X139477680Y-74904773D02*
X139406251Y-74833344D01*
X139406251Y-74833344D02*
X139334823Y-74690487D01*
X139334823Y-74690487D02*
X139334823Y-74261915D01*
X139334823Y-74261915D02*
X139406251Y-74119058D01*
X139406251Y-74119058D02*
X139477680Y-74047630D01*
X139477680Y-74047630D02*
X139620537Y-73976201D01*
X139620537Y-73976201D02*
X139906251Y-73976201D01*
X139906251Y-73976201D02*
X140049109Y-74047630D01*
X140477680Y-73976201D02*
X141049108Y-73976201D01*
X140691965Y-73476201D02*
X140691965Y-74761915D01*
X140691965Y-74761915D02*
X140763394Y-74904773D01*
X140763394Y-74904773D02*
X140906251Y-74976201D01*
X140906251Y-74976201D02*
X141049108Y-74976201D01*
X142620537Y-73619058D02*
X142691965Y-73547630D01*
X142691965Y-73547630D02*
X142834823Y-73476201D01*
X142834823Y-73476201D02*
X143191965Y-73476201D01*
X143191965Y-73476201D02*
X143334823Y-73547630D01*
X143334823Y-73547630D02*
X143406251Y-73619058D01*
X143406251Y-73619058D02*
X143477680Y-73761915D01*
X143477680Y-73761915D02*
X143477680Y-73904773D01*
X143477680Y-73904773D02*
X143406251Y-74119058D01*
X143406251Y-74119058D02*
X142549108Y-74976201D01*
X142549108Y-74976201D02*
X143477680Y-74976201D01*
X143977679Y-73476201D02*
X144906251Y-73476201D01*
X144906251Y-73476201D02*
X144406251Y-74047630D01*
X144406251Y-74047630D02*
X144620536Y-74047630D01*
X144620536Y-74047630D02*
X144763394Y-74119058D01*
X144763394Y-74119058D02*
X144834822Y-74190487D01*
X144834822Y-74190487D02*
X144906251Y-74333344D01*
X144906251Y-74333344D02*
X144906251Y-74690487D01*
X144906251Y-74690487D02*
X144834822Y-74833344D01*
X144834822Y-74833344D02*
X144763394Y-74904773D01*
X144763394Y-74904773D02*
X144620536Y-74976201D01*
X144620536Y-74976201D02*
X144191965Y-74976201D01*
X144191965Y-74976201D02*
X144049108Y-74904773D01*
X144049108Y-74904773D02*
X143977679Y-74833344D01*
X145834822Y-73476201D02*
X145977679Y-73476201D01*
X145977679Y-73476201D02*
X146120536Y-73547630D01*
X146120536Y-73547630D02*
X146191965Y-73619058D01*
X146191965Y-73619058D02*
X146263393Y-73761915D01*
X146263393Y-73761915D02*
X146334822Y-74047630D01*
X146334822Y-74047630D02*
X146334822Y-74404773D01*
X146334822Y-74404773D02*
X146263393Y-74690487D01*
X146263393Y-74690487D02*
X146191965Y-74833344D01*
X146191965Y-74833344D02*
X146120536Y-74904773D01*
X146120536Y-74904773D02*
X145977679Y-74976201D01*
X145977679Y-74976201D02*
X145834822Y-74976201D01*
X145834822Y-74976201D02*
X145691965Y-74904773D01*
X145691965Y-74904773D02*
X145620536Y-74833344D01*
X145620536Y-74833344D02*
X145549107Y-74690487D01*
X145549107Y-74690487D02*
X145477679Y-74404773D01*
X145477679Y-74404773D02*
X145477679Y-74047630D01*
X145477679Y-74047630D02*
X145549107Y-73761915D01*
X145549107Y-73761915D02*
X145620536Y-73619058D01*
X145620536Y-73619058D02*
X145691965Y-73547630D01*
X145691965Y-73547630D02*
X145834822Y-73476201D01*
X146834821Y-73976201D02*
X147191964Y-74976201D01*
X147191964Y-74976201D02*
X147549107Y-73976201D01*
X149191964Y-74547630D02*
X149906250Y-74547630D01*
X149049107Y-74976201D02*
X149549107Y-73476201D01*
X149549107Y-73476201D02*
X150049107Y-74976201D01*
X151406249Y-74833344D02*
X151334821Y-74904773D01*
X151334821Y-74904773D02*
X151120535Y-74976201D01*
X151120535Y-74976201D02*
X150977678Y-74976201D01*
X150977678Y-74976201D02*
X150763392Y-74904773D01*
X150763392Y-74904773D02*
X150620535Y-74761915D01*
X150620535Y-74761915D02*
X150549106Y-74619058D01*
X150549106Y-74619058D02*
X150477678Y-74333344D01*
X150477678Y-74333344D02*
X150477678Y-74119058D01*
X150477678Y-74119058D02*
X150549106Y-73833344D01*
X150549106Y-73833344D02*
X150620535Y-73690487D01*
X150620535Y-73690487D02*
X150763392Y-73547630D01*
X150763392Y-73547630D02*
X150977678Y-73476201D01*
X150977678Y-73476201D02*
X151120535Y-73476201D01*
X151120535Y-73476201D02*
X151334821Y-73547630D01*
X151334821Y-73547630D02*
X151406249Y-73619058D01*
X119334885Y-113124510D02*
X119334885Y-112624510D01*
X118549171Y-112624510D02*
X120049171Y-112624510D01*
X120049171Y-112624510D02*
X120049171Y-113338796D01*
X118549171Y-114695939D02*
X118549171Y-113838796D01*
X118549171Y-114267367D02*
X120049171Y-114267367D01*
X120049171Y-114267367D02*
X119834885Y-114124510D01*
X119834885Y-114124510D02*
X119692028Y-113981653D01*
X119692028Y-113981653D02*
X119620600Y-113838796D01*
X184355427Y-81100862D02*
X184355427Y-81600862D01*
X185141141Y-81600862D02*
X183641141Y-81600862D01*
X183641141Y-81600862D02*
X183641141Y-80886576D01*
X185141141Y-79529433D02*
X185141141Y-80386576D01*
X185141141Y-79958005D02*
X183641141Y-79958005D01*
X183641141Y-79958005D02*
X183855427Y-80100862D01*
X183855427Y-80100862D02*
X183998284Y-80243719D01*
X183998284Y-80243719D02*
X184069713Y-80386576D01*
D11*
X167383333Y-119407080D02*
X167335714Y-119454700D01*
X167335714Y-119454700D02*
X167192857Y-119502319D01*
X167192857Y-119502319D02*
X167097619Y-119502319D01*
X167097619Y-119502319D02*
X166954762Y-119454700D01*
X166954762Y-119454700D02*
X166859524Y-119359461D01*
X166859524Y-119359461D02*
X166811905Y-119264223D01*
X166811905Y-119264223D02*
X166764286Y-119073747D01*
X166764286Y-119073747D02*
X166764286Y-118930890D01*
X166764286Y-118930890D02*
X166811905Y-118740414D01*
X166811905Y-118740414D02*
X166859524Y-118645176D01*
X166859524Y-118645176D02*
X166954762Y-118549938D01*
X166954762Y-118549938D02*
X167097619Y-118502319D01*
X167097619Y-118502319D02*
X167192857Y-118502319D01*
X167192857Y-118502319D02*
X167335714Y-118549938D01*
X167335714Y-118549938D02*
X167383333Y-118597557D01*
X168335714Y-119502319D02*
X167764286Y-119502319D01*
X168050000Y-119502319D02*
X168050000Y-118502319D01*
X168050000Y-118502319D02*
X167954762Y-118645176D01*
X167954762Y-118645176D02*
X167859524Y-118740414D01*
X167859524Y-118740414D02*
X167764286Y-118788033D01*
X177746666Y-94174819D02*
X177746666Y-94889104D01*
X177746666Y-94889104D02*
X177699047Y-95031961D01*
X177699047Y-95031961D02*
X177603809Y-95127200D01*
X177603809Y-95127200D02*
X177460952Y-95174819D01*
X177460952Y-95174819D02*
X177365714Y-95174819D01*
X178175238Y-94270057D02*
X178222857Y-94222438D01*
X178222857Y-94222438D02*
X178318095Y-94174819D01*
X178318095Y-94174819D02*
X178556190Y-94174819D01*
X178556190Y-94174819D02*
X178651428Y-94222438D01*
X178651428Y-94222438D02*
X178699047Y-94270057D01*
X178699047Y-94270057D02*
X178746666Y-94365295D01*
X178746666Y-94365295D02*
X178746666Y-94460533D01*
X178746666Y-94460533D02*
X178699047Y-94603390D01*
X178699047Y-94603390D02*
X178127619Y-95174819D01*
X178127619Y-95174819D02*
X178746666Y-95174819D01*
X169944819Y-88223809D02*
X169944819Y-88033333D01*
X169944819Y-88033333D02*
X169992438Y-87938095D01*
X169992438Y-87938095D02*
X170087676Y-87842857D01*
X170087676Y-87842857D02*
X170278152Y-87795238D01*
X170278152Y-87795238D02*
X170611485Y-87795238D01*
X170611485Y-87795238D02*
X170801961Y-87842857D01*
X170801961Y-87842857D02*
X170897200Y-87938095D01*
X170897200Y-87938095D02*
X170944819Y-88033333D01*
X170944819Y-88033333D02*
X170944819Y-88223809D01*
X170944819Y-88223809D02*
X170897200Y-88319047D01*
X170897200Y-88319047D02*
X170801961Y-88414285D01*
X170801961Y-88414285D02*
X170611485Y-88461904D01*
X170611485Y-88461904D02*
X170278152Y-88461904D01*
X170278152Y-88461904D02*
X170087676Y-88414285D01*
X170087676Y-88414285D02*
X169992438Y-88319047D01*
X169992438Y-88319047D02*
X169944819Y-88223809D01*
X170278152Y-86938095D02*
X170944819Y-86938095D01*
X170278152Y-87366666D02*
X170801961Y-87366666D01*
X170801961Y-87366666D02*
X170897200Y-87319047D01*
X170897200Y-87319047D02*
X170944819Y-87223809D01*
X170944819Y-87223809D02*
X170944819Y-87080952D01*
X170944819Y-87080952D02*
X170897200Y-86985714D01*
X170897200Y-86985714D02*
X170849580Y-86938095D01*
X170278152Y-86604761D02*
X170278152Y-86223809D01*
X169944819Y-86461904D02*
X170801961Y-86461904D01*
X170801961Y-86461904D02*
X170897200Y-86414285D01*
X170897200Y-86414285D02*
X170944819Y-86319047D01*
X170944819Y-86319047D02*
X170944819Y-86223809D01*
X170278152Y-85890475D02*
X171278152Y-85890475D01*
X170325771Y-85890475D02*
X170278152Y-85795237D01*
X170278152Y-85795237D02*
X170278152Y-85604761D01*
X170278152Y-85604761D02*
X170325771Y-85509523D01*
X170325771Y-85509523D02*
X170373390Y-85461904D01*
X170373390Y-85461904D02*
X170468628Y-85414285D01*
X170468628Y-85414285D02*
X170754342Y-85414285D01*
X170754342Y-85414285D02*
X170849580Y-85461904D01*
X170849580Y-85461904D02*
X170897200Y-85509523D01*
X170897200Y-85509523D02*
X170944819Y-85604761D01*
X170944819Y-85604761D02*
X170944819Y-85795237D01*
X170944819Y-85795237D02*
X170897200Y-85890475D01*
X170278152Y-84557142D02*
X170944819Y-84557142D01*
X170278152Y-84985713D02*
X170801961Y-84985713D01*
X170801961Y-84985713D02*
X170897200Y-84938094D01*
X170897200Y-84938094D02*
X170944819Y-84842856D01*
X170944819Y-84842856D02*
X170944819Y-84699999D01*
X170944819Y-84699999D02*
X170897200Y-84604761D01*
X170897200Y-84604761D02*
X170849580Y-84557142D01*
X170278152Y-84223808D02*
X170278152Y-83842856D01*
X169944819Y-84080951D02*
X170801961Y-84080951D01*
X170801961Y-84080951D02*
X170897200Y-84033332D01*
X170897200Y-84033332D02*
X170944819Y-83938094D01*
X170944819Y-83938094D02*
X170944819Y-83842856D01*
X177756666Y-94174819D02*
X177756666Y-94889104D01*
X177756666Y-94889104D02*
X177709047Y-95031961D01*
X177709047Y-95031961D02*
X177613809Y-95127200D01*
X177613809Y-95127200D02*
X177470952Y-95174819D01*
X177470952Y-95174819D02*
X177375714Y-95174819D01*
X178185238Y-94270057D02*
X178232857Y-94222438D01*
X178232857Y-94222438D02*
X178328095Y-94174819D01*
X178328095Y-94174819D02*
X178566190Y-94174819D01*
X178566190Y-94174819D02*
X178661428Y-94222438D01*
X178661428Y-94222438D02*
X178709047Y-94270057D01*
X178709047Y-94270057D02*
X178756666Y-94365295D01*
X178756666Y-94365295D02*
X178756666Y-94460533D01*
X178756666Y-94460533D02*
X178709047Y-94603390D01*
X178709047Y-94603390D02*
X178137619Y-95174819D01*
X178137619Y-95174819D02*
X178756666Y-95174819D01*
X167403333Y-110279580D02*
X167355714Y-110327200D01*
X167355714Y-110327200D02*
X167212857Y-110374819D01*
X167212857Y-110374819D02*
X167117619Y-110374819D01*
X167117619Y-110374819D02*
X166974762Y-110327200D01*
X166974762Y-110327200D02*
X166879524Y-110231961D01*
X166879524Y-110231961D02*
X166831905Y-110136723D01*
X166831905Y-110136723D02*
X166784286Y-109946247D01*
X166784286Y-109946247D02*
X166784286Y-109803390D01*
X166784286Y-109803390D02*
X166831905Y-109612914D01*
X166831905Y-109612914D02*
X166879524Y-109517676D01*
X166879524Y-109517676D02*
X166974762Y-109422438D01*
X166974762Y-109422438D02*
X167117619Y-109374819D01*
X167117619Y-109374819D02*
X167212857Y-109374819D01*
X167212857Y-109374819D02*
X167355714Y-109422438D01*
X167355714Y-109422438D02*
X167403333Y-109470057D01*
X167784286Y-109470057D02*
X167831905Y-109422438D01*
X167831905Y-109422438D02*
X167927143Y-109374819D01*
X167927143Y-109374819D02*
X168165238Y-109374819D01*
X168165238Y-109374819D02*
X168260476Y-109422438D01*
X168260476Y-109422438D02*
X168308095Y-109470057D01*
X168308095Y-109470057D02*
X168355714Y-109565295D01*
X168355714Y-109565295D02*
X168355714Y-109660533D01*
X168355714Y-109660533D02*
X168308095Y-109803390D01*
X168308095Y-109803390D02*
X167736667Y-110374819D01*
X167736667Y-110374819D02*
X168355714Y-110374819D01*
X154108095Y-92844819D02*
X154108095Y-93654342D01*
X154108095Y-93654342D02*
X154155714Y-93749580D01*
X154155714Y-93749580D02*
X154203333Y-93797200D01*
X154203333Y-93797200D02*
X154298571Y-93844819D01*
X154298571Y-93844819D02*
X154489047Y-93844819D01*
X154489047Y-93844819D02*
X154584285Y-93797200D01*
X154584285Y-93797200D02*
X154631904Y-93749580D01*
X154631904Y-93749580D02*
X154679523Y-93654342D01*
X154679523Y-93654342D02*
X154679523Y-92844819D01*
X155679523Y-93844819D02*
X155108095Y-93844819D01*
X155393809Y-93844819D02*
X155393809Y-92844819D01*
X155393809Y-92844819D02*
X155298571Y-92987676D01*
X155298571Y-92987676D02*
X155203333Y-93082914D01*
X155203333Y-93082914D02*
X155108095Y-93130533D01*
X156778571Y-93864819D02*
X156778571Y-92864819D01*
X156778571Y-93341009D02*
X157349999Y-93341009D01*
X157349999Y-93864819D02*
X157349999Y-92864819D01*
X158349999Y-93864819D02*
X157778571Y-93864819D01*
X158064285Y-93864819D02*
X158064285Y-92864819D01*
X158064285Y-92864819D02*
X157969047Y-93007676D01*
X157969047Y-93007676D02*
X157873809Y-93102914D01*
X157873809Y-93102914D02*
X157778571Y-93150533D01*
X159302380Y-93864819D02*
X158730952Y-93864819D01*
X159016666Y-93864819D02*
X159016666Y-92864819D01*
X159016666Y-92864819D02*
X158921428Y-93007676D01*
X158921428Y-93007676D02*
X158826190Y-93102914D01*
X158826190Y-93102914D02*
X158730952Y-93150533D01*
X159683333Y-93579104D02*
X160159523Y-93579104D01*
X159588095Y-93864819D02*
X159921428Y-92864819D01*
X159921428Y-92864819D02*
X160254761Y-93864819D01*
X160540476Y-93579104D02*
X161016666Y-93579104D01*
X160445238Y-93864819D02*
X160778571Y-92864819D01*
X160778571Y-92864819D02*
X161111904Y-93864819D01*
X161969047Y-93864819D02*
X161397619Y-93864819D01*
X161683333Y-93864819D02*
X161683333Y-92864819D01*
X161683333Y-92864819D02*
X161588095Y-93007676D01*
X161588095Y-93007676D02*
X161492857Y-93102914D01*
X161492857Y-93102914D02*
X161397619Y-93150533D01*
X167683333Y-78049580D02*
X167635714Y-78097200D01*
X167635714Y-78097200D02*
X167492857Y-78144819D01*
X167492857Y-78144819D02*
X167397619Y-78144819D01*
X167397619Y-78144819D02*
X167254762Y-78097200D01*
X167254762Y-78097200D02*
X167159524Y-78001961D01*
X167159524Y-78001961D02*
X167111905Y-77906723D01*
X167111905Y-77906723D02*
X167064286Y-77716247D01*
X167064286Y-77716247D02*
X167064286Y-77573390D01*
X167064286Y-77573390D02*
X167111905Y-77382914D01*
X167111905Y-77382914D02*
X167159524Y-77287676D01*
X167159524Y-77287676D02*
X167254762Y-77192438D01*
X167254762Y-77192438D02*
X167397619Y-77144819D01*
X167397619Y-77144819D02*
X167492857Y-77144819D01*
X167492857Y-77144819D02*
X167635714Y-77192438D01*
X167635714Y-77192438D02*
X167683333Y-77240057D01*
X168064286Y-77240057D02*
X168111905Y-77192438D01*
X168111905Y-77192438D02*
X168207143Y-77144819D01*
X168207143Y-77144819D02*
X168445238Y-77144819D01*
X168445238Y-77144819D02*
X168540476Y-77192438D01*
X168540476Y-77192438D02*
X168588095Y-77240057D01*
X168588095Y-77240057D02*
X168635714Y-77335295D01*
X168635714Y-77335295D02*
X168635714Y-77430533D01*
X168635714Y-77430533D02*
X168588095Y-77573390D01*
X168588095Y-77573390D02*
X168016667Y-78144819D01*
X168016667Y-78144819D02*
X168635714Y-78144819D01*
X167973333Y-55387080D02*
X167925714Y-55434700D01*
X167925714Y-55434700D02*
X167782857Y-55482319D01*
X167782857Y-55482319D02*
X167687619Y-55482319D01*
X167687619Y-55482319D02*
X167544762Y-55434700D01*
X167544762Y-55434700D02*
X167449524Y-55339461D01*
X167449524Y-55339461D02*
X167401905Y-55244223D01*
X167401905Y-55244223D02*
X167354286Y-55053747D01*
X167354286Y-55053747D02*
X167354286Y-54910890D01*
X167354286Y-54910890D02*
X167401905Y-54720414D01*
X167401905Y-54720414D02*
X167449524Y-54625176D01*
X167449524Y-54625176D02*
X167544762Y-54529938D01*
X167544762Y-54529938D02*
X167687619Y-54482319D01*
X167687619Y-54482319D02*
X167782857Y-54482319D01*
X167782857Y-54482319D02*
X167925714Y-54529938D01*
X167925714Y-54529938D02*
X167973333Y-54577557D01*
X168925714Y-55482319D02*
X168354286Y-55482319D01*
X168640000Y-55482319D02*
X168640000Y-54482319D01*
X168640000Y-54482319D02*
X168544762Y-54625176D01*
X168544762Y-54625176D02*
X168449524Y-54720414D01*
X168449524Y-54720414D02*
X168354286Y-54768033D01*
X125836666Y-94214819D02*
X125836666Y-94929104D01*
X125836666Y-94929104D02*
X125789047Y-95071961D01*
X125789047Y-95071961D02*
X125693809Y-95167200D01*
X125693809Y-95167200D02*
X125550952Y-95214819D01*
X125550952Y-95214819D02*
X125455714Y-95214819D01*
X126836666Y-95214819D02*
X126265238Y-95214819D01*
X126550952Y-95214819D02*
X126550952Y-94214819D01*
X126550952Y-94214819D02*
X126455714Y-94357676D01*
X126455714Y-94357676D02*
X126360476Y-94452914D01*
X126360476Y-94452914D02*
X126265238Y-94500533D01*
X133094819Y-91753809D02*
X132094819Y-91753809D01*
X132094819Y-91753809D02*
X132094819Y-91372857D01*
X132094819Y-91372857D02*
X132142438Y-91277619D01*
X132142438Y-91277619D02*
X132190057Y-91230000D01*
X132190057Y-91230000D02*
X132285295Y-91182381D01*
X132285295Y-91182381D02*
X132428152Y-91182381D01*
X132428152Y-91182381D02*
X132523390Y-91230000D01*
X132523390Y-91230000D02*
X132571009Y-91277619D01*
X132571009Y-91277619D02*
X132618628Y-91372857D01*
X132618628Y-91372857D02*
X132618628Y-91753809D01*
X133094819Y-90610952D02*
X133047200Y-90706190D01*
X133047200Y-90706190D02*
X132999580Y-90753809D01*
X132999580Y-90753809D02*
X132904342Y-90801428D01*
X132904342Y-90801428D02*
X132618628Y-90801428D01*
X132618628Y-90801428D02*
X132523390Y-90753809D01*
X132523390Y-90753809D02*
X132475771Y-90706190D01*
X132475771Y-90706190D02*
X132428152Y-90610952D01*
X132428152Y-90610952D02*
X132428152Y-90468095D01*
X132428152Y-90468095D02*
X132475771Y-90372857D01*
X132475771Y-90372857D02*
X132523390Y-90325238D01*
X132523390Y-90325238D02*
X132618628Y-90277619D01*
X132618628Y-90277619D02*
X132904342Y-90277619D01*
X132904342Y-90277619D02*
X132999580Y-90325238D01*
X132999580Y-90325238D02*
X133047200Y-90372857D01*
X133047200Y-90372857D02*
X133094819Y-90468095D01*
X133094819Y-90468095D02*
X133094819Y-90610952D01*
X132428152Y-89944285D02*
X133094819Y-89753809D01*
X133094819Y-89753809D02*
X132618628Y-89563333D01*
X132618628Y-89563333D02*
X133094819Y-89372857D01*
X133094819Y-89372857D02*
X132428152Y-89182381D01*
X133047200Y-88420476D02*
X133094819Y-88515714D01*
X133094819Y-88515714D02*
X133094819Y-88706190D01*
X133094819Y-88706190D02*
X133047200Y-88801428D01*
X133047200Y-88801428D02*
X132951961Y-88849047D01*
X132951961Y-88849047D02*
X132571009Y-88849047D01*
X132571009Y-88849047D02*
X132475771Y-88801428D01*
X132475771Y-88801428D02*
X132428152Y-88706190D01*
X132428152Y-88706190D02*
X132428152Y-88515714D01*
X132428152Y-88515714D02*
X132475771Y-88420476D01*
X132475771Y-88420476D02*
X132571009Y-88372857D01*
X132571009Y-88372857D02*
X132666247Y-88372857D01*
X132666247Y-88372857D02*
X132761485Y-88849047D01*
X133094819Y-87944285D02*
X132428152Y-87944285D01*
X132618628Y-87944285D02*
X132523390Y-87896666D01*
X132523390Y-87896666D02*
X132475771Y-87849047D01*
X132475771Y-87849047D02*
X132428152Y-87753809D01*
X132428152Y-87753809D02*
X132428152Y-87658571D01*
X132190057Y-86610951D02*
X132142438Y-86563332D01*
X132142438Y-86563332D02*
X132094819Y-86468094D01*
X132094819Y-86468094D02*
X132094819Y-86229999D01*
X132094819Y-86229999D02*
X132142438Y-86134761D01*
X132142438Y-86134761D02*
X132190057Y-86087142D01*
X132190057Y-86087142D02*
X132285295Y-86039523D01*
X132285295Y-86039523D02*
X132380533Y-86039523D01*
X132380533Y-86039523D02*
X132523390Y-86087142D01*
X132523390Y-86087142D02*
X133094819Y-86658570D01*
X133094819Y-86658570D02*
X133094819Y-86039523D01*
X132094819Y-85706189D02*
X132094819Y-85087142D01*
X132094819Y-85087142D02*
X132475771Y-85420475D01*
X132475771Y-85420475D02*
X132475771Y-85277618D01*
X132475771Y-85277618D02*
X132523390Y-85182380D01*
X132523390Y-85182380D02*
X132571009Y-85134761D01*
X132571009Y-85134761D02*
X132666247Y-85087142D01*
X132666247Y-85087142D02*
X132904342Y-85087142D01*
X132904342Y-85087142D02*
X132999580Y-85134761D01*
X132999580Y-85134761D02*
X133047200Y-85182380D01*
X133047200Y-85182380D02*
X133094819Y-85277618D01*
X133094819Y-85277618D02*
X133094819Y-85563332D01*
X133094819Y-85563332D02*
X133047200Y-85658570D01*
X133047200Y-85658570D02*
X132999580Y-85706189D01*
X132094819Y-84468094D02*
X132094819Y-84372856D01*
X132094819Y-84372856D02*
X132142438Y-84277618D01*
X132142438Y-84277618D02*
X132190057Y-84229999D01*
X132190057Y-84229999D02*
X132285295Y-84182380D01*
X132285295Y-84182380D02*
X132475771Y-84134761D01*
X132475771Y-84134761D02*
X132713866Y-84134761D01*
X132713866Y-84134761D02*
X132904342Y-84182380D01*
X132904342Y-84182380D02*
X132999580Y-84229999D01*
X132999580Y-84229999D02*
X133047200Y-84277618D01*
X133047200Y-84277618D02*
X133094819Y-84372856D01*
X133094819Y-84372856D02*
X133094819Y-84468094D01*
X133094819Y-84468094D02*
X133047200Y-84563332D01*
X133047200Y-84563332D02*
X132999580Y-84610951D01*
X132999580Y-84610951D02*
X132904342Y-84658570D01*
X132904342Y-84658570D02*
X132713866Y-84706189D01*
X132713866Y-84706189D02*
X132475771Y-84706189D01*
X132475771Y-84706189D02*
X132285295Y-84658570D01*
X132285295Y-84658570D02*
X132190057Y-84610951D01*
X132190057Y-84610951D02*
X132142438Y-84563332D01*
X132142438Y-84563332D02*
X132094819Y-84468094D01*
X132094819Y-83849046D02*
X133094819Y-83515713D01*
X133094819Y-83515713D02*
X132094819Y-83182380D01*
X132809104Y-82134760D02*
X132809104Y-81658570D01*
X133094819Y-82229998D02*
X132094819Y-81896665D01*
X132094819Y-81896665D02*
X133094819Y-81563332D01*
X132999580Y-80658570D02*
X133047200Y-80706189D01*
X133047200Y-80706189D02*
X133094819Y-80849046D01*
X133094819Y-80849046D02*
X133094819Y-80944284D01*
X133094819Y-80944284D02*
X133047200Y-81087141D01*
X133047200Y-81087141D02*
X132951961Y-81182379D01*
X132951961Y-81182379D02*
X132856723Y-81229998D01*
X132856723Y-81229998D02*
X132666247Y-81277617D01*
X132666247Y-81277617D02*
X132523390Y-81277617D01*
X132523390Y-81277617D02*
X132332914Y-81229998D01*
X132332914Y-81229998D02*
X132237676Y-81182379D01*
X132237676Y-81182379D02*
X132142438Y-81087141D01*
X132142438Y-81087141D02*
X132094819Y-80944284D01*
X132094819Y-80944284D02*
X132094819Y-80849046D01*
X132094819Y-80849046D02*
X132142438Y-80706189D01*
X132142438Y-80706189D02*
X132190057Y-80658570D01*
X154028095Y-106254819D02*
X154028095Y-107064342D01*
X154028095Y-107064342D02*
X154075714Y-107159580D01*
X154075714Y-107159580D02*
X154123333Y-107207200D01*
X154123333Y-107207200D02*
X154218571Y-107254819D01*
X154218571Y-107254819D02*
X154409047Y-107254819D01*
X154409047Y-107254819D02*
X154504285Y-107207200D01*
X154504285Y-107207200D02*
X154551904Y-107159580D01*
X154551904Y-107159580D02*
X154599523Y-107064342D01*
X154599523Y-107064342D02*
X154599523Y-106254819D01*
X155028095Y-106350057D02*
X155075714Y-106302438D01*
X155075714Y-106302438D02*
X155170952Y-106254819D01*
X155170952Y-106254819D02*
X155409047Y-106254819D01*
X155409047Y-106254819D02*
X155504285Y-106302438D01*
X155504285Y-106302438D02*
X155551904Y-106350057D01*
X155551904Y-106350057D02*
X155599523Y-106445295D01*
X155599523Y-106445295D02*
X155599523Y-106540533D01*
X155599523Y-106540533D02*
X155551904Y-106683390D01*
X155551904Y-106683390D02*
X154980476Y-107254819D01*
X154980476Y-107254819D02*
X155599523Y-107254819D01*
X156818571Y-107194819D02*
X156818571Y-106194819D01*
X156818571Y-106671009D02*
X157389999Y-106671009D01*
X157389999Y-107194819D02*
X157389999Y-106194819D01*
X158389999Y-107194819D02*
X157818571Y-107194819D01*
X158104285Y-107194819D02*
X158104285Y-106194819D01*
X158104285Y-106194819D02*
X158009047Y-106337676D01*
X158009047Y-106337676D02*
X157913809Y-106432914D01*
X157913809Y-106432914D02*
X157818571Y-106480533D01*
X159342380Y-107194819D02*
X158770952Y-107194819D01*
X159056666Y-107194819D02*
X159056666Y-106194819D01*
X159056666Y-106194819D02*
X158961428Y-106337676D01*
X158961428Y-106337676D02*
X158866190Y-106432914D01*
X158866190Y-106432914D02*
X158770952Y-106480533D01*
X159723333Y-106909104D02*
X160199523Y-106909104D01*
X159628095Y-107194819D02*
X159961428Y-106194819D01*
X159961428Y-106194819D02*
X160294761Y-107194819D01*
X160580476Y-106909104D02*
X161056666Y-106909104D01*
X160485238Y-107194819D02*
X160818571Y-106194819D01*
X160818571Y-106194819D02*
X161151904Y-107194819D01*
X162009047Y-107194819D02*
X161437619Y-107194819D01*
X161723333Y-107194819D02*
X161723333Y-106194819D01*
X161723333Y-106194819D02*
X161628095Y-106337676D01*
X161628095Y-106337676D02*
X161532857Y-106432914D01*
X161532857Y-106432914D02*
X161437619Y-106480533D01*
X125556666Y-126444819D02*
X125556666Y-127159104D01*
X125556666Y-127159104D02*
X125509047Y-127301961D01*
X125509047Y-127301961D02*
X125413809Y-127397200D01*
X125413809Y-127397200D02*
X125270952Y-127444819D01*
X125270952Y-127444819D02*
X125175714Y-127444819D01*
X126556666Y-127444819D02*
X125985238Y-127444819D01*
X126270952Y-127444819D02*
X126270952Y-126444819D01*
X126270952Y-126444819D02*
X126175714Y-126587676D01*
X126175714Y-126587676D02*
X126080476Y-126682914D01*
X126080476Y-126682914D02*
X125985238Y-126730533D01*
X132814819Y-123983809D02*
X131814819Y-123983809D01*
X131814819Y-123983809D02*
X131814819Y-123602857D01*
X131814819Y-123602857D02*
X131862438Y-123507619D01*
X131862438Y-123507619D02*
X131910057Y-123460000D01*
X131910057Y-123460000D02*
X132005295Y-123412381D01*
X132005295Y-123412381D02*
X132148152Y-123412381D01*
X132148152Y-123412381D02*
X132243390Y-123460000D01*
X132243390Y-123460000D02*
X132291009Y-123507619D01*
X132291009Y-123507619D02*
X132338628Y-123602857D01*
X132338628Y-123602857D02*
X132338628Y-123983809D01*
X132814819Y-122840952D02*
X132767200Y-122936190D01*
X132767200Y-122936190D02*
X132719580Y-122983809D01*
X132719580Y-122983809D02*
X132624342Y-123031428D01*
X132624342Y-123031428D02*
X132338628Y-123031428D01*
X132338628Y-123031428D02*
X132243390Y-122983809D01*
X132243390Y-122983809D02*
X132195771Y-122936190D01*
X132195771Y-122936190D02*
X132148152Y-122840952D01*
X132148152Y-122840952D02*
X132148152Y-122698095D01*
X132148152Y-122698095D02*
X132195771Y-122602857D01*
X132195771Y-122602857D02*
X132243390Y-122555238D01*
X132243390Y-122555238D02*
X132338628Y-122507619D01*
X132338628Y-122507619D02*
X132624342Y-122507619D01*
X132624342Y-122507619D02*
X132719580Y-122555238D01*
X132719580Y-122555238D02*
X132767200Y-122602857D01*
X132767200Y-122602857D02*
X132814819Y-122698095D01*
X132814819Y-122698095D02*
X132814819Y-122840952D01*
X132148152Y-122174285D02*
X132814819Y-121983809D01*
X132814819Y-121983809D02*
X132338628Y-121793333D01*
X132338628Y-121793333D02*
X132814819Y-121602857D01*
X132814819Y-121602857D02*
X132148152Y-121412381D01*
X132767200Y-120650476D02*
X132814819Y-120745714D01*
X132814819Y-120745714D02*
X132814819Y-120936190D01*
X132814819Y-120936190D02*
X132767200Y-121031428D01*
X132767200Y-121031428D02*
X132671961Y-121079047D01*
X132671961Y-121079047D02*
X132291009Y-121079047D01*
X132291009Y-121079047D02*
X132195771Y-121031428D01*
X132195771Y-121031428D02*
X132148152Y-120936190D01*
X132148152Y-120936190D02*
X132148152Y-120745714D01*
X132148152Y-120745714D02*
X132195771Y-120650476D01*
X132195771Y-120650476D02*
X132291009Y-120602857D01*
X132291009Y-120602857D02*
X132386247Y-120602857D01*
X132386247Y-120602857D02*
X132481485Y-121079047D01*
X132814819Y-120174285D02*
X132148152Y-120174285D01*
X132338628Y-120174285D02*
X132243390Y-120126666D01*
X132243390Y-120126666D02*
X132195771Y-120079047D01*
X132195771Y-120079047D02*
X132148152Y-119983809D01*
X132148152Y-119983809D02*
X132148152Y-119888571D01*
X131910057Y-118840951D02*
X131862438Y-118793332D01*
X131862438Y-118793332D02*
X131814819Y-118698094D01*
X131814819Y-118698094D02*
X131814819Y-118459999D01*
X131814819Y-118459999D02*
X131862438Y-118364761D01*
X131862438Y-118364761D02*
X131910057Y-118317142D01*
X131910057Y-118317142D02*
X132005295Y-118269523D01*
X132005295Y-118269523D02*
X132100533Y-118269523D01*
X132100533Y-118269523D02*
X132243390Y-118317142D01*
X132243390Y-118317142D02*
X132814819Y-118888570D01*
X132814819Y-118888570D02*
X132814819Y-118269523D01*
X131814819Y-117936189D02*
X131814819Y-117317142D01*
X131814819Y-117317142D02*
X132195771Y-117650475D01*
X132195771Y-117650475D02*
X132195771Y-117507618D01*
X132195771Y-117507618D02*
X132243390Y-117412380D01*
X132243390Y-117412380D02*
X132291009Y-117364761D01*
X132291009Y-117364761D02*
X132386247Y-117317142D01*
X132386247Y-117317142D02*
X132624342Y-117317142D01*
X132624342Y-117317142D02*
X132719580Y-117364761D01*
X132719580Y-117364761D02*
X132767200Y-117412380D01*
X132767200Y-117412380D02*
X132814819Y-117507618D01*
X132814819Y-117507618D02*
X132814819Y-117793332D01*
X132814819Y-117793332D02*
X132767200Y-117888570D01*
X132767200Y-117888570D02*
X132719580Y-117936189D01*
X131814819Y-116698094D02*
X131814819Y-116602856D01*
X131814819Y-116602856D02*
X131862438Y-116507618D01*
X131862438Y-116507618D02*
X131910057Y-116459999D01*
X131910057Y-116459999D02*
X132005295Y-116412380D01*
X132005295Y-116412380D02*
X132195771Y-116364761D01*
X132195771Y-116364761D02*
X132433866Y-116364761D01*
X132433866Y-116364761D02*
X132624342Y-116412380D01*
X132624342Y-116412380D02*
X132719580Y-116459999D01*
X132719580Y-116459999D02*
X132767200Y-116507618D01*
X132767200Y-116507618D02*
X132814819Y-116602856D01*
X132814819Y-116602856D02*
X132814819Y-116698094D01*
X132814819Y-116698094D02*
X132767200Y-116793332D01*
X132767200Y-116793332D02*
X132719580Y-116840951D01*
X132719580Y-116840951D02*
X132624342Y-116888570D01*
X132624342Y-116888570D02*
X132433866Y-116936189D01*
X132433866Y-116936189D02*
X132195771Y-116936189D01*
X132195771Y-116936189D02*
X132005295Y-116888570D01*
X132005295Y-116888570D02*
X131910057Y-116840951D01*
X131910057Y-116840951D02*
X131862438Y-116793332D01*
X131862438Y-116793332D02*
X131814819Y-116698094D01*
X131814819Y-116079046D02*
X132814819Y-115745713D01*
X132814819Y-115745713D02*
X131814819Y-115412380D01*
X132529104Y-114364760D02*
X132529104Y-113888570D01*
X132814819Y-114459998D02*
X131814819Y-114126665D01*
X131814819Y-114126665D02*
X132814819Y-113793332D01*
X132719580Y-112888570D02*
X132767200Y-112936189D01*
X132767200Y-112936189D02*
X132814819Y-113079046D01*
X132814819Y-113079046D02*
X132814819Y-113174284D01*
X132814819Y-113174284D02*
X132767200Y-113317141D01*
X132767200Y-113317141D02*
X132671961Y-113412379D01*
X132671961Y-113412379D02*
X132576723Y-113459998D01*
X132576723Y-113459998D02*
X132386247Y-113507617D01*
X132386247Y-113507617D02*
X132243390Y-113507617D01*
X132243390Y-113507617D02*
X132052914Y-113459998D01*
X132052914Y-113459998D02*
X131957676Y-113412379D01*
X131957676Y-113412379D02*
X131862438Y-113317141D01*
X131862438Y-113317141D02*
X131814819Y-113174284D01*
X131814819Y-113174284D02*
X131814819Y-113079046D01*
X131814819Y-113079046D02*
X131862438Y-112936189D01*
X131862438Y-112936189D02*
X131910057Y-112888570D01*
X126146666Y-62424819D02*
X126146666Y-63139104D01*
X126146666Y-63139104D02*
X126099047Y-63281961D01*
X126099047Y-63281961D02*
X126003809Y-63377200D01*
X126003809Y-63377200D02*
X125860952Y-63424819D01*
X125860952Y-63424819D02*
X125765714Y-63424819D01*
X127146666Y-63424819D02*
X126575238Y-63424819D01*
X126860952Y-63424819D02*
X126860952Y-62424819D01*
X126860952Y-62424819D02*
X126765714Y-62567676D01*
X126765714Y-62567676D02*
X126670476Y-62662914D01*
X126670476Y-62662914D02*
X126575238Y-62710533D01*
X133404819Y-59963809D02*
X132404819Y-59963809D01*
X132404819Y-59963809D02*
X132404819Y-59582857D01*
X132404819Y-59582857D02*
X132452438Y-59487619D01*
X132452438Y-59487619D02*
X132500057Y-59440000D01*
X132500057Y-59440000D02*
X132595295Y-59392381D01*
X132595295Y-59392381D02*
X132738152Y-59392381D01*
X132738152Y-59392381D02*
X132833390Y-59440000D01*
X132833390Y-59440000D02*
X132881009Y-59487619D01*
X132881009Y-59487619D02*
X132928628Y-59582857D01*
X132928628Y-59582857D02*
X132928628Y-59963809D01*
X133404819Y-58820952D02*
X133357200Y-58916190D01*
X133357200Y-58916190D02*
X133309580Y-58963809D01*
X133309580Y-58963809D02*
X133214342Y-59011428D01*
X133214342Y-59011428D02*
X132928628Y-59011428D01*
X132928628Y-59011428D02*
X132833390Y-58963809D01*
X132833390Y-58963809D02*
X132785771Y-58916190D01*
X132785771Y-58916190D02*
X132738152Y-58820952D01*
X132738152Y-58820952D02*
X132738152Y-58678095D01*
X132738152Y-58678095D02*
X132785771Y-58582857D01*
X132785771Y-58582857D02*
X132833390Y-58535238D01*
X132833390Y-58535238D02*
X132928628Y-58487619D01*
X132928628Y-58487619D02*
X133214342Y-58487619D01*
X133214342Y-58487619D02*
X133309580Y-58535238D01*
X133309580Y-58535238D02*
X133357200Y-58582857D01*
X133357200Y-58582857D02*
X133404819Y-58678095D01*
X133404819Y-58678095D02*
X133404819Y-58820952D01*
X132738152Y-58154285D02*
X133404819Y-57963809D01*
X133404819Y-57963809D02*
X132928628Y-57773333D01*
X132928628Y-57773333D02*
X133404819Y-57582857D01*
X133404819Y-57582857D02*
X132738152Y-57392381D01*
X133357200Y-56630476D02*
X133404819Y-56725714D01*
X133404819Y-56725714D02*
X133404819Y-56916190D01*
X133404819Y-56916190D02*
X133357200Y-57011428D01*
X133357200Y-57011428D02*
X133261961Y-57059047D01*
X133261961Y-57059047D02*
X132881009Y-57059047D01*
X132881009Y-57059047D02*
X132785771Y-57011428D01*
X132785771Y-57011428D02*
X132738152Y-56916190D01*
X132738152Y-56916190D02*
X132738152Y-56725714D01*
X132738152Y-56725714D02*
X132785771Y-56630476D01*
X132785771Y-56630476D02*
X132881009Y-56582857D01*
X132881009Y-56582857D02*
X132976247Y-56582857D01*
X132976247Y-56582857D02*
X133071485Y-57059047D01*
X133404819Y-56154285D02*
X132738152Y-56154285D01*
X132928628Y-56154285D02*
X132833390Y-56106666D01*
X132833390Y-56106666D02*
X132785771Y-56059047D01*
X132785771Y-56059047D02*
X132738152Y-55963809D01*
X132738152Y-55963809D02*
X132738152Y-55868571D01*
X132500057Y-54820951D02*
X132452438Y-54773332D01*
X132452438Y-54773332D02*
X132404819Y-54678094D01*
X132404819Y-54678094D02*
X132404819Y-54439999D01*
X132404819Y-54439999D02*
X132452438Y-54344761D01*
X132452438Y-54344761D02*
X132500057Y-54297142D01*
X132500057Y-54297142D02*
X132595295Y-54249523D01*
X132595295Y-54249523D02*
X132690533Y-54249523D01*
X132690533Y-54249523D02*
X132833390Y-54297142D01*
X132833390Y-54297142D02*
X133404819Y-54868570D01*
X133404819Y-54868570D02*
X133404819Y-54249523D01*
X132404819Y-53916189D02*
X132404819Y-53297142D01*
X132404819Y-53297142D02*
X132785771Y-53630475D01*
X132785771Y-53630475D02*
X132785771Y-53487618D01*
X132785771Y-53487618D02*
X132833390Y-53392380D01*
X132833390Y-53392380D02*
X132881009Y-53344761D01*
X132881009Y-53344761D02*
X132976247Y-53297142D01*
X132976247Y-53297142D02*
X133214342Y-53297142D01*
X133214342Y-53297142D02*
X133309580Y-53344761D01*
X133309580Y-53344761D02*
X133357200Y-53392380D01*
X133357200Y-53392380D02*
X133404819Y-53487618D01*
X133404819Y-53487618D02*
X133404819Y-53773332D01*
X133404819Y-53773332D02*
X133357200Y-53868570D01*
X133357200Y-53868570D02*
X133309580Y-53916189D01*
X132404819Y-52678094D02*
X132404819Y-52582856D01*
X132404819Y-52582856D02*
X132452438Y-52487618D01*
X132452438Y-52487618D02*
X132500057Y-52439999D01*
X132500057Y-52439999D02*
X132595295Y-52392380D01*
X132595295Y-52392380D02*
X132785771Y-52344761D01*
X132785771Y-52344761D02*
X133023866Y-52344761D01*
X133023866Y-52344761D02*
X133214342Y-52392380D01*
X133214342Y-52392380D02*
X133309580Y-52439999D01*
X133309580Y-52439999D02*
X133357200Y-52487618D01*
X133357200Y-52487618D02*
X133404819Y-52582856D01*
X133404819Y-52582856D02*
X133404819Y-52678094D01*
X133404819Y-52678094D02*
X133357200Y-52773332D01*
X133357200Y-52773332D02*
X133309580Y-52820951D01*
X133309580Y-52820951D02*
X133214342Y-52868570D01*
X133214342Y-52868570D02*
X133023866Y-52916189D01*
X133023866Y-52916189D02*
X132785771Y-52916189D01*
X132785771Y-52916189D02*
X132595295Y-52868570D01*
X132595295Y-52868570D02*
X132500057Y-52820951D01*
X132500057Y-52820951D02*
X132452438Y-52773332D01*
X132452438Y-52773332D02*
X132404819Y-52678094D01*
X132404819Y-52059046D02*
X133404819Y-51725713D01*
X133404819Y-51725713D02*
X132404819Y-51392380D01*
X133119104Y-50344760D02*
X133119104Y-49868570D01*
X133404819Y-50439998D02*
X132404819Y-50106665D01*
X132404819Y-50106665D02*
X133404819Y-49773332D01*
X133309580Y-48868570D02*
X133357200Y-48916189D01*
X133357200Y-48916189D02*
X133404819Y-49059046D01*
X133404819Y-49059046D02*
X133404819Y-49154284D01*
X133404819Y-49154284D02*
X133357200Y-49297141D01*
X133357200Y-49297141D02*
X133261961Y-49392379D01*
X133261961Y-49392379D02*
X133166723Y-49439998D01*
X133166723Y-49439998D02*
X132976247Y-49487617D01*
X132976247Y-49487617D02*
X132833390Y-49487617D01*
X132833390Y-49487617D02*
X132642914Y-49439998D01*
X132642914Y-49439998D02*
X132547676Y-49392379D01*
X132547676Y-49392379D02*
X132452438Y-49297141D01*
X132452438Y-49297141D02*
X132404819Y-49154284D01*
X132404819Y-49154284D02*
X132404819Y-49059046D01*
X132404819Y-49059046D02*
X132452438Y-48916189D01*
X132452438Y-48916189D02*
X132500057Y-48868570D01*
X154618095Y-42234819D02*
X154618095Y-43044342D01*
X154618095Y-43044342D02*
X154665714Y-43139580D01*
X154665714Y-43139580D02*
X154713333Y-43187200D01*
X154713333Y-43187200D02*
X154808571Y-43234819D01*
X154808571Y-43234819D02*
X154999047Y-43234819D01*
X154999047Y-43234819D02*
X155094285Y-43187200D01*
X155094285Y-43187200D02*
X155141904Y-43139580D01*
X155141904Y-43139580D02*
X155189523Y-43044342D01*
X155189523Y-43044342D02*
X155189523Y-42234819D01*
X155618095Y-42330057D02*
X155665714Y-42282438D01*
X155665714Y-42282438D02*
X155760952Y-42234819D01*
X155760952Y-42234819D02*
X155999047Y-42234819D01*
X155999047Y-42234819D02*
X156094285Y-42282438D01*
X156094285Y-42282438D02*
X156141904Y-42330057D01*
X156141904Y-42330057D02*
X156189523Y-42425295D01*
X156189523Y-42425295D02*
X156189523Y-42520533D01*
X156189523Y-42520533D02*
X156141904Y-42663390D01*
X156141904Y-42663390D02*
X155570476Y-43234819D01*
X155570476Y-43234819D02*
X156189523Y-43234819D01*
X157408571Y-43174819D02*
X157408571Y-42174819D01*
X157408571Y-42651009D02*
X157979999Y-42651009D01*
X157979999Y-43174819D02*
X157979999Y-42174819D01*
X158979999Y-43174819D02*
X158408571Y-43174819D01*
X158694285Y-43174819D02*
X158694285Y-42174819D01*
X158694285Y-42174819D02*
X158599047Y-42317676D01*
X158599047Y-42317676D02*
X158503809Y-42412914D01*
X158503809Y-42412914D02*
X158408571Y-42460533D01*
X159932380Y-43174819D02*
X159360952Y-43174819D01*
X159646666Y-43174819D02*
X159646666Y-42174819D01*
X159646666Y-42174819D02*
X159551428Y-42317676D01*
X159551428Y-42317676D02*
X159456190Y-42412914D01*
X159456190Y-42412914D02*
X159360952Y-42460533D01*
X160313333Y-42889104D02*
X160789523Y-42889104D01*
X160218095Y-43174819D02*
X160551428Y-42174819D01*
X160551428Y-42174819D02*
X160884761Y-43174819D01*
X161170476Y-42889104D02*
X161646666Y-42889104D01*
X161075238Y-43174819D02*
X161408571Y-42174819D01*
X161408571Y-42174819D02*
X161741904Y-43174819D01*
X162599047Y-43174819D02*
X162027619Y-43174819D01*
X162313333Y-43174819D02*
X162313333Y-42174819D01*
X162313333Y-42174819D02*
X162218095Y-42317676D01*
X162218095Y-42317676D02*
X162122857Y-42412914D01*
X162122857Y-42412914D02*
X162027619Y-42460533D01*
X178056666Y-62384819D02*
X178056666Y-63099104D01*
X178056666Y-63099104D02*
X178009047Y-63241961D01*
X178009047Y-63241961D02*
X177913809Y-63337200D01*
X177913809Y-63337200D02*
X177770952Y-63384819D01*
X177770952Y-63384819D02*
X177675714Y-63384819D01*
X178485238Y-62480057D02*
X178532857Y-62432438D01*
X178532857Y-62432438D02*
X178628095Y-62384819D01*
X178628095Y-62384819D02*
X178866190Y-62384819D01*
X178866190Y-62384819D02*
X178961428Y-62432438D01*
X178961428Y-62432438D02*
X179009047Y-62480057D01*
X179009047Y-62480057D02*
X179056666Y-62575295D01*
X179056666Y-62575295D02*
X179056666Y-62670533D01*
X179056666Y-62670533D02*
X179009047Y-62813390D01*
X179009047Y-62813390D02*
X178437619Y-63384819D01*
X178437619Y-63384819D02*
X179056666Y-63384819D01*
X170254819Y-56433809D02*
X170254819Y-56243333D01*
X170254819Y-56243333D02*
X170302438Y-56148095D01*
X170302438Y-56148095D02*
X170397676Y-56052857D01*
X170397676Y-56052857D02*
X170588152Y-56005238D01*
X170588152Y-56005238D02*
X170921485Y-56005238D01*
X170921485Y-56005238D02*
X171111961Y-56052857D01*
X171111961Y-56052857D02*
X171207200Y-56148095D01*
X171207200Y-56148095D02*
X171254819Y-56243333D01*
X171254819Y-56243333D02*
X171254819Y-56433809D01*
X171254819Y-56433809D02*
X171207200Y-56529047D01*
X171207200Y-56529047D02*
X171111961Y-56624285D01*
X171111961Y-56624285D02*
X170921485Y-56671904D01*
X170921485Y-56671904D02*
X170588152Y-56671904D01*
X170588152Y-56671904D02*
X170397676Y-56624285D01*
X170397676Y-56624285D02*
X170302438Y-56529047D01*
X170302438Y-56529047D02*
X170254819Y-56433809D01*
X170588152Y-55148095D02*
X171254819Y-55148095D01*
X170588152Y-55576666D02*
X171111961Y-55576666D01*
X171111961Y-55576666D02*
X171207200Y-55529047D01*
X171207200Y-55529047D02*
X171254819Y-55433809D01*
X171254819Y-55433809D02*
X171254819Y-55290952D01*
X171254819Y-55290952D02*
X171207200Y-55195714D01*
X171207200Y-55195714D02*
X171159580Y-55148095D01*
X170588152Y-54814761D02*
X170588152Y-54433809D01*
X170254819Y-54671904D02*
X171111961Y-54671904D01*
X171111961Y-54671904D02*
X171207200Y-54624285D01*
X171207200Y-54624285D02*
X171254819Y-54529047D01*
X171254819Y-54529047D02*
X171254819Y-54433809D01*
X170588152Y-54100475D02*
X171588152Y-54100475D01*
X170635771Y-54100475D02*
X170588152Y-54005237D01*
X170588152Y-54005237D02*
X170588152Y-53814761D01*
X170588152Y-53814761D02*
X170635771Y-53719523D01*
X170635771Y-53719523D02*
X170683390Y-53671904D01*
X170683390Y-53671904D02*
X170778628Y-53624285D01*
X170778628Y-53624285D02*
X171064342Y-53624285D01*
X171064342Y-53624285D02*
X171159580Y-53671904D01*
X171159580Y-53671904D02*
X171207200Y-53719523D01*
X171207200Y-53719523D02*
X171254819Y-53814761D01*
X171254819Y-53814761D02*
X171254819Y-54005237D01*
X171254819Y-54005237D02*
X171207200Y-54100475D01*
X170588152Y-52767142D02*
X171254819Y-52767142D01*
X170588152Y-53195713D02*
X171111961Y-53195713D01*
X171111961Y-53195713D02*
X171207200Y-53148094D01*
X171207200Y-53148094D02*
X171254819Y-53052856D01*
X171254819Y-53052856D02*
X171254819Y-52909999D01*
X171254819Y-52909999D02*
X171207200Y-52814761D01*
X171207200Y-52814761D02*
X171159580Y-52767142D01*
X170588152Y-52433808D02*
X170588152Y-52052856D01*
X170254819Y-52290951D02*
X171111961Y-52290951D01*
X171111961Y-52290951D02*
X171207200Y-52243332D01*
X171207200Y-52243332D02*
X171254819Y-52148094D01*
X171254819Y-52148094D02*
X171254819Y-52052856D01*
X178066666Y-62384819D02*
X178066666Y-63099104D01*
X178066666Y-63099104D02*
X178019047Y-63241961D01*
X178019047Y-63241961D02*
X177923809Y-63337200D01*
X177923809Y-63337200D02*
X177780952Y-63384819D01*
X177780952Y-63384819D02*
X177685714Y-63384819D01*
X178495238Y-62480057D02*
X178542857Y-62432438D01*
X178542857Y-62432438D02*
X178638095Y-62384819D01*
X178638095Y-62384819D02*
X178876190Y-62384819D01*
X178876190Y-62384819D02*
X178971428Y-62432438D01*
X178971428Y-62432438D02*
X179019047Y-62480057D01*
X179019047Y-62480057D02*
X179066666Y-62575295D01*
X179066666Y-62575295D02*
X179066666Y-62670533D01*
X179066666Y-62670533D02*
X179019047Y-62813390D01*
X179019047Y-62813390D02*
X178447619Y-63384819D01*
X178447619Y-63384819D02*
X179066666Y-63384819D01*
X154418095Y-61054819D02*
X154418095Y-61864342D01*
X154418095Y-61864342D02*
X154465714Y-61959580D01*
X154465714Y-61959580D02*
X154513333Y-62007200D01*
X154513333Y-62007200D02*
X154608571Y-62054819D01*
X154608571Y-62054819D02*
X154799047Y-62054819D01*
X154799047Y-62054819D02*
X154894285Y-62007200D01*
X154894285Y-62007200D02*
X154941904Y-61959580D01*
X154941904Y-61959580D02*
X154989523Y-61864342D01*
X154989523Y-61864342D02*
X154989523Y-61054819D01*
X155989523Y-62054819D02*
X155418095Y-62054819D01*
X155703809Y-62054819D02*
X155703809Y-61054819D01*
X155703809Y-61054819D02*
X155608571Y-61197676D01*
X155608571Y-61197676D02*
X155513333Y-61292914D01*
X155513333Y-61292914D02*
X155418095Y-61340533D01*
X157088571Y-62074819D02*
X157088571Y-61074819D01*
X157088571Y-61551009D02*
X157659999Y-61551009D01*
X157659999Y-62074819D02*
X157659999Y-61074819D01*
X158659999Y-62074819D02*
X158088571Y-62074819D01*
X158374285Y-62074819D02*
X158374285Y-61074819D01*
X158374285Y-61074819D02*
X158279047Y-61217676D01*
X158279047Y-61217676D02*
X158183809Y-61312914D01*
X158183809Y-61312914D02*
X158088571Y-61360533D01*
X159612380Y-62074819D02*
X159040952Y-62074819D01*
X159326666Y-62074819D02*
X159326666Y-61074819D01*
X159326666Y-61074819D02*
X159231428Y-61217676D01*
X159231428Y-61217676D02*
X159136190Y-61312914D01*
X159136190Y-61312914D02*
X159040952Y-61360533D01*
X159993333Y-61789104D02*
X160469523Y-61789104D01*
X159898095Y-62074819D02*
X160231428Y-61074819D01*
X160231428Y-61074819D02*
X160564761Y-62074819D01*
X160850476Y-61789104D02*
X161326666Y-61789104D01*
X160755238Y-62074819D02*
X161088571Y-61074819D01*
X161088571Y-61074819D02*
X161421904Y-62074819D01*
X162279047Y-62074819D02*
X161707619Y-62074819D01*
X161993333Y-62074819D02*
X161993333Y-61074819D01*
X161993333Y-61074819D02*
X161898095Y-61217676D01*
X161898095Y-61217676D02*
X161802857Y-61312914D01*
X161802857Y-61312914D02*
X161707619Y-61360533D01*
X154308095Y-74024819D02*
X154308095Y-74834342D01*
X154308095Y-74834342D02*
X154355714Y-74929580D01*
X154355714Y-74929580D02*
X154403333Y-74977200D01*
X154403333Y-74977200D02*
X154498571Y-75024819D01*
X154498571Y-75024819D02*
X154689047Y-75024819D01*
X154689047Y-75024819D02*
X154784285Y-74977200D01*
X154784285Y-74977200D02*
X154831904Y-74929580D01*
X154831904Y-74929580D02*
X154879523Y-74834342D01*
X154879523Y-74834342D02*
X154879523Y-74024819D01*
X155308095Y-74120057D02*
X155355714Y-74072438D01*
X155355714Y-74072438D02*
X155450952Y-74024819D01*
X155450952Y-74024819D02*
X155689047Y-74024819D01*
X155689047Y-74024819D02*
X155784285Y-74072438D01*
X155784285Y-74072438D02*
X155831904Y-74120057D01*
X155831904Y-74120057D02*
X155879523Y-74215295D01*
X155879523Y-74215295D02*
X155879523Y-74310533D01*
X155879523Y-74310533D02*
X155831904Y-74453390D01*
X155831904Y-74453390D02*
X155260476Y-75024819D01*
X155260476Y-75024819D02*
X155879523Y-75024819D01*
X157098571Y-74964819D02*
X157098571Y-73964819D01*
X157098571Y-74441009D02*
X157669999Y-74441009D01*
X157669999Y-74964819D02*
X157669999Y-73964819D01*
X158669999Y-74964819D02*
X158098571Y-74964819D01*
X158384285Y-74964819D02*
X158384285Y-73964819D01*
X158384285Y-73964819D02*
X158289047Y-74107676D01*
X158289047Y-74107676D02*
X158193809Y-74202914D01*
X158193809Y-74202914D02*
X158098571Y-74250533D01*
X159622380Y-74964819D02*
X159050952Y-74964819D01*
X159336666Y-74964819D02*
X159336666Y-73964819D01*
X159336666Y-73964819D02*
X159241428Y-74107676D01*
X159241428Y-74107676D02*
X159146190Y-74202914D01*
X159146190Y-74202914D02*
X159050952Y-74250533D01*
X160003333Y-74679104D02*
X160479523Y-74679104D01*
X159908095Y-74964819D02*
X160241428Y-73964819D01*
X160241428Y-73964819D02*
X160574761Y-74964819D01*
X160860476Y-74679104D02*
X161336666Y-74679104D01*
X160765238Y-74964819D02*
X161098571Y-73964819D01*
X161098571Y-73964819D02*
X161431904Y-74964819D01*
X162289047Y-74964819D02*
X161717619Y-74964819D01*
X162003333Y-74964819D02*
X162003333Y-73964819D01*
X162003333Y-73964819D02*
X161908095Y-74107676D01*
X161908095Y-74107676D02*
X161812857Y-74202914D01*
X161812857Y-74202914D02*
X161717619Y-74250533D01*
X177466666Y-126404819D02*
X177466666Y-127119104D01*
X177466666Y-127119104D02*
X177419047Y-127261961D01*
X177419047Y-127261961D02*
X177323809Y-127357200D01*
X177323809Y-127357200D02*
X177180952Y-127404819D01*
X177180952Y-127404819D02*
X177085714Y-127404819D01*
X177895238Y-126500057D02*
X177942857Y-126452438D01*
X177942857Y-126452438D02*
X178038095Y-126404819D01*
X178038095Y-126404819D02*
X178276190Y-126404819D01*
X178276190Y-126404819D02*
X178371428Y-126452438D01*
X178371428Y-126452438D02*
X178419047Y-126500057D01*
X178419047Y-126500057D02*
X178466666Y-126595295D01*
X178466666Y-126595295D02*
X178466666Y-126690533D01*
X178466666Y-126690533D02*
X178419047Y-126833390D01*
X178419047Y-126833390D02*
X177847619Y-127404819D01*
X177847619Y-127404819D02*
X178466666Y-127404819D01*
X169664819Y-120453809D02*
X169664819Y-120263333D01*
X169664819Y-120263333D02*
X169712438Y-120168095D01*
X169712438Y-120168095D02*
X169807676Y-120072857D01*
X169807676Y-120072857D02*
X169998152Y-120025238D01*
X169998152Y-120025238D02*
X170331485Y-120025238D01*
X170331485Y-120025238D02*
X170521961Y-120072857D01*
X170521961Y-120072857D02*
X170617200Y-120168095D01*
X170617200Y-120168095D02*
X170664819Y-120263333D01*
X170664819Y-120263333D02*
X170664819Y-120453809D01*
X170664819Y-120453809D02*
X170617200Y-120549047D01*
X170617200Y-120549047D02*
X170521961Y-120644285D01*
X170521961Y-120644285D02*
X170331485Y-120691904D01*
X170331485Y-120691904D02*
X169998152Y-120691904D01*
X169998152Y-120691904D02*
X169807676Y-120644285D01*
X169807676Y-120644285D02*
X169712438Y-120549047D01*
X169712438Y-120549047D02*
X169664819Y-120453809D01*
X169998152Y-119168095D02*
X170664819Y-119168095D01*
X169998152Y-119596666D02*
X170521961Y-119596666D01*
X170521961Y-119596666D02*
X170617200Y-119549047D01*
X170617200Y-119549047D02*
X170664819Y-119453809D01*
X170664819Y-119453809D02*
X170664819Y-119310952D01*
X170664819Y-119310952D02*
X170617200Y-119215714D01*
X170617200Y-119215714D02*
X170569580Y-119168095D01*
X169998152Y-118834761D02*
X169998152Y-118453809D01*
X169664819Y-118691904D02*
X170521961Y-118691904D01*
X170521961Y-118691904D02*
X170617200Y-118644285D01*
X170617200Y-118644285D02*
X170664819Y-118549047D01*
X170664819Y-118549047D02*
X170664819Y-118453809D01*
X169998152Y-118120475D02*
X170998152Y-118120475D01*
X170045771Y-118120475D02*
X169998152Y-118025237D01*
X169998152Y-118025237D02*
X169998152Y-117834761D01*
X169998152Y-117834761D02*
X170045771Y-117739523D01*
X170045771Y-117739523D02*
X170093390Y-117691904D01*
X170093390Y-117691904D02*
X170188628Y-117644285D01*
X170188628Y-117644285D02*
X170474342Y-117644285D01*
X170474342Y-117644285D02*
X170569580Y-117691904D01*
X170569580Y-117691904D02*
X170617200Y-117739523D01*
X170617200Y-117739523D02*
X170664819Y-117834761D01*
X170664819Y-117834761D02*
X170664819Y-118025237D01*
X170664819Y-118025237D02*
X170617200Y-118120475D01*
X169998152Y-116787142D02*
X170664819Y-116787142D01*
X169998152Y-117215713D02*
X170521961Y-117215713D01*
X170521961Y-117215713D02*
X170617200Y-117168094D01*
X170617200Y-117168094D02*
X170664819Y-117072856D01*
X170664819Y-117072856D02*
X170664819Y-116929999D01*
X170664819Y-116929999D02*
X170617200Y-116834761D01*
X170617200Y-116834761D02*
X170569580Y-116787142D01*
X169998152Y-116453808D02*
X169998152Y-116072856D01*
X169664819Y-116310951D02*
X170521961Y-116310951D01*
X170521961Y-116310951D02*
X170617200Y-116263332D01*
X170617200Y-116263332D02*
X170664819Y-116168094D01*
X170664819Y-116168094D02*
X170664819Y-116072856D01*
X177476666Y-126404819D02*
X177476666Y-127119104D01*
X177476666Y-127119104D02*
X177429047Y-127261961D01*
X177429047Y-127261961D02*
X177333809Y-127357200D01*
X177333809Y-127357200D02*
X177190952Y-127404819D01*
X177190952Y-127404819D02*
X177095714Y-127404819D01*
X177905238Y-126500057D02*
X177952857Y-126452438D01*
X177952857Y-126452438D02*
X178048095Y-126404819D01*
X178048095Y-126404819D02*
X178286190Y-126404819D01*
X178286190Y-126404819D02*
X178381428Y-126452438D01*
X178381428Y-126452438D02*
X178429047Y-126500057D01*
X178429047Y-126500057D02*
X178476666Y-126595295D01*
X178476666Y-126595295D02*
X178476666Y-126690533D01*
X178476666Y-126690533D02*
X178429047Y-126833390D01*
X178429047Y-126833390D02*
X177857619Y-127404819D01*
X177857619Y-127404819D02*
X178476666Y-127404819D01*
X167993333Y-46259580D02*
X167945714Y-46307200D01*
X167945714Y-46307200D02*
X167802857Y-46354819D01*
X167802857Y-46354819D02*
X167707619Y-46354819D01*
X167707619Y-46354819D02*
X167564762Y-46307200D01*
X167564762Y-46307200D02*
X167469524Y-46211961D01*
X167469524Y-46211961D02*
X167421905Y-46116723D01*
X167421905Y-46116723D02*
X167374286Y-45926247D01*
X167374286Y-45926247D02*
X167374286Y-45783390D01*
X167374286Y-45783390D02*
X167421905Y-45592914D01*
X167421905Y-45592914D02*
X167469524Y-45497676D01*
X167469524Y-45497676D02*
X167564762Y-45402438D01*
X167564762Y-45402438D02*
X167707619Y-45354819D01*
X167707619Y-45354819D02*
X167802857Y-45354819D01*
X167802857Y-45354819D02*
X167945714Y-45402438D01*
X167945714Y-45402438D02*
X167993333Y-45450057D01*
X168374286Y-45450057D02*
X168421905Y-45402438D01*
X168421905Y-45402438D02*
X168517143Y-45354819D01*
X168517143Y-45354819D02*
X168755238Y-45354819D01*
X168755238Y-45354819D02*
X168850476Y-45402438D01*
X168850476Y-45402438D02*
X168898095Y-45450057D01*
X168898095Y-45450057D02*
X168945714Y-45545295D01*
X168945714Y-45545295D02*
X168945714Y-45640533D01*
X168945714Y-45640533D02*
X168898095Y-45783390D01*
X168898095Y-45783390D02*
X168326667Y-46354819D01*
X168326667Y-46354819D02*
X168945714Y-46354819D01*
X153828095Y-125074819D02*
X153828095Y-125884342D01*
X153828095Y-125884342D02*
X153875714Y-125979580D01*
X153875714Y-125979580D02*
X153923333Y-126027200D01*
X153923333Y-126027200D02*
X154018571Y-126074819D01*
X154018571Y-126074819D02*
X154209047Y-126074819D01*
X154209047Y-126074819D02*
X154304285Y-126027200D01*
X154304285Y-126027200D02*
X154351904Y-125979580D01*
X154351904Y-125979580D02*
X154399523Y-125884342D01*
X154399523Y-125884342D02*
X154399523Y-125074819D01*
X155399523Y-126074819D02*
X154828095Y-126074819D01*
X155113809Y-126074819D02*
X155113809Y-125074819D01*
X155113809Y-125074819D02*
X155018571Y-125217676D01*
X155018571Y-125217676D02*
X154923333Y-125312914D01*
X154923333Y-125312914D02*
X154828095Y-125360533D01*
X156498571Y-126094819D02*
X156498571Y-125094819D01*
X156498571Y-125571009D02*
X157069999Y-125571009D01*
X157069999Y-126094819D02*
X157069999Y-125094819D01*
X158069999Y-126094819D02*
X157498571Y-126094819D01*
X157784285Y-126094819D02*
X157784285Y-125094819D01*
X157784285Y-125094819D02*
X157689047Y-125237676D01*
X157689047Y-125237676D02*
X157593809Y-125332914D01*
X157593809Y-125332914D02*
X157498571Y-125380533D01*
X159022380Y-126094819D02*
X158450952Y-126094819D01*
X158736666Y-126094819D02*
X158736666Y-125094819D01*
X158736666Y-125094819D02*
X158641428Y-125237676D01*
X158641428Y-125237676D02*
X158546190Y-125332914D01*
X158546190Y-125332914D02*
X158450952Y-125380533D01*
X159403333Y-125809104D02*
X159879523Y-125809104D01*
X159308095Y-126094819D02*
X159641428Y-125094819D01*
X159641428Y-125094819D02*
X159974761Y-126094819D01*
X160260476Y-125809104D02*
X160736666Y-125809104D01*
X160165238Y-126094819D02*
X160498571Y-125094819D01*
X160498571Y-125094819D02*
X160831904Y-126094819D01*
X161689047Y-126094819D02*
X161117619Y-126094819D01*
X161403333Y-126094819D02*
X161403333Y-125094819D01*
X161403333Y-125094819D02*
X161308095Y-125237676D01*
X161308095Y-125237676D02*
X161212857Y-125332914D01*
X161212857Y-125332914D02*
X161117619Y-125380533D01*
X167663333Y-87177080D02*
X167615714Y-87224700D01*
X167615714Y-87224700D02*
X167472857Y-87272319D01*
X167472857Y-87272319D02*
X167377619Y-87272319D01*
X167377619Y-87272319D02*
X167234762Y-87224700D01*
X167234762Y-87224700D02*
X167139524Y-87129461D01*
X167139524Y-87129461D02*
X167091905Y-87034223D01*
X167091905Y-87034223D02*
X167044286Y-86843747D01*
X167044286Y-86843747D02*
X167044286Y-86700890D01*
X167044286Y-86700890D02*
X167091905Y-86510414D01*
X167091905Y-86510414D02*
X167139524Y-86415176D01*
X167139524Y-86415176D02*
X167234762Y-86319938D01*
X167234762Y-86319938D02*
X167377619Y-86272319D01*
X167377619Y-86272319D02*
X167472857Y-86272319D01*
X167472857Y-86272319D02*
X167615714Y-86319938D01*
X167615714Y-86319938D02*
X167663333Y-86367557D01*
X168615714Y-87272319D02*
X168044286Y-87272319D01*
X168330000Y-87272319D02*
X168330000Y-86272319D01*
X168330000Y-86272319D02*
X168234762Y-86415176D01*
X168234762Y-86415176D02*
X168139524Y-86510414D01*
X168139524Y-86510414D02*
X168044286Y-86558033D01*
D12*
%TO.C,C1*%
X166615000Y-119800000D02*
X166615000Y-123710000D01*
X168485000Y-119800000D02*
X166615000Y-119800000D01*
X168485000Y-123710000D02*
X168485000Y-119800000D01*
%TO.C,J2*%
X172909000Y-78380000D02*
X182830000Y-78380000D01*
X172909000Y-93500000D02*
X172909000Y-78380000D01*
X172909000Y-93500000D02*
X182830000Y-93500000D01*
X175869000Y-93500000D02*
X175869000Y-78380000D01*
X176895000Y-79870000D02*
X176931000Y-79905000D01*
X176895000Y-84870000D02*
X176931000Y-84905000D01*
X177101000Y-79665000D02*
X177147000Y-79712000D01*
X177101000Y-84665000D02*
X177147000Y-84712000D01*
X179193000Y-82167000D02*
X179239000Y-82214000D01*
X179193000Y-87167000D02*
X179239000Y-87214000D01*
X179409000Y-81974000D02*
X179444000Y-82009000D01*
X179409000Y-86974000D02*
X179444000Y-87009000D01*
X180770000Y-93500000D02*
X180770000Y-78380000D01*
X182270000Y-93500000D02*
X182270000Y-78380000D01*
X182330000Y-93740000D02*
X183070000Y-93740000D01*
X182830000Y-93500000D02*
X182830000Y-78380000D01*
X183070000Y-93740000D02*
X183070000Y-93240000D01*
X176634573Y-91623042D02*
G75*
G02*
X176635000Y-90256000I1535420J683041D01*
G01*
X177486958Y-89404573D02*
G75*
G02*
X178854000Y-89405000I683042J-1535427D01*
G01*
X178853042Y-92475427D02*
G75*
G02*
X177486000Y-92475000I-683041J1535420D01*
G01*
X179704756Y-90256682D02*
G75*
G02*
X179850000Y-90940000I-1534756J-683318D01*
G01*
X179850253Y-90911195D02*
G75*
G02*
X179705000Y-91624000I-1680254J-28806D01*
G01*
X179850000Y-80940000D02*
G75*
G02*
X176490000Y-80940000I-1680000J0D01*
G01*
X176490000Y-80940000D02*
G75*
G02*
X179850000Y-80940000I1680000J0D01*
G01*
X179850000Y-85940000D02*
G75*
G02*
X176490000Y-85940000I-1680000J0D01*
G01*
X176490000Y-85940000D02*
G75*
G02*
X179850000Y-85940000I1680000J0D01*
G01*
%TO.C,C2*%
X166685000Y-110630000D02*
X166685000Y-114540000D01*
X168555000Y-110630000D02*
X166685000Y-110630000D01*
X168555000Y-114540000D02*
X168555000Y-110630000D01*
%TO.C,U1*%
X154210000Y-84610000D02*
X154210000Y-92470000D01*
X154210000Y-92470000D02*
X164490000Y-92470000D01*
X156700000Y-84670000D02*
X156700000Y-92410000D01*
X156700000Y-92410000D02*
X162000000Y-92410000D01*
X158350000Y-84670000D02*
X156700000Y-84670000D01*
X162000000Y-84670000D02*
X160350000Y-84670000D01*
X162000000Y-92410000D02*
X162000000Y-84670000D01*
X164490000Y-84610000D02*
X154210000Y-84610000D01*
X164490000Y-92470000D02*
X164490000Y-84610000D01*
X160350000Y-84670000D02*
G75*
G02*
X158350000Y-84670000I-1000000J0D01*
G01*
%TO.C,C2*%
X166965000Y-78400000D02*
X166965000Y-82310000D01*
X168835000Y-78400000D02*
X166965000Y-78400000D01*
X168835000Y-82310000D02*
X168835000Y-78400000D01*
%TO.C,C1*%
X167205000Y-55780000D02*
X167205000Y-59690000D01*
X169075000Y-55780000D02*
X167205000Y-55780000D01*
X169075000Y-59690000D02*
X169075000Y-55780000D01*
%TO.C,J1*%
X121295000Y-78190000D02*
X121295000Y-78690000D01*
X121535000Y-78430000D02*
X121535000Y-93550000D01*
X122035000Y-78190000D02*
X121295000Y-78190000D01*
X122095000Y-78430000D02*
X122095000Y-93550000D01*
X123595000Y-78430000D02*
X123595000Y-93550000D01*
X124956000Y-84956000D02*
X124921000Y-84921000D01*
X124956000Y-89956000D02*
X124921000Y-89921000D01*
X125172000Y-84763000D02*
X125126000Y-84716000D01*
X125172000Y-89763000D02*
X125126000Y-89716000D01*
X127264000Y-87265000D02*
X127218000Y-87218000D01*
X127264000Y-92265000D02*
X127218000Y-92218000D01*
X127470000Y-87060000D02*
X127434000Y-87025000D01*
X127470000Y-92060000D02*
X127434000Y-92025000D01*
X128496000Y-78430000D02*
X128496000Y-93550000D01*
X131456000Y-78430000D02*
X121535000Y-78430000D01*
X131456000Y-78430000D02*
X131456000Y-93550000D01*
X131456000Y-93550000D02*
X121535000Y-93550000D01*
X124514747Y-81018805D02*
G75*
G02*
X124660000Y-80306000I1680254J28806D01*
G01*
X124660244Y-81673318D02*
G75*
G02*
X124515000Y-80990000I1534756J683318D01*
G01*
X125511958Y-79454573D02*
G75*
G02*
X126879000Y-79455000I683041J-1535420D01*
G01*
X126878042Y-82525427D02*
G75*
G02*
X125511000Y-82525000I-683042J1535427D01*
G01*
X127730427Y-80306958D02*
G75*
G02*
X127730000Y-81674000I-1535420J-683041D01*
G01*
X127875000Y-85990000D02*
G75*
G02*
X124515000Y-85990000I-1680000J0D01*
G01*
X124515000Y-85990000D02*
G75*
G02*
X127875000Y-85990000I1680000J0D01*
G01*
X127875000Y-90990000D02*
G75*
G02*
X124515000Y-90990000I-1680000J0D01*
G01*
X124515000Y-90990000D02*
G75*
G02*
X127875000Y-90990000I1680000J0D01*
G01*
%TO.C,U2*%
X154010000Y-107680000D02*
X154010000Y-115540000D01*
X154010000Y-115540000D02*
X164290000Y-115540000D01*
X156500000Y-107740000D02*
X156500000Y-115480000D01*
X156500000Y-115480000D02*
X161800000Y-115480000D01*
X158150000Y-107740000D02*
X156500000Y-107740000D01*
X161800000Y-107740000D02*
X160150000Y-107740000D01*
X161800000Y-115480000D02*
X161800000Y-107740000D01*
X164290000Y-107680000D02*
X154010000Y-107680000D01*
X164290000Y-115540000D02*
X164290000Y-107680000D01*
X160150000Y-107740000D02*
G75*
G02*
X158150000Y-107740000I-1000000J0D01*
G01*
%TO.C,J1*%
X121015000Y-110420000D02*
X121015000Y-110920000D01*
X121255000Y-110660000D02*
X121255000Y-125780000D01*
X121755000Y-110420000D02*
X121015000Y-110420000D01*
X121815000Y-110660000D02*
X121815000Y-125780000D01*
X123315000Y-110660000D02*
X123315000Y-125780000D01*
X124676000Y-117186000D02*
X124641000Y-117151000D01*
X124676000Y-122186000D02*
X124641000Y-122151000D01*
X124892000Y-116993000D02*
X124846000Y-116946000D01*
X124892000Y-121993000D02*
X124846000Y-121946000D01*
X126984000Y-119495000D02*
X126938000Y-119448000D01*
X126984000Y-124495000D02*
X126938000Y-124448000D01*
X127190000Y-119290000D02*
X127154000Y-119255000D01*
X127190000Y-124290000D02*
X127154000Y-124255000D01*
X128216000Y-110660000D02*
X128216000Y-125780000D01*
X131176000Y-110660000D02*
X121255000Y-110660000D01*
X131176000Y-110660000D02*
X131176000Y-125780000D01*
X131176000Y-125780000D02*
X121255000Y-125780000D01*
X124234747Y-113248805D02*
G75*
G02*
X124380000Y-112536000I1680254J28806D01*
G01*
X124380244Y-113903318D02*
G75*
G02*
X124235000Y-113220000I1534756J683318D01*
G01*
X125231958Y-111684573D02*
G75*
G02*
X126599000Y-111685000I683041J-1535420D01*
G01*
X126598042Y-114755427D02*
G75*
G02*
X125231000Y-114755000I-683042J1535427D01*
G01*
X127450427Y-112536958D02*
G75*
G02*
X127450000Y-113904000I-1535420J-683041D01*
G01*
X127595000Y-118220000D02*
G75*
G02*
X124235000Y-118220000I-1680000J0D01*
G01*
X124235000Y-118220000D02*
G75*
G02*
X127595000Y-118220000I1680000J0D01*
G01*
X127595000Y-123220000D02*
G75*
G02*
X124235000Y-123220000I-1680000J0D01*
G01*
X124235000Y-123220000D02*
G75*
G02*
X127595000Y-123220000I1680000J0D01*
G01*
X121605000Y-46400000D02*
X121605000Y-46900000D01*
X121845000Y-46640000D02*
X121845000Y-61760000D01*
X122345000Y-46400000D02*
X121605000Y-46400000D01*
X122405000Y-46640000D02*
X122405000Y-61760000D01*
X123905000Y-46640000D02*
X123905000Y-61760000D01*
X125266000Y-53166000D02*
X125231000Y-53131000D01*
X125266000Y-58166000D02*
X125231000Y-58131000D01*
X125482000Y-52973000D02*
X125436000Y-52926000D01*
X125482000Y-57973000D02*
X125436000Y-57926000D01*
X127574000Y-55475000D02*
X127528000Y-55428000D01*
X127574000Y-60475000D02*
X127528000Y-60428000D01*
X127780000Y-55270000D02*
X127744000Y-55235000D01*
X127780000Y-60270000D02*
X127744000Y-60235000D01*
X128806000Y-46640000D02*
X128806000Y-61760000D01*
X131766000Y-46640000D02*
X121845000Y-46640000D01*
X131766000Y-46640000D02*
X131766000Y-61760000D01*
X131766000Y-61760000D02*
X121845000Y-61760000D01*
X124824747Y-49228805D02*
G75*
G02*
X124970000Y-48516000I1680254J28806D01*
G01*
X124970244Y-49883318D02*
G75*
G02*
X124825000Y-49200000I1534756J683318D01*
G01*
X125821958Y-47664573D02*
G75*
G02*
X127189000Y-47665000I683041J-1535420D01*
G01*
X127188042Y-50735427D02*
G75*
G02*
X125821000Y-50735000I-683042J1535427D01*
G01*
X128040427Y-48516958D02*
G75*
G02*
X128040000Y-49884000I-1535420J-683041D01*
G01*
X128185000Y-54200000D02*
G75*
G02*
X124825000Y-54200000I-1680000J0D01*
G01*
X124825000Y-54200000D02*
G75*
G02*
X128185000Y-54200000I1680000J0D01*
G01*
X128185000Y-59200000D02*
G75*
G02*
X124825000Y-59200000I-1680000J0D01*
G01*
X124825000Y-59200000D02*
G75*
G02*
X128185000Y-59200000I1680000J0D01*
G01*
%TO.C,U2*%
X154600000Y-43660000D02*
X154600000Y-51520000D01*
X154600000Y-51520000D02*
X164880000Y-51520000D01*
X157090000Y-43720000D02*
X157090000Y-51460000D01*
X157090000Y-51460000D02*
X162390000Y-51460000D01*
X158740000Y-43720000D02*
X157090000Y-43720000D01*
X162390000Y-43720000D02*
X160740000Y-43720000D01*
X162390000Y-51460000D02*
X162390000Y-43720000D01*
X164880000Y-43660000D02*
X154600000Y-43660000D01*
X164880000Y-51520000D02*
X164880000Y-43660000D01*
X160740000Y-43720000D02*
G75*
G02*
X158740000Y-43720000I-1000000J0D01*
G01*
%TO.C,J2*%
X173219000Y-46590000D02*
X183140000Y-46590000D01*
X173219000Y-61710000D02*
X173219000Y-46590000D01*
X173219000Y-61710000D02*
X183140000Y-61710000D01*
X176179000Y-61710000D02*
X176179000Y-46590000D01*
X177205000Y-48080000D02*
X177241000Y-48115000D01*
X177205000Y-53080000D02*
X177241000Y-53115000D01*
X177411000Y-47875000D02*
X177457000Y-47922000D01*
X177411000Y-52875000D02*
X177457000Y-52922000D01*
X179503000Y-50377000D02*
X179549000Y-50424000D01*
X179503000Y-55377000D02*
X179549000Y-55424000D01*
X179719000Y-50184000D02*
X179754000Y-50219000D01*
X179719000Y-55184000D02*
X179754000Y-55219000D01*
X181080000Y-61710000D02*
X181080000Y-46590000D01*
X182580000Y-61710000D02*
X182580000Y-46590000D01*
X182640000Y-61950000D02*
X183380000Y-61950000D01*
X183140000Y-61710000D02*
X183140000Y-46590000D01*
X183380000Y-61950000D02*
X183380000Y-61450000D01*
X176944573Y-59833042D02*
G75*
G02*
X176945000Y-58466000I1535420J683041D01*
G01*
X177796958Y-57614573D02*
G75*
G02*
X179164000Y-57615000I683042J-1535427D01*
G01*
X179163042Y-60685427D02*
G75*
G02*
X177796000Y-60685000I-683041J1535420D01*
G01*
X180014756Y-58466682D02*
G75*
G02*
X180160000Y-59150000I-1534756J-683318D01*
G01*
X180160253Y-59121195D02*
G75*
G02*
X180015000Y-59834000I-1680254J-28806D01*
G01*
X180160000Y-49150000D02*
G75*
G02*
X176800000Y-49150000I-1680000J0D01*
G01*
X176800000Y-49150000D02*
G75*
G02*
X180160000Y-49150000I1680000J0D01*
G01*
X180160000Y-54150000D02*
G75*
G02*
X176800000Y-54150000I-1680000J0D01*
G01*
X176800000Y-54150000D02*
G75*
G02*
X180160000Y-54150000I1680000J0D01*
G01*
%TO.C,U1*%
X154520000Y-52820000D02*
X154520000Y-60680000D01*
X154520000Y-60680000D02*
X164800000Y-60680000D01*
X157010000Y-52880000D02*
X157010000Y-60620000D01*
X157010000Y-60620000D02*
X162310000Y-60620000D01*
X158660000Y-52880000D02*
X157010000Y-52880000D01*
X162310000Y-52880000D02*
X160660000Y-52880000D01*
X162310000Y-60620000D02*
X162310000Y-52880000D01*
X164800000Y-52820000D02*
X154520000Y-52820000D01*
X164800000Y-60680000D02*
X164800000Y-52820000D01*
X160660000Y-52880000D02*
G75*
G02*
X158660000Y-52880000I-1000000J0D01*
G01*
%TO.C,U2*%
X154290000Y-75450000D02*
X154290000Y-83310000D01*
X154290000Y-83310000D02*
X164570000Y-83310000D01*
X156780000Y-75510000D02*
X156780000Y-83250000D01*
X156780000Y-83250000D02*
X162080000Y-83250000D01*
X158430000Y-75510000D02*
X156780000Y-75510000D01*
X162080000Y-75510000D02*
X160430000Y-75510000D01*
X162080000Y-83250000D02*
X162080000Y-75510000D01*
X164570000Y-75450000D02*
X154290000Y-75450000D01*
X164570000Y-83310000D02*
X164570000Y-75450000D01*
X160430000Y-75510000D02*
G75*
G02*
X158430000Y-75510000I-1000000J0D01*
G01*
%TO.C,J2*%
X172629000Y-110610000D02*
X182550000Y-110610000D01*
X172629000Y-125730000D02*
X172629000Y-110610000D01*
X172629000Y-125730000D02*
X182550000Y-125730000D01*
X175589000Y-125730000D02*
X175589000Y-110610000D01*
X176615000Y-112100000D02*
X176651000Y-112135000D01*
X176615000Y-117100000D02*
X176651000Y-117135000D01*
X176821000Y-111895000D02*
X176867000Y-111942000D01*
X176821000Y-116895000D02*
X176867000Y-116942000D01*
X178913000Y-114397000D02*
X178959000Y-114444000D01*
X178913000Y-119397000D02*
X178959000Y-119444000D01*
X179129000Y-114204000D02*
X179164000Y-114239000D01*
X179129000Y-119204000D02*
X179164000Y-119239000D01*
X180490000Y-125730000D02*
X180490000Y-110610000D01*
X181990000Y-125730000D02*
X181990000Y-110610000D01*
X182050000Y-125970000D02*
X182790000Y-125970000D01*
X182550000Y-125730000D02*
X182550000Y-110610000D01*
X182790000Y-125970000D02*
X182790000Y-125470000D01*
X176354573Y-123853042D02*
G75*
G02*
X176355000Y-122486000I1535420J683041D01*
G01*
X177206958Y-121634573D02*
G75*
G02*
X178574000Y-121635000I683042J-1535427D01*
G01*
X178573042Y-124705427D02*
G75*
G02*
X177206000Y-124705000I-683041J1535420D01*
G01*
X179424756Y-122486682D02*
G75*
G02*
X179570000Y-123170000I-1534756J-683318D01*
G01*
X179570253Y-123141195D02*
G75*
G02*
X179425000Y-123854000I-1680254J-28806D01*
G01*
X179570000Y-113170000D02*
G75*
G02*
X176210000Y-113170000I-1680000J0D01*
G01*
X176210000Y-113170000D02*
G75*
G02*
X179570000Y-113170000I1680000J0D01*
G01*
X179570000Y-118170000D02*
G75*
G02*
X176210000Y-118170000I-1680000J0D01*
G01*
X176210000Y-118170000D02*
G75*
G02*
X179570000Y-118170000I1680000J0D01*
G01*
%TO.C,C2*%
X167275000Y-46610000D02*
X167275000Y-50520000D01*
X169145000Y-46610000D02*
X167275000Y-46610000D01*
X169145000Y-50520000D02*
X169145000Y-46610000D01*
%TO.C,U1*%
X153930000Y-116840000D02*
X153930000Y-124700000D01*
X153930000Y-124700000D02*
X164210000Y-124700000D01*
X156420000Y-116900000D02*
X156420000Y-124640000D01*
X156420000Y-124640000D02*
X161720000Y-124640000D01*
X158070000Y-116900000D02*
X156420000Y-116900000D01*
X161720000Y-116900000D02*
X160070000Y-116900000D01*
X161720000Y-124640000D02*
X161720000Y-116900000D01*
X164210000Y-116840000D02*
X153930000Y-116840000D01*
X164210000Y-124700000D02*
X164210000Y-116840000D01*
X160070000Y-116900000D02*
G75*
G02*
X158070000Y-116900000I-1000000J0D01*
G01*
%TO.C,C1*%
X166895000Y-87570000D02*
X166895000Y-91480000D01*
X168765000Y-87570000D02*
X166895000Y-87570000D01*
X168765000Y-91480000D02*
X168765000Y-87570000D01*
%TD*%
M02*
